<?xml version="1.0" encoding="UTF-8" standalone="no"?>
<svg
   version="1.0"
   width="960.000000pt"
   height="960.000000pt"
   viewBox="0 0 960.000000 960.000000"
   preserveAspectRatio="xMidYMid meet"
   id="svg35"
   xmlns="http://www.w3.org/2000/svg"
   xmlns:svg="http://www.w3.org/2000/svg">
  <defs
     id="defs35" />
  <metadata
     id="metadata1">
Created by potrace 1.16, written by Peter Selinger 2001-2019
</metadata>
  <g
     transform="translate(0.000000,960.000000) scale(0.100000,-0.100000)"
     fill="#000000"
     stroke="none"
     id="g35">
    <path
       d="M570 4785 l0 -4275 4275 0 4275 0 0 4275 0 4275 -4275 0 -4275 0 0 -4275z m8500 3815 l0 -400 -1880 0 -1880 0 0 275 0 275 -1060 0 -1060 0 0 -275 0 -275 -140 0 -140 0 0 270 0 270 -1060 0 -1060 0 0 -270 0 -270 -85 0 -85 0 0 400 0 400 4225 0 4225 0 0 -400z m0 -870 l0 -400 -4215 0 -4215 0 0 400 0 400 4215 0 4215 0 0 -400z m0 -2395 l0 -1945 -1333 0 c-734 0 -2637 -3 -4230 -7 l-2897 -6 0 1951 0 1952 4230 0 4230 0 0 -1945z m0 -3385 l0 -1400 -4230 0 -4230 0 0 1395 0 1395 3013 3 c1656 1 3560 3 4230 5 l1217 2 0 -1400z"
       id="path1" />
    <path
       d="M5860 8625 l0 -125 -140 0 c-118 0 -140 -2 -140 -15 0 -13 22 -15 140 -15 l140 0 0 -110 c0 -91 3 -110 15 -110 12 0 15 19 15 110 l0 110 109 0 c118 0 141 4 141 26 0 11 -25 14 -125 14 l-125 0 0 120 c0 100 -2 120 -15 120 -13 0 -15 -21 -15 -125z"
       id="path2" />
    <path
       d="M2330 7735 l0 -225 2530 0 2530 0 0 225 0 225 -2530 0 -2530 0 0 -225z m5020 0 l0 -185 -2490 0 -2490 0 0 185 0 185 2490 0 2490 0 0 -185z"
       id="path3" />
    <path
       d="M7550 7730 l0 -230 290 0 290 0 0 230 0 230 -290 0 -290 0 0 -230z"
       id="path4" />
    <path
       d="M1320 7915 c-16 -19 -21 -14 100 -101 l95 -69 -163 -3 c-160 -2 -162 -3 -162 -25 0 -22 0 -22 162 -19 l163 3 -105 -76 c-58 -42 -106 -80 -108 -84 -1 -5 4 -13 12 -20 12 -10 38 6 144 84 71 52 132 104 135 115 4 16 -7 30 -51 62 -32 23 -90 66 -129 95 -40 29 -75 53 -77 53 -2 0 -9 -7 -16 -15z"
       id="path5" />
    <path
       d="M1866 7920 c-118 -36 -187 -177 -140 -288 71 -172 344 -191 438 -30 13 24 26 61 28 83 3 34 0 40 -17 40 -15 0 -21 -9 -25 -35 -8 -47 -23 -72 -64 -108 -113 -99 -305 -37 -332 105 -10 52 22 120 74 160 70 53 165 56 236 8 27 -18 36 -21 36 -10 0 8 5 15 10 15 27 0 5 23 -42 45 -56 26 -143 32 -202 15z"
       id="path6" />
    <path
       d="M2143 7883 c7 -68 -7 -78 -78 -58 -56 17 -75 14 -75 -10 0 -13 34 -26 100 -39 14 -2 40 -8 58 -12 l32 -6 0 86 c0 81 -1 86 -21 86 -20 0 -21 -4 -16 -47z"
       id="path7" />
    <path
       d="M889 7867 c-36 -29 -93 -73 -127 -99 -52 -40 -60 -51 -54 -68 4 -12 66 -61 137 -110 99 -69 131 -87 142 -79 7 6 13 15 13 19 0 4 -48 40 -107 81 l-108 74 163 3 c154 2 162 4 162 22 0 19 -7 20 -162 20 l-161 0 99 76 c54 42 99 80 98 85 -3 25 -5 29 -16 29 -7 -1 -43 -24 -79 -53z"
       id="path8" />
    <path
       d="M8310 7900 c0 -20 7 -20 285 -20 278 0 285 0 285 20 0 20 -7 20 -285 20 -278 0 -285 0 -285 -20z"
       id="path9" />
    <path
       d="M8323 7723 c-7 -2 -13 -14 -13 -25 0 -19 4 -20 53 -14 28 3 157 6 285 6 225 0 232 1 232 20 0 20 -6 20 -272 19 -150 0 -279 -3 -285 -6z"
       id="path10" />
    <path
       d="M8448 7543 c-130 -3 -138 -5 -138 -23 0 -19 7 -20 103 -20 57 0 186 3 285 7 168 6 182 8 182 25 0 19 -17 20 -432 11z"
       id="path11" />
    <path
       d="M8348 6981 c-119 -38 -207 -114 -256 -219 -23 -49 -27 -70 -27 -152 0 -88 3 -101 33 -162 78 -159 263 -249 455 -221 143 20 253 95 318 216 29 54 34 73 37 152 3 75 0 100 -18 148 -41 108 -159 210 -284 243 -71 19 -189 17 -258 -5z"
       id="path12" />
    <path
       d="M1270 6580 l0 -410 2665 0 2665 0 0 410 0 410 -2665 0 -2665 0 0 -410z"
       id="path13" />
    <path
       d="M6960 6585 l0 -385 435 0 435 0 0 385 0 385 -435 0 -435 0 0 -385z"
       id="path14" />
    <path
       d="M1320 5795 l0 -225 285 0 285 0 0 225 0 225 -285 0 -285 0 0 -225z"
       id="path15" />
    <path
       d="M2070 5790 l0 -230 290 0 290 0 0 230 0 230 -290 0 -290 0 0 -230z"
       id="path16" />
    <path
       d="M2830 5790 l0 -230 285 0 285 0 0 230 0 230 -285 0 -285 0 0 -230z"
       id="path17" />
    <path
       d="M3590 5790 l0 -230 285 0 285 0 0 230 0 230 -285 0 -285 0 0 -230z"
       id="path18" />
    <path
       d="M4340 5790 l0 -230 285 0 285 0 0 230 0 230 -285 0 -285 0 0 -230z"
       id="path19" />
    <path
       d="M5090 5790 l0 -230 288 2 287 3 0 225 0 225 -287 3 -288 2 0 -230z"
       id="path20" />
    <path
       d="M5850 5790 l0 -230 285 0 285 0 0 230 0 230 -285 0 -285 0 0 -230z"
       id="path21" />
    <path
       d="M1310 4895 l0 -565 2555 0 2555 0 0 565 0 565 -2555 0 -2555 0 0 -565z"
       id="path22" />
    <path
       d="M6830 4535 l0 -895 1015 0 1015 0 0 895 0 895 -1015 0 -1015 0 0 -895z"
       id="path23" />
    <path
       d="M1330 3920 l0 -290 2555 0 2555 0 0 290 0 290 -2555 0 -2555 0 0 -290z m5070 0 l0 -260 -2520 0 -2520 0 0 260 0 260 2520 0 2520 0 0 -260z"
       id="path24" />
    <path
       d="M5489 4026 c-3 -3 -103 -7 -224 -10 -123 -4 -220 -10 -220 -15 0 -5 56 -74 124 -152 l124 -143 29 35 c59 70 208 270 208 280 0 9 -33 13 -41 5z"
       id="path25" />
    <path
       d="M1320 2940 l0 -250 2650 0 2650 0 0 250 0 250 -2650 0 -2650 0 0 -250z"
       id="path26" />
    <path
       d="M1320 2435 l0 -165 2655 0 2655 0 0 165 0 165 -2655 0 -2655 0 0 -165z"
       id="path27" />
    <path
       d="M1320 1805 l0 -255 2645 0 2645 0 0 255 0 255 -2645 0 -2645 0 0 -255z"
       id="path28" />
    <path
       d="M1327 1463 c-4 -3 -7 -80 -7 -170 l0 -163 2645 0 2645 0 0 170 0 170 -2638 0 c-1451 0 -2642 -3 -2645 -7z"
       id="path29" />
    <path
       d="M2670 835 l0 -185 210 0 210 0 0 185 0 185 -210 0 -210 0 0 -185z"
       id="path30" />
    <path
       d="M3240 830 l0 -180 210 0 210 0 0 180 0 180 -210 0 -210 0 0 -180z"
       id="path31" />
    <path
       d="M3810 830 l0 -180 210 0 210 0 0 180 0 180 -210 0 -210 0 0 -180z"
       id="path32" />
    <path
       d="M4380 830 l0 -180 210 0 210 0 0 180 0 180 -210 0 -210 0 0 -180z"
       id="path33" />
    <path
       d="M4940 830 l0 -180 210 0 210 0 0 180 0 180 -210 0 -210 0 0 -180z"
       id="path34" />
    <path
       d="M5520 835 l0 -175 465 0 465 0 0 175 0 175 -465 0 -465 0 0 -175z"
       id="path35" />
  </g>
</svg>
