<?xml version="1.0" encoding="UTF-8"?>
<!-- Created with Inkscape (http://www.inkscape.org/) -->
<svg width="1280" height="1280" version="1.1" viewBox="0 0 1280 1280" xmlns="http://www.w3.org/2000/svg">
<path d="m203.28 206.61v855h855v-855h-855m850 6v80h-376v-55h-213v55h-27v-55h-213v55h-15v-80h844m-322 25v24l-28 1c4.6488 7.1533 20.335 4 28 4v21h5v-22h24v-5l-24 1v-24h-5m322 62v80h-843v-80h843m-675 17v45h507v-45h-507m523 0v46h58v-46h-58m-624 7 18 14c-6.9868 5e-3 -28.674-1.9453-30 6l30-1-19 15v2c5.3495 1.2889 8.7497-1.6744 13-4.7099 4.3197-3.0851 16.167-8.9353 15.534-15.252-0.64981-6.4849-23.528-23.048-27.534-16.039m79 5 1-5c-9.7289-4.567-21.43-6.0814-30.985 0.13348-11.635 7.5671-11.973 26.37-0.9213 34.646 9.3669 7.0141 23.674 7.121 32.813-0.46295 3.0185-2.5049 10.307-11.317 7.0447-15.654-2.1288-2.8298-4.2006 1.9455-4.8626 3.3572-4.5399 9.681-15.383 16.23-26.089 11.752-14.927-6.2432-15.751-24.158-1-31.199 7.9248-3.7829 15.473-0.13458 23 2.4275m-11 1c3.2583 6.0532 12.682 6.4971 19 7l1-17c-7.1158 1.1876-2.3897 6.8-6.6034 10.212-2.7248 2.2064-9.8161-0.77216-13.397-0.21216m632-8v2c17.528 4.1729 38.994 1 57 1-1.0718-6.4226-7.6895-5.1932-13-4.9606-13.961 0.61133-30.441-1.2675-44 1.9606m-761 18c2.8991 8.5221 20.64 23.14 30 21-3.1379-6.1422-11.735-11.365-18-14v-2c7.2283-1.7209 27.511 2.9214 29-6l-31 1v-1c6.8465-3.4949 16.759-9.9618 18-18l-28 19m664-18v35h-497v-35h497m97 18v5h57v-5h-57m0 18v5h57v-5h-57m73 28v139h-840v-139h840m-52 9.4676c-19.712 3.6937-32.645 27.155-22.647 45.532 7.3719 13.551 22.944 18.788 37.647 15.61 39.707-8.5839 23.816-68.415-15-61.142m-779 4.5324v60h61v-60h-61m679 5v46h58v-46h-58m-453 1v45h376v-45h-376m372 4v37h-368v-37h368m-591 67v41h86v-41h-86m91 0v41h86v-41h-86m96 0v41h86v-41h-86m93 0v41h86v-41h-86m90 0v41h86v-41h-86m92 0v41h86v-41h-86m268 3v41h85v-41h-85m94 52v55h-841v-55h841m-825 4v41h86v-41h-86m91 0v41h86v-41h-86m96 0v41h86v-41h-86m93 0v41h86v-41h-86m90 0v41h86v-41h-86m92 0v41h86v-41h-86m91 0v41h86v-41h-86m92 0v41h85v-41h-85m183 56-1 464h-1v-53h-844v-411h846m-674 10v397h502v-397h-502m498 5v388h-494v-388h494m169 401v48h-836v-48z" fill="#050505"/>
</svg>
