999
"DXF R12 Output" (www.mydxf.blogspot.com)
 0 
SECTION
 2 
HEADER
 9 
$ACADVER
 1 
AC1009
 9 
$EXTMIN
 10 
 0 
 20 
 0 
 9 
$EXTMAX
 10 
 8.5 
 20 
 11 
 0 
ENDSEC
 0 
SECTION
 2 
ENTITIES
0
LINE
8
Layer 1
10
21.394562
20
230.830282
11
76.421986
21
230.830282
0
LINE
8
Layer 1
10
76.421986
20
230.830282
11
76.421986
21
217.182080
0
LINE
8
Layer 1
10
76.421986
20
217.182080
11
21.394562
21
217.182080
0
LINE
8
Layer 1
10
21.394562
20
217.182080
11
21.394562
21
230.830282
0
LINE
8
Layer 1
10
84.816246
20
230.927874
11
139.843670
21
230.927874
0
LINE
8
Layer 1
10
139.843670
20
230.927874
11
139.843670
21
217.279672
0
LINE
8
Layer 1
10
139.843670
20
217.279672
11
84.816246
21
217.279672
0
LINE
8
Layer 1
10
84.816246
20
217.279672
11
84.816246
21
230.927874
0
LINE
8
Layer 1
10
62.133102
20
210.011616
11
194.909742
21
210.011616
0
LINE
8
Layer 1
10
194.909742
20
210.011616
11
194.909742
21
199.301016
0
LINE
8
Layer 1
10
194.909742
20
199.301016
11
62.133102
21
199.301016
0
LINE
8
Layer 1
10
62.133102
20
199.301016
11
62.133102
21
210.011616
0
LINE
8
Layer 1
10
15.938021
20
238.796502
11
240.662131
21
238.796502
0
LINE
8
Layer 1
10
240.662131
20
238.796502
11
240.662131
21
216.316411
0
LINE
8
Layer 1
10
240.662131
20
216.316411
11
15.938021
21
216.316411
0
LINE
8
Layer 1
10
15.938021
20
216.316411
11
15.938021
21
238.796502
0
LINE
8
Layer 1
10
16.315874
20
215.803894
11
240.651204
21
215.803894
0
LINE
8
Layer 1
10
240.651204
20
215.803894
11
240.651204
21
193.323030
0
LINE
8
Layer 1
10
240.651204
20
193.323030
11
16.315874
21
193.323030
0
LINE
8
Layer 1
10
16.315874
20
193.323030
11
16.315874
21
215.803894
0
LINE
8
Layer 1
10
15.622904
20
239.051199
11
240.622904
21
239.051199
0
LINE
8
Layer 1
10
240.622904
20
239.051199
11
240.622904
21
14.051199
0
LINE
8
Layer 1
10
240.622904
20
14.051199
11
15.622904
21
14.051199
0
LINE
8
Layer 1
10
15.622904
20
14.051199
11
15.622904
21
239.051199
0
LINE
8
Layer 1
10
147.643030
20
224.452398
11
162.333880
21
224.697246
0
LINE
8
Layer 1
10
155.478150
20
218.291739
11
155.478150
21
231.268656
0
LINE
8
Layer 1
10
220.052440
20
208.985337
11
234.941910
21
209.071907
0
LINE
8
Layer 1
10
219.991880
20
203.855555
11
234.881350
21
203.942125
0
LINE
8
Layer 1
10
219.982120
20
199.053988
11
234.871590
21
199.140558
0
LINE
8
Layer 1
10
58.852440
20
188.136337
11
73.741910
21
188.222907
0
LINE
8
Layer 1
10
58.791880
20
183.006555
11
73.681350
21
183.093125
0
LINE
8
Layer 1
10
58.782120
20
178.204988
11
73.671590
21
178.291558
0
LINE
8
Layer 1
10
200.391630
20
210.077591
11
214.522338
21
210.077591
0
LINE
8
Layer 1
10
214.522338
20
210.077591
11
214.522338
21
199.063286
0
LINE
8
Layer 1
10
214.522338
20
199.063286
11
200.391630
21
199.063286
0
LINE
8
Layer 1
10
200.391630
20
199.063286
11
200.391630
21
210.077591
0
LINE
8
Layer 1
10
51.648441
20
209.321102
11
49.922377
21
209.088294
0
LINE
8
Layer 1
10
49.922377
20
209.088294
11
48.378059
21
208.427519
0
LINE
8
Layer 1
10
48.378059
20
208.427519
11
47.109320
21
207.395250
0
LINE
8
Layer 1
10
47.109320
20
207.395250
11
46.209994
21
206.047961
0
LINE
8
Layer 1
10
46.209994
20
206.047961
11
45.788248
21
204.522489
0
LINE
8
Layer 1
10
45.788248
20
204.522489
11
45.875017
21
202.984485
0
LINE
8
Layer 1
10
45.875017
20
202.984485
11
46.448284
21
201.533645
0
LINE
8
Layer 1
10
46.448284
20
201.533645
11
47.486034
21
200.269667
0
LINE
8
Layer 1
10
47.486034
20
200.269667
11
48.889308
21
199.334929
0
LINE
8
Layer 1
10
48.889308
20
199.334929
11
50.500036
21
198.818567
0
LINE
8
Layer 1
10
50.500036
20
198.818567
11
52.207534
21
198.740411
0
LINE
8
Layer 1
10
52.207534
20
198.740411
11
53.901119
21
199.120293
0
LINE
8
Layer 1
10
53.901119
20
199.120293
11
55.396885
21
199.930348
0
LINE
8
Layer 1
10
55.396885
20
199.930348
11
56.542914
21
201.073145
0
LINE
8
Layer 1
10
56.542914
20
201.073145
11
57.276509
21
202.464167
0
LINE
8
Layer 1
10
57.276509
20
202.464167
11
57.534973
21
204.018894
0
LINE
8
Layer 1
10
57.534973
20
204.018894
11
57.420820
21
205.058134
0
LINE
8
Layer 1
10
57.420820
20
205.058134
11
57.086888
21
206.047961
0
LINE
8
Layer 1
10
57.086888
20
206.047961
11
56.545967
21
206.960562
0
LINE
8
Layer 1
10
56.545967
20
206.960562
11
55.810848
21
207.768121
0
LINE
8
Layer 1
10
55.810848
20
207.768121
11
54.914292
21
208.430269
0
LINE
8
Layer 1
10
54.914292
20
208.430269
11
53.901119
21
208.917495
0
LINE
8
Layer 1
10
53.901119
20
208.917495
11
52.802209
21
209.218280
0
LINE
8
Layer 1
10
52.802209
20
209.218280
11
51.648441
21
209.321102
0
LINE
8
Layer 1
10
51.648441
20
209.321102
11
51.648441
21
209.321102
0
LINE
8
Layer 1
10
56.020058
20
207.633053
11
58.140941
21
207.633053
0
LINE
8
Layer 1
10
58.140941
20
207.633053
11
58.140941
21
204.819637
0
LINE
8
Layer 1
10
58.140941
20
204.819637
11
56.020058
21
204.819637
0
LINE
8
Layer 1
10
56.020058
20
204.819637
11
56.020058
21
207.633053
0
LINE
8
Layer 1
10
52.860378
20
206.940519
11
57.231993
21
205.815154
0
LINE
8
Layer 1
10
57.188710
20
209.624085
11
57.231990
21
205.858437
0
LINE
8
Layer 1
10
25.816397
20
209.115187
11
18.977631
21
203.877905
0
LINE
8
Layer 1
10
26.076097
20
198.943606
11
19.064198
21
203.791339
0
LINE
8
Layer 1
10
29.322347
20
204.051038
11
19.194048
21
203.921189
0
LINE
8
Layer 1
10
35.033750
20
209.343984
11
41.872516
21
204.382913
0
LINE
8
Layer 1
10
34.774050
20
199.161914
11
41.785949
21
204.292851
0
LINE
8
Layer 1
10
31.527800
20
204.138233
11
41.656099
21
204.417457
0
LINE
8
Layer 1
10
15.425390
20
193.277828
11
53.621595
21
193.277828
0
LINE
8
Layer 1
10
53.621595
20
193.277828
11
53.621595
21
14.049478
0
LINE
8
Layer 1
10
53.621595
20
14.049478
11
15.425390
21
14.049478
0
LINE
8
Layer 1
10
15.425390
20
14.049478
11
15.425390
21
193.277828
0
LINE
8
Layer 1
10
35.282310
20
186.911800
11
33.726877
21
186.808975
0
LINE
8
Layer 1
10
33.726877
20
186.808975
11
32.231031
21
186.508648
0
LINE
8
Layer 1
10
32.231031
20
186.508648
11
30.815506
21
186.023046
0
LINE
8
Layer 1
10
30.815506
20
186.023046
11
29.501037
21
185.364391
0
LINE
8
Layer 1
10
29.501037
20
185.364391
11
28.308358
21
184.544908
0
LINE
8
Layer 1
10
28.308358
20
184.544908
11
27.258203
21
183.576821
0
LINE
8
Layer 1
10
27.258203
20
183.576821
11
26.371307
21
182.472355
0
LINE
8
Layer 1
10
26.371307
20
182.472355
11
25.668404
21
181.243734
0
LINE
8
Layer 1
10
25.668404
20
181.243734
11
25.180830
21
179.936414
0
LINE
8
Layer 1
10
25.180830
20
179.936414
11
24.922855
21
178.602089
0
LINE
8
Layer 1
10
24.922855
20
178.602089
11
24.889614
21
177.262338
0
LINE
8
Layer 1
10
24.889614
20
177.262338
11
25.076242
21
175.938742
0
LINE
8
Layer 1
10
25.076242
20
175.938742
11
25.477874
21
174.652882
0
LINE
8
Layer 1
10
25.477874
20
174.652882
11
26.089645
21
173.426338
0
LINE
8
Layer 1
10
26.089645
20
173.426338
11
26.906690
21
172.280690
0
LINE
8
Layer 1
10
26.906690
20
172.280690
11
27.924145
21
171.237520
0
LINE
8
Layer 1
10
27.924145
20
171.237520
11
29.106405
21
170.339765
0
LINE
8
Layer 1
10
29.106405
20
170.339765
11
30.404806
21
169.618843
0
LINE
8
Layer 1
10
30.404806
20
169.618843
11
31.794889
21
169.079045
0
LINE
8
Layer 1
10
31.794889
20
169.079045
11
33.252197
21
168.724664
0
LINE
8
Layer 1
10
33.252197
20
168.724664
11
34.752272
21
168.559992
0
LINE
8
Layer 1
10
34.752272
20
168.559992
11
36.270656
21
168.589322
0
LINE
8
Layer 1
10
36.270656
20
168.589322
11
37.782891
21
168.816947
0
LINE
8
Layer 1
10
37.782891
20
168.816947
11
39.264520
21
169.247160
0
LINE
8
Layer 1
10
39.264520
20
169.247160
11
40.656957
21
169.867368
0
LINE
8
Layer 1
10
40.656957
20
169.867368
11
41.908685
21
170.649924
0
LINE
8
Layer 1
10
41.908685
20
170.649924
11
43.005850
21
171.576531
0
LINE
8
Layer 1
10
43.005850
20
171.576531
11
43.934597
21
172.628895
0
LINE
8
Layer 1
10
43.934597
20
172.628895
11
44.681072
21
173.788721
0
LINE
8
Layer 1
10
44.681072
20
173.788721
11
45.231422
21
175.037713
0
LINE
8
Layer 1
10
45.231422
20
175.037713
11
45.571792
21
176.357578
0
LINE
8
Layer 1
10
45.571792
20
176.357578
11
45.688327
21
177.730019
0
LINE
8
Layer 1
10
45.688327
20
177.730019
11
45.486531
21
179.529660
0
LINE
8
Layer 1
10
45.486531
20
179.529660
11
44.896216
21
181.243734
0
LINE
8
Layer 1
10
44.896216
20
181.243734
11
43.939994
21
182.824076
0
LINE
8
Layer 1
10
43.939994
20
182.824076
11
42.640475
21
184.222518
0
LINE
8
Layer 1
10
42.640475
20
184.222518
11
41.055573
21
185.369153
0
LINE
8
Layer 1
10
41.055573
20
185.369153
11
39.264520
21
186.212878
0
LINE
8
Layer 1
10
39.264520
20
186.212878
11
37.321903
21
186.733744
0
LINE
8
Layer 1
10
37.321903
20
186.733744
11
35.282310
21
186.911800
0
LINE
8
Layer 1
10
35.282310
20
186.911800
11
35.282310
21
186.911800
0
LINE
8
Layer 1
10
25.733257
20
164.156891
11
44.831360
21
164.156891
0
LINE
8
Layer 1
10
44.831360
20
164.156891
11
44.831360
21
143.712126
0
LINE
8
Layer 1
10
44.831360
20
143.712126
11
25.733257
21
143.712126
0
LINE
8
Layer 1
10
25.733257
20
143.712126
11
25.733257
21
164.156891
0
LINE
8
Layer 1
10
83.270927
20
188.558235
11
129.395145
21
188.558235
0
LINE
8
Layer 1
10
129.395145
20
188.558235
11
129.395145
21
177.324780
0
LINE
8
Layer 1
10
129.395145
20
177.324780
11
83.270927
21
177.324780
0
LINE
8
Layer 1
10
83.270927
20
177.324780
11
83.270927
21
188.558235
0
LINE
8
Layer 1
10
61.691982
20
162.438293
11
107.816200
21
162.438293
0
LINE
8
Layer 1
10
107.816200
20
162.438293
11
107.816200
21
151.204838
0
LINE
8
Layer 1
10
107.816200
20
151.204838
11
61.691982
21
151.204838
0
LINE
8
Layer 1
10
61.691982
20
151.204838
11
61.691982
21
162.438293
0
LINE
8
Layer 1
10
61.691982
20
143.054700
11
107.816200
21
143.054700
0
LINE
8
Layer 1
10
107.816200
20
143.054700
11
107.816200
21
131.821245
0
LINE
8
Layer 1
10
107.816200
20
131.821245
11
61.691982
21
131.821245
0
LINE
8
Layer 1
10
61.691982
20
131.821245
11
61.691982
21
143.054700
0
LINE
8
Layer 1
10
61.691982
20
123.671110
11
107.816200
21
123.671110
0
LINE
8
Layer 1
10
107.816200
20
123.671110
11
107.816200
21
112.437655
0
LINE
8
Layer 1
10
107.816200
20
112.437655
11
61.691982
21
112.437655
0
LINE
8
Layer 1
10
61.691982
20
112.437655
11
61.691982
21
123.671110
0
LINE
8
Layer 1
10
61.691982
20
104.287520
11
107.816200
21
104.287520
0
LINE
8
Layer 1
10
107.816200
20
104.287520
11
107.816200
21
93.054065
0
LINE
8
Layer 1
10
107.816200
20
93.054065
11
61.691982
21
93.054065
0
LINE
8
Layer 1
10
61.691982
20
93.054065
11
61.691982
21
104.287520
0
LINE
8
Layer 1
10
191.958600
20
171.487183
11
238.082818
21
171.487183
0
LINE
8
Layer 1
10
238.082818
20
171.487183
11
238.082818
21
160.253728
0
LINE
8
Layer 1
10
238.082818
20
160.253728
11
191.958600
21
160.253728
0
LINE
8
Layer 1
10
191.958600
20
160.253728
11
191.958600
21
171.487183
0
LINE
8
Layer 1
10
126.181530
20
152.866790
11
235.818490
21
152.866790
0
LINE
8
Layer 1
10
235.818490
20
152.866790
11
235.818490
21
138.890379
0
LINE
8
Layer 1
10
235.818490
20
138.890379
11
126.181530
21
138.890379
0
LINE
8
Layer 1
10
126.181530
20
138.890379
11
126.181530
21
152.866790
0
LINE
8
Layer 1
10
25.733257
20
139.320780
11
44.831360
21
139.320780
0
LINE
8
Layer 1
10
44.831360
20
139.320780
11
44.831360
21
118.876015
0
LINE
8
Layer 1
10
44.831360
20
118.876015
11
25.733257
21
118.876015
0
LINE
8
Layer 1
10
25.733257
20
118.876015
11
25.733257
21
139.320780
0
LINE
8
Layer 1
10
25.733257
20
114.484660
11
44.831360
21
114.484660
0
LINE
8
Layer 1
10
44.831360
20
114.484660
11
44.831360
21
94.039895
0
LINE
8
Layer 1
10
44.831360
20
94.039895
11
25.733257
21
94.039895
0
LINE
8
Layer 1
10
25.733257
20
94.039895
11
25.733257
21
114.484660
0
LINE
8
Layer 1
10
25.733257
20
89.648540
11
44.831360
21
89.648540
0
LINE
8
Layer 1
10
44.831360
20
89.648540
11
44.831360
21
69.203775
0
LINE
8
Layer 1
10
44.831360
20
69.203775
11
25.733257
21
69.203775
0
LINE
8
Layer 1
10
25.733257
20
69.203775
11
25.733257
21
89.648540
0
LINE
8
Layer 1
10
25.733257
20
64.812440
11
44.831360
21
64.812440
0
LINE
8
Layer 1
10
44.831360
20
64.812440
11
44.831360
21
44.367675
0
LINE
8
Layer 1
10
44.831360
20
44.367675
11
25.733257
21
44.367675
0
LINE
8
Layer 1
10
25.733257
20
44.367675
11
25.733257
21
64.812440
0
LINE
8
Layer 1
10
25.733259
20
39.976320
11
44.831362
21
39.976320
0
LINE
8
Layer 1
10
44.831362
20
39.976320
11
44.831362
21
19.531555
0
LINE
8
Layer 1
10
44.831362
20
19.531555
11
25.733259
21
19.531555
0
LINE
8
Layer 1
10
25.733259
20
19.531555
11
25.733259
21
39.976320
0
LINE
8
Layer 1
10
118.251730
20
171.146074
11
118.404540
21
21.018090
0
LINE
8
Layer 1
10
125.709470
20
132.500700
11
125.864880
21
95.788700
0
LINE
8
Layer 1
10
133.937210
20
131.786990
11
234.254440
21
131.786990
0
LINE
8
Layer 1
10
234.254440
20
131.786990
11
234.254440
21
124.706447
0
LINE
8
Layer 1
10
234.254440
20
124.706447
11
133.937210
21
124.706447
0
LINE
8
Layer 1
10
133.937210
20
124.706447
11
133.937210
21
131.786990
0
LINE
8
Layer 1
10
133.937210
20
117.895520
11
234.254440
21
117.895520
0
LINE
8
Layer 1
10
234.254440
20
117.895520
11
234.254440
21
110.814977
0
LINE
8
Layer 1
10
234.254440
20
110.814977
11
133.937210
21
110.814977
0
LINE
8
Layer 1
10
133.937210
20
110.814977
11
133.937210
21
117.895520
0
LINE
8
Layer 1
10
133.937210
20
103.532550
11
234.254440
21
103.532550
0
LINE
8
Layer 1
10
234.254440
20
103.532550
11
234.254440
21
96.452007
0
LINE
8
Layer 1
10
234.254440
20
96.452007
11
133.937210
21
96.452007
0
LINE
8
Layer 1
10
133.937210
20
96.452007
11
133.937210
21
103.532550
0
LINE
8
Layer 1
10
126.184430
20
88.792480
11
235.821390
21
88.792480
0
LINE
8
Layer 1
10
235.821390
20
88.792480
11
235.821390
21
74.816069
0
LINE
8
Layer 1
10
235.821390
20
74.816069
11
126.184430
21
74.816069
0
LINE
8
Layer 1
10
126.184430
20
74.816069
11
126.184430
21
88.792480
0
LINE
8
Layer 1
10
125.712370
20
68.426390
11
125.867780
21
31.714390
0
LINE
8
Layer 1
10
133.940110
20
67.712680
11
234.257340
21
67.712680
0
LINE
8
Layer 1
10
234.257340
20
67.712680
11
234.257340
21
60.632137
0
LINE
8
Layer 1
10
234.257340
20
60.632137
11
133.940110
21
60.632137
0
LINE
8
Layer 1
10
133.940110
20
60.632137
11
133.940110
21
67.712680
0
LINE
8
Layer 1
10
133.940110
20
53.821210
11
234.257340
21
53.821210
0
LINE
8
Layer 1
10
234.257340
20
53.821210
11
234.257340
21
46.740667
0
LINE
8
Layer 1
10
234.257340
20
46.740667
11
133.940110
21
46.740667
0
LINE
8
Layer 1
10
133.940110
20
46.740667
11
133.940110
21
53.821210
0
LINE
8
Layer 1
10
133.940110
20
39.458240
11
234.257340
21
39.458240
0
LINE
8
Layer 1
10
234.257340
20
39.458240
11
234.257340
21
32.377697
0
LINE
8
Layer 1
10
234.257340
20
32.377697
11
133.940110
21
32.377697
0
LINE
8
Layer 1
10
133.940110
20
32.377697
11
133.940110
21
39.458240
 0 
ENDSEC
 0 
EOF