999
"DXF R12 Output" (www.mydxf.blogspot.com)
 0 
SECTION
 2 
HEADER
 9 
$ACADVER
 1 
AC1009
 9 
$EXTMIN
 10 
 0 
 20 
 0 
 9 
$EXTMAX
 10 
 8.5 
 20 
 11 
 0 
ENDSEC
 0 
SECTION
 2 
ENTITIES
0
LINE
8
Layer 1
10
12.487204
20
239.798841
11
237.487204
21
239.798841
0
LINE
8
Layer 1
10
237.487204
20
239.798841
11
237.487204
21
14.798841
0
LINE
8
Layer 1
10
237.487204
20
14.798841
11
12.487204
21
14.798841
0
LINE
8
Layer 1
10
12.487204
20
14.798841
11
12.487204
21
239.798841
0
LINE
8
Layer 1
10
20.366903
20
228.674934
11
38.518915
21
228.674934
0
LINE
8
Layer 1
10
38.518915
20
228.674934
11
38.518915
21
214.440481
0
LINE
8
Layer 1
10
38.518915
20
214.440481
11
20.366903
21
214.440481
0
LINE
8
Layer 1
10
20.366903
20
214.440481
11
20.366903
21
228.674934
0
LINE
8
Layer 1
10
20.367994
20
203.614750
11
38.520006
21
203.614750
0
LINE
8
Layer 1
10
38.520006
20
203.614750
11
38.520006
21
189.380297
0
LINE
8
Layer 1
10
38.520006
20
189.380297
11
20.367994
21
189.380297
0
LINE
8
Layer 1
10
20.367994
20
189.380297
11
20.367994
21
203.614750
0
LINE
8
Layer 1
10
20.166307
20
178.693565
11
30.040639
21
178.693565
0
LINE
8
Layer 1
10
30.040639
20
178.693565
11
30.040639
21
164.410792
0
LINE
8
Layer 1
10
30.040639
20
164.410792
11
20.166307
21
164.410792
0
LINE
8
Layer 1
10
20.166307
20
164.410792
11
20.166307
21
178.693565
0
LINE
8
Layer 1
10
20.231813
20
153.668530
11
30.106145
21
153.668530
0
LINE
8
Layer 1
10
30.106145
20
153.668530
11
30.106145
21
139.385757
0
LINE
8
Layer 1
10
30.106145
20
139.385757
11
20.231813
21
139.385757
0
LINE
8
Layer 1
10
20.231813
20
139.385757
11
20.231813
21
153.668530
0
LINE
8
Layer 1
10
20.142654
20
128.762630
11
30.016986
21
128.762630
0
LINE
8
Layer 1
10
30.016986
20
128.762630
11
30.016986
21
114.479857
0
LINE
8
Layer 1
10
30.016986
20
114.479857
11
20.142654
21
114.479857
0
LINE
8
Layer 1
10
20.142654
20
114.479857
11
20.142654
21
128.762630
0
LINE
8
Layer 1
10
20.264116
20
103.884540
11
30.537746
21
103.884540
0
LINE
8
Layer 1
10
30.537746
20
103.884540
11
30.537746
21
89.448502
0
LINE
8
Layer 1
10
30.537746
20
89.448502
11
20.264116
21
89.448502
0
LINE
8
Layer 1
10
20.264116
20
89.448502
11
20.264116
21
103.884540
0
LINE
8
Layer 1
10
50.973763
20
229.010595
11
69.125775
21
229.010595
0
LINE
8
Layer 1
10
69.125775
20
229.010595
11
69.125775
21
214.776142
0
LINE
8
Layer 1
10
69.125775
20
214.776142
11
50.973763
21
214.776142
0
LINE
8
Layer 1
10
50.973763
20
214.776142
11
50.973763
21
229.010595
0
LINE
8
Layer 1
10
50.974854
20
203.950413
11
69.126866
21
203.950413
0
LINE
8
Layer 1
10
69.126866
20
203.950413
11
69.126866
21
189.715960
0
LINE
8
Layer 1
10
69.126866
20
189.715960
11
50.974854
21
189.715960
0
LINE
8
Layer 1
10
50.974854
20
189.715960
11
50.974854
21
203.950413
0
LINE
8
Layer 1
10
20.124233
20
79.038860
11
32.063758
21
79.038860
0
LINE
8
Layer 1
10
32.063758
20
79.038860
11
32.063758
21
64.650860
0
LINE
8
Layer 1
10
32.063758
20
64.650860
11
20.124233
21
64.650860
0
LINE
8
Layer 1
10
20.124233
20
64.650860
11
20.124233
21
79.038860
0
LINE
8
Layer 1
10
47.130959
20
33.321040
11
75.621781
21
33.321040
0
LINE
8
Layer 1
10
75.621781
20
33.321040
11
75.621781
21
26.753642
0
LINE
8
Layer 1
10
75.621781
20
26.753642
11
47.130959
21
26.753642
0
LINE
8
Layer 1
10
47.130959
20
26.753642
11
47.130959
21
33.321040
0
LINE
8
Layer 1
10
198.381130
20
38.872820
11
226.871952
21
38.872820
0
LINE
8
Layer 1
10
226.871952
20
38.872820
11
226.871952
21
32.305421
0
LINE
8
Layer 1
10
226.871952
20
32.305421
11
198.381130
21
32.305421
0
LINE
8
Layer 1
10
198.381130
20
32.305421
11
198.381130
21
38.872820
0
LINE
8
Layer 1
10
198.636890
20
30.017290
11
227.127712
21
30.017290
0
LINE
8
Layer 1
10
227.127712
20
30.017290
11
227.127712
21
23.449892
0
LINE
8
Layer 1
10
227.127712
20
23.449892
11
198.636890
21
23.449892
0
LINE
8
Layer 1
10
198.636890
20
23.449892
11
198.636890
21
30.017290
0
LINE
8
Layer 1
10
25.401573
20
37.465150
11
34.439406
21
37.465150
0
LINE
8
Layer 1
10
34.439406
20
37.465150
11
34.439406
21
30.050859
0
LINE
8
Layer 1
10
34.439406
20
30.050859
11
25.401573
21
30.050859
0
LINE
8
Layer 1
10
25.401573
20
30.050859
11
25.401573
21
37.465150
0
LINE
8
Layer 1
10
25.363010
20
29.946000
11
34.398500
21
29.946000
0
LINE
8
Layer 1
10
34.398500
20
29.946000
11
34.398500
21
22.447486
0
LINE
8
Layer 1
10
34.398500
20
22.447486
11
25.363010
21
22.447486
0
LINE
8
Layer 1
10
25.363010
20
22.447486
11
25.363010
21
29.946000
0
LINE
8
Layer 1
10
34.697056
20
29.879490
11
43.734889
21
29.879490
0
LINE
8
Layer 1
10
43.734889
20
29.879490
11
43.734889
21
22.465199
0
LINE
8
Layer 1
10
43.734889
20
22.465199
11
34.697056
21
22.465199
0
LINE
8
Layer 1
10
34.697056
20
22.465199
11
34.697056
21
29.879490
0
LINE
8
Layer 1
10
34.717258
20
37.458950
11
43.755091
21
37.458950
0
LINE
8
Layer 1
10
43.755091
20
37.458950
11
43.755091
21
30.044659
0
LINE
8
Layer 1
10
43.755091
20
30.044659
11
34.717258
21
30.044659
0
LINE
8
Layer 1
10
34.717258
20
30.044659
11
34.717258
21
37.458950
0
LINE
8
Layer 1
10
21.307835
20
41.466260
11
229.415975
21
41.466260
0
LINE
8
Layer 1
10
229.415975
20
41.466260
11
229.415975
21
18.952504
0
LINE
8
Layer 1
10
229.415975
20
18.952504
11
21.307835
21
18.952504
0
LINE
8
Layer 1
10
21.307835
20
18.952504
11
21.307835
21
41.466260
0
LINE
8
Layer 1
10
80.550415
20
37.048870
11
98.702427
21
37.048870
0
LINE
8
Layer 1
10
98.702427
20
37.048870
11
98.702427
21
22.814417
0
LINE
8
Layer 1
10
98.702427
20
22.814417
11
80.550415
21
22.814417
0
LINE
8
Layer 1
10
80.550415
20
22.814417
11
80.550415
21
37.048870
0
LINE
8
Layer 1
10
105.372420
20
37.111050
11
123.524432
21
37.111050
0
LINE
8
Layer 1
10
123.524432
20
37.111050
11
123.524432
21
22.876597
0
LINE
8
Layer 1
10
123.524432
20
22.876597
11
105.372420
21
22.876597
0
LINE
8
Layer 1
10
105.372420
20
22.876597
11
105.372420
21
37.111050
0
LINE
8
Layer 1
10
129.600430
20
37.321880
11
147.752442
21
37.321880
0
LINE
8
Layer 1
10
147.752442
20
37.321880
11
147.752442
21
23.087427
0
LINE
8
Layer 1
10
147.752442
20
23.087427
11
129.600430
21
23.087427
0
LINE
8
Layer 1
10
129.600430
20
23.087427
11
129.600430
21
37.321880
0
LINE
8
Layer 1
10
174.648020
20
26.502820
11
178.835510
21
33.755780
0
LINE
8
Layer 1
10
178.809260
20
33.851550
11
183.173060
21
26.683950
0
LINE
8
Layer 1
10
165.515450
20
19.404360
11
164.822920
21
40.872890
0
LINE
8
Layer 1
10
30.319464
20
178.383759
11
232.646734
21
178.383759
0
LINE
8
Layer 1
10
232.646734
20
178.383759
11
232.646734
21
61.441659
0
LINE
8
Layer 1
10
232.646734
20
61.441659
11
30.319464
21
61.441659
0
LINE
8
Layer 1
10
30.319464
20
61.441659
11
30.319464
21
178.383759
0
LINE
8
Layer 1
10
44.245449
20
172.032433
11
92.487888
21
172.032433
0
LINE
8
Layer 1
10
92.487888
20
172.032433
11
92.487888
21
122.058659
0
LINE
8
Layer 1
10
92.487888
20
122.058659
11
44.245449
21
122.058659
0
LINE
8
Layer 1
10
44.245449
20
122.058659
11
44.245449
21
172.032433
0
LINE
8
Layer 1
10
108.925110
20
172.032433
11
157.167549
21
172.032433
0
LINE
8
Layer 1
10
157.167549
20
172.032433
11
157.167549
21
122.058659
0
LINE
8
Layer 1
10
157.167549
20
122.058659
11
108.925110
21
122.058659
0
LINE
8
Layer 1
10
108.925110
20
122.058659
11
108.925110
21
172.032433
0
LINE
8
Layer 1
10
77.747223
20
115.856220
11
125.989662
21
115.856220
0
LINE
8
Layer 1
10
125.989662
20
115.856220
11
125.989662
21
65.882446
0
LINE
8
Layer 1
10
125.989662
20
65.882446
11
77.747223
21
65.882446
0
LINE
8
Layer 1
10
77.747223
20
65.882446
11
77.747223
21
115.856220
0
LINE
8
Layer 1
10
142.426940
20
115.856220
11
190.669379
21
115.856220
0
LINE
8
Layer 1
10
190.669379
20
115.856220
11
190.669379
21
65.882446
0
LINE
8
Layer 1
10
190.669379
20
65.882446
11
142.426940
21
65.882446
0
LINE
8
Layer 1
10
142.426940
20
65.882446
11
142.426940
21
115.856220
0
LINE
8
Layer 1
10
173.727650
20
172.032433
11
221.970089
21
172.032433
0
LINE
8
Layer 1
10
221.970089
20
172.032433
11
221.970089
21
122.058659
0
LINE
8
Layer 1
10
221.970089
20
122.058659
11
173.727650
21
122.058659
0
LINE
8
Layer 1
10
173.727650
20
122.058659
11
173.727650
21
172.032433
 0 
ENDSEC
 0 
EOF