999
"DXF R12 Output" (www.mydxf.blogspot.com)
 0 
SECTION
 2 
HEADER
 9 
$ACADVER
 1 
AC1009
 9 
$EXTMIN
 10 
 0 
 20 
 0 
 9 
$EXTMAX
 10 
 8.5 
 20 
 11 
 0 
ENDSEC
 0 
SECTION
 2 
ENTITIES
0
LINE
8
Layer 1
10
12.487204
20
239.798841
11
237.487204
21
239.798841
0
LINE
8
Layer 1
10
237.487204
20
239.798841
11
237.487204
21
14.798841
0
LINE
8
Layer 1
10
237.487204
20
14.798841
11
12.487204
21
14.798841
0
LINE
8
Layer 1
10
12.487204
20
14.798841
11
12.487204
21
239.798841
0
LINE
8
Layer 1
10
20.366903
20
228.674934
11
38.518915
21
228.674934
0
LINE
8
Layer 1
10
38.518915
20
228.674934
11
38.518915
21
214.440481
0
LINE
8
Layer 1
10
38.518915
20
214.440481
11
20.366903
21
214.440481
0
LINE
8
Layer 1
10
20.366903
20
214.440481
11
20.366903
21
228.674934
0
LINE
8
Layer 1
10
20.221363
20
203.761383
11
38.666639
21
203.761383
0
LINE
8
Layer 1
10
38.666639
20
203.761383
11
38.666639
21
197.890332
0
LINE
8
Layer 1
10
38.666639
20
197.890332
11
20.221363
21
197.890332
0
LINE
8
Layer 1
10
20.221363
20
197.890332
11
20.221363
21
203.761383
0
LINE
8
Layer 1
10
20.081989
20
198.188641
11
26.713331
21
198.188641
0
LINE
8
Layer 1
10
26.713331
20
198.188641
11
26.713331
21
188.895792
0
LINE
8
Layer 1
10
26.713331
20
188.895792
11
20.081989
21
188.895792
0
LINE
8
Layer 1
10
20.081989
20
188.895792
11
20.081989
21
198.188641
0
LINE
8
Layer 1
10
30.796940
20
192.259541
11
128.429943
21
192.259541
0
LINE
8
Layer 1
10
128.429943
20
192.259541
11
128.429943
21
179.051416
0
LINE
8
Layer 1
10
128.429943
20
179.051416
11
30.796940
21
179.051416
0
LINE
8
Layer 1
10
30.796940
20
179.051416
11
30.796940
21
192.259541
0
LINE
8
Layer 1
10
31.042017
20
163.532944
11
44.233339
21
163.532944
0
LINE
8
Layer 1
10
44.233339
20
163.532944
11
44.233339
21
153.393514
0
LINE
8
Layer 1
10
44.233339
20
153.393514
11
31.042017
21
153.393514
0
LINE
8
Layer 1
10
31.042017
20
153.393514
11
31.042017
21
163.532944
0
LINE
8
Layer 1
10
50.136742
20
163.532944
11
63.328064
21
163.532944
0
LINE
8
Layer 1
10
63.328064
20
163.532944
11
63.328064
21
153.393514
0
LINE
8
Layer 1
10
63.328064
20
153.393514
11
50.136742
21
153.393514
0
LINE
8
Layer 1
10
50.136742
20
153.393514
11
50.136742
21
163.532944
0
LINE
8
Layer 1
10
69.888138
20
163.532944
11
83.079460
21
163.532944
0
LINE
8
Layer 1
10
83.079460
20
163.532944
11
83.079460
21
153.393514
0
LINE
8
Layer 1
10
83.079460
20
153.393514
11
69.888138
21
153.393514
0
LINE
8
Layer 1
10
69.888138
20
153.393514
11
69.888138
21
163.532944
0
LINE
8
Layer 1
10
88.982864
20
163.532944
11
102.174186
21
163.532944
0
LINE
8
Layer 1
10
102.174186
20
163.532944
11
102.174186
21
153.393514
0
LINE
8
Layer 1
10
102.174186
20
153.393514
11
88.982864
21
153.393514
0
LINE
8
Layer 1
10
88.982864
20
153.393514
11
88.982864
21
163.532944
0
LINE
8
Layer 1
10
47.130959
20
33.321040
11
75.621781
21
33.321040
0
LINE
8
Layer 1
10
75.621781
20
33.321040
11
75.621781
21
26.753642
0
LINE
8
Layer 1
10
75.621781
20
26.753642
11
47.130959
21
26.753642
0
LINE
8
Layer 1
10
47.130959
20
26.753642
11
47.130959
21
33.321040
0
LINE
8
Layer 1
10
198.381130
20
38.872820
11
226.871952
21
38.872820
0
LINE
8
Layer 1
10
226.871952
20
38.872820
11
226.871952
21
32.305421
0
LINE
8
Layer 1
10
226.871952
20
32.305421
11
198.381130
21
32.305421
0
LINE
8
Layer 1
10
198.381130
20
32.305421
11
198.381130
21
38.872820
0
LINE
8
Layer 1
10
198.636890
20
30.017290
11
227.127712
21
30.017290
0
LINE
8
Layer 1
10
227.127712
20
30.017290
11
227.127712
21
23.449892
0
LINE
8
Layer 1
10
227.127712
20
23.449892
11
198.636890
21
23.449892
0
LINE
8
Layer 1
10
198.636890
20
23.449892
11
198.636890
21
30.017290
0
LINE
8
Layer 1
10
25.401573
20
37.465150
11
34.439406
21
37.465150
0
LINE
8
Layer 1
10
34.439406
20
37.465150
11
34.439406
21
30.050859
0
LINE
8
Layer 1
10
34.439406
20
30.050859
11
25.401573
21
30.050859
0
LINE
8
Layer 1
10
25.401573
20
30.050859
11
25.401573
21
37.465150
0
LINE
8
Layer 1
10
25.363010
20
29.946000
11
34.398500
21
29.946000
0
LINE
8
Layer 1
10
34.398500
20
29.946000
11
34.398500
21
22.447486
0
LINE
8
Layer 1
10
34.398500
20
22.447486
11
25.363010
21
22.447486
0
LINE
8
Layer 1
10
25.363010
20
22.447486
11
25.363010
21
29.946000
0
LINE
8
Layer 1
10
34.697056
20
29.879490
11
43.734889
21
29.879490
0
LINE
8
Layer 1
10
43.734889
20
29.879490
11
43.734889
21
22.465199
0
LINE
8
Layer 1
10
43.734889
20
22.465199
11
34.697056
21
22.465199
0
LINE
8
Layer 1
10
34.697056
20
22.465199
11
34.697056
21
29.879490
0
LINE
8
Layer 1
10
34.717258
20
37.458950
11
43.755091
21
37.458950
0
LINE
8
Layer 1
10
43.755091
20
37.458950
11
43.755091
21
30.044659
0
LINE
8
Layer 1
10
43.755091
20
30.044659
11
34.717258
21
30.044659
0
LINE
8
Layer 1
10
34.717258
20
30.044659
11
34.717258
21
37.458950
0
LINE
8
Layer 1
10
21.307835
20
41.466260
11
229.415975
21
41.466260
0
LINE
8
Layer 1
10
229.415975
20
41.466260
11
229.415975
21
18.952504
0
LINE
8
Layer 1
10
229.415975
20
18.952504
11
21.307835
21
18.952504
0
LINE
8
Layer 1
10
21.307835
20
18.952504
11
21.307835
21
41.466260
0
LINE
8
Layer 1
10
80.550415
20
37.048870
11
98.702427
21
37.048870
0
LINE
8
Layer 1
10
98.702427
20
37.048870
11
98.702427
21
22.814417
0
LINE
8
Layer 1
10
98.702427
20
22.814417
11
80.550415
21
22.814417
0
LINE
8
Layer 1
10
80.550415
20
22.814417
11
80.550415
21
37.048870
0
LINE
8
Layer 1
10
105.372420
20
37.111050
11
123.524432
21
37.111050
0
LINE
8
Layer 1
10
123.524432
20
37.111050
11
123.524432
21
22.876597
0
LINE
8
Layer 1
10
123.524432
20
22.876597
11
105.372420
21
22.876597
0
LINE
8
Layer 1
10
105.372420
20
22.876597
11
105.372420
21
37.111050
0
LINE
8
Layer 1
10
129.600430
20
37.321880
11
147.752442
21
37.321880
0
LINE
8
Layer 1
10
147.752442
20
37.321880
11
147.752442
21
23.087427
0
LINE
8
Layer 1
10
147.752442
20
23.087427
11
129.600430
21
23.087427
0
LINE
8
Layer 1
10
129.600430
20
23.087427
11
129.600430
21
37.321880
0
LINE
8
Layer 1
10
174.648020
20
26.502820
11
178.835510
21
33.755780
0
LINE
8
Layer 1
10
178.809260
20
33.851550
11
183.173060
21
26.683950
0
LINE
8
Layer 1
10
165.515450
20
19.404360
11
164.822920
21
40.872890
0
LINE
8
Layer 1
10
26.587063
20
197.904804
11
133.410323
21
197.904804
0
LINE
8
Layer 1
10
133.410323
20
197.904804
11
133.410323
21
45.893754
0
LINE
8
Layer 1
10
133.410323
20
45.893754
11
26.587063
21
45.893754
0
LINE
8
Layer 1
10
26.587063
20
45.893754
11
26.587063
21
197.904804
0
LINE
8
Layer 1
10
38.522163
20
188.209342
11
37.532214
21
188.087712
0
LINE
8
Layer 1
10
37.532214
20
188.087712
11
36.646502
21
187.742490
0
LINE
8
Layer 1
10
36.646502
20
187.742490
11
35.918844
21
187.203183
0
LINE
8
Layer 1
10
35.918844
20
187.203183
11
35.403053
21
186.499293
0
LINE
8
Layer 1
10
35.403053
20
186.499293
11
35.161170
21
185.702312
0
LINE
8
Layer 1
10
35.161170
20
185.702312
11
35.210934
21
184.898783
0
LINE
8
Layer 1
10
35.210934
20
184.898783
11
35.539720
21
184.140793
0
LINE
8
Layer 1
10
35.539720
20
184.140793
11
36.134900
21
183.480429
0
LINE
8
Layer 1
10
36.134900
20
183.480429
11
36.939719
21
182.992076
0
LINE
8
Layer 1
10
36.939719
20
182.992076
11
37.863519
21
182.722303
0
LINE
8
Layer 1
10
37.863519
20
182.722303
11
38.842819
21
182.681471
0
LINE
8
Layer 1
10
38.842819
20
182.681471
11
39.814140
21
182.879940
0
LINE
8
Layer 1
10
39.814140
20
182.879940
11
40.672006
21
183.303152
0
LINE
8
Layer 1
10
40.672006
20
183.303152
11
41.329287
21
183.900206
0
LINE
8
Layer 1
10
41.329287
20
183.900206
11
41.750026
21
184.626943
0
LINE
8
Layer 1
10
41.750026
20
184.626943
11
41.898263
21
185.439209
0
LINE
8
Layer 1
10
41.898263
20
185.439209
11
41.641273
21
186.499293
0
LINE
8
Layer 1
10
41.641273
20
186.499293
11
40.909426
21
187.397989
0
LINE
8
Layer 1
10
40.909426
20
187.397989
11
39.814140
21
187.998478
0
LINE
8
Layer 1
10
39.814140
20
187.998478
11
38.522163
21
188.209342
0
LINE
8
Layer 1
10
38.522163
20
188.209342
11
38.522163
21
188.209342
0
LINE
8
Layer 1
10
41.725130
20
183.707874
11
46.399727
21
181.803409
0
LINE
8
Layer 1
10
100.246060
20
175.564621
11
128.678052
21
175.564621
0
LINE
8
Layer 1
10
128.678052
20
175.564621
11
128.678052
21
167.844119
0
LINE
8
Layer 1
10
128.678052
20
167.844119
11
100.246060
21
167.844119
0
LINE
8
Layer 1
10
100.246060
20
167.844119
11
100.246060
21
175.564621
0
LINE
8
Layer 1
10
30.889967
20
123.354930
11
44.081289
21
123.354930
0
LINE
8
Layer 1
10
44.081289
20
123.354930
11
44.081289
21
113.215500
0
LINE
8
Layer 1
10
44.081289
20
113.215500
11
30.889967
21
113.215500
0
LINE
8
Layer 1
10
30.889967
20
113.215500
11
30.889967
21
123.354930
0
LINE
8
Layer 1
10
30.889967
20
103.904950
11
44.081289
21
103.904950
0
LINE
8
Layer 1
10
44.081289
20
103.904950
11
44.081289
21
93.765520
0
LINE
8
Layer 1
10
44.081289
20
93.765520
11
30.889967
21
93.765520
0
LINE
8
Layer 1
10
30.889967
20
93.765520
11
30.889967
21
103.904950
0
LINE
8
Layer 1
10
30.889967
20
83.686520
11
44.081289
21
83.686520
0
LINE
8
Layer 1
10
44.081289
20
83.686520
11
44.081289
21
73.547090
0
LINE
8
Layer 1
10
44.081289
20
73.547090
11
30.889967
21
73.547090
0
LINE
8
Layer 1
10
30.889967
20
73.547090
11
30.889967
21
83.686520
0
LINE
8
Layer 1
10
80.302795
20
124.294690
11
93.494117
21
124.294690
0
LINE
8
Layer 1
10
93.494117
20
124.294690
11
93.494117
21
114.155260
0
LINE
8
Layer 1
10
93.494117
20
114.155260
11
80.302795
21
114.155260
0
LINE
8
Layer 1
10
80.302795
20
114.155260
11
80.302795
21
124.294690
0
LINE
8
Layer 1
10
80.302795
20
104.844710
11
93.494117
21
104.844710
0
LINE
8
Layer 1
10
93.494117
20
104.844710
11
93.494117
21
94.705280
0
LINE
8
Layer 1
10
93.494117
20
94.705280
11
80.302795
21
94.705280
0
LINE
8
Layer 1
10
80.302795
20
94.705280
11
80.302795
21
104.844710
0
LINE
8
Layer 1
10
80.302795
20
84.626280
11
93.494117
21
84.626280
0
LINE
8
Layer 1
10
93.494117
20
84.626280
11
93.494117
21
74.486850
0
LINE
8
Layer 1
10
93.494117
20
74.486850
11
80.302795
21
74.486850
0
LINE
8
Layer 1
10
80.302795
20
74.486850
11
80.302795
21
84.626280
0
LINE
8
Layer 1
10
100.246060
20
138.838170
11
128.678052
21
138.838170
0
LINE
8
Layer 1
10
128.678052
20
138.838170
11
128.678052
21
131.117668
0
LINE
8
Layer 1
10
128.678052
20
131.117668
11
100.246060
21
131.117668
0
LINE
8
Layer 1
10
100.246060
20
131.117668
11
100.246060
21
138.838170
0
LINE
8
Layer 1
10
37.424759
20
63.755763
11
36.273143
21
63.670936
0
LINE
8
Layer 1
10
36.273143
20
63.670936
11
35.165645
21
63.423180
0
LINE
8
Layer 1
10
35.165645
20
63.423180
11
34.117615
21
63.022578
0
LINE
8
Layer 1
10
34.117615
20
63.022578
11
33.144406
21
62.479215
0
LINE
8
Layer 1
10
33.144406
20
62.479215
11
32.261367
21
61.803176
0
LINE
8
Layer 1
10
32.261367
20
61.803176
11
31.483851
21
61.004546
0
LINE
8
Layer 1
10
31.483851
20
61.004546
11
30.827209
21
60.093408
0
LINE
8
Layer 1
10
30.827209
20
60.093408
11
30.306792
21
59.079847
0
LINE
8
Layer 1
10
30.306792
20
59.079847
11
29.945800
21
58.001363
0
LINE
8
Layer 1
10
29.945800
20
58.001363
11
29.754800
21
56.900601
0
LINE
8
Layer 1
10
29.754800
20
56.900601
11
29.730189
21
55.795363
0
LINE
8
Layer 1
10
29.730189
20
55.795363
11
29.868365
21
54.703452
0
LINE
8
Layer 1
10
29.868365
20
54.703452
11
30.165726
21
53.642672
0
LINE
8
Layer 1
10
30.165726
20
53.642672
11
30.618671
21
52.630825
0
LINE
8
Layer 1
10
30.618671
20
52.630825
11
31.223597
21
51.685713
0
LINE
8
Layer 1
10
31.223597
20
51.685713
11
31.976903
21
50.825141
0
LINE
8
Layer 1
10
31.976903
20
50.825141
11
32.852227
21
50.084532
0
LINE
8
Layer 1
10
32.852227
20
50.084532
11
33.813540
21
49.489801
0
LINE
8
Layer 1
10
33.813540
20
49.489801
11
34.842734
21
49.044491
0
LINE
8
Layer 1
10
34.842734
20
49.044491
11
35.921699
21
48.752141
0
LINE
8
Layer 1
10
35.921699
20
48.752141
11
37.032328
21
48.616294
0
LINE
8
Layer 1
10
37.032328
20
48.616294
11
38.156513
21
48.640490
0
LINE
8
Layer 1
10
38.156513
20
48.640490
11
39.276145
21
48.828271
0
LINE
8
Layer 1
10
39.276145
20
48.828271
11
40.373118
21
49.183178
0
LINE
8
Layer 1
10
40.373118
20
49.183178
11
41.404054
21
49.694824
0
LINE
8
Layer 1
10
41.404054
20
49.694824
11
42.330811
21
50.340399
0
LINE
8
Layer 1
10
42.330811
20
50.340399
11
43.143132
21
51.104811
0
LINE
8
Layer 1
10
43.143132
20
51.104811
11
43.830761
21
51.972967
0
LINE
8
Layer 1
10
43.830761
20
51.972967
11
44.383438
21
52.929775
0
LINE
8
Layer 1
10
44.383438
20
52.929775
11
44.790907
21
53.960141
0
LINE
8
Layer 1
10
44.790907
20
53.960141
11
45.042911
21
55.048974
0
LINE
8
Layer 1
10
45.042911
20
55.048974
11
45.129192
21
56.181180
0
LINE
8
Layer 1
10
45.129192
20
56.181180
11
44.979785
21
57.665808
0
LINE
8
Layer 1
10
44.979785
20
57.665808
11
44.542726
21
59.079847
0
LINE
8
Layer 1
10
44.542726
20
59.079847
11
43.834756
21
60.383562
0
LINE
8
Layer 1
10
43.834756
20
60.383562
11
42.872615
21
61.537219
0
LINE
8
Layer 1
10
42.872615
20
61.537219
11
41.699182
21
62.483144
0
LINE
8
Layer 1
10
41.699182
20
62.483144
11
40.373118
21
63.179182
0
LINE
8
Layer 1
10
40.373118
20
63.179182
11
38.934838
21
63.608874
0
LINE
8
Layer 1
10
38.934838
20
63.608874
11
37.424759
21
63.755763
0
LINE
8
Layer 1
10
37.424759
20
63.755763
11
37.424759
21
63.755763
0
LINE
8
Layer 1
10
117.427670
20
59.225032
11
115.435081
21
58.966568
0
LINE
8
Layer 1
10
115.435081
20
58.966568
11
113.652302
21
58.232973
0
LINE
8
Layer 1
10
113.652302
20
58.232973
11
112.187656
21
57.086944
0
LINE
8
Layer 1
10
112.187656
20
57.086944
11
111.149463
21
55.591178
0
LINE
8
Layer 1
10
111.149463
20
55.591178
11
110.831060
21
54.753042
0
LINE
8
Layer 1
10
110.831060
20
54.753042
11
110.662594
21
53.897593
0
LINE
8
Layer 1
10
110.662594
20
53.897593
11
110.762761
21
52.190095
0
LINE
8
Layer 1
10
110.762761
20
52.190095
11
111.424547
21
50.579367
0
LINE
8
Layer 1
10
111.424547
20
50.579367
11
112.622538
21
49.176093
0
LINE
8
Layer 1
10
112.622538
20
49.176093
11
114.242494
21
48.138343
0
LINE
8
Layer 1
10
114.242494
20
48.138343
11
116.101937
21
47.565076
0
LINE
8
Layer 1
10
116.101937
20
47.565076
11
118.073093
21
47.478307
0
LINE
8
Layer 1
10
118.073093
20
47.478307
11
120.028189
21
47.900053
0
LINE
8
Layer 1
10
120.028189
20
47.900053
11
121.754918
21
48.799379
0
LINE
8
Layer 1
10
121.754918
20
48.799379
11
123.077907
21
50.068118
0
LINE
8
Layer 1
10
123.077907
20
50.068118
11
123.924778
21
51.612436
0
LINE
8
Layer 1
10
123.924778
20
51.612436
11
124.147051
21
52.458614
0
LINE
8
Layer 1
10
124.147051
20
52.458614
11
124.223153
21
53.338500
0
LINE
8
Layer 1
10
124.223153
20
53.338500
11
124.091373
21
54.492268
0
LINE
8
Layer 1
10
124.091373
20
54.492268
11
123.705877
21
55.591178
0
LINE
8
Layer 1
10
123.705877
20
55.591178
11
123.081432
21
56.604351
0
LINE
8
Layer 1
10
123.081432
20
56.604351
11
122.232802
21
57.500907
0
LINE
8
Layer 1
10
122.232802
20
57.500907
11
121.197807
21
58.236026
0
LINE
8
Layer 1
10
121.197807
20
58.236026
11
120.028189
21
58.776947
0
LINE
8
Layer 1
10
120.028189
20
58.776947
11
118.759594
21
59.110879
0
LINE
8
Layer 1
10
118.759594
20
59.110879
11
117.427670
21
59.225032
0
LINE
8
Layer 1
10
117.427670
20
59.225032
11
117.427670
21
59.225032
0
LINE
8
Layer 1
10
115.047090
20
61.302630
11
120.154522
21
61.302630
0
LINE
8
Layer 1
10
120.154522
20
61.302630
11
120.154522
21
55.675797
0
LINE
8
Layer 1
10
120.154522
20
55.675797
11
115.047090
21
55.675797
0
LINE
8
Layer 1
10
115.047090
20
55.675797
11
115.047090
21
61.302630
0
LINE
8
Layer 1
10
117.211250
20
53.078790
11
117.384390
21
64.245890
 0 
ENDSEC
 0 
EOF