999
"DXF R12 Output" (www.mydxf.blogspot.com)
 0 
SECTION
 2 
HEADER
 9 
$ACADVER
 1 
AC1009
 9 
$EXTMIN
 10 
 0 
 20 
 0 
 9 
$EXTMAX
 10 
 8.5 
 20 
 11 
 0 
ENDSEC
 0 
SECTION
 2 
ENTITIES
0
LINE
8
Layer 1
10
12.487204
20
239.798841
11
237.487204
21
239.798841
0
LINE
8
Layer 1
10
237.487204
20
239.798841
11
237.487204
21
14.798841
0
LINE
8
Layer 1
10
237.487204
20
14.798841
11
12.487204
21
14.798841
0
LINE
8
Layer 1
10
12.487204
20
14.798841
11
12.487204
21
239.798841
0
LINE
8
Layer 1
10
20.366903
20
228.674934
11
38.518915
21
228.674934
0
LINE
8
Layer 1
10
38.518915
20
228.674934
11
38.518915
21
214.440481
0
LINE
8
Layer 1
10
38.518915
20
214.440481
11
20.366903
21
214.440481
0
LINE
8
Layer 1
10
20.366903
20
214.440481
11
20.366903
21
228.674934
0
LINE
8
Layer 1
10
20.367994
20
203.614750
11
38.520006
21
203.614750
0
LINE
8
Layer 1
10
38.520006
20
203.614750
11
38.520006
21
189.380297
0
LINE
8
Layer 1
10
38.520006
20
189.380297
11
20.367994
21
189.380297
0
LINE
8
Layer 1
10
20.367994
20
189.380297
11
20.367994
21
203.614750
0
LINE
8
Layer 1
10
20.294756
20
178.584946
11
38.446768
21
178.584946
0
LINE
8
Layer 1
10
38.446768
20
178.584946
11
38.446768
21
164.350493
0
LINE
8
Layer 1
10
38.446768
20
164.350493
11
20.294756
21
164.350493
0
LINE
8
Layer 1
10
20.294756
20
164.350493
11
20.294756
21
178.584946
0
LINE
8
Layer 1
10
20.415176
20
153.644580
11
38.567188
21
153.644580
0
LINE
8
Layer 1
10
38.567188
20
153.644580
11
38.567188
21
139.410127
0
LINE
8
Layer 1
10
38.567188
20
139.410127
11
20.415176
21
139.410127
0
LINE
8
Layer 1
10
20.415176
20
139.410127
11
20.415176
21
153.644580
0
LINE
8
Layer 1
10
20.251274
20
128.822940
11
38.403286
21
128.822940
0
LINE
8
Layer 1
10
38.403286
20
128.822940
11
38.403286
21
114.588487
0
LINE
8
Layer 1
10
38.403286
20
114.588487
11
20.251274
21
114.588487
0
LINE
8
Layer 1
10
20.251274
20
114.588487
11
20.251274
21
128.822940
0
LINE
8
Layer 1
10
20.364908
20
103.783740
11
38.516920
21
103.783740
0
LINE
8
Layer 1
10
38.516920
20
103.783740
11
38.516920
21
89.549287
0
LINE
8
Layer 1
10
38.516920
20
89.549287
11
20.364908
21
89.549287
0
LINE
8
Layer 1
10
20.364908
20
89.549287
11
20.364908
21
103.783740
0
LINE
8
Layer 1
10
50.973763
20
229.010595
11
69.125775
21
229.010595
0
LINE
8
Layer 1
10
69.125775
20
229.010595
11
69.125775
21
214.776142
0
LINE
8
Layer 1
10
69.125775
20
214.776142
11
50.973763
21
214.776142
0
LINE
8
Layer 1
10
50.973763
20
214.776142
11
50.973763
21
229.010595
0
LINE
8
Layer 1
10
50.974854
20
203.950413
11
69.126866
21
203.950413
0
LINE
8
Layer 1
10
69.126866
20
203.950413
11
69.126866
21
189.715960
0
LINE
8
Layer 1
10
69.126866
20
189.715960
11
50.974854
21
189.715960
0
LINE
8
Layer 1
10
50.974854
20
189.715960
11
50.974854
21
203.950413
0
LINE
8
Layer 1
10
50.901615
20
178.920609
11
69.053627
21
178.920609
0
LINE
8
Layer 1
10
69.053627
20
178.920609
11
69.053627
21
164.686156
0
LINE
8
Layer 1
10
69.053627
20
164.686156
11
50.901615
21
164.686156
0
LINE
8
Layer 1
10
50.901615
20
164.686156
11
50.901615
21
178.920609
0
LINE
8
Layer 1
10
51.022034
20
153.980240
11
69.174046
21
153.980240
0
LINE
8
Layer 1
10
69.174046
20
153.980240
11
69.174046
21
139.745787
0
LINE
8
Layer 1
10
69.174046
20
139.745787
11
51.022034
21
139.745787
0
LINE
8
Layer 1
10
51.022034
20
139.745787
11
51.022034
21
153.980240
0
LINE
8
Layer 1
10
50.858131
20
129.158600
11
69.010143
21
129.158600
0
LINE
8
Layer 1
10
69.010143
20
129.158600
11
69.010143
21
114.924147
0
LINE
8
Layer 1
10
69.010143
20
114.924147
11
50.858131
21
114.924147
0
LINE
8
Layer 1
10
50.858131
20
114.924147
11
50.858131
21
129.158600
0
LINE
8
Layer 1
10
50.971767
20
104.119400
11
69.123779
21
104.119400
0
LINE
8
Layer 1
10
69.123779
20
104.119400
11
69.123779
21
89.884947
0
LINE
8
Layer 1
10
69.123779
20
89.884947
11
50.971767
21
89.884947
0
LINE
8
Layer 1
10
50.971767
20
89.884947
11
50.971767
21
104.119400
0
LINE
8
Layer 1
10
20.201006
20
78.962100
11
38.353018
21
78.962100
0
LINE
8
Layer 1
10
38.353018
20
78.962100
11
38.353018
21
64.727647
0
LINE
8
Layer 1
10
38.353018
20
64.727647
11
20.201006
21
64.727647
0
LINE
8
Layer 1
10
20.201006
20
64.727647
11
20.201006
21
78.962100
0
LINE
8
Layer 1
10
47.130959
20
33.321040
11
75.621781
21
33.321040
0
LINE
8
Layer 1
10
75.621781
20
33.321040
11
75.621781
21
26.753642
0
LINE
8
Layer 1
10
75.621781
20
26.753642
11
47.130959
21
26.753642
0
LINE
8
Layer 1
10
47.130959
20
26.753642
11
47.130959
21
33.321040
0
LINE
8
Layer 1
10
198.381130
20
38.872820
11
226.871952
21
38.872820
0
LINE
8
Layer 1
10
226.871952
20
38.872820
11
226.871952
21
32.305421
0
LINE
8
Layer 1
10
226.871952
20
32.305421
11
198.381130
21
32.305421
0
LINE
8
Layer 1
10
198.381130
20
32.305421
11
198.381130
21
38.872820
0
LINE
8
Layer 1
10
198.636890
20
30.017290
11
227.127712
21
30.017290
0
LINE
8
Layer 1
10
227.127712
20
30.017290
11
227.127712
21
23.449892
0
LINE
8
Layer 1
10
227.127712
20
23.449892
11
198.636890
21
23.449892
0
LINE
8
Layer 1
10
198.636890
20
23.449892
11
198.636890
21
30.017290
0
LINE
8
Layer 1
10
25.401573
20
37.465150
11
34.439406
21
37.465150
0
LINE
8
Layer 1
10
34.439406
20
37.465150
11
34.439406
21
30.050859
0
LINE
8
Layer 1
10
34.439406
20
30.050859
11
25.401573
21
30.050859
0
LINE
8
Layer 1
10
25.401573
20
30.050859
11
25.401573
21
37.465150
0
LINE
8
Layer 1
10
25.363010
20
29.946000
11
34.398500
21
29.946000
0
LINE
8
Layer 1
10
34.398500
20
29.946000
11
34.398500
21
22.447486
0
LINE
8
Layer 1
10
34.398500
20
22.447486
11
25.363010
21
22.447486
0
LINE
8
Layer 1
10
25.363010
20
22.447486
11
25.363010
21
29.946000
0
LINE
8
Layer 1
10
34.697056
20
29.879490
11
43.734889
21
29.879490
0
LINE
8
Layer 1
10
43.734889
20
29.879490
11
43.734889
21
22.465199
0
LINE
8
Layer 1
10
43.734889
20
22.465199
11
34.697056
21
22.465199
0
LINE
8
Layer 1
10
34.697056
20
22.465199
11
34.697056
21
29.879490
0
LINE
8
Layer 1
10
34.717258
20
37.458950
11
43.755091
21
37.458950
0
LINE
8
Layer 1
10
43.755091
20
37.458950
11
43.755091
21
30.044659
0
LINE
8
Layer 1
10
43.755091
20
30.044659
11
34.717258
21
30.044659
0
LINE
8
Layer 1
10
34.717258
20
30.044659
11
34.717258
21
37.458950
0
LINE
8
Layer 1
10
21.307835
20
41.466260
11
229.415975
21
41.466260
0
LINE
8
Layer 1
10
229.415975
20
41.466260
11
229.415975
21
18.952504
0
LINE
8
Layer 1
10
229.415975
20
18.952504
11
21.307835
21
18.952504
0
LINE
8
Layer 1
10
21.307835
20
18.952504
11
21.307835
21
41.466260
0
LINE
8
Layer 1
10
80.550415
20
37.048870
11
98.702427
21
37.048870
0
LINE
8
Layer 1
10
98.702427
20
37.048870
11
98.702427
21
22.814417
0
LINE
8
Layer 1
10
98.702427
20
22.814417
11
80.550415
21
22.814417
0
LINE
8
Layer 1
10
80.550415
20
22.814417
11
80.550415
21
37.048870
0
LINE
8
Layer 1
10
105.372420
20
37.111050
11
123.524432
21
37.111050
0
LINE
8
Layer 1
10
123.524432
20
37.111050
11
123.524432
21
22.876597
0
LINE
8
Layer 1
10
123.524432
20
22.876597
11
105.372420
21
22.876597
0
LINE
8
Layer 1
10
105.372420
20
22.876597
11
105.372420
21
37.111050
0
LINE
8
Layer 1
10
129.600430
20
37.321880
11
147.752442
21
37.321880
0
LINE
8
Layer 1
10
147.752442
20
37.321880
11
147.752442
21
23.087427
0
LINE
8
Layer 1
10
147.752442
20
23.087427
11
129.600430
21
23.087427
0
LINE
8
Layer 1
10
129.600430
20
23.087427
11
129.600430
21
37.321880
0
LINE
8
Layer 1
10
174.648020
20
26.502820
11
178.835510
21
33.755780
0
LINE
8
Layer 1
10
178.809260
20
33.851550
11
183.173060
21
26.683950
0
LINE
8
Layer 1
10
165.515450
20
19.404360
11
164.822920
21
40.872890
 0 
ENDSEC
 0 
EOF