999
"DXF R12 Output" (www.mydxf.blogspot.com)
 0 
SECTION
 2 
HEADER
 9 
$ACADVER
 1 
AC1009
 9 
$EXTMIN
 10 
 0 
 20 
 0 
 9 
$EXTMAX
 10 
 8.5 
 20 
 11 
 0 
ENDSEC
 0 
SECTION
 2 
ENTITIES
0
LINE
8
Layer 1
10
21.394562
20
230.830282
11
76.421986
21
230.830282
0
LINE
8
Layer 1
10
76.421986
20
230.830282
11
76.421986
21
217.182080
0
LINE
8
Layer 1
10
76.421986
20
217.182080
11
21.394562
21
217.182080
0
LINE
8
Layer 1
10
21.394562
20
217.182080
11
21.394562
21
230.830282
0
LINE
8
Layer 1
10
62.091331
20
210.053387
11
169.242531
21
210.053387
0
LINE
8
Layer 1
10
169.242531
20
210.053387
11
169.242531
21
199.259244
0
LINE
8
Layer 1
10
169.242531
20
199.259244
11
62.091331
21
199.259244
0
LINE
8
Layer 1
10
62.091331
20
199.259244
11
62.091331
21
210.053387
0
LINE
8
Layer 1
10
15.938021
20
238.796502
11
240.662131
21
238.796502
0
LINE
8
Layer 1
10
240.662131
20
238.796502
11
240.662131
21
216.316411
0
LINE
8
Layer 1
10
240.662131
20
216.316411
11
15.938021
21
216.316411
0
LINE
8
Layer 1
10
15.938021
20
216.316411
11
15.938021
21
238.796502
0
LINE
8
Layer 1
10
16.315874
20
215.803894
11
240.651204
21
215.803894
0
LINE
8
Layer 1
10
240.651204
20
215.803894
11
240.651204
21
193.323030
0
LINE
8
Layer 1
10
240.651204
20
193.323030
11
16.315874
21
193.323030
0
LINE
8
Layer 1
10
16.315874
20
193.323030
11
16.315874
21
215.803894
0
LINE
8
Layer 1
10
15.622904
20
239.051199
11
240.622904
21
239.051199
0
LINE
8
Layer 1
10
240.622904
20
239.051199
11
240.622904
21
14.051199
0
LINE
8
Layer 1
10
240.622904
20
14.051199
11
15.622904
21
14.051199
0
LINE
8
Layer 1
10
15.622904
20
14.051199
11
15.622904
21
239.051199
0
LINE
8
Layer 1
10
83.493030
20
223.473398
11
98.183880
21
223.718246
0
LINE
8
Layer 1
10
91.328150
20
217.312739
11
91.328150
21
230.289656
0
LINE
8
Layer 1
10
178.940190
20
209.737606
11
237.687718
21
209.737606
0
LINE
8
Layer 1
10
237.687718
20
209.737606
11
237.687718
21
199.403269
0
LINE
8
Layer 1
10
237.687718
20
199.403269
11
178.940190
21
199.403269
0
LINE
8
Layer 1
10
178.940190
20
199.403269
11
178.940190
21
209.737606
0
LINE
8
Layer 1
10
84.290981
20
167.493375
11
115.116829
21
167.493375
0
LINE
8
Layer 1
10
115.116829
20
167.493375
11
115.116829
21
148.985026
0
LINE
8
Layer 1
10
115.116829
20
148.985026
11
84.290981
21
148.985026
0
LINE
8
Layer 1
10
84.290981
20
148.985026
11
84.290981
21
167.493375
0
LINE
8
Layer 1
10
121.066349
20
167.493375
11
151.892197
21
167.493375
0
LINE
8
Layer 1
10
151.892197
20
167.493375
11
151.892197
21
148.985026
0
LINE
8
Layer 1
10
151.892197
20
148.985026
11
121.066349
21
148.985026
0
LINE
8
Layer 1
10
121.066349
20
148.985026
11
121.066349
21
167.493375
0
LINE
8
Layer 1
10
157.841722
20
167.493375
11
188.667570
21
167.493375
0
LINE
8
Layer 1
10
188.667570
20
167.493375
11
188.667570
21
148.985026
0
LINE
8
Layer 1
10
188.667570
20
148.985026
11
157.841722
21
148.985026
0
LINE
8
Layer 1
10
157.841722
20
148.985026
11
157.841722
21
167.493375
0
LINE
8
Layer 1
10
194.617085
20
167.493375
11
225.442934
21
167.493375
0
LINE
8
Layer 1
10
225.442934
20
167.493375
11
225.442934
21
148.985026
0
LINE
8
Layer 1
10
225.442934
20
148.985026
11
194.617085
21
148.985026
0
LINE
8
Layer 1
10
194.617085
20
148.985026
11
194.617085
21
167.493375
0
LINE
8
Layer 1
10
84.290981
20
137.183375
11
115.116829
21
137.183375
0
LINE
8
Layer 1
10
115.116829
20
137.183375
11
115.116829
21
118.675026
0
LINE
8
Layer 1
10
115.116829
20
118.675026
11
84.290981
21
118.675026
0
LINE
8
Layer 1
10
84.290981
20
118.675026
11
84.290981
21
137.183375
0
LINE
8
Layer 1
10
121.066349
20
137.183375
11
151.892197
21
137.183375
0
LINE
8
Layer 1
10
151.892197
20
137.183375
11
151.892197
21
118.675026
0
LINE
8
Layer 1
10
151.892197
20
118.675026
11
121.066349
21
118.675026
0
LINE
8
Layer 1
10
121.066349
20
118.675026
11
121.066349
21
137.183375
0
LINE
8
Layer 1
10
157.841722
20
137.183375
11
188.667570
21
137.183375
0
LINE
8
Layer 1
10
188.667570
20
137.183375
11
188.667570
21
118.675026
0
LINE
8
Layer 1
10
188.667570
20
118.675026
11
157.841722
21
118.675026
0
LINE
8
Layer 1
10
157.841722
20
118.675026
11
157.841722
21
137.183375
0
LINE
8
Layer 1
10
194.617085
20
137.183375
11
225.442934
21
137.183375
0
LINE
8
Layer 1
10
225.442934
20
137.183375
11
225.442934
21
118.675026
0
LINE
8
Layer 1
10
225.442934
20
118.675026
11
194.617085
21
118.675026
0
LINE
8
Layer 1
10
194.617085
20
118.675026
11
194.617085
21
137.183375
0
LINE
8
Layer 1
10
84.290981
20
106.874375
11
115.116829
21
106.874375
0
LINE
8
Layer 1
10
115.116829
20
106.874375
11
115.116829
21
88.366026
0
LINE
8
Layer 1
10
115.116829
20
88.366026
11
84.290981
21
88.366026
0
LINE
8
Layer 1
10
84.290981
20
88.366026
11
84.290981
21
106.874375
0
LINE
8
Layer 1
10
121.066349
20
106.874375
11
151.892197
21
106.874375
0
LINE
8
Layer 1
10
151.892197
20
106.874375
11
151.892197
21
88.366026
0
LINE
8
Layer 1
10
151.892197
20
88.366026
11
121.066349
21
88.366026
0
LINE
8
Layer 1
10
121.066349
20
88.366026
11
121.066349
21
106.874375
0
LINE
8
Layer 1
10
157.841722
20
106.874375
11
188.667570
21
106.874375
0
LINE
8
Layer 1
10
188.667570
20
106.874375
11
188.667570
21
88.366026
0
LINE
8
Layer 1
10
188.667570
20
88.366026
11
157.841722
21
88.366026
0
LINE
8
Layer 1
10
157.841722
20
88.366026
11
157.841722
21
106.874375
0
LINE
8
Layer 1
10
194.617085
20
106.874375
11
225.442934
21
106.874375
0
LINE
8
Layer 1
10
225.442934
20
106.874375
11
225.442934
21
88.366026
0
LINE
8
Layer 1
10
225.442934
20
88.366026
11
194.617085
21
88.366026
0
LINE
8
Layer 1
10
194.617085
20
88.366026
11
194.617085
21
106.874375
0
LINE
8
Layer 1
10
84.290981
20
76.564375
11
115.116829
21
76.564375
0
LINE
8
Layer 1
10
115.116829
20
76.564375
11
115.116829
21
58.056026
0
LINE
8
Layer 1
10
115.116829
20
58.056026
11
84.290981
21
58.056026
0
LINE
8
Layer 1
10
84.290981
20
58.056026
11
84.290981
21
76.564375
0
LINE
8
Layer 1
10
121.066349
20
76.564375
11
151.892197
21
76.564375
0
LINE
8
Layer 1
10
151.892197
20
76.564375
11
151.892197
21
58.056026
0
LINE
8
Layer 1
10
151.892197
20
58.056026
11
121.066349
21
58.056026
0
LINE
8
Layer 1
10
121.066349
20
58.056026
11
121.066349
21
76.564375
0
LINE
8
Layer 1
10
157.841722
20
76.564375
11
188.667570
21
76.564375
0
LINE
8
Layer 1
10
188.667570
20
76.564375
11
188.667570
21
58.056026
0
LINE
8
Layer 1
10
188.667570
20
58.056026
11
157.841722
21
58.056026
0
LINE
8
Layer 1
10
157.841722
20
58.056026
11
157.841722
21
76.564375
0
LINE
8
Layer 1
10
194.617085
20
76.564375
11
225.442934
21
76.564375
0
LINE
8
Layer 1
10
225.442934
20
76.564375
11
225.442934
21
58.056026
0
LINE
8
Layer 1
10
225.442934
20
58.056026
11
194.617085
21
58.056026
0
LINE
8
Layer 1
10
194.617085
20
58.056026
11
194.617085
21
76.564375
0
LINE
8
Layer 1
10
84.290981
20
46.255375
11
115.116829
21
46.255375
0
LINE
8
Layer 1
10
115.116829
20
46.255375
11
115.116829
21
27.747026
0
LINE
8
Layer 1
10
115.116829
20
27.747026
11
84.290981
21
27.747026
0
LINE
8
Layer 1
10
84.290981
20
27.747026
11
84.290981
21
46.255375
0
LINE
8
Layer 1
10
121.066349
20
46.255375
11
151.892197
21
46.255375
0
LINE
8
Layer 1
10
151.892197
20
46.255375
11
151.892197
21
27.747026
0
LINE
8
Layer 1
10
151.892197
20
27.747026
11
121.066349
21
27.747026
0
LINE
8
Layer 1
10
121.066349
20
27.747026
11
121.066349
21
46.255375
0
LINE
8
Layer 1
10
157.841722
20
46.255375
11
188.667570
21
46.255375
0
LINE
8
Layer 1
10
188.667570
20
46.255375
11
188.667570
21
27.747026
0
LINE
8
Layer 1
10
188.667570
20
27.747026
11
157.841722
21
27.747026
0
LINE
8
Layer 1
10
157.841722
20
27.747026
11
157.841722
21
46.255375
0
LINE
8
Layer 1
10
194.617085
20
46.255375
11
225.442934
21
46.255375
0
LINE
8
Layer 1
10
225.442934
20
46.255375
11
225.442934
21
27.747026
0
LINE
8
Layer 1
10
225.442934
20
27.747026
11
194.617085
21
27.747026
0
LINE
8
Layer 1
10
194.617085
20
27.747026
11
194.617085
21
46.255375
0
LINE
8
Layer 1
10
51.648394
20
209.320738
11
49.922330
21
209.087930
0
LINE
8
Layer 1
10
49.922330
20
209.087930
11
48.378012
21
208.427155
0
LINE
8
Layer 1
10
48.378012
20
208.427155
11
47.109273
21
207.394886
0
LINE
8
Layer 1
10
47.109273
20
207.394886
11
46.209947
21
206.047597
0
LINE
8
Layer 1
10
46.209947
20
206.047597
11
45.788201
21
204.522125
0
LINE
8
Layer 1
10
45.788201
20
204.522125
11
45.874970
21
202.984121
0
LINE
8
Layer 1
10
45.874970
20
202.984121
11
46.448237
21
201.533281
0
LINE
8
Layer 1
10
46.448237
20
201.533281
11
47.485987
21
200.269303
0
LINE
8
Layer 1
10
47.485987
20
200.269303
11
48.889261
21
199.334565
0
LINE
8
Layer 1
10
48.889261
20
199.334565
11
50.499989
21
198.818203
0
LINE
8
Layer 1
10
50.499989
20
198.818203
11
52.207487
21
198.740047
0
LINE
8
Layer 1
10
52.207487
20
198.740047
11
53.901072
21
199.119929
0
LINE
8
Layer 1
10
53.901072
20
199.119929
11
55.396838
21
199.929984
0
LINE
8
Layer 1
10
55.396838
20
199.929984
11
56.542867
21
201.072781
0
LINE
8
Layer 1
10
56.542867
20
201.072781
11
57.276462
21
202.463803
0
LINE
8
Layer 1
10
57.276462
20
202.463803
11
57.534926
21
204.018530
0
LINE
8
Layer 1
10
57.534926
20
204.018530
11
57.420773
21
205.057770
0
LINE
8
Layer 1
10
57.420773
20
205.057770
11
57.086841
21
206.047597
0
LINE
8
Layer 1
10
57.086841
20
206.047597
11
56.545920
21
206.960198
0
LINE
8
Layer 1
10
56.545920
20
206.960198
11
55.810801
21
207.767757
0
LINE
8
Layer 1
10
55.810801
20
207.767757
11
54.914245
21
208.429905
0
LINE
8
Layer 1
10
54.914245
20
208.429905
11
53.901072
21
208.917131
0
LINE
8
Layer 1
10
53.901072
20
208.917131
11
52.802162
21
209.217916
0
LINE
8
Layer 1
10
52.802162
20
209.217916
11
51.648394
21
209.320738
0
LINE
8
Layer 1
10
51.648394
20
209.320738
11
51.648394
21
209.320738
0
LINE
8
Layer 1
10
56.020011
20
207.632689
11
58.140894
21
207.632689
0
LINE
8
Layer 1
10
58.140894
20
207.632689
11
58.140894
21
204.819273
0
LINE
8
Layer 1
10
58.140894
20
204.819273
11
56.020011
21
204.819273
0
LINE
8
Layer 1
10
56.020011
20
204.819273
11
56.020011
21
207.632689
0
LINE
8
Layer 1
10
52.860330
20
206.940155
11
57.231945
21
205.814790
0
LINE
8
Layer 1
10
57.188662
20
209.623721
11
57.231942
21
205.858073
0
LINE
8
Layer 1
10
25.816394
20
209.115187
11
18.977628
21
203.877905
0
LINE
8
Layer 1
10
26.076094
20
198.943606
11
19.064195
21
203.791339
0
LINE
8
Layer 1
10
29.322344
20
204.051038
11
19.194045
21
203.921189
0
LINE
8
Layer 1
10
35.033736
20
209.344231
11
41.872502
21
204.383161
0
LINE
8
Layer 1
10
34.774136
20
199.162161
11
41.786035
21
204.293098
0
LINE
8
Layer 1
10
31.527886
20
204.138480
11
41.656185
21
204.417704
0
LINE
8
Layer 1
10
15.928060
20
193.020004
11
240.916950
21
193.020004
0
LINE
8
Layer 1
10
240.916950
20
193.020004
11
240.916950
21
175.906631
0
LINE
8
Layer 1
10
240.916950
20
175.906631
11
15.928060
21
175.906631
0
LINE
8
Layer 1
10
15.928060
20
175.906631
11
15.928060
21
193.020004
0
LINE
8
Layer 1
10
80.253462
20
175.261263
11
80.033339
21
14.254470
0
LINE
8
Layer 1
10
19.857416
20
167.803223
11
33.988124
21
167.803223
0
LINE
8
Layer 1
10
33.988124
20
167.803223
11
33.988124
21
156.788918
0
LINE
8
Layer 1
10
33.988124
20
156.788918
11
19.857416
21
156.788918
0
LINE
8
Layer 1
10
19.857416
20
156.788918
11
19.857416
21
167.803223
0
LINE
8
Layer 1
10
19.857416
20
151.281880
11
33.988124
21
151.281880
0
LINE
8
Layer 1
10
33.988124
20
151.281880
11
33.988124
21
140.267575
0
LINE
8
Layer 1
10
33.988124
20
140.267575
11
19.857416
21
140.267575
0
LINE
8
Layer 1
10
19.857416
20
140.267575
11
19.857416
21
151.281880
0
LINE
8
Layer 1
10
41.024090
20
134.760510
11
55.154798
21
134.760510
0
LINE
8
Layer 1
10
55.154798
20
134.760510
11
55.154798
21
123.746205
0
LINE
8
Layer 1
10
55.154798
20
123.746205
11
41.024090
21
123.746205
0
LINE
8
Layer 1
10
41.024090
20
123.746205
11
41.024090
21
134.760510
0
LINE
8
Layer 1
10
62.190762
20
118.239140
11
76.321470
21
118.239140
0
LINE
8
Layer 1
10
76.321470
20
118.239140
11
76.321470
21
107.224835
0
LINE
8
Layer 1
10
76.321470
20
107.224835
11
62.190762
21
107.224835
0
LINE
8
Layer 1
10
62.190762
20
107.224835
11
62.190762
21
118.239140
0
LINE
8
Layer 1
10
41.024090
20
101.717790
11
55.154798
21
101.717790
0
LINE
8
Layer 1
10
55.154798
20
101.717790
11
55.154798
21
90.703485
0
LINE
8
Layer 1
10
55.154798
20
90.703485
11
41.024090
21
90.703485
0
LINE
8
Layer 1
10
41.024090
20
90.703485
11
41.024090
21
101.717790
0
LINE
8
Layer 1
10
19.857416
20
85.196430
11
33.988124
21
85.196430
0
LINE
8
Layer 1
10
33.988124
20
85.196430
11
33.988124
21
74.182125
0
LINE
8
Layer 1
10
33.988124
20
74.182125
11
19.857416
21
74.182125
0
LINE
8
Layer 1
10
19.857416
20
74.182125
11
19.857416
21
85.196430
0
LINE
8
Layer 1
10
19.857416
20
68.675060
11
33.988124
21
68.675060
0
LINE
8
Layer 1
10
33.988124
20
68.675060
11
33.988124
21
57.660755
0
LINE
8
Layer 1
10
33.988124
20
57.660755
11
19.857416
21
57.660755
0
LINE
8
Layer 1
10
19.857416
20
57.660755
11
19.857416
21
68.675060
0
LINE
8
Layer 1
10
19.857416
20
52.153720
11
33.988124
21
52.153720
0
LINE
8
Layer 1
10
33.988124
20
52.153720
11
33.988124
21
41.139415
0
LINE
8
Layer 1
10
33.988124
20
41.139415
11
19.857416
21
41.139415
0
LINE
8
Layer 1
10
19.857416
20
41.139415
11
19.857416
21
52.153720
0
LINE
8
Layer 1
10
19.857416
20
35.632350
11
33.988124
21
35.632350
0
LINE
8
Layer 1
10
33.988124
20
35.632350
11
33.988124
21
24.618045
0
LINE
8
Layer 1
10
33.988124
20
24.618045
11
19.857416
21
24.618045
0
LINE
8
Layer 1
10
19.857416
20
24.618045
11
19.857416
21
35.632350
0
LINE
8
Layer 1
10
25.372637
20
140.313470
11
25.545770
21
95.818210
0
LINE
8
Layer 1
10
27.103970
20
139.967210
11
27.623368
21
95.818210
0
LINE
8
Layer 1
10
35.657777
20
96.014810
11
35.106870
21
96.198450
0
LINE
8
Layer 1
10
27.700233
20
96.468650
11
40.678643
21
96.468650
0
LINE
8
Layer 1
10
27.822658
20
128.676590
11
41.360674
21
128.676590
0
LINE
8
Layer 1
10
47.988811
20
123.682580
11
47.988811
21
112.113530
0
LINE
8
Layer 1
10
48.172448
20
112.174750
11
62.354090
21
112.174750
 0 
ENDSEC
 0 
EOF