999
"DXF R12 Output" (www.mydxf.blogspot.com)
 0 
SECTION
 2 
HEADER
 9 
$ACADVER
 1 
AC1009
 9 
$EXTMIN
 10 
 0 
 20 
 0 
 9 
$EXTMAX
 10 
 8.5 
 20 
 11 
 0 
ENDSEC
 0 
SECTION
 2 
ENTITIES
0
LINE
8
Layer 1
10
21.394562
20
230.830282
11
76.421986
21
230.830282
0
LINE
8
Layer 1
10
76.421986
20
230.830282
11
76.421986
21
217.182080
0
LINE
8
Layer 1
10
76.421986
20
217.182080
11
21.394562
21
217.182080
0
LINE
8
Layer 1
10
21.394562
20
217.182080
11
21.394562
21
230.830282
0
LINE
8
Layer 1
10
84.816246
20
230.927874
11
139.843670
21
230.927874
0
LINE
8
Layer 1
10
139.843670
20
230.927874
11
139.843670
21
217.279672
0
LINE
8
Layer 1
10
139.843670
20
217.279672
11
84.816246
21
217.279672
0
LINE
8
Layer 1
10
84.816246
20
217.279672
11
84.816246
21
230.927874
0
LINE
8
Layer 1
10
62.091331
20
210.053387
11
169.242531
21
210.053387
0
LINE
8
Layer 1
10
169.242531
20
210.053387
11
169.242531
21
199.259244
0
LINE
8
Layer 1
10
169.242531
20
199.259244
11
62.091331
21
199.259244
0
LINE
8
Layer 1
10
62.091331
20
199.259244
11
62.091331
21
210.053387
0
LINE
8
Layer 1
10
15.938021
20
238.796502
11
240.662131
21
238.796502
0
LINE
8
Layer 1
10
240.662131
20
238.796502
11
240.662131
21
216.316411
0
LINE
8
Layer 1
10
240.662131
20
216.316411
11
15.938021
21
216.316411
0
LINE
8
Layer 1
10
15.938021
20
216.316411
11
15.938021
21
238.796502
0
LINE
8
Layer 1
10
16.315874
20
215.803894
11
240.651204
21
215.803894
0
LINE
8
Layer 1
10
240.651204
20
215.803894
11
240.651204
21
193.323030
0
LINE
8
Layer 1
10
240.651204
20
193.323030
11
16.315874
21
193.323030
0
LINE
8
Layer 1
10
16.315874
20
193.323030
11
16.315874
21
215.803894
0
LINE
8
Layer 1
10
15.622904
20
239.051199
11
240.622904
21
239.051199
0
LINE
8
Layer 1
10
240.622904
20
239.051199
11
240.622904
21
14.051199
0
LINE
8
Layer 1
10
240.622904
20
14.051199
11
15.622904
21
14.051199
0
LINE
8
Layer 1
10
15.622904
20
14.051199
11
15.622904
21
239.051199
0
LINE
8
Layer 1
10
147.643030
20
224.452398
11
162.333880
21
224.697246
0
LINE
8
Layer 1
10
155.478150
20
218.291739
11
155.478150
21
231.268656
0
LINE
8
Layer 1
10
178.940190
20
209.737606
11
237.687718
21
209.737606
0
LINE
8
Layer 1
10
237.687718
20
209.737606
11
237.687718
21
199.403269
0
LINE
8
Layer 1
10
237.687718
20
199.403269
11
178.940190
21
199.403269
0
LINE
8
Layer 1
10
178.940190
20
199.403269
11
178.940190
21
209.737606
0
LINE
8
Layer 1
10
19.491440
20
168.779961
11
33.622148
21
168.779961
0
LINE
8
Layer 1
10
33.622148
20
168.779961
11
33.622148
21
157.765656
0
LINE
8
Layer 1
10
33.622148
20
157.765656
11
19.491440
21
157.765656
0
LINE
8
Layer 1
10
19.491440
20
157.765656
11
19.491440
21
168.779961
0
LINE
8
Layer 1
10
19.491440
20
152.258610
11
33.622148
21
152.258610
0
LINE
8
Layer 1
10
33.622148
20
152.258610
11
33.622148
21
141.244305
0
LINE
8
Layer 1
10
33.622148
20
141.244305
11
19.491440
21
141.244305
0
LINE
8
Layer 1
10
19.491440
20
141.244305
11
19.491440
21
152.258610
0
LINE
8
Layer 1
10
40.658112
20
135.737240
11
54.788820
21
135.737240
0
LINE
8
Layer 1
10
54.788820
20
135.737240
11
54.788820
21
124.722935
0
LINE
8
Layer 1
10
54.788820
20
124.722935
11
40.658112
21
124.722935
0
LINE
8
Layer 1
10
40.658112
20
124.722935
11
40.658112
21
135.737240
0
LINE
8
Layer 1
10
61.824783
20
119.215880
11
75.955491
21
119.215880
0
LINE
8
Layer 1
10
75.955491
20
119.215880
11
75.955491
21
108.201575
0
LINE
8
Layer 1
10
75.955491
20
108.201575
11
61.824783
21
108.201575
0
LINE
8
Layer 1
10
61.824783
20
108.201575
11
61.824783
21
119.215880
0
LINE
8
Layer 1
10
40.658112
20
102.694530
11
54.788820
21
102.694530
0
LINE
8
Layer 1
10
54.788820
20
102.694530
11
54.788820
21
91.680225
0
LINE
8
Layer 1
10
54.788820
20
91.680225
11
40.658112
21
91.680225
0
LINE
8
Layer 1
10
40.658112
20
91.680225
11
40.658112
21
102.694530
0
LINE
8
Layer 1
10
19.491440
20
86.173170
11
33.622148
21
86.173170
0
LINE
8
Layer 1
10
33.622148
20
86.173170
11
33.622148
21
75.158865
0
LINE
8
Layer 1
10
33.622148
20
75.158865
11
19.491440
21
75.158865
0
LINE
8
Layer 1
10
19.491440
20
75.158865
11
19.491440
21
86.173170
0
LINE
8
Layer 1
10
19.491440
20
69.651810
11
33.622148
21
69.651810
0
LINE
8
Layer 1
10
33.622148
20
69.651810
11
33.622148
21
58.637505
0
LINE
8
Layer 1
10
33.622148
20
58.637505
11
19.491440
21
58.637505
0
LINE
8
Layer 1
10
19.491440
20
58.637505
11
19.491440
21
69.651810
0
LINE
8
Layer 1
10
19.491440
20
53.130460
11
33.622148
21
53.130460
0
LINE
8
Layer 1
10
33.622148
20
53.130460
11
33.622148
21
42.116155
0
LINE
8
Layer 1
10
33.622148
20
42.116155
11
19.491440
21
42.116155
0
LINE
8
Layer 1
10
19.491440
20
42.116155
11
19.491440
21
53.130460
0
LINE
8
Layer 1
10
19.491440
20
36.609100
11
33.622148
21
36.609100
0
LINE
8
Layer 1
10
33.622148
20
36.609100
11
33.622148
21
25.594795
0
LINE
8
Layer 1
10
33.622148
20
25.594795
11
19.491440
21
25.594795
0
LINE
8
Layer 1
10
19.491440
20
25.594795
11
19.491440
21
36.609100
0
LINE
8
Layer 1
10
51.648394
20
209.320738
11
49.922330
21
209.087930
0
LINE
8
Layer 1
10
49.922330
20
209.087930
11
48.378012
21
208.427155
0
LINE
8
Layer 1
10
48.378012
20
208.427155
11
47.109273
21
207.394886
0
LINE
8
Layer 1
10
47.109273
20
207.394886
11
46.209947
21
206.047597
0
LINE
8
Layer 1
10
46.209947
20
206.047597
11
45.788201
21
204.522125
0
LINE
8
Layer 1
10
45.788201
20
204.522125
11
45.874970
21
202.984121
0
LINE
8
Layer 1
10
45.874970
20
202.984121
11
46.448237
21
201.533281
0
LINE
8
Layer 1
10
46.448237
20
201.533281
11
47.485987
21
200.269303
0
LINE
8
Layer 1
10
47.485987
20
200.269303
11
48.889261
21
199.334565
0
LINE
8
Layer 1
10
48.889261
20
199.334565
11
50.499989
21
198.818203
0
LINE
8
Layer 1
10
50.499989
20
198.818203
11
52.207487
21
198.740047
0
LINE
8
Layer 1
10
52.207487
20
198.740047
11
53.901072
21
199.119929
0
LINE
8
Layer 1
10
53.901072
20
199.119929
11
55.396838
21
199.929984
0
LINE
8
Layer 1
10
55.396838
20
199.929984
11
56.542867
21
201.072781
0
LINE
8
Layer 1
10
56.542867
20
201.072781
11
57.276462
21
202.463803
0
LINE
8
Layer 1
10
57.276462
20
202.463803
11
57.534926
21
204.018530
0
LINE
8
Layer 1
10
57.534926
20
204.018530
11
57.420773
21
205.057770
0
LINE
8
Layer 1
10
57.420773
20
205.057770
11
57.086841
21
206.047597
0
LINE
8
Layer 1
10
57.086841
20
206.047597
11
56.545920
21
206.960198
0
LINE
8
Layer 1
10
56.545920
20
206.960198
11
55.810801
21
207.767757
0
LINE
8
Layer 1
10
55.810801
20
207.767757
11
54.914245
21
208.429905
0
LINE
8
Layer 1
10
54.914245
20
208.429905
11
53.901072
21
208.917131
0
LINE
8
Layer 1
10
53.901072
20
208.917131
11
52.802162
21
209.217916
0
LINE
8
Layer 1
10
52.802162
20
209.217916
11
51.648394
21
209.320738
0
LINE
8
Layer 1
10
51.648394
20
209.320738
11
51.648394
21
209.320738
0
LINE
8
Layer 1
10
56.020011
20
207.632689
11
58.140894
21
207.632689
0
LINE
8
Layer 1
10
58.140894
20
207.632689
11
58.140894
21
204.819273
0
LINE
8
Layer 1
10
58.140894
20
204.819273
11
56.020011
21
204.819273
0
LINE
8
Layer 1
10
56.020011
20
204.819273
11
56.020011
21
207.632689
0
LINE
8
Layer 1
10
52.860330
20
206.940155
11
57.231945
21
205.814790
0
LINE
8
Layer 1
10
57.188662
20
209.623721
11
57.231942
21
205.858073
0
LINE
8
Layer 1
10
25.816394
20
209.115187
11
18.977628
21
203.877905
0
LINE
8
Layer 1
10
26.076094
20
198.943606
11
19.064195
21
203.791339
0
LINE
8
Layer 1
10
29.322344
20
204.051038
11
19.194045
21
203.921189
0
LINE
8
Layer 1
10
35.033736
20
209.344231
11
41.872502
21
204.383161
0
LINE
8
Layer 1
10
34.774136
20
199.162161
11
41.786035
21
204.293098
0
LINE
8
Layer 1
10
31.527886
20
204.138480
11
41.656185
21
204.417704
0
LINE
8
Layer 1
10
15.928060
20
193.020004
11
240.916950
21
193.020004
0
LINE
8
Layer 1
10
240.916950
20
193.020004
11
240.916950
21
175.906631
0
LINE
8
Layer 1
10
240.916950
20
175.906631
11
15.928060
21
175.906631
0
LINE
8
Layer 1
10
15.928060
20
175.906631
11
15.928060
21
193.020004
0
LINE
8
Layer 1
10
80.090401
20
175.858498
11
240.370861
21
175.858498
0
LINE
8
Layer 1
10
240.370861
20
175.858498
11
240.370861
21
163.647004
0
LINE
8
Layer 1
10
240.370861
20
163.647004
11
80.090401
21
163.647004
0
LINE
8
Layer 1
10
80.090401
20
163.647004
11
80.090401
21
175.858498
0
LINE
8
Layer 1
10
80.253462
20
175.261263
11
80.033339
21
14.254470
0
LINE
8
Layer 1
10
25.006661
20
141.290210
11
25.179794
21
96.794950
0
LINE
8
Layer 1
10
26.737994
20
140.943950
11
27.257392
21
96.794950
0
LINE
8
Layer 1
10
35.291801
20
96.991550
11
34.740894
21
97.175190
0
LINE
8
Layer 1
10
27.334257
20
97.445390
11
40.312667
21
97.445390
0
LINE
8
Layer 1
10
27.456682
20
129.653330
11
40.994698
21
129.653330
0
LINE
8
Layer 1
10
47.622835
20
124.659320
11
47.622835
21
113.090270
0
LINE
8
Layer 1
10
47.806472
20
113.151490
11
61.988114
21
113.151490
0
LINE
8
Layer 1
10
84.142555
20
157.590778
11
115.033212
21
157.590778
0
LINE
8
Layer 1
10
115.033212
20
157.590778
11
115.033212
21
146.606725
0
LINE
8
Layer 1
10
115.033212
20
146.606725
11
84.142555
21
146.606725
0
LINE
8
Layer 1
10
84.142555
20
146.606725
11
84.142555
21
157.590778
0
LINE
8
Layer 1
10
122.408090
20
149.923400
11
174.914922
21
149.923400
0
LINE
8
Layer 1
10
174.914922
20
149.923400
11
174.914922
21
146.176468
0
LINE
8
Layer 1
10
174.914922
20
146.176468
11
122.408090
21
146.176468
0
LINE
8
Layer 1
10
122.408090
20
146.176468
11
122.408090
21
149.923400
0
LINE
8
Layer 1
10
181.866910
20
149.750270
11
234.373738
21
149.750270
0
LINE
8
Layer 1
10
234.373738
20
149.750270
11
234.373738
21
146.003339
0
LINE
8
Layer 1
10
234.373738
20
146.003339
11
181.866910
21
146.003339
0
LINE
8
Layer 1
10
181.866910
20
146.003339
11
181.866910
21
149.750270
0
LINE
8
Layer 1
10
84.142555
20
141.775778
11
115.033212
21
141.775778
0
LINE
8
Layer 1
10
115.033212
20
141.775778
11
115.033212
21
130.791725
0
LINE
8
Layer 1
10
115.033212
20
130.791725
11
84.142555
21
130.791725
0
LINE
8
Layer 1
10
84.142555
20
130.791725
11
84.142555
21
141.775778
0
LINE
8
Layer 1
10
122.408090
20
134.108400
11
174.914922
21
134.108400
0
LINE
8
Layer 1
10
174.914922
20
134.108400
11
174.914922
21
130.361468
0
LINE
8
Layer 1
10
174.914922
20
130.361468
11
122.408090
21
130.361468
0
LINE
8
Layer 1
10
122.408090
20
130.361468
11
122.408090
21
134.108400
0
LINE
8
Layer 1
10
181.866910
20
133.935270
11
234.373738
21
133.935270
0
LINE
8
Layer 1
10
234.373738
20
133.935270
11
234.373738
21
130.188339
0
LINE
8
Layer 1
10
234.373738
20
130.188339
11
181.866910
21
130.188339
0
LINE
8
Layer 1
10
181.866910
20
130.188339
11
181.866910
21
133.935270
0
LINE
8
Layer 1
10
84.142555
20
125.961778
11
115.033212
21
125.961778
0
LINE
8
Layer 1
10
115.033212
20
125.961778
11
115.033212
21
114.977725
0
LINE
8
Layer 1
10
115.033212
20
114.977725
11
84.142555
21
114.977725
0
LINE
8
Layer 1
10
84.142555
20
114.977725
11
84.142555
21
125.961778
0
LINE
8
Layer 1
10
122.408090
20
118.294400
11
174.914922
21
118.294400
0
LINE
8
Layer 1
10
174.914922
20
118.294400
11
174.914922
21
114.547468
0
LINE
8
Layer 1
10
174.914922
20
114.547468
11
122.408090
21
114.547468
0
LINE
8
Layer 1
10
122.408090
20
114.547468
11
122.408090
21
118.294400
0
LINE
8
Layer 1
10
181.866910
20
118.121270
11
234.373738
21
118.121270
0
LINE
8
Layer 1
10
234.373738
20
118.121270
11
234.373738
21
114.374339
0
LINE
8
Layer 1
10
234.373738
20
114.374339
11
181.866910
21
114.374339
0
LINE
8
Layer 1
10
181.866910
20
114.374339
11
181.866910
21
118.121270
0
LINE
8
Layer 1
10
84.142555
20
110.146778
11
115.033212
21
110.146778
0
LINE
8
Layer 1
10
115.033212
20
110.146778
11
115.033212
21
99.162725
0
LINE
8
Layer 1
10
115.033212
20
99.162725
11
84.142555
21
99.162725
0
LINE
8
Layer 1
10
84.142555
20
99.162725
11
84.142555
21
110.146778
0
LINE
8
Layer 1
10
122.408090
20
102.479400
11
174.914922
21
102.479400
0
LINE
8
Layer 1
10
174.914922
20
102.479400
11
174.914922
21
98.732468
0
LINE
8
Layer 1
10
174.914922
20
98.732468
11
122.408090
21
98.732468
0
LINE
8
Layer 1
10
122.408090
20
98.732468
11
122.408090
21
102.479400
0
LINE
8
Layer 1
10
181.866910
20
102.306270
11
234.373738
21
102.306270
0
LINE
8
Layer 1
10
234.373738
20
102.306270
11
234.373738
21
98.559339
0
LINE
8
Layer 1
10
234.373738
20
98.559339
11
181.866910
21
98.559339
0
LINE
8
Layer 1
10
181.866910
20
98.559339
11
181.866910
21
102.306270
0
LINE
8
Layer 1
10
84.142555
20
94.331778
11
115.033212
21
94.331778
0
LINE
8
Layer 1
10
115.033212
20
94.331778
11
115.033212
21
83.347725
0
LINE
8
Layer 1
10
115.033212
20
83.347725
11
84.142555
21
83.347725
0
LINE
8
Layer 1
10
84.142555
20
83.347725
11
84.142555
21
94.331778
0
LINE
8
Layer 1
10
122.408090
20
86.664400
11
174.914922
21
86.664400
0
LINE
8
Layer 1
10
174.914922
20
86.664400
11
174.914922
21
82.917468
0
LINE
8
Layer 1
10
174.914922
20
82.917468
11
122.408090
21
82.917468
0
LINE
8
Layer 1
10
122.408090
20
82.917468
11
122.408090
21
86.664400
0
LINE
8
Layer 1
10
181.866910
20
86.491270
11
234.373738
21
86.491270
0
LINE
8
Layer 1
10
234.373738
20
86.491270
11
234.373738
21
82.744339
0
LINE
8
Layer 1
10
234.373738
20
82.744339
11
181.866910
21
82.744339
0
LINE
8
Layer 1
10
181.866910
20
82.744339
11
181.866910
21
86.491270
0
LINE
8
Layer 1
10
84.142555
20
78.516778
11
115.033212
21
78.516778
0
LINE
8
Layer 1
10
115.033212
20
78.516778
11
115.033212
21
67.532725
0
LINE
8
Layer 1
10
115.033212
20
67.532725
11
84.142555
21
67.532725
0
LINE
8
Layer 1
10
84.142555
20
67.532725
11
84.142555
21
78.516778
0
LINE
8
Layer 1
10
122.408090
20
70.849400
11
174.914922
21
70.849400
0
LINE
8
Layer 1
10
174.914922
20
70.849400
11
174.914922
21
67.102468
0
LINE
8
Layer 1
10
174.914922
20
67.102468
11
122.408090
21
67.102468
0
LINE
8
Layer 1
10
122.408090
20
67.102468
11
122.408090
21
70.849400
0
LINE
8
Layer 1
10
181.866910
20
70.676270
11
234.373738
21
70.676270
0
LINE
8
Layer 1
10
234.373738
20
70.676270
11
234.373738
21
66.929339
0
LINE
8
Layer 1
10
234.373738
20
66.929339
11
181.866910
21
66.929339
0
LINE
8
Layer 1
10
181.866910
20
66.929339
11
181.866910
21
70.676270
0
LINE
8
Layer 1
10
84.142555
20
62.701778
11
115.033212
21
62.701778
0
LINE
8
Layer 1
10
115.033212
20
62.701778
11
115.033212
21
51.717725
0
LINE
8
Layer 1
10
115.033212
20
51.717725
11
84.142555
21
51.717725
0
LINE
8
Layer 1
10
84.142555
20
51.717725
11
84.142555
21
62.701778
0
LINE
8
Layer 1
10
122.408090
20
55.034400
11
174.914922
21
55.034400
0
LINE
8
Layer 1
10
174.914922
20
55.034400
11
174.914922
21
51.287468
0
LINE
8
Layer 1
10
174.914922
20
51.287468
11
122.408090
21
51.287468
0
LINE
8
Layer 1
10
122.408090
20
51.287468
11
122.408090
21
55.034400
0
LINE
8
Layer 1
10
181.866910
20
54.861270
11
234.373738
21
54.861270
0
LINE
8
Layer 1
10
234.373738
20
54.861270
11
234.373738
21
51.114339
0
LINE
8
Layer 1
10
234.373738
20
51.114339
11
181.866910
21
51.114339
0
LINE
8
Layer 1
10
181.866910
20
51.114339
11
181.866910
21
54.861270
0
LINE
8
Layer 1
10
84.142555
20
46.886778
11
115.033212
21
46.886778
0
LINE
8
Layer 1
10
115.033212
20
46.886778
11
115.033212
21
35.902725
0
LINE
8
Layer 1
10
115.033212
20
35.902725
11
84.142555
21
35.902725
0
LINE
8
Layer 1
10
84.142555
20
35.902725
11
84.142555
21
46.886778
0
LINE
8
Layer 1
10
122.408090
20
39.219400
11
174.914922
21
39.219400
0
LINE
8
Layer 1
10
174.914922
20
39.219400
11
174.914922
21
35.472468
0
LINE
8
Layer 1
10
174.914922
20
35.472468
11
122.408090
21
35.472468
0
LINE
8
Layer 1
10
122.408090
20
35.472468
11
122.408090
21
39.219400
0
LINE
8
Layer 1
10
181.866910
20
39.046270
11
234.373738
21
39.046270
0
LINE
8
Layer 1
10
234.373738
20
39.046270
11
234.373738
21
35.299339
0
LINE
8
Layer 1
10
234.373738
20
35.299339
11
181.866910
21
35.299339
0
LINE
8
Layer 1
10
181.866910
20
35.299339
11
181.866910
21
39.046270
0
LINE
8
Layer 1
10
84.142555
20
31.072778
11
115.033212
21
31.072778
0
LINE
8
Layer 1
10
115.033212
20
31.072778
11
115.033212
21
20.088725
0
LINE
8
Layer 1
10
115.033212
20
20.088725
11
84.142555
21
20.088725
0
LINE
8
Layer 1
10
84.142555
20
20.088725
11
84.142555
21
31.072778
0
LINE
8
Layer 1
10
122.408090
20
23.405400
11
174.914922
21
23.405400
0
LINE
8
Layer 1
10
174.914922
20
23.405400
11
174.914922
21
19.658468
0
LINE
8
Layer 1
10
174.914922
20
19.658468
11
122.408090
21
19.658468
0
LINE
8
Layer 1
10
122.408090
20
19.658468
11
122.408090
21
23.405400
0
LINE
8
Layer 1
10
181.866910
20
23.232270
11
234.373738
21
23.232270
0
LINE
8
Layer 1
10
234.373738
20
23.232270
11
234.373738
21
19.485339
0
LINE
8
Layer 1
10
234.373738
20
19.485339
11
181.866910
21
19.485339
0
LINE
8
Layer 1
10
181.866910
20
19.485339
11
181.866910
21
23.232270
0
LINE
8
Layer 1
10
118.615860
20
175.397476
11
118.745710
21
163.537843
0
LINE
8
Layer 1
10
178.091360
20
175.354193
11
178.221210
21
163.754259
 0 
ENDSEC
 0 
EOF