999
"DXF R12 Output" (www.mydxf.blogspot.com)
 0 
SECTION
 2 
HEADER
 9 
$ACADVER
 1 
AC1009
 9 
$EXTMIN
 10 
 0 
 20 
 0 
 9 
$EXTMAX
 10 
 8.5 
 20 
 11 
 0 
ENDSEC
 0 
SECTION
 2 
ENTITIES
0
LINE
8
Layer 1
10
21.394562
20
230.830282
11
76.421986
21
230.830282
0
LINE
8
Layer 1
10
76.421986
20
230.830282
11
76.421986
21
217.182080
0
LINE
8
Layer 1
10
76.421986
20
217.182080
11
21.394562
21
217.182080
0
LINE
8
Layer 1
10
21.394562
20
217.182080
11
21.394562
21
230.830282
0
LINE
8
Layer 1
10
84.816246
20
230.927874
11
139.843670
21
230.927874
0
LINE
8
Layer 1
10
139.843670
20
230.927874
11
139.843670
21
217.279672
0
LINE
8
Layer 1
10
139.843670
20
217.279672
11
84.816246
21
217.279672
0
LINE
8
Layer 1
10
84.816246
20
217.279672
11
84.816246
21
230.927874
0
LINE
8
Layer 1
10
62.133102
20
210.011616
11
194.909742
21
210.011616
0
LINE
8
Layer 1
10
194.909742
20
210.011616
11
194.909742
21
199.301016
0
LINE
8
Layer 1
10
194.909742
20
199.301016
11
62.133102
21
199.301016
0
LINE
8
Layer 1
10
62.133102
20
199.301016
11
62.133102
21
210.011616
0
LINE
8
Layer 1
10
181.133640
20
143.285970
11
233.909225
21
143.285970
0
LINE
8
Layer 1
10
233.909225
20
143.285970
11
233.909225
21
96.678678
0
LINE
8
Layer 1
10
233.909225
20
96.678678
11
181.133640
21
96.678678
0
LINE
8
Layer 1
10
181.133640
20
96.678678
11
181.133640
21
143.285970
0
LINE
8
Layer 1
10
15.938021
20
238.796502
11
240.662131
21
238.796502
0
LINE
8
Layer 1
10
240.662131
20
238.796502
11
240.662131
21
216.316411
0
LINE
8
Layer 1
10
240.662131
20
216.316411
11
15.938021
21
216.316411
0
LINE
8
Layer 1
10
15.938021
20
216.316411
11
15.938021
21
238.796502
0
LINE
8
Layer 1
10
16.315874
20
215.803894
11
240.651204
21
215.803894
0
LINE
8
Layer 1
10
240.651204
20
215.803894
11
240.651204
21
193.323030
0
LINE
8
Layer 1
10
240.651204
20
193.323030
11
16.315874
21
193.323030
0
LINE
8
Layer 1
10
16.315874
20
193.323030
11
16.315874
21
215.803894
0
LINE
8
Layer 1
10
15.622904
20
239.051199
11
240.622904
21
239.051199
0
LINE
8
Layer 1
10
240.622904
20
239.051199
11
240.622904
21
14.051199
0
LINE
8
Layer 1
10
240.622904
20
14.051199
11
15.622904
21
14.051199
0
LINE
8
Layer 1
10
15.622904
20
14.051199
11
15.622904
21
239.051199
0
LINE
8
Layer 1
10
147.643030
20
224.452398
11
162.333880
21
224.697246
0
LINE
8
Layer 1
10
155.478150
20
218.291739
11
155.478150
21
231.268656
0
LINE
8
Layer 1
10
220.052440
20
208.985337
11
234.941910
21
209.071907
0
LINE
8
Layer 1
10
219.991880
20
203.855555
11
234.881350
21
203.942125
0
LINE
8
Layer 1
10
219.982120
20
199.053988
11
234.871590
21
199.140558
0
LINE
8
Layer 1
10
200.391630
20
210.077591
11
214.522338
21
210.077591
0
LINE
8
Layer 1
10
214.522338
20
210.077591
11
214.522338
21
199.063286
0
LINE
8
Layer 1
10
214.522338
20
199.063286
11
200.391630
21
199.063286
0
LINE
8
Layer 1
10
200.391630
20
199.063286
11
200.391630
21
210.077591
0
LINE
8
Layer 1
10
35.403366
20
158.840881
11
49.534074
21
158.840881
0
LINE
8
Layer 1
10
49.534074
20
158.840881
11
49.534074
21
147.826576
0
LINE
8
Layer 1
10
49.534074
20
147.826576
11
35.403366
21
147.826576
0
LINE
8
Layer 1
10
35.403366
20
147.826576
11
35.403366
21
158.840881
0
LINE
8
Layer 1
10
55.380424
20
158.732605
11
69.511132
21
158.732605
0
LINE
8
Layer 1
10
69.511132
20
158.732605
11
69.511132
21
147.718300
0
LINE
8
Layer 1
10
69.511132
20
147.718300
11
55.380424
21
147.718300
0
LINE
8
Layer 1
10
55.380424
20
147.718300
11
55.380424
21
158.732605
0
LINE
8
Layer 1
10
75.405800
20
158.683762
11
89.536508
21
158.683762
0
LINE
8
Layer 1
10
89.536508
20
158.683762
11
89.536508
21
147.669457
0
LINE
8
Layer 1
10
89.536508
20
147.669457
11
75.405800
21
147.669457
0
LINE
8
Layer 1
10
75.405800
20
147.669457
11
75.405800
21
158.683762
0
LINE
8
Layer 1
10
95.488792
20
158.655701
11
109.619500
21
158.655701
0
LINE
8
Layer 1
10
109.619500
20
158.655701
11
109.619500
21
147.641396
0
LINE
8
Layer 1
10
109.619500
20
147.641396
11
95.488792
21
147.641396
0
LINE
8
Layer 1
10
95.488792
20
147.641396
11
95.488792
21
158.655701
0
LINE
8
Layer 1
10
184.985430
20
183.724091
11
206.420023
21
183.724091
0
LINE
8
Layer 1
10
206.420023
20
183.724091
11
206.420023
21
164.886502
0
LINE
8
Layer 1
10
206.420023
20
164.886502
11
184.985430
21
164.886502
0
LINE
8
Layer 1
10
184.985430
20
164.886502
11
184.985430
21
183.724091
0
LINE
8
Layer 1
10
51.648394
20
209.320738
11
49.922330
21
209.087930
0
LINE
8
Layer 1
10
49.922330
20
209.087930
11
48.378012
21
208.427155
0
LINE
8
Layer 1
10
48.378012
20
208.427155
11
47.109273
21
207.394886
0
LINE
8
Layer 1
10
47.109273
20
207.394886
11
46.209947
21
206.047597
0
LINE
8
Layer 1
10
46.209947
20
206.047597
11
45.788201
21
204.522125
0
LINE
8
Layer 1
10
45.788201
20
204.522125
11
45.874970
21
202.984121
0
LINE
8
Layer 1
10
45.874970
20
202.984121
11
46.448237
21
201.533281
0
LINE
8
Layer 1
10
46.448237
20
201.533281
11
47.485987
21
200.269303
0
LINE
8
Layer 1
10
47.485987
20
200.269303
11
48.889261
21
199.334565
0
LINE
8
Layer 1
10
48.889261
20
199.334565
11
50.499989
21
198.818203
0
LINE
8
Layer 1
10
50.499989
20
198.818203
11
52.207487
21
198.740047
0
LINE
8
Layer 1
10
52.207487
20
198.740047
11
53.901072
21
199.119929
0
LINE
8
Layer 1
10
53.901072
20
199.119929
11
55.396838
21
199.929984
0
LINE
8
Layer 1
10
55.396838
20
199.929984
11
56.542867
21
201.072781
0
LINE
8
Layer 1
10
56.542867
20
201.072781
11
57.276462
21
202.463803
0
LINE
8
Layer 1
10
57.276462
20
202.463803
11
57.534926
21
204.018530
0
LINE
8
Layer 1
10
57.534926
20
204.018530
11
57.420773
21
205.057770
0
LINE
8
Layer 1
10
57.420773
20
205.057770
11
57.086841
21
206.047597
0
LINE
8
Layer 1
10
57.086841
20
206.047597
11
56.545920
21
206.960198
0
LINE
8
Layer 1
10
56.545920
20
206.960198
11
55.810801
21
207.767757
0
LINE
8
Layer 1
10
55.810801
20
207.767757
11
54.914245
21
208.429905
0
LINE
8
Layer 1
10
54.914245
20
208.429905
11
53.901072
21
208.917131
0
LINE
8
Layer 1
10
53.901072
20
208.917131
11
52.802162
21
209.217916
0
LINE
8
Layer 1
10
52.802162
20
209.217916
11
51.648394
21
209.320738
0
LINE
8
Layer 1
10
51.648394
20
209.320738
11
51.648394
21
209.320738
0
LINE
8
Layer 1
10
56.020011
20
207.632689
11
58.140894
21
207.632689
0
LINE
8
Layer 1
10
58.140894
20
207.632689
11
58.140894
21
204.819273
0
LINE
8
Layer 1
10
58.140894
20
204.819273
11
56.020011
21
204.819273
0
LINE
8
Layer 1
10
56.020011
20
204.819273
11
56.020011
21
207.632689
0
LINE
8
Layer 1
10
52.860330
20
206.940155
11
57.231945
21
205.814790
0
LINE
8
Layer 1
10
57.188662
20
209.623721
11
57.231942
21
205.858073
0
LINE
8
Layer 1
10
25.816394
20
209.115187
11
18.977628
21
203.877905
0
LINE
8
Layer 1
10
26.076094
20
198.943606
11
19.064195
21
203.791339
0
LINE
8
Layer 1
10
29.322344
20
204.051038
11
19.194045
21
203.921189
0
LINE
8
Layer 1
10
35.033736
20
209.344231
11
41.872502
21
204.383161
0
LINE
8
Layer 1
10
34.774136
20
199.162161
11
41.786035
21
204.293098
0
LINE
8
Layer 1
10
31.527886
20
204.138480
11
41.656185
21
204.417704
0
LINE
8
Layer 1
10
224.525150
20
184.708160
11
222.914819
21
184.598479
0
LINE
8
Layer 1
10
222.914819
20
184.598479
11
221.366178
21
184.278132
0
LINE
8
Layer 1
10
221.366178
20
184.278132
11
219.900693
21
183.760155
0
LINE
8
Layer 1
10
219.900693
20
183.760155
11
218.539831
21
183.057590
0
LINE
8
Layer 1
10
218.539831
20
183.057590
11
217.305057
21
182.183475
0
LINE
8
Layer 1
10
217.305057
20
182.183475
11
216.217838
21
181.150849
0
LINE
8
Layer 1
10
216.217838
20
181.150849
11
215.299639
21
179.972753
0
LINE
8
Layer 1
10
215.299639
20
179.972753
11
214.571928
21
178.662224
0
LINE
8
Layer 1
10
214.571928
20
178.662224
11
214.067145
21
177.267749
0
LINE
8
Layer 1
10
214.067145
20
177.267749
11
213.800065
21
175.844469
0
LINE
8
Layer 1
10
213.800065
20
175.844469
11
213.765651
21
174.415401
0
LINE
8
Layer 1
10
213.765651
20
174.415401
11
213.958866
21
173.003566
0
LINE
8
Layer 1
10
213.958866
20
173.003566
11
214.374673
21
171.631982
0
LINE
8
Layer 1
10
214.374673
20
171.631982
11
215.008036
21
170.323669
0
LINE
8
Layer 1
10
215.008036
20
170.323669
11
215.853919
21
169.101644
0
LINE
8
Layer 1
10
215.853919
20
169.101644
11
216.907284
21
167.988929
0
LINE
8
Layer 1
10
216.907284
20
167.988929
11
218.131271
21
167.031325
0
LINE
8
Layer 1
10
218.131271
20
167.031325
11
219.475498
21
166.262341
0
LINE
8
Layer 1
10
219.475498
20
166.262341
11
220.914643
21
165.686556
0
LINE
8
Layer 1
10
220.914643
20
165.686556
11
222.423385
21
165.308549
0
LINE
8
Layer 1
10
222.423385
20
165.308549
11
223.976404
21
165.132900
0
LINE
8
Layer 1
10
223.976404
20
165.132900
11
225.548379
21
165.164185
0
LINE
8
Layer 1
10
225.548379
20
165.164185
11
227.113987
21
165.406985
0
LINE
8
Layer 1
10
227.113987
20
165.406985
11
228.647910
21
165.865879
0
LINE
8
Layer 1
10
228.647910
20
165.865879
11
230.089492
21
166.527434
0
LINE
8
Layer 1
10
230.089492
20
166.527434
11
231.385398
21
167.362160
0
LINE
8
Layer 1
10
231.385398
20
167.362160
11
232.521287
21
168.350541
0
LINE
8
Layer 1
10
232.521287
20
168.350541
11
233.482813
21
169.473062
0
LINE
8
Layer 1
10
233.482813
20
169.473062
11
234.255635
21
170.710210
0
LINE
8
Layer 1
10
234.255635
20
170.710210
11
234.825409
21
172.042469
0
LINE
8
Layer 1
10
234.825409
20
172.042469
11
235.177792
21
173.450324
0
LINE
8
Layer 1
10
235.177792
20
173.450324
11
235.298440
21
174.914261
0
LINE
8
Layer 1
10
235.298440
20
174.914261
11
235.089522
21
176.833878
0
LINE
8
Layer 1
10
235.089522
20
176.833878
11
234.478372
21
178.662224
0
LINE
8
Layer 1
10
234.478372
20
178.662224
11
233.488401
21
180.347921
0
LINE
8
Layer 1
10
233.488401
20
180.347921
11
232.143016
21
181.839593
0
LINE
8
Layer 1
10
232.143016
20
181.839593
11
230.502177
21
183.062670
0
LINE
8
Layer 1
10
230.502177
20
183.062670
11
228.647910
21
183.962643
0
LINE
8
Layer 1
10
228.647910
20
183.962643
11
226.636729
21
184.518234
0
LINE
8
Layer 1
10
226.636729
20
184.518234
11
224.525150
21
184.708160
0
LINE
8
Layer 1
10
224.525150
20
184.708160
11
224.525150
21
184.708160
0
LINE
8
Layer 1
10
33.988510
20
184.508606
11
174.131850
21
184.508606
0
LINE
8
Layer 1
10
174.131850
20
184.508606
11
174.131850
21
163.850840
0
LINE
8
Layer 1
10
174.131850
20
163.850840
11
33.988510
21
163.850840
0
LINE
8
Layer 1
10
33.988510
20
163.850840
11
33.988510
21
184.508606
0
LINE
8
Layer 1
10
35.603500
20
111.033430
11
169.823550
21
111.033430
0
LINE
8
Layer 1
10
169.823550
20
111.033430
11
169.823550
21
96.418828
0
LINE
8
Layer 1
10
169.823550
20
96.418828
11
35.603500
21
96.418828
0
LINE
8
Layer 1
10
35.603500
20
96.418828
11
35.603500
21
111.033430
0
LINE
8
Layer 1
10
35.246300
20
143.970070
11
169.217030
21
143.970070
0
LINE
8
Layer 1
10
169.217030
20
143.970070
11
169.217030
21
115.158775
0
LINE
8
Layer 1
10
169.217030
20
115.158775
11
35.246300
21
115.158775
0
LINE
8
Layer 1
10
35.246300
20
115.158775
11
35.246300
21
143.970070
0
LINE
8
Layer 1
10
35.460720
20
83.867710
11
174.741680
21
83.867710
0
LINE
8
Layer 1
10
174.741680
20
83.867710
11
174.741680
21
71.598831
0
LINE
8
Layer 1
10
174.741680
20
71.598831
11
35.460720
21
71.598831
0
LINE
8
Layer 1
10
35.460720
20
71.598831
11
35.460720
21
83.867710
0
LINE
8
Layer 1
10
35.572197
20
53.857930
11
174.364857
21
53.857930
0
LINE
8
Layer 1
10
174.364857
20
53.857930
11
174.364857
21
41.587663
0
LINE
8
Layer 1
10
174.364857
20
41.587663
11
35.572197
21
41.587663
0
LINE
8
Layer 1
10
35.572197
20
41.587663
11
35.572197
21
53.857930
0
LINE
8
Layer 1
10
115.378720
20
158.711418
11
129.509428
21
158.711418
0
LINE
8
Layer 1
10
129.509428
20
158.711418
11
129.509428
21
147.697113
0
LINE
8
Layer 1
10
129.509428
20
147.697113
11
115.378720
21
147.697113
0
LINE
8
Layer 1
10
115.378720
20
147.697113
11
115.378720
21
158.711418
0
LINE
8
Layer 1
10
135.225340
20
158.664803
11
149.356048
21
158.664803
0
LINE
8
Layer 1
10
149.356048
20
158.664803
11
149.356048
21
147.650498
0
LINE
8
Layer 1
10
149.356048
20
147.650498
11
135.225340
21
147.650498
0
LINE
8
Layer 1
10
135.225340
20
147.650498
11
135.225340
21
158.664803
0
LINE
8
Layer 1
10
155.193600
20
158.679237
11
169.324308
21
158.679237
0
LINE
8
Layer 1
10
169.324308
20
158.679237
11
169.324308
21
147.664932
0
LINE
8
Layer 1
10
169.324308
20
147.664932
11
155.193600
21
147.664932
0
LINE
8
Layer 1
10
155.193600
20
147.664932
11
155.193600
21
158.679237
0
LINE
8
Layer 1
10
145.794600
20
106.195280
11
145.708000
21
106.541550
0
LINE
8
Layer 1
10
133.761830
20
106.022150
11
140.081200
21
98.750550
0
LINE
8
Layer 1
10
140.081200
20
98.750550
11
145.794600
21
106.195280
0
LINE
8
Layer 1
10
70.962524
20
26.420410
11
81.246119
21
26.420410
0
LINE
8
Layer 1
10
81.246119
20
26.420410
11
81.246119
21
17.605901
0
LINE
8
Layer 1
10
81.246119
20
17.605901
11
70.962524
21
17.605901
0
LINE
8
Layer 1
10
70.962524
20
17.605901
11
70.962524
21
26.420410
0
LINE
8
Layer 1
10
86.199631
20
26.375690
11
96.483226
21
26.375690
0
LINE
8
Layer 1
10
96.483226
20
26.375690
11
96.483226
21
17.561181
0
LINE
8
Layer 1
10
96.483226
20
17.561181
11
86.199631
21
17.561181
0
LINE
8
Layer 1
10
86.199631
20
17.561181
11
86.199631
21
26.375690
0
LINE
8
Layer 1
10
101.115300
20
26.340180
11
111.398895
21
26.340180
0
LINE
8
Layer 1
10
111.398895
20
26.340180
11
111.398895
21
17.525671
0
LINE
8
Layer 1
10
111.398895
20
17.525671
11
101.115300
21
17.525671
0
LINE
8
Layer 1
10
101.115300
20
17.525671
11
101.115300
21
26.340180
0
LINE
8
Layer 1
10
116.250500
20
26.359040
11
126.534095
21
26.359040
0
LINE
8
Layer 1
10
126.534095
20
26.359040
11
126.534095
21
17.544531
0
LINE
8
Layer 1
10
126.534095
20
17.544531
11
116.250500
21
17.544531
0
LINE
8
Layer 1
10
116.250500
20
17.544531
11
116.250500
21
26.359040
0
LINE
8
Layer 1
10
131.219410
20
26.357480
11
141.503005
21
26.357480
0
LINE
8
Layer 1
10
141.503005
20
26.357480
11
141.503005
21
17.542971
0
LINE
8
Layer 1
10
141.503005
20
17.542971
11
131.219410
21
17.542971
0
LINE
8
Layer 1
10
131.219410
20
17.542971
11
131.219410
21
26.357480
0
LINE
8
Layer 1
10
146.370330
20
26.327550
11
170.367902
21
26.327550
0
LINE
8
Layer 1
10
170.367902
20
26.327550
11
170.367902
21
17.822862
0
LINE
8
Layer 1
10
170.367902
20
17.822862
11
146.370330
21
17.822862
0
LINE
8
Layer 1
10
146.370330
20
17.822862
11
146.370330
21
26.327550
0
LINE
8
Layer 1
10
35.280384
20
68.426420
11
174.832054
21
68.426420
0
LINE
8
Layer 1
10
174.832054
20
68.426420
11
174.832054
21
60.486554
0
LINE
8
Layer 1
10
174.832054
20
60.486554
11
35.280384
21
60.486554
0
LINE
8
Layer 1
10
35.280384
20
60.486554
11
35.280384
21
68.426420
0
LINE
8
Layer 1
10
35.533203
20
38.349090
11
174.535283
21
38.349090
0
LINE
8
Layer 1
10
174.535283
20
38.349090
11
174.535283
21
30.407913
0
LINE
8
Layer 1
10
174.535283
20
30.407913
11
35.533203
21
30.407913
0
LINE
8
Layer 1
10
35.533203
20
30.407913
11
35.533203
21
38.349090
0
LINE
8
Layer 1
10
16.101398
20
88.830820
11
240.655310
21
89.177080
 0 
ENDSEC
 0 
EOF