999
"DXF R12 Output" (www.mydxf.blogspot.com)
 0 
SECTION
 2 
HEADER
 9 
$ACADVER
 1 
AC1009
 9 
$EXTMIN
 10 
 0 
 20 
 0 
 9 
$EXTMAX
 10 
 8.5 
 20 
 11 
 0 
ENDSEC
 0 
SECTION
 2 
ENTITIES
0
LINE
8
Layer 1
10
21.394562
20
230.830282
11
76.421986
21
230.830282
0
LINE
8
Layer 1
10
76.421986
20
230.830282
11
76.421986
21
217.182080
0
LINE
8
Layer 1
10
76.421986
20
217.182080
11
21.394562
21
217.182080
0
LINE
8
Layer 1
10
21.394562
20
217.182080
11
21.394562
21
230.830282
0
LINE
8
Layer 1
10
84.816246
20
230.927874
11
139.843670
21
230.927874
0
LINE
8
Layer 1
10
139.843670
20
230.927874
11
139.843670
21
217.279672
0
LINE
8
Layer 1
10
139.843670
20
217.279672
11
84.816246
21
217.279672
0
LINE
8
Layer 1
10
84.816246
20
217.279672
11
84.816246
21
230.927874
0
LINE
8
Layer 1
10
62.133102
20
210.011616
11
194.909742
21
210.011616
0
LINE
8
Layer 1
10
194.909742
20
210.011616
11
194.909742
21
199.301016
0
LINE
8
Layer 1
10
194.909742
20
199.301016
11
62.133102
21
199.301016
0
LINE
8
Layer 1
10
62.133102
20
199.301016
11
62.133102
21
210.011616
0
LINE
8
Layer 1
10
15.938021
20
238.796502
11
240.662131
21
238.796502
0
LINE
8
Layer 1
10
240.662131
20
238.796502
11
240.662131
21
216.316411
0
LINE
8
Layer 1
10
240.662131
20
216.316411
11
15.938021
21
216.316411
0
LINE
8
Layer 1
10
15.938021
20
216.316411
11
15.938021
21
238.796502
0
LINE
8
Layer 1
10
16.315874
20
215.803894
11
240.651204
21
215.803894
0
LINE
8
Layer 1
10
240.651204
20
215.803894
11
240.651204
21
193.323030
0
LINE
8
Layer 1
10
240.651204
20
193.323030
11
16.315874
21
193.323030
0
LINE
8
Layer 1
10
16.315874
20
193.323030
11
16.315874
21
215.803894
0
LINE
8
Layer 1
10
15.622904
20
239.051199
11
240.622904
21
239.051199
0
LINE
8
Layer 1
10
240.622904
20
239.051199
11
240.622904
21
14.051199
0
LINE
8
Layer 1
10
240.622904
20
14.051199
11
15.622904
21
14.051199
0
LINE
8
Layer 1
10
15.622904
20
14.051199
11
15.622904
21
239.051199
0
LINE
8
Layer 1
10
147.643030
20
224.452398
11
162.333880
21
224.697246
0
LINE
8
Layer 1
10
155.478150
20
218.291739
11
155.478150
21
231.268656
0
LINE
8
Layer 1
10
220.052440
20
208.985337
11
234.941910
21
209.071907
0
LINE
8
Layer 1
10
219.991880
20
203.855555
11
234.881350
21
203.942125
0
LINE
8
Layer 1
10
219.982120
20
199.053988
11
234.871590
21
199.140558
0
LINE
8
Layer 1
10
200.391630
20
210.077591
11
214.522338
21
210.077591
0
LINE
8
Layer 1
10
214.522338
20
210.077591
11
214.522338
21
199.063286
0
LINE
8
Layer 1
10
214.522338
20
199.063286
11
200.391630
21
199.063286
0
LINE
8
Layer 1
10
200.391630
20
199.063286
11
200.391630
21
210.077591
0
LINE
8
Layer 1
10
184.985430
20
183.724091
11
206.420023
21
183.724091
0
LINE
8
Layer 1
10
206.420023
20
183.724091
11
206.420023
21
164.886502
0
LINE
8
Layer 1
10
206.420023
20
164.886502
11
184.985430
21
164.886502
0
LINE
8
Layer 1
10
184.985430
20
164.886502
11
184.985430
21
183.724091
0
LINE
8
Layer 1
10
51.648441
20
209.321102
11
49.922377
21
209.088294
0
LINE
8
Layer 1
10
49.922377
20
209.088294
11
48.378059
21
208.427519
0
LINE
8
Layer 1
10
48.378059
20
208.427519
11
47.109320
21
207.395250
0
LINE
8
Layer 1
10
47.109320
20
207.395250
11
46.209994
21
206.047961
0
LINE
8
Layer 1
10
46.209994
20
206.047961
11
45.788248
21
204.522489
0
LINE
8
Layer 1
10
45.788248
20
204.522489
11
45.875017
21
202.984485
0
LINE
8
Layer 1
10
45.875017
20
202.984485
11
46.448284
21
201.533645
0
LINE
8
Layer 1
10
46.448284
20
201.533645
11
47.486034
21
200.269667
0
LINE
8
Layer 1
10
47.486034
20
200.269667
11
48.889308
21
199.334929
0
LINE
8
Layer 1
10
48.889308
20
199.334929
11
50.500036
21
198.818567
0
LINE
8
Layer 1
10
50.500036
20
198.818567
11
52.207534
21
198.740411
0
LINE
8
Layer 1
10
52.207534
20
198.740411
11
53.901119
21
199.120293
0
LINE
8
Layer 1
10
53.901119
20
199.120293
11
55.396885
21
199.930348
0
LINE
8
Layer 1
10
55.396885
20
199.930348
11
56.542914
21
201.073145
0
LINE
8
Layer 1
10
56.542914
20
201.073145
11
57.276509
21
202.464167
0
LINE
8
Layer 1
10
57.276509
20
202.464167
11
57.534973
21
204.018894
0
LINE
8
Layer 1
10
57.534973
20
204.018894
11
57.420820
21
205.058134
0
LINE
8
Layer 1
10
57.420820
20
205.058134
11
57.086888
21
206.047961
0
LINE
8
Layer 1
10
57.086888
20
206.047961
11
56.545967
21
206.960562
0
LINE
8
Layer 1
10
56.545967
20
206.960562
11
55.810848
21
207.768121
0
LINE
8
Layer 1
10
55.810848
20
207.768121
11
54.914292
21
208.430269
0
LINE
8
Layer 1
10
54.914292
20
208.430269
11
53.901119
21
208.917495
0
LINE
8
Layer 1
10
53.901119
20
208.917495
11
52.802209
21
209.218280
0
LINE
8
Layer 1
10
52.802209
20
209.218280
11
51.648441
21
209.321102
0
LINE
8
Layer 1
10
51.648441
20
209.321102
11
51.648441
21
209.321102
0
LINE
8
Layer 1
10
56.020058
20
207.633053
11
58.140941
21
207.633053
0
LINE
8
Layer 1
10
58.140941
20
207.633053
11
58.140941
21
204.819637
0
LINE
8
Layer 1
10
58.140941
20
204.819637
11
56.020058
21
204.819637
0
LINE
8
Layer 1
10
56.020058
20
204.819637
11
56.020058
21
207.633053
0
LINE
8
Layer 1
10
52.860378
20
206.940519
11
57.231993
21
205.815154
0
LINE
8
Layer 1
10
57.188710
20
209.624085
11
57.231990
21
205.858437
0
LINE
8
Layer 1
10
25.816397
20
209.115187
11
18.977631
21
203.877905
0
LINE
8
Layer 1
10
26.076097
20
198.943606
11
19.064198
21
203.791339
0
LINE
8
Layer 1
10
29.322347
20
204.051038
11
19.194048
21
203.921189
0
LINE
8
Layer 1
10
35.033750
20
209.343984
11
41.872516
21
204.382913
0
LINE
8
Layer 1
10
34.774050
20
199.161914
11
41.785949
21
204.292851
0
LINE
8
Layer 1
10
31.527800
20
204.138233
11
41.656099
21
204.417457
0
LINE
8
Layer 1
10
224.525150
20
184.708160
11
222.914819
21
184.598479
0
LINE
8
Layer 1
10
222.914819
20
184.598479
11
221.366178
21
184.278132
0
LINE
8
Layer 1
10
221.366178
20
184.278132
11
219.900693
21
183.760155
0
LINE
8
Layer 1
10
219.900693
20
183.760155
11
218.539831
21
183.057590
0
LINE
8
Layer 1
10
218.539831
20
183.057590
11
217.305057
21
182.183475
0
LINE
8
Layer 1
10
217.305057
20
182.183475
11
216.217838
21
181.150849
0
LINE
8
Layer 1
10
216.217838
20
181.150849
11
215.299639
21
179.972753
0
LINE
8
Layer 1
10
215.299639
20
179.972753
11
214.571928
21
178.662224
0
LINE
8
Layer 1
10
214.571928
20
178.662224
11
214.067145
21
177.267749
0
LINE
8
Layer 1
10
214.067145
20
177.267749
11
213.800065
21
175.844469
0
LINE
8
Layer 1
10
213.800065
20
175.844469
11
213.765651
21
174.415401
0
LINE
8
Layer 1
10
213.765651
20
174.415401
11
213.958866
21
173.003566
0
LINE
8
Layer 1
10
213.958866
20
173.003566
11
214.374673
21
171.631982
0
LINE
8
Layer 1
10
214.374673
20
171.631982
11
215.008036
21
170.323669
0
LINE
8
Layer 1
10
215.008036
20
170.323669
11
215.853919
21
169.101644
0
LINE
8
Layer 1
10
215.853919
20
169.101644
11
216.907284
21
167.988929
0
LINE
8
Layer 1
10
216.907284
20
167.988929
11
218.131271
21
167.031325
0
LINE
8
Layer 1
10
218.131271
20
167.031325
11
219.475498
21
166.262341
0
LINE
8
Layer 1
10
219.475498
20
166.262341
11
220.914643
21
165.686556
0
LINE
8
Layer 1
10
220.914643
20
165.686556
11
222.423385
21
165.308549
0
LINE
8
Layer 1
10
222.423385
20
165.308549
11
223.976404
21
165.132900
0
LINE
8
Layer 1
10
223.976404
20
165.132900
11
225.548379
21
165.164185
0
LINE
8
Layer 1
10
225.548379
20
165.164185
11
227.113987
21
165.406985
0
LINE
8
Layer 1
10
227.113987
20
165.406985
11
228.647910
21
165.865879
0
LINE
8
Layer 1
10
228.647910
20
165.865879
11
230.089492
21
166.527434
0
LINE
8
Layer 1
10
230.089492
20
166.527434
11
231.385398
21
167.362160
0
LINE
8
Layer 1
10
231.385398
20
167.362160
11
232.521287
21
168.350541
0
LINE
8
Layer 1
10
232.521287
20
168.350541
11
233.482813
21
169.473062
0
LINE
8
Layer 1
10
233.482813
20
169.473062
11
234.255635
21
170.710210
0
LINE
8
Layer 1
10
234.255635
20
170.710210
11
234.825409
21
172.042469
0
LINE
8
Layer 1
10
234.825409
20
172.042469
11
235.177792
21
173.450324
0
LINE
8
Layer 1
10
235.177792
20
173.450324
11
235.298440
21
174.914261
0
LINE
8
Layer 1
10
235.298440
20
174.914261
11
235.089522
21
176.833878
0
LINE
8
Layer 1
10
235.089522
20
176.833878
11
234.478372
21
178.662224
0
LINE
8
Layer 1
10
234.478372
20
178.662224
11
233.488401
21
180.347921
0
LINE
8
Layer 1
10
233.488401
20
180.347921
11
232.143016
21
181.839593
0
LINE
8
Layer 1
10
232.143016
20
181.839593
11
230.502177
21
183.062670
0
LINE
8
Layer 1
10
230.502177
20
183.062670
11
228.647910
21
183.962643
0
LINE
8
Layer 1
10
228.647910
20
183.962643
11
226.636729
21
184.518234
0
LINE
8
Layer 1
10
226.636729
20
184.518234
11
224.525150
21
184.708160
0
LINE
8
Layer 1
10
224.525150
20
184.708160
11
224.525150
21
184.708160
0
LINE
8
Layer 1
10
49.214344
20
123.496290
11
225.504534
21
123.496290
0
LINE
8
Layer 1
10
225.504534
20
123.496290
11
225.504534
21
102.929100
0
LINE
8
Layer 1
10
225.504534
20
102.929100
11
49.214344
21
102.929100
0
LINE
8
Layer 1
10
49.214344
20
102.929100
11
49.214344
21
123.496290
0
LINE
8
Layer 1
10
63.415497
20
119.333889
11
61.477002
21
119.075873
0
LINE
8
Layer 1
10
61.477002
20
119.075873
11
59.742622
21
118.343548
0
LINE
8
Layer 1
10
59.742622
20
118.343548
11
58.317737
21
117.199503
0
LINE
8
Layer 1
10
58.317737
20
117.199503
11
57.307729
21
115.706328
0
LINE
8
Layer 1
10
57.307729
20
115.706328
11
56.834078
21
114.015675
0
LINE
8
Layer 1
10
56.834078
20
114.015675
11
56.931525
21
112.311133
0
LINE
8
Layer 1
10
56.931525
20
112.311133
11
57.575346
21
110.703194
0
LINE
8
Layer 1
10
57.575346
20
110.703194
11
58.740814
21
109.302351
0
LINE
8
Layer 1
10
58.740814
20
109.302351
11
60.316792
21
108.266398
0
LINE
8
Layer 1
10
60.316792
20
108.266398
11
62.125755
21
107.694123
0
LINE
8
Layer 1
10
62.125755
20
107.694123
11
64.043399
21
107.607504
0
LINE
8
Layer 1
10
64.043399
20
107.607504
11
65.945417
21
108.028520
0
LINE
8
Layer 1
10
65.945417
20
108.028520
11
67.625270
21
108.926289
0
LINE
8
Layer 1
10
67.625270
20
108.926289
11
68.912343
21
110.192831
0
LINE
8
Layer 1
10
68.912343
20
110.192831
11
69.736223
21
111.734474
0
LINE
8
Layer 1
10
69.736223
20
111.734474
11
70.026497
21
113.457550
0
LINE
8
Layer 1
10
70.026497
20
113.457550
11
69.898295
21
114.609320
0
LINE
8
Layer 1
10
69.898295
20
114.609320
11
69.523265
21
115.706328
0
LINE
8
Layer 1
10
69.523265
20
115.706328
11
68.915771
21
116.717746
0
LINE
8
Layer 1
10
68.915771
20
116.717746
11
68.090180
21
117.612749
0
LINE
8
Layer 1
10
68.090180
20
117.612749
11
67.083283
21
118.346595
0
LINE
8
Layer 1
10
67.083283
20
118.346595
11
65.945417
21
118.886580
0
LINE
8
Layer 1
10
65.945417
20
118.886580
11
64.711262
21
119.219934
0
LINE
8
Layer 1
10
64.711262
20
119.219934
11
63.415497
21
119.333889
0
LINE
8
Layer 1
10
63.415497
20
119.333889
11
63.415497
21
119.333889
0
LINE
8
Layer 1
10
69.291837
20
109.784830
11
74.923329
21
104.887880
0
LINE
8
Layer 1
10
81.127167
20
94.401760
11
132.502274
21
94.401760
0
LINE
8
Layer 1
10
132.502274
20
94.401760
11
132.502274
21
79.261535
0
LINE
8
Layer 1
10
132.502274
20
79.261535
11
81.127167
21
79.261535
0
LINE
8
Layer 1
10
81.127167
20
79.261535
11
81.127167
21
94.401760
0
LINE
8
Layer 1
10
141.145830
20
94.362760
11
192.520937
21
94.362760
0
LINE
8
Layer 1
10
192.520937
20
94.362760
11
192.520937
21
79.222535
0
LINE
8
Layer 1
10
192.520937
20
79.222535
11
141.145830
21
79.222535
0
LINE
8
Layer 1
10
141.145830
20
79.222535
11
141.145830
21
94.362760
 0 
ENDSEC
 0 
EOF