999
"DXF R12 Output" (www.mydxf.blogspot.com)
 0 
SECTION
 2 
HEADER
 9 
$ACADVER
 1 
AC1009
 9 
$EXTMIN
 10 
 0 
 20 
 0 
 9 
$EXTMAX
 10 
 8.5 
 20 
 11 
 0 
ENDSEC
 0 
SECTION
 2 
ENTITIES
0
LINE
8
Layer 1
10
21.394562
20
230.830282
11
76.421986
21
230.830282
0
LINE
8
Layer 1
10
76.421986
20
230.830282
11
76.421986
21
217.182080
0
LINE
8
Layer 1
10
76.421986
20
217.182080
11
21.394562
21
217.182080
0
LINE
8
Layer 1
10
21.394562
20
217.182080
11
21.394562
21
230.830282
0
LINE
8
Layer 1
10
84.816246
20
230.927874
11
139.843670
21
230.927874
0
LINE
8
Layer 1
10
139.843670
20
230.927874
11
139.843670
21
217.279672
0
LINE
8
Layer 1
10
139.843670
20
217.279672
11
84.816246
21
217.279672
0
LINE
8
Layer 1
10
84.816246
20
217.279672
11
84.816246
21
230.927874
0
LINE
8
Layer 1
10
62.133102
20
210.011616
11
194.909742
21
210.011616
0
LINE
8
Layer 1
10
194.909742
20
210.011616
11
194.909742
21
199.301016
0
LINE
8
Layer 1
10
194.909742
20
199.301016
11
62.133102
21
199.301016
0
LINE
8
Layer 1
10
62.133102
20
199.301016
11
62.133102
21
210.011616
0
LINE
8
Layer 1
10
79.593460
20
186.590942
11
177.980431
21
186.590942
0
LINE
8
Layer 1
10
177.980431
20
186.590942
11
177.980431
21
175.746515
0
LINE
8
Layer 1
10
177.980431
20
175.746515
11
79.593460
21
175.746515
0
LINE
8
Layer 1
10
79.593460
20
175.746515
11
79.593460
21
186.590942
0
LINE
8
Layer 1
10
15.938021
20
238.796502
11
240.662131
21
238.796502
0
LINE
8
Layer 1
10
240.662131
20
238.796502
11
240.662131
21
216.316411
0
LINE
8
Layer 1
10
240.662131
20
216.316411
11
15.938021
21
216.316411
0
LINE
8
Layer 1
10
15.938021
20
216.316411
11
15.938021
21
238.796502
0
LINE
8
Layer 1
10
16.315874
20
215.803894
11
240.651204
21
215.803894
0
LINE
8
Layer 1
10
240.651204
20
215.803894
11
240.651204
21
193.323030
0
LINE
8
Layer 1
10
240.651204
20
193.323030
11
16.315874
21
193.323030
0
LINE
8
Layer 1
10
16.315874
20
193.323030
11
16.315874
21
215.803894
0
LINE
8
Layer 1
10
15.622904
20
239.051199
11
240.622904
21
239.051199
0
LINE
8
Layer 1
10
240.622904
20
239.051199
11
240.622904
21
14.051199
0
LINE
8
Layer 1
10
240.622904
20
14.051199
11
15.622904
21
14.051199
0
LINE
8
Layer 1
10
15.622904
20
14.051199
11
15.622904
21
239.051199
0
LINE
8
Layer 1
10
147.643030
20
224.452398
11
162.333880
21
224.697246
0
LINE
8
Layer 1
10
155.478150
20
218.291739
11
155.478150
21
231.268656
0
LINE
8
Layer 1
10
220.052440
20
208.985337
11
234.941910
21
209.071907
0
LINE
8
Layer 1
10
219.991880
20
203.855555
11
234.881350
21
203.942125
0
LINE
8
Layer 1
10
219.982120
20
199.053988
11
234.871590
21
199.140558
0
LINE
8
Layer 1
10
200.391630
20
210.077591
11
214.522338
21
210.077591
0
LINE
8
Layer 1
10
214.522338
20
210.077591
11
214.522338
21
199.063286
0
LINE
8
Layer 1
10
214.522338
20
199.063286
11
200.391630
21
199.063286
0
LINE
8
Layer 1
10
200.391630
20
199.063286
11
200.391630
21
210.077591
0
LINE
8
Layer 1
10
199.478380
20
186.757164
11
213.609088
21
186.757164
0
LINE
8
Layer 1
10
213.609088
20
186.757164
11
213.609088
21
175.742859
0
LINE
8
Layer 1
10
213.609088
20
175.742859
11
199.478380
21
175.742859
0
LINE
8
Layer 1
10
199.478380
20
175.742859
11
199.478380
21
186.757164
0
LINE
8
Layer 1
10
214.719880
20
166.966545
11
236.428338
21
166.966545
0
LINE
8
Layer 1
10
236.428338
20
166.966545
11
236.428338
21
157.159296
0
LINE
8
Layer 1
10
236.428338
20
157.159296
11
214.719880
21
157.159296
0
LINE
8
Layer 1
10
214.719880
20
157.159296
11
214.719880
21
166.966545
0
LINE
8
Layer 1
10
45.426758
20
152.068390
11
67.135216
21
152.068390
0
LINE
8
Layer 1
10
67.135216
20
152.068390
11
67.135216
21
142.261141
0
LINE
8
Layer 1
10
67.135216
20
142.261141
11
45.426758
21
142.261141
0
LINE
8
Layer 1
10
45.426758
20
142.261141
11
45.426758
21
152.068390
0
LINE
8
Layer 1
10
70.927879
20
152.068390
11
92.636337
21
152.068390
0
LINE
8
Layer 1
10
92.636337
20
152.068390
11
92.636337
21
142.261141
0
LINE
8
Layer 1
10
92.636337
20
142.261141
11
70.927879
21
142.261141
0
LINE
8
Layer 1
10
70.927879
20
142.261141
11
70.927879
21
152.068390
0
LINE
8
Layer 1
10
21.508158
20
152.068390
11
43.216616
21
152.068390
0
LINE
8
Layer 1
10
43.216616
20
152.068390
11
43.216616
21
142.261141
0
LINE
8
Layer 1
10
43.216616
20
142.261141
11
21.508158
21
142.261141
0
LINE
8
Layer 1
10
21.508158
20
142.261141
11
21.508158
21
152.068390
0
LINE
8
Layer 1
10
95.533508
20
152.068390
11
117.241966
21
152.068390
0
LINE
8
Layer 1
10
117.241966
20
152.068390
11
117.241966
21
142.261141
0
LINE
8
Layer 1
10
117.241966
20
142.261141
11
95.533508
21
142.261141
0
LINE
8
Layer 1
10
95.533508
20
142.261141
11
95.533508
21
152.068390
0
LINE
8
Layer 1
10
119.312080
20
152.068390
11
141.020538
21
152.068390
0
LINE
8
Layer 1
10
141.020538
20
152.068390
11
141.020538
21
142.261141
0
LINE
8
Layer 1
10
141.020538
20
142.261141
11
119.312080
21
142.261141
0
LINE
8
Layer 1
10
119.312080
20
142.261141
11
119.312080
21
152.068390
0
LINE
8
Layer 1
10
143.641400
20
152.068390
11
165.349858
21
152.068390
0
LINE
8
Layer 1
10
165.349858
20
152.068390
11
165.349858
21
142.261141
0
LINE
8
Layer 1
10
165.349858
20
142.261141
11
143.641400
21
142.261141
0
LINE
8
Layer 1
10
143.641400
20
142.261141
11
143.641400
21
152.068390
0
LINE
8
Layer 1
10
167.746870
20
152.068390
11
189.455328
21
152.068390
0
LINE
8
Layer 1
10
189.455328
20
152.068390
11
189.455328
21
142.261141
0
LINE
8
Layer 1
10
189.455328
20
142.261141
11
167.746870
21
142.261141
0
LINE
8
Layer 1
10
167.746870
20
142.261141
11
167.746870
21
152.068390
0
LINE
8
Layer 1
10
191.961490
20
152.068390
11
213.669948
21
152.068390
0
LINE
8
Layer 1
10
213.669948
20
152.068390
11
213.669948
21
142.261141
0
LINE
8
Layer 1
10
213.669948
20
142.261141
11
191.961490
21
142.261141
0
LINE
8
Layer 1
10
191.961490
20
142.261141
11
191.961490
21
152.068390
0
LINE
8
Layer 1
10
51.648441
20
209.321102
11
49.922377
21
209.088294
0
LINE
8
Layer 1
10
49.922377
20
209.088294
11
48.378059
21
208.427519
0
LINE
8
Layer 1
10
48.378059
20
208.427519
11
47.109320
21
207.395250
0
LINE
8
Layer 1
10
47.109320
20
207.395250
11
46.209994
21
206.047961
0
LINE
8
Layer 1
10
46.209994
20
206.047961
11
45.788248
21
204.522489
0
LINE
8
Layer 1
10
45.788248
20
204.522489
11
45.875017
21
202.984485
0
LINE
8
Layer 1
10
45.875017
20
202.984485
11
46.448284
21
201.533645
0
LINE
8
Layer 1
10
46.448284
20
201.533645
11
47.486034
21
200.269667
0
LINE
8
Layer 1
10
47.486034
20
200.269667
11
48.889308
21
199.334929
0
LINE
8
Layer 1
10
48.889308
20
199.334929
11
50.500036
21
198.818567
0
LINE
8
Layer 1
10
50.500036
20
198.818567
11
52.207534
21
198.740411
0
LINE
8
Layer 1
10
52.207534
20
198.740411
11
53.901119
21
199.120293
0
LINE
8
Layer 1
10
53.901119
20
199.120293
11
55.396885
21
199.930348
0
LINE
8
Layer 1
10
55.396885
20
199.930348
11
56.542914
21
201.073145
0
LINE
8
Layer 1
10
56.542914
20
201.073145
11
57.276509
21
202.464167
0
LINE
8
Layer 1
10
57.276509
20
202.464167
11
57.534973
21
204.018894
0
LINE
8
Layer 1
10
57.534973
20
204.018894
11
57.420820
21
205.058134
0
LINE
8
Layer 1
10
57.420820
20
205.058134
11
57.086888
21
206.047961
0
LINE
8
Layer 1
10
57.086888
20
206.047961
11
56.545967
21
206.960562
0
LINE
8
Layer 1
10
56.545967
20
206.960562
11
55.810848
21
207.768121
0
LINE
8
Layer 1
10
55.810848
20
207.768121
11
54.914292
21
208.430269
0
LINE
8
Layer 1
10
54.914292
20
208.430269
11
53.901119
21
208.917495
0
LINE
8
Layer 1
10
53.901119
20
208.917495
11
52.802209
21
209.218280
0
LINE
8
Layer 1
10
52.802209
20
209.218280
11
51.648441
21
209.321102
0
LINE
8
Layer 1
10
51.648441
20
209.321102
11
51.648441
21
209.321102
0
LINE
8
Layer 1
10
56.020058
20
207.633053
11
58.140941
21
207.633053
0
LINE
8
Layer 1
10
58.140941
20
207.633053
11
58.140941
21
204.819637
0
LINE
8
Layer 1
10
58.140941
20
204.819637
11
56.020058
21
204.819637
0
LINE
8
Layer 1
10
56.020058
20
204.819637
11
56.020058
21
207.633053
0
LINE
8
Layer 1
10
52.860378
20
206.940519
11
57.231993
21
205.815154
0
LINE
8
Layer 1
10
57.188710
20
209.624085
11
57.231990
21
205.858437
0
LINE
8
Layer 1
10
25.816397
20
209.115187
11
18.977631
21
203.877905
0
LINE
8
Layer 1
10
26.076097
20
198.943606
11
19.064198
21
203.791339
0
LINE
8
Layer 1
10
29.322347
20
204.051038
11
19.194048
21
203.921189
0
LINE
8
Layer 1
10
35.033750
20
209.343984
11
41.872516
21
204.382913
0
LINE
8
Layer 1
10
34.774050
20
199.161914
11
41.785949
21
204.292851
0
LINE
8
Layer 1
10
31.527800
20
204.138233
11
41.656099
21
204.417457
0
LINE
8
Layer 1
10
227.096070
20
189.473423
11
225.889707
21
189.385783
0
LINE
8
Layer 1
10
225.889707
20
189.385783
11
224.729559
21
189.129808
0
LINE
8
Layer 1
10
224.729559
20
189.129808
11
223.631707
21
188.715917
0
LINE
8
Layer 1
10
223.631707
20
188.715917
11
222.612231
21
188.154530
0
LINE
8
Layer 1
10
222.612231
20
188.154530
11
221.687213
21
187.456065
0
LINE
8
Layer 1
10
221.687213
20
187.456065
11
220.872735
21
186.630942
0
LINE
8
Layer 1
10
220.872735
20
186.630942
11
220.184876
21
185.689580
0
LINE
8
Layer 1
10
220.184876
20
185.689580
11
219.639718
21
184.642397
0
LINE
8
Layer 1
10
219.639718
20
184.642397
11
219.261566
21
183.528138
0
LINE
8
Layer 1
10
219.261566
20
183.528138
11
219.061486
21
182.390861
0
LINE
8
Layer 1
10
219.061486
20
182.390861
11
219.035704
21
181.248960
0
LINE
8
Layer 1
10
219.035704
20
181.248960
11
219.180449
21
180.120828
0
LINE
8
Layer 1
10
219.180449
20
180.120828
11
219.491947
21
179.024859
0
LINE
8
Layer 1
10
219.491947
20
179.024859
11
219.966424
21
177.979446
0
LINE
8
Layer 1
10
219.966424
20
177.979446
11
220.600108
21
177.002984
0
LINE
8
Layer 1
10
220.600108
20
177.002984
11
221.389226
21
176.113865
0
LINE
8
Layer 1
10
221.389226
20
176.113865
11
222.306163
21
175.348688
0
LINE
8
Layer 1
10
222.306163
20
175.348688
11
223.313176
21
174.734229
0
LINE
8
Layer 1
10
223.313176
20
174.734229
11
224.391297
21
174.274146
0
LINE
8
Layer 1
10
224.391297
20
174.274146
11
225.521555
21
173.972098
0
LINE
8
Layer 1
10
225.521555
20
173.972098
11
226.684983
21
173.831745
0
LINE
8
Layer 1
10
226.684983
20
173.831745
11
227.862611
21
173.856744
0
LINE
8
Layer 1
10
227.862611
20
173.856744
11
229.035470
21
174.050754
0
LINE
8
Layer 1
10
229.035470
20
174.050754
11
230.184592
21
174.417434
0
LINE
8
Layer 1
10
230.184592
20
174.417434
11
231.264538
21
174.946053
0
LINE
8
Layer 1
10
231.264538
20
174.946053
11
232.235353
21
175.613043
0
LINE
8
Layer 1
10
232.235353
20
175.613043
11
233.086292
21
176.402812
0
LINE
8
Layer 1
10
233.086292
20
176.402812
11
233.806609
21
177.299767
0
LINE
8
Layer 1
10
233.806609
20
177.299767
11
234.385561
21
178.288314
0
LINE
8
Layer 1
10
234.385561
20
178.288314
11
234.812401
21
179.352859
0
LINE
8
Layer 1
10
234.812401
20
179.352859
11
235.076384
21
180.477811
0
LINE
8
Layer 1
10
235.076384
20
180.477811
11
235.166767
21
181.647575
0
LINE
8
Layer 1
10
235.166767
20
181.647575
11
235.010258
21
183.181452
0
LINE
8
Layer 1
10
235.010258
20
183.181452
11
234.552422
21
184.642397
0
LINE
8
Layer 1
10
234.552422
20
184.642397
11
233.810795
21
185.989359
0
LINE
8
Layer 1
10
233.810795
20
185.989359
11
232.802914
21
187.181285
0
LINE
8
Layer 1
10
232.802914
20
187.181285
11
231.573697
21
188.158589
0
LINE
8
Layer 1
10
231.573697
20
188.158589
11
230.184592
21
188.877716
0
LINE
8
Layer 1
10
230.184592
20
188.877716
11
228.677937
21
189.321662
0
LINE
8
Layer 1
10
228.677937
20
189.321662
11
227.096070
21
189.473423
0
LINE
8
Layer 1
10
227.096070
20
189.473423
11
227.096070
21
189.473423
0
LINE
8
Layer 1
10
16.426710
20
193.011040
11
239.928600
21
193.011040
0
LINE
8
Layer 1
10
239.928600
20
193.011040
11
239.928600
21
154.858692
0
LINE
8
Layer 1
10
239.928600
20
154.858692
11
16.426710
21
154.858692
0
LINE
8
Layer 1
10
16.426710
20
154.858692
11
16.426710
21
193.011040
0
LINE
8
Layer 1
10
16.048466
20
27.062560
11
240.006856
21
27.062560
0
LINE
8
Layer 1
10
240.006856
20
27.062560
11
240.006856
21
12.935915
0
LINE
8
Layer 1
10
240.006856
20
12.935915
11
16.048466
21
12.935915
0
LINE
8
Layer 1
10
16.048466
20
12.935915
11
16.048466
21
27.062560
0
LINE
8
Layer 1
10
16.075806
20
154.382278
11
239.974306
21
154.382278
0
LINE
8
Layer 1
10
239.974306
20
154.382278
11
239.974306
21
138.601583
0
LINE
8
Layer 1
10
239.974306
20
138.601583
11
16.075806
21
138.601583
0
LINE
8
Layer 1
10
16.075806
20
138.601583
11
16.075806
21
154.382278
0
LINE
8
Layer 1
10
23.254943
20
160.715083
11
23.561494
21
160.632973
0
LINE
8
Layer 1
10
23.561494
20
160.632973
11
23.796882
21
160.403059
0
LINE
8
Layer 1
10
23.796882
20
160.403059
11
23.884472
21
160.085559
0
LINE
8
Layer 1
10
23.884472
20
160.085559
11
23.796882
21
159.773534
0
LINE
8
Layer 1
10
23.796882
20
159.773534
11
23.566968
21
159.538146
0
LINE
8
Layer 1
10
23.566968
20
159.538146
11
23.254943
21
159.456036
0
LINE
8
Layer 1
10
23.254943
20
159.456036
11
22.942917
21
159.538146
0
LINE
8
Layer 1
10
22.942917
20
159.538146
11
22.707529
21
159.773534
0
LINE
8
Layer 1
10
22.707529
20
159.773534
11
22.625419
21
160.085559
0
LINE
8
Layer 1
10
22.625419
20
160.085559
11
22.707529
21
160.403059
0
LINE
8
Layer 1
10
22.707529
20
160.403059
11
22.942917
21
160.632973
0
LINE
8
Layer 1
10
22.942917
20
160.632973
11
23.254943
21
160.715083
0
LINE
8
Layer 1
10
23.254943
20
160.715083
11
23.254943
21
160.715083
0
LINE
8
Layer 1
10
23.254943
20
160.715083
11
23.561494
21
160.632973
0
LINE
8
Layer 1
10
23.561494
20
160.632973
11
23.796882
21
160.403059
0
LINE
8
Layer 1
10
23.796882
20
160.403059
11
23.884472
21
160.085559
0
LINE
8
Layer 1
10
23.884472
20
160.085559
11
23.796882
21
159.773534
0
LINE
8
Layer 1
10
23.796882
20
159.773534
11
23.566968
21
159.538146
0
LINE
8
Layer 1
10
23.566968
20
159.538146
11
23.254943
21
159.456036
0
LINE
8
Layer 1
10
23.254943
20
159.456036
11
22.942917
21
159.538146
0
LINE
8
Layer 1
10
22.942917
20
159.538146
11
22.707529
21
159.773534
0
LINE
8
Layer 1
10
22.707529
20
159.773534
11
22.625419
21
160.085559
0
LINE
8
Layer 1
10
22.625419
20
160.085559
11
22.707529
21
160.403059
0
LINE
8
Layer 1
10
22.707529
20
160.403059
11
22.942917
21
160.632973
0
LINE
8
Layer 1
10
22.942917
20
160.632973
11
23.254943
21
160.715083
0
LINE
8
Layer 1
10
23.254943
20
160.715083
11
23.254943
21
160.715083
0
LINE
8
Layer 1
10
27.962698
20
163.890083
11
28.269250
21
163.807973
0
LINE
8
Layer 1
10
28.269250
20
163.807973
11
28.504638
21
163.578059
0
LINE
8
Layer 1
10
28.504638
20
163.578059
11
28.592228
21
163.260559
0
LINE
8
Layer 1
10
28.592228
20
163.260559
11
28.504638
21
162.948533
0
LINE
8
Layer 1
10
28.504638
20
162.948533
11
28.274724
21
162.713146
0
LINE
8
Layer 1
10
28.274724
20
162.713146
11
27.962698
21
162.631036
0
LINE
8
Layer 1
10
27.962698
20
162.631036
11
27.650672
21
162.713146
0
LINE
8
Layer 1
10
27.650672
20
162.713146
11
27.415284
21
162.948533
0
LINE
8
Layer 1
10
27.415284
20
162.948533
11
27.333174
21
163.260559
0
LINE
8
Layer 1
10
27.333174
20
163.260559
11
27.415284
21
163.578059
0
LINE
8
Layer 1
10
27.415284
20
163.578059
11
27.650672
21
163.807973
0
LINE
8
Layer 1
10
27.650672
20
163.807973
11
27.962698
21
163.890083
0
LINE
8
Layer 1
10
27.962698
20
163.890083
11
27.962698
21
163.890083
0
LINE
8
Layer 1
10
27.962698
20
163.890083
11
28.269250
21
163.807973
0
LINE
8
Layer 1
10
28.269250
20
163.807973
11
28.504638
21
163.578059
0
LINE
8
Layer 1
10
28.504638
20
163.578059
11
28.592228
21
163.260559
0
LINE
8
Layer 1
10
28.592228
20
163.260559
11
28.504638
21
162.948533
0
LINE
8
Layer 1
10
28.504638
20
162.948533
11
28.274724
21
162.713146
0
LINE
8
Layer 1
10
28.274724
20
162.713146
11
27.962698
21
162.631036
0
LINE
8
Layer 1
10
27.962698
20
162.631036
11
27.650672
21
162.713146
0
LINE
8
Layer 1
10
27.650672
20
162.713146
11
27.415284
21
162.948533
0
LINE
8
Layer 1
10
27.415284
20
162.948533
11
27.333174
21
163.260559
0
LINE
8
Layer 1
10
27.333174
20
163.260559
11
27.415284
21
163.578059
0
LINE
8
Layer 1
10
27.415284
20
163.578059
11
27.650672
21
163.807973
0
LINE
8
Layer 1
10
27.650672
20
163.807973
11
27.962698
21
163.890083
0
LINE
8
Layer 1
10
27.962698
20
163.890083
11
27.962698
21
163.890083
0
LINE
8
Layer 1
10
27.962698
20
167.065083
11
28.269250
21
166.982973
0
LINE
8
Layer 1
10
28.269250
20
166.982973
11
28.504638
21
166.753059
0
LINE
8
Layer 1
10
28.504638
20
166.753059
11
28.592228
21
166.435559
0
LINE
8
Layer 1
10
28.592228
20
166.435559
11
28.504638
21
166.123533
0
LINE
8
Layer 1
10
28.504638
20
166.123533
11
28.274724
21
165.888145
0
LINE
8
Layer 1
10
28.274724
20
165.888145
11
27.962698
21
165.806035
0
LINE
8
Layer 1
10
27.962698
20
165.806035
11
27.650672
21
165.888145
0
LINE
8
Layer 1
10
27.650672
20
165.888145
11
27.415284
21
166.123533
0
LINE
8
Layer 1
10
27.415284
20
166.123533
11
27.333174
21
166.435559
0
LINE
8
Layer 1
10
27.333174
20
166.435559
11
27.415284
21
166.753059
0
LINE
8
Layer 1
10
27.415284
20
166.753059
11
27.650672
21
166.982973
0
LINE
8
Layer 1
10
27.650672
20
166.982973
11
27.962698
21
167.065083
0
LINE
8
Layer 1
10
27.962698
20
167.065083
11
27.962698
21
167.065083
0
LINE
8
Layer 1
10
31.137698
20
167.065083
11
31.444250
21
166.982973
0
LINE
8
Layer 1
10
31.444250
20
166.982973
11
31.679638
21
166.753059
0
LINE
8
Layer 1
10
31.679638
20
166.753059
11
31.767228
21
166.435559
0
LINE
8
Layer 1
10
31.767228
20
166.435559
11
31.679638
21
166.123533
0
LINE
8
Layer 1
10
31.679638
20
166.123533
11
31.449724
21
165.888145
0
LINE
8
Layer 1
10
31.449724
20
165.888145
11
31.137698
21
165.806035
0
LINE
8
Layer 1
10
31.137698
20
165.806035
11
30.825672
21
165.888145
0
LINE
8
Layer 1
10
30.825672
20
165.888145
11
30.590284
21
166.123533
0
LINE
8
Layer 1
10
30.590284
20
166.123533
11
30.508174
21
166.435559
0
LINE
8
Layer 1
10
30.508174
20
166.435559
11
30.590284
21
166.753059
0
LINE
8
Layer 1
10
30.590284
20
166.753059
11
30.825672
21
166.982973
0
LINE
8
Layer 1
10
30.825672
20
166.982973
11
31.137698
21
167.065083
0
LINE
8
Layer 1
10
31.137698
20
167.065083
11
31.137698
21
167.065083
0
LINE
8
Layer 1
10
27.962698
20
167.065083
11
28.269250
21
166.982973
0
LINE
8
Layer 1
10
28.269250
20
166.982973
11
28.504638
21
166.753059
0
LINE
8
Layer 1
10
28.504638
20
166.753059
11
28.592228
21
166.435559
0
LINE
8
Layer 1
10
28.592228
20
166.435559
11
28.504638
21
166.123533
0
LINE
8
Layer 1
10
28.504638
20
166.123533
11
28.274724
21
165.888145
0
LINE
8
Layer 1
10
28.274724
20
165.888145
11
27.962698
21
165.806035
0
LINE
8
Layer 1
10
27.962698
20
165.806035
11
27.650672
21
165.888145
0
LINE
8
Layer 1
10
27.650672
20
165.888145
11
27.415284
21
166.123533
0
LINE
8
Layer 1
10
27.415284
20
166.123533
11
27.333174
21
166.435559
0
LINE
8
Layer 1
10
27.333174
20
166.435559
11
27.415284
21
166.753059
0
LINE
8
Layer 1
10
27.415284
20
166.753059
11
27.650672
21
166.982973
0
LINE
8
Layer 1
10
27.650672
20
166.982973
11
27.962698
21
167.065083
0
LINE
8
Layer 1
10
27.962698
20
167.065083
11
27.962698
21
167.065083
0
LINE
8
Layer 1
10
31.137698
20
167.065083
11
31.444250
21
166.982973
0
LINE
8
Layer 1
10
31.444250
20
166.982973
11
31.679638
21
166.753059
0
LINE
8
Layer 1
10
31.679638
20
166.753059
11
31.767228
21
166.435559
0
LINE
8
Layer 1
10
31.767228
20
166.435559
11
31.679638
21
166.123533
0
LINE
8
Layer 1
10
31.679638
20
166.123533
11
31.449724
21
165.888145
0
LINE
8
Layer 1
10
31.449724
20
165.888145
11
31.137698
21
165.806035
0
LINE
8
Layer 1
10
31.137698
20
165.806035
11
30.825672
21
165.888145
0
LINE
8
Layer 1
10
30.825672
20
165.888145
11
30.590284
21
166.123533
0
LINE
8
Layer 1
10
30.590284
20
166.123533
11
30.508174
21
166.435559
0
LINE
8
Layer 1
10
30.508174
20
166.435559
11
30.590284
21
166.753059
0
LINE
8
Layer 1
10
30.590284
20
166.753059
11
30.825672
21
166.982973
0
LINE
8
Layer 1
10
30.825672
20
166.982973
11
31.137698
21
167.065083
0
LINE
8
Layer 1
10
31.137698
20
167.065083
11
31.137698
21
167.065083
0
LINE
8
Layer 1
10
35.845453
20
163.890083
11
36.152005
21
163.807973
0
LINE
8
Layer 1
10
36.152005
20
163.807973
11
36.387393
21
163.578059
0
LINE
8
Layer 1
10
36.387393
20
163.578059
11
36.474983
21
163.260559
0
LINE
8
Layer 1
10
36.474983
20
163.260559
11
36.387393
21
162.948533
0
LINE
8
Layer 1
10
36.387393
20
162.948533
11
36.157479
21
162.713146
0
LINE
8
Layer 1
10
36.157479
20
162.713146
11
35.845453
21
162.631036
0
LINE
8
Layer 1
10
35.845453
20
162.631036
11
35.533427
21
162.713146
0
LINE
8
Layer 1
10
35.533427
20
162.713146
11
35.298039
21
162.948533
0
LINE
8
Layer 1
10
35.298039
20
162.948533
11
35.215929
21
163.260559
0
LINE
8
Layer 1
10
35.215929
20
163.260559
11
35.298039
21
163.578059
0
LINE
8
Layer 1
10
35.298039
20
163.578059
11
35.533427
21
163.807973
0
LINE
8
Layer 1
10
35.533427
20
163.807973
11
35.845453
21
163.890083
0
LINE
8
Layer 1
10
35.845453
20
163.890083
11
35.845453
21
163.890083
0
LINE
8
Layer 1
10
35.845453
20
163.890083
11
36.152005
21
163.807973
0
LINE
8
Layer 1
10
36.152005
20
163.807973
11
36.387393
21
163.578059
0
LINE
8
Layer 1
10
36.387393
20
163.578059
11
36.474983
21
163.260559
0
LINE
8
Layer 1
10
36.474983
20
163.260559
11
36.387393
21
162.948533
0
LINE
8
Layer 1
10
36.387393
20
162.948533
11
36.157479
21
162.713146
0
LINE
8
Layer 1
10
36.157479
20
162.713146
11
35.845453
21
162.631036
0
LINE
8
Layer 1
10
35.845453
20
162.631036
11
35.533427
21
162.713146
0
LINE
8
Layer 1
10
35.533427
20
162.713146
11
35.298039
21
162.948533
0
LINE
8
Layer 1
10
35.298039
20
162.948533
11
35.215929
21
163.260559
0
LINE
8
Layer 1
10
35.215929
20
163.260559
11
35.298039
21
163.578059
0
LINE
8
Layer 1
10
35.298039
20
163.578059
11
35.533427
21
163.807973
0
LINE
8
Layer 1
10
35.533427
20
163.807973
11
35.845453
21
163.890083
0
LINE
8
Layer 1
10
35.845453
20
163.890083
11
35.845453
21
163.890083
0
LINE
8
Layer 1
10
39.020453
20
167.065083
11
39.327005
21
166.982973
0
LINE
8
Layer 1
10
39.327005
20
166.982973
11
39.562393
21
166.753059
0
LINE
8
Layer 1
10
39.562393
20
166.753059
11
39.649983
21
166.435559
0
LINE
8
Layer 1
10
39.649983
20
166.435559
11
39.562393
21
166.123533
0
LINE
8
Layer 1
10
39.562393
20
166.123533
11
39.332479
21
165.888145
0
LINE
8
Layer 1
10
39.332479
20
165.888145
11
39.020453
21
165.806035
0
LINE
8
Layer 1
10
39.020453
20
165.806035
11
38.708427
21
165.888145
0
LINE
8
Layer 1
10
38.708427
20
165.888145
11
38.473039
21
166.123533
0
LINE
8
Layer 1
10
38.473039
20
166.123533
11
38.390929
21
166.435559
0
LINE
8
Layer 1
10
38.390929
20
166.435559
11
38.473039
21
166.753059
0
LINE
8
Layer 1
10
38.473039
20
166.753059
11
38.708427
21
166.982973
0
LINE
8
Layer 1
10
38.708427
20
166.982973
11
39.020453
21
167.065083
0
LINE
8
Layer 1
10
39.020453
20
167.065083
11
39.020453
21
167.065083
0
LINE
8
Layer 1
10
39.020453
20
167.065083
11
39.327005
21
166.982973
0
LINE
8
Layer 1
10
39.327005
20
166.982973
11
39.562393
21
166.753059
0
LINE
8
Layer 1
10
39.562393
20
166.753059
11
39.649983
21
166.435559
0
LINE
8
Layer 1
10
39.649983
20
166.435559
11
39.562393
21
166.123533
0
LINE
8
Layer 1
10
39.562393
20
166.123533
11
39.332479
21
165.888145
0
LINE
8
Layer 1
10
39.332479
20
165.888145
11
39.020453
21
165.806035
0
LINE
8
Layer 1
10
39.020453
20
165.806035
11
38.708427
21
165.888145
0
LINE
8
Layer 1
10
38.708427
20
165.888145
11
38.473039
21
166.123533
0
LINE
8
Layer 1
10
38.473039
20
166.123533
11
38.390929
21
166.435559
0
LINE
8
Layer 1
10
38.390929
20
166.435559
11
38.473039
21
166.753059
0
LINE
8
Layer 1
10
38.473039
20
166.753059
11
38.708427
21
166.982973
0
LINE
8
Layer 1
10
38.708427
20
166.982973
11
39.020453
21
167.065083
0
LINE
8
Layer 1
10
39.020453
20
167.065083
11
39.020453
21
167.065083
0
LINE
8
Layer 1
10
43.728209
20
160.715083
11
44.034760
21
160.632973
0
LINE
8
Layer 1
10
44.034760
20
160.632973
11
44.270148
21
160.403059
0
LINE
8
Layer 1
10
44.270148
20
160.403059
11
44.357738
21
160.085559
0
LINE
8
Layer 1
10
44.357738
20
160.085559
11
44.270148
21
159.773534
0
LINE
8
Layer 1
10
44.270148
20
159.773534
11
44.040234
21
159.538146
0
LINE
8
Layer 1
10
44.040234
20
159.538146
11
43.728209
21
159.456036
0
LINE
8
Layer 1
10
43.728209
20
159.456036
11
43.416183
21
159.538146
0
LINE
8
Layer 1
10
43.416183
20
159.538146
11
43.180795
21
159.773534
0
LINE
8
Layer 1
10
43.180795
20
159.773534
11
43.098685
21
160.085559
0
LINE
8
Layer 1
10
43.098685
20
160.085559
11
43.180795
21
160.403059
0
LINE
8
Layer 1
10
43.180795
20
160.403059
11
43.416183
21
160.632973
0
LINE
8
Layer 1
10
43.416183
20
160.632973
11
43.728209
21
160.715083
0
LINE
8
Layer 1
10
43.728209
20
160.715083
11
43.728209
21
160.715083
0
LINE
8
Layer 1
10
43.728209
20
160.715083
11
44.034760
21
160.632973
0
LINE
8
Layer 1
10
44.034760
20
160.632973
11
44.270148
21
160.403059
0
LINE
8
Layer 1
10
44.270148
20
160.403059
11
44.357738
21
160.085559
0
LINE
8
Layer 1
10
44.357738
20
160.085559
11
44.270148
21
159.773534
0
LINE
8
Layer 1
10
44.270148
20
159.773534
11
44.040234
21
159.538146
0
LINE
8
Layer 1
10
44.040234
20
159.538146
11
43.728209
21
159.456036
0
LINE
8
Layer 1
10
43.728209
20
159.456036
11
43.416183
21
159.538146
0
LINE
8
Layer 1
10
43.416183
20
159.538146
11
43.180795
21
159.773534
0
LINE
8
Layer 1
10
43.180795
20
159.773534
11
43.098685
21
160.085559
0
LINE
8
Layer 1
10
43.098685
20
160.085559
11
43.180795
21
160.403059
0
LINE
8
Layer 1
10
43.180795
20
160.403059
11
43.416183
21
160.632973
0
LINE
8
Layer 1
10
43.416183
20
160.632973
11
43.728209
21
160.715083
0
LINE
8
Layer 1
10
43.728209
20
160.715083
11
43.728209
21
160.715083
0
LINE
8
Layer 1
10
43.728209
20
163.890083
11
44.034760
21
163.807973
0
LINE
8
Layer 1
10
44.034760
20
163.807973
11
44.270148
21
163.578059
0
LINE
8
Layer 1
10
44.270148
20
163.578059
11
44.357738
21
163.260559
0
LINE
8
Layer 1
10
44.357738
20
163.260559
11
44.270148
21
162.948533
0
LINE
8
Layer 1
10
44.270148
20
162.948533
11
44.040234
21
162.713146
0
LINE
8
Layer 1
10
44.040234
20
162.713146
11
43.728209
21
162.631036
0
LINE
8
Layer 1
10
43.728209
20
162.631036
11
43.416183
21
162.713146
0
LINE
8
Layer 1
10
43.416183
20
162.713146
11
43.180795
21
162.948533
0
LINE
8
Layer 1
10
43.180795
20
162.948533
11
43.098685
21
163.260559
0
LINE
8
Layer 1
10
43.098685
20
163.260559
11
43.180795
21
163.578059
0
LINE
8
Layer 1
10
43.180795
20
163.578059
11
43.416183
21
163.807973
0
LINE
8
Layer 1
10
43.416183
20
163.807973
11
43.728209
21
163.890083
0
LINE
8
Layer 1
10
43.728209
20
163.890083
11
43.728209
21
163.890083
0
LINE
8
Layer 1
10
43.728209
20
163.890083
11
44.034760
21
163.807973
0
LINE
8
Layer 1
10
44.034760
20
163.807973
11
44.270148
21
163.578059
0
LINE
8
Layer 1
10
44.270148
20
163.578059
11
44.357738
21
163.260559
0
LINE
8
Layer 1
10
44.357738
20
163.260559
11
44.270148
21
162.948533
0
LINE
8
Layer 1
10
44.270148
20
162.948533
11
44.040234
21
162.713146
0
LINE
8
Layer 1
10
44.040234
20
162.713146
11
43.728209
21
162.631036
0
LINE
8
Layer 1
10
43.728209
20
162.631036
11
43.416183
21
162.713146
0
LINE
8
Layer 1
10
43.416183
20
162.713146
11
43.180795
21
162.948533
0
LINE
8
Layer 1
10
43.180795
20
162.948533
11
43.098685
21
163.260559
0
LINE
8
Layer 1
10
43.098685
20
163.260559
11
43.180795
21
163.578059
0
LINE
8
Layer 1
10
43.180795
20
163.578059
11
43.416183
21
163.807973
0
LINE
8
Layer 1
10
43.416183
20
163.807973
11
43.728209
21
163.890083
0
LINE
8
Layer 1
10
43.728209
20
163.890083
11
43.728209
21
163.890083
0
LINE
8
Layer 1
10
43.728209
20
167.065083
11
44.034760
21
166.982973
0
LINE
8
Layer 1
10
44.034760
20
166.982973
11
44.270148
21
166.753059
0
LINE
8
Layer 1
10
44.270148
20
166.753059
11
44.357738
21
166.435559
0
LINE
8
Layer 1
10
44.357738
20
166.435559
11
44.270148
21
166.123533
0
LINE
8
Layer 1
10
44.270148
20
166.123533
11
44.040234
21
165.888145
0
LINE
8
Layer 1
10
44.040234
20
165.888145
11
43.728209
21
165.806035
0
LINE
8
Layer 1
10
43.728209
20
165.806035
11
43.416183
21
165.888145
0
LINE
8
Layer 1
10
43.416183
20
165.888145
11
43.180795
21
166.123533
0
LINE
8
Layer 1
10
43.180795
20
166.123533
11
43.098685
21
166.435559
0
LINE
8
Layer 1
10
43.098685
20
166.435559
11
43.180795
21
166.753059
0
LINE
8
Layer 1
10
43.180795
20
166.753059
11
43.416183
21
166.982973
0
LINE
8
Layer 1
10
43.416183
20
166.982973
11
43.728209
21
167.065083
0
LINE
8
Layer 1
10
43.728209
20
167.065083
11
43.728209
21
167.065083
0
LINE
8
Layer 1
10
43.728209
20
167.065083
11
44.034760
21
166.982973
0
LINE
8
Layer 1
10
44.034760
20
166.982973
11
44.270148
21
166.753059
0
LINE
8
Layer 1
10
44.270148
20
166.753059
11
44.357738
21
166.435559
0
LINE
8
Layer 1
10
44.357738
20
166.435559
11
44.270148
21
166.123533
0
LINE
8
Layer 1
10
44.270148
20
166.123533
11
44.040234
21
165.888145
0
LINE
8
Layer 1
10
44.040234
20
165.888145
11
43.728209
21
165.806035
0
LINE
8
Layer 1
10
43.728209
20
165.806035
11
43.416183
21
165.888145
0
LINE
8
Layer 1
10
43.416183
20
165.888145
11
43.180795
21
166.123533
0
LINE
8
Layer 1
10
43.180795
20
166.123533
11
43.098685
21
166.435559
0
LINE
8
Layer 1
10
43.098685
20
166.435559
11
43.180795
21
166.753059
0
LINE
8
Layer 1
10
43.180795
20
166.753059
11
43.416183
21
166.982973
0
LINE
8
Layer 1
10
43.416183
20
166.982973
11
43.728209
21
167.065083
0
LINE
8
Layer 1
10
43.728209
20
167.065083
11
43.728209
21
167.065083
0
LINE
8
Layer 1
10
54.785964
20
163.890083
11
55.092515
21
163.807973
0
LINE
8
Layer 1
10
55.092515
20
163.807973
11
55.327903
21
163.578059
0
LINE
8
Layer 1
10
55.327903
20
163.578059
11
55.415493
21
163.260559
0
LINE
8
Layer 1
10
55.415493
20
163.260559
11
55.327903
21
162.948533
0
LINE
8
Layer 1
10
55.327903
20
162.948533
11
55.097990
21
162.713146
0
LINE
8
Layer 1
10
55.097990
20
162.713146
11
54.785964
21
162.631036
0
LINE
8
Layer 1
10
54.785964
20
162.631036
11
54.473938
21
162.713146
0
LINE
8
Layer 1
10
54.473938
20
162.713146
11
54.238550
21
162.948533
0
LINE
8
Layer 1
10
54.238550
20
162.948533
11
54.156440
21
163.260559
0
LINE
8
Layer 1
10
54.156440
20
163.260559
11
54.238550
21
163.578059
0
LINE
8
Layer 1
10
54.238550
20
163.578059
11
54.473938
21
163.807973
0
LINE
8
Layer 1
10
54.473938
20
163.807973
11
54.785964
21
163.890083
0
LINE
8
Layer 1
10
54.785964
20
163.890083
11
54.785964
21
163.890083
0
LINE
8
Layer 1
10
54.785964
20
163.890083
11
55.092515
21
163.807973
0
LINE
8
Layer 1
10
55.092515
20
163.807973
11
55.327903
21
163.578059
0
LINE
8
Layer 1
10
55.327903
20
163.578059
11
55.415493
21
163.260559
0
LINE
8
Layer 1
10
55.415493
20
163.260559
11
55.327903
21
162.948533
0
LINE
8
Layer 1
10
55.327903
20
162.948533
11
55.097990
21
162.713146
0
LINE
8
Layer 1
10
55.097990
20
162.713146
11
54.785964
21
162.631036
0
LINE
8
Layer 1
10
54.785964
20
162.631036
11
54.473938
21
162.713146
0
LINE
8
Layer 1
10
54.473938
20
162.713146
11
54.238550
21
162.948533
0
LINE
8
Layer 1
10
54.238550
20
162.948533
11
54.156440
21
163.260559
0
LINE
8
Layer 1
10
54.156440
20
163.260559
11
54.238550
21
163.578059
0
LINE
8
Layer 1
10
54.238550
20
163.578059
11
54.473938
21
163.807973
0
LINE
8
Layer 1
10
54.473938
20
163.807973
11
54.785964
21
163.890083
0
LINE
8
Layer 1
10
54.785964
20
163.890083
11
54.785964
21
163.890083
0
LINE
8
Layer 1
10
51.610964
20
167.065083
11
51.917516
21
166.982973
0
LINE
8
Layer 1
10
51.917516
20
166.982973
11
52.152903
21
166.753059
0
LINE
8
Layer 1
10
52.152903
20
166.753059
11
52.240493
21
166.435559
0
LINE
8
Layer 1
10
52.240493
20
166.435559
11
52.152903
21
166.123533
0
LINE
8
Layer 1
10
52.152903
20
166.123533
11
51.922990
21
165.888145
0
LINE
8
Layer 1
10
51.922990
20
165.888145
11
51.610964
21
165.806035
0
LINE
8
Layer 1
10
51.610964
20
165.806035
11
51.298938
21
165.888145
0
LINE
8
Layer 1
10
51.298938
20
165.888145
11
51.063550
21
166.123533
0
LINE
8
Layer 1
10
51.063550
20
166.123533
11
50.981440
21
166.435559
0
LINE
8
Layer 1
10
50.981440
20
166.435559
11
51.063550
21
166.753059
0
LINE
8
Layer 1
10
51.063550
20
166.753059
11
51.298938
21
166.982973
0
LINE
8
Layer 1
10
51.298938
20
166.982973
11
51.610964
21
167.065083
0
LINE
8
Layer 1
10
51.610964
20
167.065083
11
51.610964
21
167.065083
0
LINE
8
Layer 1
10
51.610964
20
167.065083
11
51.917516
21
166.982973
0
LINE
8
Layer 1
10
51.917516
20
166.982973
11
52.152903
21
166.753059
0
LINE
8
Layer 1
10
52.152903
20
166.753059
11
52.240493
21
166.435559
0
LINE
8
Layer 1
10
52.240493
20
166.435559
11
52.152903
21
166.123533
0
LINE
8
Layer 1
10
52.152903
20
166.123533
11
51.922990
21
165.888145
0
LINE
8
Layer 1
10
51.922990
20
165.888145
11
51.610964
21
165.806035
0
LINE
8
Layer 1
10
51.610964
20
165.806035
11
51.298938
21
165.888145
0
LINE
8
Layer 1
10
51.298938
20
165.888145
11
51.063550
21
166.123533
0
LINE
8
Layer 1
10
51.063550
20
166.123533
11
50.981440
21
166.435559
0
LINE
8
Layer 1
10
50.981440
20
166.435559
11
51.063550
21
166.753059
0
LINE
8
Layer 1
10
51.063550
20
166.753059
11
51.298938
21
166.982973
0
LINE
8
Layer 1
10
51.298938
20
166.982973
11
51.610964
21
167.065083
0
LINE
8
Layer 1
10
51.610964
20
167.065083
11
51.610964
21
167.065083
0
LINE
8
Layer 1
10
70.551474
20
160.715083
11
70.858026
21
160.632973
0
LINE
8
Layer 1
10
70.858026
20
160.632973
11
71.093414
21
160.403059
0
LINE
8
Layer 1
10
71.093414
20
160.403059
11
71.181004
21
160.085559
0
LINE
8
Layer 1
10
71.181004
20
160.085559
11
71.093414
21
159.773534
0
LINE
8
Layer 1
10
71.093414
20
159.773534
11
70.863500
21
159.538146
0
LINE
8
Layer 1
10
70.863500
20
159.538146
11
70.551474
21
159.456036
0
LINE
8
Layer 1
10
70.551474
20
159.456036
11
70.239448
21
159.538146
0
LINE
8
Layer 1
10
70.239448
20
159.538146
11
70.004061
21
159.773534
0
LINE
8
Layer 1
10
70.004061
20
159.773534
11
69.921951
21
160.085559
0
LINE
8
Layer 1
10
69.921951
20
160.085559
11
70.004061
21
160.403059
0
LINE
8
Layer 1
10
70.004061
20
160.403059
11
70.239448
21
160.632973
0
LINE
8
Layer 1
10
70.239448
20
160.632973
11
70.551474
21
160.715083
0
LINE
8
Layer 1
10
70.551474
20
160.715083
11
70.551474
21
160.715083
0
LINE
8
Layer 1
10
70.551474
20
160.715083
11
70.858026
21
160.632973
0
LINE
8
Layer 1
10
70.858026
20
160.632973
11
71.093414
21
160.403059
0
LINE
8
Layer 1
10
71.093414
20
160.403059
11
71.181004
21
160.085559
0
LINE
8
Layer 1
10
71.181004
20
160.085559
11
71.093414
21
159.773534
0
LINE
8
Layer 1
10
71.093414
20
159.773534
11
70.863500
21
159.538146
0
LINE
8
Layer 1
10
70.863500
20
159.538146
11
70.551474
21
159.456036
0
LINE
8
Layer 1
10
70.551474
20
159.456036
11
70.239448
21
159.538146
0
LINE
8
Layer 1
10
70.239448
20
159.538146
11
70.004061
21
159.773534
0
LINE
8
Layer 1
10
70.004061
20
159.773534
11
69.921951
21
160.085559
0
LINE
8
Layer 1
10
69.921951
20
160.085559
11
70.004061
21
160.403059
0
LINE
8
Layer 1
10
70.004061
20
160.403059
11
70.239448
21
160.632973
0
LINE
8
Layer 1
10
70.239448
20
160.632973
11
70.551474
21
160.715083
0
LINE
8
Layer 1
10
70.551474
20
160.715083
11
70.551474
21
160.715083
0
LINE
8
Layer 1
10
75.259230
20
163.890083
11
75.565781
21
163.807973
0
LINE
8
Layer 1
10
75.565781
20
163.807973
11
75.801169
21
163.578059
0
LINE
8
Layer 1
10
75.801169
20
163.578059
11
75.888759
21
163.260559
0
LINE
8
Layer 1
10
75.888759
20
163.260559
11
75.801169
21
162.948533
0
LINE
8
Layer 1
10
75.801169
20
162.948533
11
75.571255
21
162.713146
0
LINE
8
Layer 1
10
75.571255
20
162.713146
11
75.259230
21
162.631036
0
LINE
8
Layer 1
10
75.259230
20
162.631036
11
74.947204
21
162.713146
0
LINE
8
Layer 1
10
74.947204
20
162.713146
11
74.711816
21
162.948533
0
LINE
8
Layer 1
10
74.711816
20
162.948533
11
74.629706
21
163.260559
0
LINE
8
Layer 1
10
74.629706
20
163.260559
11
74.711816
21
163.578059
0
LINE
8
Layer 1
10
74.711816
20
163.578059
11
74.947204
21
163.807973
0
LINE
8
Layer 1
10
74.947204
20
163.807973
11
75.259230
21
163.890083
0
LINE
8
Layer 1
10
75.259230
20
163.890083
11
75.259230
21
163.890083
0
LINE
8
Layer 1
10
78.434230
20
163.890083
11
78.740781
21
163.807973
0
LINE
8
Layer 1
10
78.740781
20
163.807973
11
78.976169
21
163.578059
0
LINE
8
Layer 1
10
78.976169
20
163.578059
11
79.063759
21
163.260559
0
LINE
8
Layer 1
10
79.063759
20
163.260559
11
78.976169
21
162.948533
0
LINE
8
Layer 1
10
78.976169
20
162.948533
11
78.746255
21
162.713146
0
LINE
8
Layer 1
10
78.746255
20
162.713146
11
78.434230
21
162.631036
0
LINE
8
Layer 1
10
78.434230
20
162.631036
11
78.122204
21
162.713146
0
LINE
8
Layer 1
10
78.122204
20
162.713146
11
77.886816
21
162.948533
0
LINE
8
Layer 1
10
77.886816
20
162.948533
11
77.804706
21
163.260559
0
LINE
8
Layer 1
10
77.804706
20
163.260559
11
77.886816
21
163.578059
0
LINE
8
Layer 1
10
77.886816
20
163.578059
11
78.122204
21
163.807973
0
LINE
8
Layer 1
10
78.122204
20
163.807973
11
78.434230
21
163.890083
0
LINE
8
Layer 1
10
78.434230
20
163.890083
11
78.434230
21
163.890083
0
LINE
8
Layer 1
10
75.259230
20
163.890083
11
75.565781
21
163.807973
0
LINE
8
Layer 1
10
75.565781
20
163.807973
11
75.801169
21
163.578059
0
LINE
8
Layer 1
10
75.801169
20
163.578059
11
75.888759
21
163.260559
0
LINE
8
Layer 1
10
75.888759
20
163.260559
11
75.801169
21
162.948533
0
LINE
8
Layer 1
10
75.801169
20
162.948533
11
75.571255
21
162.713146
0
LINE
8
Layer 1
10
75.571255
20
162.713146
11
75.259230
21
162.631036
0
LINE
8
Layer 1
10
75.259230
20
162.631036
11
74.947204
21
162.713146
0
LINE
8
Layer 1
10
74.947204
20
162.713146
11
74.711816
21
162.948533
0
LINE
8
Layer 1
10
74.711816
20
162.948533
11
74.629706
21
163.260559
0
LINE
8
Layer 1
10
74.629706
20
163.260559
11
74.711816
21
163.578059
0
LINE
8
Layer 1
10
74.711816
20
163.578059
11
74.947204
21
163.807973
0
LINE
8
Layer 1
10
74.947204
20
163.807973
11
75.259230
21
163.890083
0
LINE
8
Layer 1
10
75.259230
20
163.890083
11
75.259230
21
163.890083
0
LINE
8
Layer 1
10
78.434230
20
163.890083
11
78.740781
21
163.807973
0
LINE
8
Layer 1
10
78.740781
20
163.807973
11
78.976169
21
163.578059
0
LINE
8
Layer 1
10
78.976169
20
163.578059
11
79.063759
21
163.260559
0
LINE
8
Layer 1
10
79.063759
20
163.260559
11
78.976169
21
162.948533
0
LINE
8
Layer 1
10
78.976169
20
162.948533
11
78.746255
21
162.713146
0
LINE
8
Layer 1
10
78.746255
20
162.713146
11
78.434230
21
162.631036
0
LINE
8
Layer 1
10
78.434230
20
162.631036
11
78.122204
21
162.713146
0
LINE
8
Layer 1
10
78.122204
20
162.713146
11
77.886816
21
162.948533
0
LINE
8
Layer 1
10
77.886816
20
162.948533
11
77.804706
21
163.260559
0
LINE
8
Layer 1
10
77.804706
20
163.260559
11
77.886816
21
163.578059
0
LINE
8
Layer 1
10
77.886816
20
163.578059
11
78.122204
21
163.807973
0
LINE
8
Layer 1
10
78.122204
20
163.807973
11
78.434230
21
163.890083
0
LINE
8
Layer 1
10
78.434230
20
163.890083
11
78.434230
21
163.890083
0
LINE
8
Layer 1
10
75.259230
20
167.065083
11
75.565781
21
166.982973
0
LINE
8
Layer 1
10
75.565781
20
166.982973
11
75.801169
21
166.753059
0
LINE
8
Layer 1
10
75.801169
20
166.753059
11
75.888759
21
166.435559
0
LINE
8
Layer 1
10
75.888759
20
166.435559
11
75.801169
21
166.123533
0
LINE
8
Layer 1
10
75.801169
20
166.123533
11
75.571255
21
165.888145
0
LINE
8
Layer 1
10
75.571255
20
165.888145
11
75.259230
21
165.806035
0
LINE
8
Layer 1
10
75.259230
20
165.806035
11
74.947204
21
165.888145
0
LINE
8
Layer 1
10
74.947204
20
165.888145
11
74.711816
21
166.123533
0
LINE
8
Layer 1
10
74.711816
20
166.123533
11
74.629706
21
166.435559
0
LINE
8
Layer 1
10
74.629706
20
166.435559
11
74.711816
21
166.753059
0
LINE
8
Layer 1
10
74.711816
20
166.753059
11
74.947204
21
166.982973
0
LINE
8
Layer 1
10
74.947204
20
166.982973
11
75.259230
21
167.065083
0
LINE
8
Layer 1
10
75.259230
20
167.065083
11
75.259230
21
167.065083
0
LINE
8
Layer 1
10
75.259230
20
167.065083
11
75.565781
21
166.982973
0
LINE
8
Layer 1
10
75.565781
20
166.982973
11
75.801169
21
166.753059
0
LINE
8
Layer 1
10
75.801169
20
166.753059
11
75.888759
21
166.435559
0
LINE
8
Layer 1
10
75.888759
20
166.435559
11
75.801169
21
166.123533
0
LINE
8
Layer 1
10
75.801169
20
166.123533
11
75.571255
21
165.888145
0
LINE
8
Layer 1
10
75.571255
20
165.888145
11
75.259230
21
165.806035
0
LINE
8
Layer 1
10
75.259230
20
165.806035
11
74.947204
21
165.888145
0
LINE
8
Layer 1
10
74.947204
20
165.888145
11
74.711816
21
166.123533
0
LINE
8
Layer 1
10
74.711816
20
166.123533
11
74.629706
21
166.435559
0
LINE
8
Layer 1
10
74.629706
20
166.435559
11
74.711816
21
166.753059
0
LINE
8
Layer 1
10
74.711816
20
166.753059
11
74.947204
21
166.982973
0
LINE
8
Layer 1
10
74.947204
20
166.982973
11
75.259230
21
167.065083
0
LINE
8
Layer 1
10
75.259230
20
167.065083
11
75.259230
21
167.065083
0
LINE
8
Layer 1
10
83.141985
20
160.715083
11
83.448537
21
160.632973
0
LINE
8
Layer 1
10
83.448537
20
160.632973
11
83.683925
21
160.403059
0
LINE
8
Layer 1
10
83.683925
20
160.403059
11
83.771515
21
160.085559
0
LINE
8
Layer 1
10
83.771515
20
160.085559
11
83.683925
21
159.773534
0
LINE
8
Layer 1
10
83.683925
20
159.773534
11
83.454011
21
159.538146
0
LINE
8
Layer 1
10
83.454011
20
159.538146
11
83.141985
21
159.456036
0
LINE
8
Layer 1
10
83.141985
20
159.456036
11
82.829959
21
159.538146
0
LINE
8
Layer 1
10
82.829959
20
159.538146
11
82.594571
21
159.773534
0
LINE
8
Layer 1
10
82.594571
20
159.773534
11
82.512461
21
160.085559
0
LINE
8
Layer 1
10
82.512461
20
160.085559
11
82.594571
21
160.403059
0
LINE
8
Layer 1
10
82.594571
20
160.403059
11
82.829959
21
160.632973
0
LINE
8
Layer 1
10
82.829959
20
160.632973
11
83.141985
21
160.715083
0
LINE
8
Layer 1
10
83.141985
20
160.715083
11
83.141985
21
160.715083
0
LINE
8
Layer 1
10
83.141985
20
160.715083
11
83.448537
21
160.632973
0
LINE
8
Layer 1
10
83.448537
20
160.632973
11
83.683925
21
160.403059
0
LINE
8
Layer 1
10
83.683925
20
160.403059
11
83.771515
21
160.085559
0
LINE
8
Layer 1
10
83.771515
20
160.085559
11
83.683925
21
159.773534
0
LINE
8
Layer 1
10
83.683925
20
159.773534
11
83.454011
21
159.538146
0
LINE
8
Layer 1
10
83.454011
20
159.538146
11
83.141985
21
159.456036
0
LINE
8
Layer 1
10
83.141985
20
159.456036
11
82.829959
21
159.538146
0
LINE
8
Layer 1
10
82.829959
20
159.538146
11
82.594571
21
159.773534
0
LINE
8
Layer 1
10
82.594571
20
159.773534
11
82.512461
21
160.085559
0
LINE
8
Layer 1
10
82.512461
20
160.085559
11
82.594571
21
160.403059
0
LINE
8
Layer 1
10
82.594571
20
160.403059
11
82.829959
21
160.632973
0
LINE
8
Layer 1
10
82.829959
20
160.632973
11
83.141985
21
160.715083
0
LINE
8
Layer 1
10
83.141985
20
160.715083
11
83.141985
21
160.715083
0
LINE
8
Layer 1
10
86.316985
20
163.890083
11
86.623537
21
163.807973
0
LINE
8
Layer 1
10
86.623537
20
163.807973
11
86.858925
21
163.578059
0
LINE
8
Layer 1
10
86.858925
20
163.578059
11
86.946515
21
163.260559
0
LINE
8
Layer 1
10
86.946515
20
163.260559
11
86.858925
21
162.948533
0
LINE
8
Layer 1
10
86.858925
20
162.948533
11
86.629011
21
162.713146
0
LINE
8
Layer 1
10
86.629011
20
162.713146
11
86.316985
21
162.631036
0
LINE
8
Layer 1
10
86.316985
20
162.631036
11
86.004959
21
162.713146
0
LINE
8
Layer 1
10
86.004959
20
162.713146
11
85.769571
21
162.948533
0
LINE
8
Layer 1
10
85.769571
20
162.948533
11
85.687461
21
163.260559
0
LINE
8
Layer 1
10
85.687461
20
163.260559
11
85.769571
21
163.578059
0
LINE
8
Layer 1
10
85.769571
20
163.578059
11
86.004959
21
163.807973
0
LINE
8
Layer 1
10
86.004959
20
163.807973
11
86.316985
21
163.890083
0
LINE
8
Layer 1
10
86.316985
20
163.890083
11
86.316985
21
163.890083
0
LINE
8
Layer 1
10
86.316985
20
163.890083
11
86.623537
21
163.807973
0
LINE
8
Layer 1
10
86.623537
20
163.807973
11
86.858925
21
163.578059
0
LINE
8
Layer 1
10
86.858925
20
163.578059
11
86.946515
21
163.260559
0
LINE
8
Layer 1
10
86.946515
20
163.260559
11
86.858925
21
162.948533
0
LINE
8
Layer 1
10
86.858925
20
162.948533
11
86.629011
21
162.713146
0
LINE
8
Layer 1
10
86.629011
20
162.713146
11
86.316985
21
162.631036
0
LINE
8
Layer 1
10
86.316985
20
162.631036
11
86.004959
21
162.713146
0
LINE
8
Layer 1
10
86.004959
20
162.713146
11
85.769571
21
162.948533
0
LINE
8
Layer 1
10
85.769571
20
162.948533
11
85.687461
21
163.260559
0
LINE
8
Layer 1
10
85.687461
20
163.260559
11
85.769571
21
163.578059
0
LINE
8
Layer 1
10
85.769571
20
163.578059
11
86.004959
21
163.807973
0
LINE
8
Layer 1
10
86.004959
20
163.807973
11
86.316985
21
163.890083
0
LINE
8
Layer 1
10
86.316985
20
163.890083
11
86.316985
21
163.890083
0
LINE
8
Layer 1
10
83.141985
20
167.065083
11
83.448537
21
166.982973
0
LINE
8
Layer 1
10
83.448537
20
166.982973
11
83.683925
21
166.753059
0
LINE
8
Layer 1
10
83.683925
20
166.753059
11
83.771515
21
166.435559
0
LINE
8
Layer 1
10
83.771515
20
166.435559
11
83.683925
21
166.123533
0
LINE
8
Layer 1
10
83.683925
20
166.123533
11
83.454011
21
165.888145
0
LINE
8
Layer 1
10
83.454011
20
165.888145
11
83.141985
21
165.806035
0
LINE
8
Layer 1
10
83.141985
20
165.806035
11
82.829959
21
165.888145
0
LINE
8
Layer 1
10
82.829959
20
165.888145
11
82.594571
21
166.123533
0
LINE
8
Layer 1
10
82.594571
20
166.123533
11
82.512461
21
166.435559
0
LINE
8
Layer 1
10
82.512461
20
166.435559
11
82.594571
21
166.753059
0
LINE
8
Layer 1
10
82.594571
20
166.753059
11
82.829959
21
166.982973
0
LINE
8
Layer 1
10
82.829959
20
166.982973
11
83.141985
21
167.065083
0
LINE
8
Layer 1
10
83.141985
20
167.065083
11
83.141985
21
167.065083
0
LINE
8
Layer 1
10
83.141985
20
167.065083
11
83.448537
21
166.982973
0
LINE
8
Layer 1
10
83.448537
20
166.982973
11
83.683925
21
166.753059
0
LINE
8
Layer 1
10
83.683925
20
166.753059
11
83.771515
21
166.435559
0
LINE
8
Layer 1
10
83.771515
20
166.435559
11
83.683925
21
166.123533
0
LINE
8
Layer 1
10
83.683925
20
166.123533
11
83.454011
21
165.888145
0
LINE
8
Layer 1
10
83.454011
20
165.888145
11
83.141985
21
165.806035
0
LINE
8
Layer 1
10
83.141985
20
165.806035
11
82.829959
21
165.888145
0
LINE
8
Layer 1
10
82.829959
20
165.888145
11
82.594571
21
166.123533
0
LINE
8
Layer 1
10
82.594571
20
166.123533
11
82.512461
21
166.435559
0
LINE
8
Layer 1
10
82.512461
20
166.435559
11
82.594571
21
166.753059
0
LINE
8
Layer 1
10
82.594571
20
166.753059
11
82.829959
21
166.982973
0
LINE
8
Layer 1
10
82.829959
20
166.982973
11
83.141985
21
167.065083
0
LINE
8
Layer 1
10
83.141985
20
167.065083
11
83.141985
21
167.065083
0
LINE
8
Layer 1
10
91.024736
20
160.715083
11
91.331288
21
160.632973
0
LINE
8
Layer 1
10
91.331288
20
160.632973
11
91.566676
21
160.403059
0
LINE
8
Layer 1
10
91.566676
20
160.403059
11
91.654266
21
160.085559
0
LINE
8
Layer 1
10
91.654266
20
160.085559
11
91.566676
21
159.773534
0
LINE
8
Layer 1
10
91.566676
20
159.773534
11
91.336762
21
159.538146
0
LINE
8
Layer 1
10
91.336762
20
159.538146
11
91.024736
21
159.456036
0
LINE
8
Layer 1
10
91.024736
20
159.456036
11
90.712711
21
159.538146
0
LINE
8
Layer 1
10
90.712711
20
159.538146
11
90.477323
21
159.773534
0
LINE
8
Layer 1
10
90.477323
20
159.773534
11
90.395213
21
160.085559
0
LINE
8
Layer 1
10
90.395213
20
160.085559
11
90.477323
21
160.403059
0
LINE
8
Layer 1
10
90.477323
20
160.403059
11
90.712711
21
160.632973
0
LINE
8
Layer 1
10
90.712711
20
160.632973
11
91.024736
21
160.715083
0
LINE
8
Layer 1
10
91.024736
20
160.715083
11
91.024736
21
160.715083
0
LINE
8
Layer 1
10
91.024736
20
160.715083
11
91.331288
21
160.632973
0
LINE
8
Layer 1
10
91.331288
20
160.632973
11
91.566676
21
160.403059
0
LINE
8
Layer 1
10
91.566676
20
160.403059
11
91.654266
21
160.085559
0
LINE
8
Layer 1
10
91.654266
20
160.085559
11
91.566676
21
159.773534
0
LINE
8
Layer 1
10
91.566676
20
159.773534
11
91.336762
21
159.538146
0
LINE
8
Layer 1
10
91.336762
20
159.538146
11
91.024736
21
159.456036
0
LINE
8
Layer 1
10
91.024736
20
159.456036
11
90.712711
21
159.538146
0
LINE
8
Layer 1
10
90.712711
20
159.538146
11
90.477323
21
159.773534
0
LINE
8
Layer 1
10
90.477323
20
159.773534
11
90.395213
21
160.085559
0
LINE
8
Layer 1
10
90.395213
20
160.085559
11
90.477323
21
160.403059
0
LINE
8
Layer 1
10
90.477323
20
160.403059
11
90.712711
21
160.632973
0
LINE
8
Layer 1
10
90.712711
20
160.632973
11
91.024736
21
160.715083
0
LINE
8
Layer 1
10
91.024736
20
160.715083
11
91.024736
21
160.715083
0
LINE
8
Layer 1
10
91.024736
20
167.065083
11
91.331288
21
166.982973
0
LINE
8
Layer 1
10
91.331288
20
166.982973
11
91.566676
21
166.753059
0
LINE
8
Layer 1
10
91.566676
20
166.753059
11
91.654266
21
166.435559
0
LINE
8
Layer 1
10
91.654266
20
166.435559
11
91.566676
21
166.123533
0
LINE
8
Layer 1
10
91.566676
20
166.123533
11
91.336762
21
165.888145
0
LINE
8
Layer 1
10
91.336762
20
165.888145
11
91.024736
21
165.806035
0
LINE
8
Layer 1
10
91.024736
20
165.806035
11
90.712711
21
165.888145
0
LINE
8
Layer 1
10
90.712711
20
165.888145
11
90.477323
21
166.123533
0
LINE
8
Layer 1
10
90.477323
20
166.123533
11
90.395213
21
166.435559
0
LINE
8
Layer 1
10
90.395213
20
166.435559
11
90.477323
21
166.753059
0
LINE
8
Layer 1
10
90.477323
20
166.753059
11
90.712711
21
166.982973
0
LINE
8
Layer 1
10
90.712711
20
166.982973
11
91.024736
21
167.065083
0
LINE
8
Layer 1
10
91.024736
20
167.065083
11
91.024736
21
167.065083
0
LINE
8
Layer 1
10
94.199736
20
167.065083
11
94.506288
21
166.982973
0
LINE
8
Layer 1
10
94.506288
20
166.982973
11
94.741676
21
166.753059
0
LINE
8
Layer 1
10
94.741676
20
166.753059
11
94.829266
21
166.435559
0
LINE
8
Layer 1
10
94.829266
20
166.435559
11
94.741676
21
166.123533
0
LINE
8
Layer 1
10
94.741676
20
166.123533
11
94.511762
21
165.888145
0
LINE
8
Layer 1
10
94.511762
20
165.888145
11
94.199736
21
165.806035
0
LINE
8
Layer 1
10
94.199736
20
165.806035
11
93.887710
21
165.888145
0
LINE
8
Layer 1
10
93.887710
20
165.888145
11
93.652323
21
166.123533
0
LINE
8
Layer 1
10
93.652323
20
166.123533
11
93.570213
21
166.435559
0
LINE
8
Layer 1
10
93.570213
20
166.435559
11
93.652323
21
166.753059
0
LINE
8
Layer 1
10
93.652323
20
166.753059
11
93.887710
21
166.982973
0
LINE
8
Layer 1
10
93.887710
20
166.982973
11
94.199736
21
167.065083
0
LINE
8
Layer 1
10
94.199736
20
167.065083
11
94.199736
21
167.065083
0
LINE
8
Layer 1
10
91.024736
20
167.065083
11
91.331288
21
166.982973
0
LINE
8
Layer 1
10
91.331288
20
166.982973
11
91.566676
21
166.753059
0
LINE
8
Layer 1
10
91.566676
20
166.753059
11
91.654266
21
166.435559
0
LINE
8
Layer 1
10
91.654266
20
166.435559
11
91.566676
21
166.123533
0
LINE
8
Layer 1
10
91.566676
20
166.123533
11
91.336762
21
165.888145
0
LINE
8
Layer 1
10
91.336762
20
165.888145
11
91.024736
21
165.806035
0
LINE
8
Layer 1
10
91.024736
20
165.806035
11
90.712711
21
165.888145
0
LINE
8
Layer 1
10
90.712711
20
165.888145
11
90.477323
21
166.123533
0
LINE
8
Layer 1
10
90.477323
20
166.123533
11
90.395213
21
166.435559
0
LINE
8
Layer 1
10
90.395213
20
166.435559
11
90.477323
21
166.753059
0
LINE
8
Layer 1
10
90.477323
20
166.753059
11
90.712711
21
166.982973
0
LINE
8
Layer 1
10
90.712711
20
166.982973
11
91.024736
21
167.065083
0
LINE
8
Layer 1
10
91.024736
20
167.065083
11
91.024736
21
167.065083
0
LINE
8
Layer 1
10
94.199736
20
167.065083
11
94.506288
21
166.982973
0
LINE
8
Layer 1
10
94.506288
20
166.982973
11
94.741676
21
166.753059
0
LINE
8
Layer 1
10
94.741676
20
166.753059
11
94.829266
21
166.435559
0
LINE
8
Layer 1
10
94.829266
20
166.435559
11
94.741676
21
166.123533
0
LINE
8
Layer 1
10
94.741676
20
166.123533
11
94.511762
21
165.888145
0
LINE
8
Layer 1
10
94.511762
20
165.888145
11
94.199736
21
165.806035
0
LINE
8
Layer 1
10
94.199736
20
165.806035
11
93.887710
21
165.888145
0
LINE
8
Layer 1
10
93.887710
20
165.888145
11
93.652323
21
166.123533
0
LINE
8
Layer 1
10
93.652323
20
166.123533
11
93.570213
21
166.435559
0
LINE
8
Layer 1
10
93.570213
20
166.435559
11
93.652323
21
166.753059
0
LINE
8
Layer 1
10
93.652323
20
166.753059
11
93.887710
21
166.982973
0
LINE
8
Layer 1
10
93.887710
20
166.982973
11
94.199736
21
167.065083
0
LINE
8
Layer 1
10
94.199736
20
167.065083
11
94.199736
21
167.065083
0
LINE
8
Layer 1
10
102.082500
20
163.890083
11
102.389050
21
163.807973
0
LINE
8
Layer 1
10
102.389050
20
163.807973
11
102.624440
21
163.578059
0
LINE
8
Layer 1
10
102.624440
20
163.578059
11
102.712040
21
163.260559
0
LINE
8
Layer 1
10
102.712040
20
163.260559
11
102.624440
21
162.948533
0
LINE
8
Layer 1
10
102.624440
20
162.948533
11
102.394520
21
162.713146
0
LINE
8
Layer 1
10
102.394520
20
162.713146
11
102.082500
21
162.631036
0
LINE
8
Layer 1
10
102.082500
20
162.631036
11
101.770470
21
162.713146
0
LINE
8
Layer 1
10
101.770470
20
162.713146
11
101.535080
21
162.948533
0
LINE
8
Layer 1
10
101.535080
20
162.948533
11
101.452980
21
163.260559
0
LINE
8
Layer 1
10
101.452980
20
163.260559
11
101.535080
21
163.578059
0
LINE
8
Layer 1
10
101.535080
20
163.578059
11
101.770470
21
163.807973
0
LINE
8
Layer 1
10
101.770470
20
163.807973
11
102.082500
21
163.890083
0
LINE
8
Layer 1
10
102.082500
20
163.890083
11
102.082500
21
163.890083
0
LINE
8
Layer 1
10
102.082500
20
163.890083
11
102.389050
21
163.807973
0
LINE
8
Layer 1
10
102.389050
20
163.807973
11
102.624440
21
163.578059
0
LINE
8
Layer 1
10
102.624440
20
163.578059
11
102.712040
21
163.260559
0
LINE
8
Layer 1
10
102.712040
20
163.260559
11
102.624440
21
162.948533
0
LINE
8
Layer 1
10
102.624440
20
162.948533
11
102.394520
21
162.713146
0
LINE
8
Layer 1
10
102.394520
20
162.713146
11
102.082500
21
162.631036
0
LINE
8
Layer 1
10
102.082500
20
162.631036
11
101.770470
21
162.713146
0
LINE
8
Layer 1
10
101.770470
20
162.713146
11
101.535080
21
162.948533
0
LINE
8
Layer 1
10
101.535080
20
162.948533
11
101.452980
21
163.260559
0
LINE
8
Layer 1
10
101.452980
20
163.260559
11
101.535080
21
163.578059
0
LINE
8
Layer 1
10
101.535080
20
163.578059
11
101.770470
21
163.807973
0
LINE
8
Layer 1
10
101.770470
20
163.807973
11
102.082500
21
163.890083
0
LINE
8
Layer 1
10
102.082500
20
163.890083
11
102.082500
21
163.890083
0
LINE
8
Layer 1
10
98.907495
20
167.065083
11
99.214047
21
166.982973
0
LINE
8
Layer 1
10
99.214047
20
166.982973
11
99.449435
21
166.753059
0
LINE
8
Layer 1
10
99.449435
20
166.753059
11
99.537025
21
166.435559
0
LINE
8
Layer 1
10
99.537025
20
166.435559
11
99.449435
21
166.123533
0
LINE
8
Layer 1
10
99.449435
20
166.123533
11
99.219521
21
165.888145
0
LINE
8
Layer 1
10
99.219521
20
165.888145
11
98.907495
21
165.806035
0
LINE
8
Layer 1
10
98.907495
20
165.806035
11
98.595470
21
165.888145
0
LINE
8
Layer 1
10
98.595470
20
165.888145
11
98.360082
21
166.123533
0
LINE
8
Layer 1
10
98.360082
20
166.123533
11
98.277972
21
166.435559
0
LINE
8
Layer 1
10
98.277972
20
166.435559
11
98.360082
21
166.753059
0
LINE
8
Layer 1
10
98.360082
20
166.753059
11
98.595470
21
166.982973
0
LINE
8
Layer 1
10
98.595470
20
166.982973
11
98.907495
21
167.065083
0
LINE
8
Layer 1
10
98.907495
20
167.065083
11
98.907495
21
167.065083
0
LINE
8
Layer 1
10
98.907495
20
167.065083
11
99.214047
21
166.982973
0
LINE
8
Layer 1
10
99.214047
20
166.982973
11
99.449435
21
166.753059
0
LINE
8
Layer 1
10
99.449435
20
166.753059
11
99.537025
21
166.435559
0
LINE
8
Layer 1
10
99.537025
20
166.435559
11
99.449435
21
166.123533
0
LINE
8
Layer 1
10
99.449435
20
166.123533
11
99.219521
21
165.888145
0
LINE
8
Layer 1
10
99.219521
20
165.888145
11
98.907495
21
165.806035
0
LINE
8
Layer 1
10
98.907495
20
165.806035
11
98.595470
21
165.888145
0
LINE
8
Layer 1
10
98.595470
20
165.888145
11
98.360082
21
166.123533
0
LINE
8
Layer 1
10
98.360082
20
166.123533
11
98.277972
21
166.435559
0
LINE
8
Layer 1
10
98.277972
20
166.435559
11
98.360082
21
166.753059
0
LINE
8
Layer 1
10
98.360082
20
166.753059
11
98.595470
21
166.982973
0
LINE
8
Layer 1
10
98.595470
20
166.982973
11
98.907495
21
167.065083
0
LINE
8
Layer 1
10
98.907495
20
167.065083
11
98.907495
21
167.065083
0
LINE
8
Layer 1
10
117.848010
20
160.715083
11
118.154560
21
160.632973
0
LINE
8
Layer 1
10
118.154560
20
160.632973
11
118.389950
21
160.403059
0
LINE
8
Layer 1
10
118.389950
20
160.403059
11
118.477550
21
160.085559
0
LINE
8
Layer 1
10
118.477550
20
160.085559
11
118.389950
21
159.773534
0
LINE
8
Layer 1
10
118.389950
20
159.773534
11
118.160030
21
159.538146
0
LINE
8
Layer 1
10
118.160030
20
159.538146
11
117.848010
21
159.456036
0
LINE
8
Layer 1
10
117.848010
20
159.456036
11
117.535980
21
159.538146
0
LINE
8
Layer 1
10
117.535980
20
159.538146
11
117.300590
21
159.773534
0
LINE
8
Layer 1
10
117.300590
20
159.773534
11
117.218490
21
160.085559
0
LINE
8
Layer 1
10
117.218490
20
160.085559
11
117.300590
21
160.403059
0
LINE
8
Layer 1
10
117.300590
20
160.403059
11
117.535980
21
160.632973
0
LINE
8
Layer 1
10
117.535980
20
160.632973
11
117.848010
21
160.715083
0
LINE
8
Layer 1
10
117.848010
20
160.715083
11
117.848010
21
160.715083
0
LINE
8
Layer 1
10
117.848010
20
160.715083
11
118.154560
21
160.632973
0
LINE
8
Layer 1
10
118.154560
20
160.632973
11
118.389950
21
160.403059
0
LINE
8
Layer 1
10
118.389950
20
160.403059
11
118.477550
21
160.085559
0
LINE
8
Layer 1
10
118.477550
20
160.085559
11
118.389950
21
159.773534
0
LINE
8
Layer 1
10
118.389950
20
159.773534
11
118.160030
21
159.538146
0
LINE
8
Layer 1
10
118.160030
20
159.538146
11
117.848010
21
159.456036
0
LINE
8
Layer 1
10
117.848010
20
159.456036
11
117.535980
21
159.538146
0
LINE
8
Layer 1
10
117.535980
20
159.538146
11
117.300590
21
159.773534
0
LINE
8
Layer 1
10
117.300590
20
159.773534
11
117.218490
21
160.085559
0
LINE
8
Layer 1
10
117.218490
20
160.085559
11
117.300590
21
160.403059
0
LINE
8
Layer 1
10
117.300590
20
160.403059
11
117.535980
21
160.632973
0
LINE
8
Layer 1
10
117.535980
20
160.632973
11
117.848010
21
160.715083
0
LINE
8
Layer 1
10
117.848010
20
160.715083
11
117.848010
21
160.715083
0
LINE
8
Layer 1
10
122.555760
20
163.890083
11
122.862310
21
163.807973
0
LINE
8
Layer 1
10
122.862310
20
163.807973
11
123.097700
21
163.578059
0
LINE
8
Layer 1
10
123.097700
20
163.578059
11
123.185300
21
163.260559
0
LINE
8
Layer 1
10
123.185300
20
163.260559
11
123.097700
21
162.948533
0
LINE
8
Layer 1
10
123.097700
20
162.948533
11
122.867780
21
162.713146
0
LINE
8
Layer 1
10
122.867780
20
162.713146
11
122.555760
21
162.631036
0
LINE
8
Layer 1
10
122.555760
20
162.631036
11
122.243730
21
162.713146
0
LINE
8
Layer 1
10
122.243730
20
162.713146
11
122.008340
21
162.948533
0
LINE
8
Layer 1
10
122.008340
20
162.948533
11
121.926240
21
163.260559
0
LINE
8
Layer 1
10
121.926240
20
163.260559
11
122.008340
21
163.578059
0
LINE
8
Layer 1
10
122.008340
20
163.578059
11
122.243730
21
163.807973
0
LINE
8
Layer 1
10
122.243730
20
163.807973
11
122.555760
21
163.890083
0
LINE
8
Layer 1
10
122.555760
20
163.890083
11
122.555760
21
163.890083
0
LINE
8
Layer 1
10
122.555760
20
163.890083
11
122.862310
21
163.807973
0
LINE
8
Layer 1
10
122.862310
20
163.807973
11
123.097700
21
163.578059
0
LINE
8
Layer 1
10
123.097700
20
163.578059
11
123.185300
21
163.260559
0
LINE
8
Layer 1
10
123.185300
20
163.260559
11
123.097700
21
162.948533
0
LINE
8
Layer 1
10
123.097700
20
162.948533
11
122.867780
21
162.713146
0
LINE
8
Layer 1
10
122.867780
20
162.713146
11
122.555760
21
162.631036
0
LINE
8
Layer 1
10
122.555760
20
162.631036
11
122.243730
21
162.713146
0
LINE
8
Layer 1
10
122.243730
20
162.713146
11
122.008340
21
162.948533
0
LINE
8
Layer 1
10
122.008340
20
162.948533
11
121.926240
21
163.260559
0
LINE
8
Layer 1
10
121.926240
20
163.260559
11
122.008340
21
163.578059
0
LINE
8
Layer 1
10
122.008340
20
163.578059
11
122.243730
21
163.807973
0
LINE
8
Layer 1
10
122.243730
20
163.807973
11
122.555760
21
163.890083
0
LINE
8
Layer 1
10
122.555760
20
163.890083
11
122.555760
21
163.890083
0
LINE
8
Layer 1
10
125.730760
20
167.065083
11
126.037310
21
166.982973
0
LINE
8
Layer 1
10
126.037310
20
166.982973
11
126.272700
21
166.753059
0
LINE
8
Layer 1
10
126.272700
20
166.753059
11
126.360300
21
166.435559
0
LINE
8
Layer 1
10
126.360300
20
166.435559
11
126.272700
21
166.123533
0
LINE
8
Layer 1
10
126.272700
20
166.123533
11
126.042780
21
165.888145
0
LINE
8
Layer 1
10
126.042780
20
165.888145
11
125.730760
21
165.806035
0
LINE
8
Layer 1
10
125.730760
20
165.806035
11
125.418730
21
165.888145
0
LINE
8
Layer 1
10
125.418730
20
165.888145
11
125.183340
21
166.123533
0
LINE
8
Layer 1
10
125.183340
20
166.123533
11
125.101240
21
166.435559
0
LINE
8
Layer 1
10
125.101240
20
166.435559
11
125.183340
21
166.753059
0
LINE
8
Layer 1
10
125.183340
20
166.753059
11
125.418730
21
166.982973
0
LINE
8
Layer 1
10
125.418730
20
166.982973
11
125.730760
21
167.065083
0
LINE
8
Layer 1
10
125.730760
20
167.065083
11
125.730760
21
167.065083
0
LINE
8
Layer 1
10
125.730760
20
167.065083
11
126.037310
21
166.982973
0
LINE
8
Layer 1
10
126.037310
20
166.982973
11
126.272700
21
166.753059
0
LINE
8
Layer 1
10
126.272700
20
166.753059
11
126.360300
21
166.435559
0
LINE
8
Layer 1
10
126.360300
20
166.435559
11
126.272700
21
166.123533
0
LINE
8
Layer 1
10
126.272700
20
166.123533
11
126.042780
21
165.888145
0
LINE
8
Layer 1
10
126.042780
20
165.888145
11
125.730760
21
165.806035
0
LINE
8
Layer 1
10
125.730760
20
165.806035
11
125.418730
21
165.888145
0
LINE
8
Layer 1
10
125.418730
20
165.888145
11
125.183340
21
166.123533
0
LINE
8
Layer 1
10
125.183340
20
166.123533
11
125.101240
21
166.435559
0
LINE
8
Layer 1
10
125.101240
20
166.435559
11
125.183340
21
166.753059
0
LINE
8
Layer 1
10
125.183340
20
166.753059
11
125.418730
21
166.982973
0
LINE
8
Layer 1
10
125.418730
20
166.982973
11
125.730760
21
167.065083
0
LINE
8
Layer 1
10
125.730760
20
167.065083
11
125.730760
21
167.065083
0
LINE
8
Layer 1
10
130.438520
20
160.715083
11
130.745070
21
160.632973
0
LINE
8
Layer 1
10
130.745070
20
160.632973
11
130.980460
21
160.403059
0
LINE
8
Layer 1
10
130.980460
20
160.403059
11
131.068060
21
160.085559
0
LINE
8
Layer 1
10
131.068060
20
160.085559
11
130.980460
21
159.773534
0
LINE
8
Layer 1
10
130.980460
20
159.773534
11
130.750540
21
159.538146
0
LINE
8
Layer 1
10
130.750540
20
159.538146
11
130.438520
21
159.456036
0
LINE
8
Layer 1
10
130.438520
20
159.456036
11
130.126490
21
159.538146
0
LINE
8
Layer 1
10
130.126490
20
159.538146
11
129.891100
21
159.773534
0
LINE
8
Layer 1
10
129.891100
20
159.773534
11
129.809000
21
160.085559
0
LINE
8
Layer 1
10
129.809000
20
160.085559
11
129.891100
21
160.403059
0
LINE
8
Layer 1
10
129.891100
20
160.403059
11
130.126490
21
160.632973
0
LINE
8
Layer 1
10
130.126490
20
160.632973
11
130.438520
21
160.715083
0
LINE
8
Layer 1
10
130.438520
20
160.715083
11
130.438520
21
160.715083
0
LINE
8
Layer 1
10
130.438520
20
160.715083
11
130.745070
21
160.632973
0
LINE
8
Layer 1
10
130.745070
20
160.632973
11
130.980460
21
160.403059
0
LINE
8
Layer 1
10
130.980460
20
160.403059
11
131.068060
21
160.085559
0
LINE
8
Layer 1
10
131.068060
20
160.085559
11
130.980460
21
159.773534
0
LINE
8
Layer 1
10
130.980460
20
159.773534
11
130.750540
21
159.538146
0
LINE
8
Layer 1
10
130.750540
20
159.538146
11
130.438520
21
159.456036
0
LINE
8
Layer 1
10
130.438520
20
159.456036
11
130.126490
21
159.538146
0
LINE
8
Layer 1
10
130.126490
20
159.538146
11
129.891100
21
159.773534
0
LINE
8
Layer 1
10
129.891100
20
159.773534
11
129.809000
21
160.085559
0
LINE
8
Layer 1
10
129.809000
20
160.085559
11
129.891100
21
160.403059
0
LINE
8
Layer 1
10
129.891100
20
160.403059
11
130.126490
21
160.632973
0
LINE
8
Layer 1
10
130.126490
20
160.632973
11
130.438520
21
160.715083
0
LINE
8
Layer 1
10
130.438520
20
160.715083
11
130.438520
21
160.715083
0
LINE
8
Layer 1
10
133.613520
20
163.890083
11
133.920070
21
163.807973
0
LINE
8
Layer 1
10
133.920070
20
163.807973
11
134.155460
21
163.578059
0
LINE
8
Layer 1
10
134.155460
20
163.578059
11
134.243060
21
163.260559
0
LINE
8
Layer 1
10
134.243060
20
163.260559
11
134.155460
21
162.948533
0
LINE
8
Layer 1
10
134.155460
20
162.948533
11
133.925540
21
162.713146
0
LINE
8
Layer 1
10
133.925540
20
162.713146
11
133.613520
21
162.631036
0
LINE
8
Layer 1
10
133.613520
20
162.631036
11
133.301490
21
162.713146
0
LINE
8
Layer 1
10
133.301490
20
162.713146
11
133.066100
21
162.948533
0
LINE
8
Layer 1
10
133.066100
20
162.948533
11
132.984000
21
163.260559
0
LINE
8
Layer 1
10
132.984000
20
163.260559
11
133.066100
21
163.578059
0
LINE
8
Layer 1
10
133.066100
20
163.578059
11
133.301490
21
163.807973
0
LINE
8
Layer 1
10
133.301490
20
163.807973
11
133.613520
21
163.890083
0
LINE
8
Layer 1
10
133.613520
20
163.890083
11
133.613520
21
163.890083
0
LINE
8
Layer 1
10
133.613520
20
163.890083
11
133.920070
21
163.807973
0
LINE
8
Layer 1
10
133.920070
20
163.807973
11
134.155460
21
163.578059
0
LINE
8
Layer 1
10
134.155460
20
163.578059
11
134.243060
21
163.260559
0
LINE
8
Layer 1
10
134.243060
20
163.260559
11
134.155460
21
162.948533
0
LINE
8
Layer 1
10
134.155460
20
162.948533
11
133.925540
21
162.713146
0
LINE
8
Layer 1
10
133.925540
20
162.713146
11
133.613520
21
162.631036
0
LINE
8
Layer 1
10
133.613520
20
162.631036
11
133.301490
21
162.713146
0
LINE
8
Layer 1
10
133.301490
20
162.713146
11
133.066100
21
162.948533
0
LINE
8
Layer 1
10
133.066100
20
162.948533
11
132.984000
21
163.260559
0
LINE
8
Layer 1
10
132.984000
20
163.260559
11
133.066100
21
163.578059
0
LINE
8
Layer 1
10
133.066100
20
163.578059
11
133.301490
21
163.807973
0
LINE
8
Layer 1
10
133.301490
20
163.807973
11
133.613520
21
163.890083
0
LINE
8
Layer 1
10
133.613520
20
163.890083
11
133.613520
21
163.890083
0
LINE
8
Layer 1
10
130.438520
20
167.065083
11
130.745070
21
166.982973
0
LINE
8
Layer 1
10
130.745070
20
166.982973
11
130.980460
21
166.753059
0
LINE
8
Layer 1
10
130.980460
20
166.753059
11
131.068060
21
166.435559
0
LINE
8
Layer 1
10
131.068060
20
166.435559
11
130.980460
21
166.123533
0
LINE
8
Layer 1
10
130.980460
20
166.123533
11
130.750540
21
165.888145
0
LINE
8
Layer 1
10
130.750540
20
165.888145
11
130.438520
21
165.806035
0
LINE
8
Layer 1
10
130.438520
20
165.806035
11
130.126490
21
165.888145
0
LINE
8
Layer 1
10
130.126490
20
165.888145
11
129.891100
21
166.123533
0
LINE
8
Layer 1
10
129.891100
20
166.123533
11
129.809000
21
166.435559
0
LINE
8
Layer 1
10
129.809000
20
166.435559
11
129.891100
21
166.753059
0
LINE
8
Layer 1
10
129.891100
20
166.753059
11
130.126490
21
166.982973
0
LINE
8
Layer 1
10
130.126490
20
166.982973
11
130.438520
21
167.065083
0
LINE
8
Layer 1
10
130.438520
20
167.065083
11
130.438520
21
167.065083
0
LINE
8
Layer 1
10
133.613520
20
167.065083
11
133.920070
21
166.982973
0
LINE
8
Layer 1
10
133.920070
20
166.982973
11
134.155460
21
166.753059
0
LINE
8
Layer 1
10
134.155460
20
166.753059
11
134.243060
21
166.435559
0
LINE
8
Layer 1
10
134.243060
20
166.435559
11
134.155460
21
166.123533
0
LINE
8
Layer 1
10
134.155460
20
166.123533
11
133.925540
21
165.888145
0
LINE
8
Layer 1
10
133.925540
20
165.888145
11
133.613520
21
165.806035
0
LINE
8
Layer 1
10
133.613520
20
165.806035
11
133.301490
21
165.888145
0
LINE
8
Layer 1
10
133.301490
20
165.888145
11
133.066100
21
166.123533
0
LINE
8
Layer 1
10
133.066100
20
166.123533
11
132.984000
21
166.435559
0
LINE
8
Layer 1
10
132.984000
20
166.435559
11
133.066100
21
166.753059
0
LINE
8
Layer 1
10
133.066100
20
166.753059
11
133.301490
21
166.982973
0
LINE
8
Layer 1
10
133.301490
20
166.982973
11
133.613520
21
167.065083
0
LINE
8
Layer 1
10
133.613520
20
167.065083
11
133.613520
21
167.065083
0
LINE
8
Layer 1
10
130.438520
20
167.065083
11
130.745070
21
166.982973
0
LINE
8
Layer 1
10
130.745070
20
166.982973
11
130.980460
21
166.753059
0
LINE
8
Layer 1
10
130.980460
20
166.753059
11
131.068060
21
166.435559
0
LINE
8
Layer 1
10
131.068060
20
166.435559
11
130.980460
21
166.123533
0
LINE
8
Layer 1
10
130.980460
20
166.123533
11
130.750540
21
165.888145
0
LINE
8
Layer 1
10
130.750540
20
165.888145
11
130.438520
21
165.806035
0
LINE
8
Layer 1
10
130.438520
20
165.806035
11
130.126490
21
165.888145
0
LINE
8
Layer 1
10
130.126490
20
165.888145
11
129.891100
21
166.123533
0
LINE
8
Layer 1
10
129.891100
20
166.123533
11
129.809000
21
166.435559
0
LINE
8
Layer 1
10
129.809000
20
166.435559
11
129.891100
21
166.753059
0
LINE
8
Layer 1
10
129.891100
20
166.753059
11
130.126490
21
166.982973
0
LINE
8
Layer 1
10
130.126490
20
166.982973
11
130.438520
21
167.065083
0
LINE
8
Layer 1
10
130.438520
20
167.065083
11
130.438520
21
167.065083
0
LINE
8
Layer 1
10
133.613520
20
167.065083
11
133.920070
21
166.982973
0
LINE
8
Layer 1
10
133.920070
20
166.982973
11
134.155460
21
166.753059
0
LINE
8
Layer 1
10
134.155460
20
166.753059
11
134.243060
21
166.435559
0
LINE
8
Layer 1
10
134.243060
20
166.435559
11
134.155460
21
166.123533
0
LINE
8
Layer 1
10
134.155460
20
166.123533
11
133.925540
21
165.888145
0
LINE
8
Layer 1
10
133.925540
20
165.888145
11
133.613520
21
165.806035
0
LINE
8
Layer 1
10
133.613520
20
165.806035
11
133.301490
21
165.888145
0
LINE
8
Layer 1
10
133.301490
20
165.888145
11
133.066100
21
166.123533
0
LINE
8
Layer 1
10
133.066100
20
166.123533
11
132.984000
21
166.435559
0
LINE
8
Layer 1
10
132.984000
20
166.435559
11
133.066100
21
166.753059
0
LINE
8
Layer 1
10
133.066100
20
166.753059
11
133.301490
21
166.982973
0
LINE
8
Layer 1
10
133.301490
20
166.982973
11
133.613520
21
167.065083
0
LINE
8
Layer 1
10
133.613520
20
167.065083
11
133.613520
21
167.065083
0
LINE
8
Layer 1
10
138.321280
20
160.715083
11
138.627830
21
160.632973
0
LINE
8
Layer 1
10
138.627830
20
160.632973
11
138.863220
21
160.403059
0
LINE
8
Layer 1
10
138.863220
20
160.403059
11
138.950820
21
160.085559
0
LINE
8
Layer 1
10
138.950820
20
160.085559
11
138.863220
21
159.773534
0
LINE
8
Layer 1
10
138.863220
20
159.773534
11
138.633300
21
159.538146
0
LINE
8
Layer 1
10
138.633300
20
159.538146
11
138.321280
21
159.456036
0
LINE
8
Layer 1
10
138.321280
20
159.456036
11
138.009250
21
159.538146
0
LINE
8
Layer 1
10
138.009250
20
159.538146
11
137.773860
21
159.773534
0
LINE
8
Layer 1
10
137.773860
20
159.773534
11
137.691760
21
160.085559
0
LINE
8
Layer 1
10
137.691760
20
160.085559
11
137.773860
21
160.403059
0
LINE
8
Layer 1
10
137.773860
20
160.403059
11
138.009250
21
160.632973
0
LINE
8
Layer 1
10
138.009250
20
160.632973
11
138.321280
21
160.715083
0
LINE
8
Layer 1
10
138.321280
20
160.715083
11
138.321280
21
160.715083
0
LINE
8
Layer 1
10
138.321280
20
160.715083
11
138.627830
21
160.632973
0
LINE
8
Layer 1
10
138.627830
20
160.632973
11
138.863220
21
160.403059
0
LINE
8
Layer 1
10
138.863220
20
160.403059
11
138.950820
21
160.085559
0
LINE
8
Layer 1
10
138.950820
20
160.085559
11
138.863220
21
159.773534
0
LINE
8
Layer 1
10
138.863220
20
159.773534
11
138.633300
21
159.538146
0
LINE
8
Layer 1
10
138.633300
20
159.538146
11
138.321280
21
159.456036
0
LINE
8
Layer 1
10
138.321280
20
159.456036
11
138.009250
21
159.538146
0
LINE
8
Layer 1
10
138.009250
20
159.538146
11
137.773860
21
159.773534
0
LINE
8
Layer 1
10
137.773860
20
159.773534
11
137.691760
21
160.085559
0
LINE
8
Layer 1
10
137.691760
20
160.085559
11
137.773860
21
160.403059
0
LINE
8
Layer 1
10
137.773860
20
160.403059
11
138.009250
21
160.632973
0
LINE
8
Layer 1
10
138.009250
20
160.632973
11
138.321280
21
160.715083
0
LINE
8
Layer 1
10
138.321280
20
160.715083
11
138.321280
21
160.715083
0
LINE
8
Layer 1
10
138.321280
20
163.890083
11
138.627830
21
163.807973
0
LINE
8
Layer 1
10
138.627830
20
163.807973
11
138.863220
21
163.578059
0
LINE
8
Layer 1
10
138.863220
20
163.578059
11
138.950820
21
163.260559
0
LINE
8
Layer 1
10
138.950820
20
163.260559
11
138.863220
21
162.948533
0
LINE
8
Layer 1
10
138.863220
20
162.948533
11
138.633300
21
162.713146
0
LINE
8
Layer 1
10
138.633300
20
162.713146
11
138.321280
21
162.631036
0
LINE
8
Layer 1
10
138.321280
20
162.631036
11
138.009250
21
162.713146
0
LINE
8
Layer 1
10
138.009250
20
162.713146
11
137.773860
21
162.948533
0
LINE
8
Layer 1
10
137.773860
20
162.948533
11
137.691760
21
163.260559
0
LINE
8
Layer 1
10
137.691760
20
163.260559
11
137.773860
21
163.578059
0
LINE
8
Layer 1
10
137.773860
20
163.578059
11
138.009250
21
163.807973
0
LINE
8
Layer 1
10
138.009250
20
163.807973
11
138.321280
21
163.890083
0
LINE
8
Layer 1
10
138.321280
20
163.890083
11
138.321280
21
163.890083
0
LINE
8
Layer 1
10
138.321280
20
163.890083
11
138.627830
21
163.807973
0
LINE
8
Layer 1
10
138.627830
20
163.807973
11
138.863220
21
163.578059
0
LINE
8
Layer 1
10
138.863220
20
163.578059
11
138.950820
21
163.260559
0
LINE
8
Layer 1
10
138.950820
20
163.260559
11
138.863220
21
162.948533
0
LINE
8
Layer 1
10
138.863220
20
162.948533
11
138.633300
21
162.713146
0
LINE
8
Layer 1
10
138.633300
20
162.713146
11
138.321280
21
162.631036
0
LINE
8
Layer 1
10
138.321280
20
162.631036
11
138.009250
21
162.713146
0
LINE
8
Layer 1
10
138.009250
20
162.713146
11
137.773860
21
162.948533
0
LINE
8
Layer 1
10
137.773860
20
162.948533
11
137.691760
21
163.260559
0
LINE
8
Layer 1
10
137.691760
20
163.260559
11
137.773860
21
163.578059
0
LINE
8
Layer 1
10
137.773860
20
163.578059
11
138.009250
21
163.807973
0
LINE
8
Layer 1
10
138.009250
20
163.807973
11
138.321280
21
163.890083
0
LINE
8
Layer 1
10
138.321280
20
163.890083
11
138.321280
21
163.890083
0
LINE
8
Layer 1
10
141.496280
20
167.065083
11
141.802830
21
166.982973
0
LINE
8
Layer 1
10
141.802830
20
166.982973
11
142.038220
21
166.753059
0
LINE
8
Layer 1
10
142.038220
20
166.753059
11
142.125820
21
166.435559
0
LINE
8
Layer 1
10
142.125820
20
166.435559
11
142.038220
21
166.123533
0
LINE
8
Layer 1
10
142.038220
20
166.123533
11
141.808300
21
165.888145
0
LINE
8
Layer 1
10
141.808300
20
165.888145
11
141.496280
21
165.806035
0
LINE
8
Layer 1
10
141.496280
20
165.806035
11
141.184250
21
165.888145
0
LINE
8
Layer 1
10
141.184250
20
165.888145
11
140.948860
21
166.123533
0
LINE
8
Layer 1
10
140.948860
20
166.123533
11
140.866760
21
166.435559
0
LINE
8
Layer 1
10
140.866760
20
166.435559
11
140.948860
21
166.753059
0
LINE
8
Layer 1
10
140.948860
20
166.753059
11
141.184250
21
166.982973
0
LINE
8
Layer 1
10
141.184250
20
166.982973
11
141.496280
21
167.065083
0
LINE
8
Layer 1
10
141.496280
20
167.065083
11
141.496280
21
167.065083
0
LINE
8
Layer 1
10
141.496280
20
167.065083
11
141.802830
21
166.982973
0
LINE
8
Layer 1
10
141.802830
20
166.982973
11
142.038220
21
166.753059
0
LINE
8
Layer 1
10
142.038220
20
166.753059
11
142.125820
21
166.435559
0
LINE
8
Layer 1
10
142.125820
20
166.435559
11
142.038220
21
166.123533
0
LINE
8
Layer 1
10
142.038220
20
166.123533
11
141.808300
21
165.888145
0
LINE
8
Layer 1
10
141.808300
20
165.888145
11
141.496280
21
165.806035
0
LINE
8
Layer 1
10
141.496280
20
165.806035
11
141.184250
21
165.888145
0
LINE
8
Layer 1
10
141.184250
20
165.888145
11
140.948860
21
166.123533
0
LINE
8
Layer 1
10
140.948860
20
166.123533
11
140.866760
21
166.435559
0
LINE
8
Layer 1
10
140.866760
20
166.435559
11
140.948860
21
166.753059
0
LINE
8
Layer 1
10
140.948860
20
166.753059
11
141.184250
21
166.982973
0
LINE
8
Layer 1
10
141.184250
20
166.982973
11
141.496280
21
167.065083
0
LINE
8
Layer 1
10
141.496280
20
167.065083
11
141.496280
21
167.065083
0
LINE
8
Layer 1
10
149.379030
20
163.890083
11
149.685580
21
163.807973
0
LINE
8
Layer 1
10
149.685580
20
163.807973
11
149.920970
21
163.578059
0
LINE
8
Layer 1
10
149.920970
20
163.578059
11
150.008570
21
163.260559
0
LINE
8
Layer 1
10
150.008570
20
163.260559
11
149.920970
21
162.948533
0
LINE
8
Layer 1
10
149.920970
20
162.948533
11
149.691050
21
162.713146
0
LINE
8
Layer 1
10
149.691050
20
162.713146
11
149.379030
21
162.631036
0
LINE
8
Layer 1
10
149.379030
20
162.631036
11
149.067000
21
162.713146
0
LINE
8
Layer 1
10
149.067000
20
162.713146
11
148.831610
21
162.948533
0
LINE
8
Layer 1
10
148.831610
20
162.948533
11
148.749510
21
163.260559
0
LINE
8
Layer 1
10
148.749510
20
163.260559
11
148.831610
21
163.578059
0
LINE
8
Layer 1
10
148.831610
20
163.578059
11
149.067000
21
163.807973
0
LINE
8
Layer 1
10
149.067000
20
163.807973
11
149.379030
21
163.890083
0
LINE
8
Layer 1
10
149.379030
20
163.890083
11
149.379030
21
163.890083
0
LINE
8
Layer 1
10
149.379030
20
163.890083
11
149.685580
21
163.807973
0
LINE
8
Layer 1
10
149.685580
20
163.807973
11
149.920970
21
163.578059
0
LINE
8
Layer 1
10
149.920970
20
163.578059
11
150.008570
21
163.260559
0
LINE
8
Layer 1
10
150.008570
20
163.260559
11
149.920970
21
162.948533
0
LINE
8
Layer 1
10
149.920970
20
162.948533
11
149.691050
21
162.713146
0
LINE
8
Layer 1
10
149.691050
20
162.713146
11
149.379030
21
162.631036
0
LINE
8
Layer 1
10
149.379030
20
162.631036
11
149.067000
21
162.713146
0
LINE
8
Layer 1
10
149.067000
20
162.713146
11
148.831610
21
162.948533
0
LINE
8
Layer 1
10
148.831610
20
162.948533
11
148.749510
21
163.260559
0
LINE
8
Layer 1
10
148.749510
20
163.260559
11
148.831610
21
163.578059
0
LINE
8
Layer 1
10
148.831610
20
163.578059
11
149.067000
21
163.807973
0
LINE
8
Layer 1
10
149.067000
20
163.807973
11
149.379030
21
163.890083
0
LINE
8
Layer 1
10
149.379030
20
163.890083
11
149.379030
21
163.890083
0
LINE
8
Layer 1
10
146.204030
20
167.065083
11
146.510580
21
166.982973
0
LINE
8
Layer 1
10
146.510580
20
166.982973
11
146.745970
21
166.753059
0
LINE
8
Layer 1
10
146.745970
20
166.753059
11
146.833570
21
166.435559
0
LINE
8
Layer 1
10
146.833570
20
166.435559
11
146.745970
21
166.123533
0
LINE
8
Layer 1
10
146.745970
20
166.123533
11
146.516050
21
165.888145
0
LINE
8
Layer 1
10
146.516050
20
165.888145
11
146.204030
21
165.806035
0
LINE
8
Layer 1
10
146.204030
20
165.806035
11
145.892000
21
165.888145
0
LINE
8
Layer 1
10
145.892000
20
165.888145
11
145.656610
21
166.123533
0
LINE
8
Layer 1
10
145.656610
20
166.123533
11
145.574510
21
166.435559
0
LINE
8
Layer 1
10
145.574510
20
166.435559
11
145.656610
21
166.753059
0
LINE
8
Layer 1
10
145.656610
20
166.753059
11
145.892000
21
166.982973
0
LINE
8
Layer 1
10
145.892000
20
166.982973
11
146.204030
21
167.065083
0
LINE
8
Layer 1
10
146.204030
20
167.065083
11
146.204030
21
167.065083
0
LINE
8
Layer 1
10
146.204030
20
167.065083
11
146.510580
21
166.982973
0
LINE
8
Layer 1
10
146.510580
20
166.982973
11
146.745970
21
166.753059
0
LINE
8
Layer 1
10
146.745970
20
166.753059
11
146.833570
21
166.435559
0
LINE
8
Layer 1
10
146.833570
20
166.435559
11
146.745970
21
166.123533
0
LINE
8
Layer 1
10
146.745970
20
166.123533
11
146.516050
21
165.888145
0
LINE
8
Layer 1
10
146.516050
20
165.888145
11
146.204030
21
165.806035
0
LINE
8
Layer 1
10
146.204030
20
165.806035
11
145.892000
21
165.888145
0
LINE
8
Layer 1
10
145.892000
20
165.888145
11
145.656610
21
166.123533
0
LINE
8
Layer 1
10
145.656610
20
166.123533
11
145.574510
21
166.435559
0
LINE
8
Layer 1
10
145.574510
20
166.435559
11
145.656610
21
166.753059
0
LINE
8
Layer 1
10
145.656610
20
166.753059
11
145.892000
21
166.982973
0
LINE
8
Layer 1
10
145.892000
20
166.982973
11
146.204030
21
167.065083
0
LINE
8
Layer 1
10
146.204030
20
167.065083
11
146.204030
21
167.065083
0
LINE
8
Layer 1
10
154.086780
20
160.715083
11
154.393330
21
160.632973
0
LINE
8
Layer 1
10
154.393330
20
160.632973
11
154.628720
21
160.403059
0
LINE
8
Layer 1
10
154.628720
20
160.403059
11
154.716320
21
160.085559
0
LINE
8
Layer 1
10
154.716320
20
160.085559
11
154.628720
21
159.773534
0
LINE
8
Layer 1
10
154.628720
20
159.773534
11
154.398800
21
159.538146
0
LINE
8
Layer 1
10
154.398800
20
159.538146
11
154.086780
21
159.456036
0
LINE
8
Layer 1
10
154.086780
20
159.456036
11
153.774750
21
159.538146
0
LINE
8
Layer 1
10
153.774750
20
159.538146
11
153.539360
21
159.773534
0
LINE
8
Layer 1
10
153.539360
20
159.773534
11
153.457260
21
160.085559
0
LINE
8
Layer 1
10
153.457260
20
160.085559
11
153.539360
21
160.403059
0
LINE
8
Layer 1
10
153.539360
20
160.403059
11
153.774750
21
160.632973
0
LINE
8
Layer 1
10
153.774750
20
160.632973
11
154.086780
21
160.715083
0
LINE
8
Layer 1
10
154.086780
20
160.715083
11
154.086780
21
160.715083
0
LINE
8
Layer 1
10
154.086780
20
160.715083
11
154.393330
21
160.632973
0
LINE
8
Layer 1
10
154.393330
20
160.632973
11
154.628720
21
160.403059
0
LINE
8
Layer 1
10
154.628720
20
160.403059
11
154.716320
21
160.085559
0
LINE
8
Layer 1
10
154.716320
20
160.085559
11
154.628720
21
159.773534
0
LINE
8
Layer 1
10
154.628720
20
159.773534
11
154.398800
21
159.538146
0
LINE
8
Layer 1
10
154.398800
20
159.538146
11
154.086780
21
159.456036
0
LINE
8
Layer 1
10
154.086780
20
159.456036
11
153.774750
21
159.538146
0
LINE
8
Layer 1
10
153.774750
20
159.538146
11
153.539360
21
159.773534
0
LINE
8
Layer 1
10
153.539360
20
159.773534
11
153.457260
21
160.085559
0
LINE
8
Layer 1
10
153.457260
20
160.085559
11
153.539360
21
160.403059
0
LINE
8
Layer 1
10
153.539360
20
160.403059
11
153.774750
21
160.632973
0
LINE
8
Layer 1
10
153.774750
20
160.632973
11
154.086780
21
160.715083
0
LINE
8
Layer 1
10
154.086780
20
160.715083
11
154.086780
21
160.715083
0
LINE
8
Layer 1
10
154.086780
20
163.890083
11
154.393330
21
163.807973
0
LINE
8
Layer 1
10
154.393330
20
163.807973
11
154.628720
21
163.578059
0
LINE
8
Layer 1
10
154.628720
20
163.578059
11
154.716320
21
163.260559
0
LINE
8
Layer 1
10
154.716320
20
163.260559
11
154.628720
21
162.948533
0
LINE
8
Layer 1
10
154.628720
20
162.948533
11
154.398800
21
162.713146
0
LINE
8
Layer 1
10
154.398800
20
162.713146
11
154.086780
21
162.631036
0
LINE
8
Layer 1
10
154.086780
20
162.631036
11
153.774750
21
162.713146
0
LINE
8
Layer 1
10
153.774750
20
162.713146
11
153.539360
21
162.948533
0
LINE
8
Layer 1
10
153.539360
20
162.948533
11
153.457260
21
163.260559
0
LINE
8
Layer 1
10
153.457260
20
163.260559
11
153.539360
21
163.578059
0
LINE
8
Layer 1
10
153.539360
20
163.578059
11
153.774750
21
163.807973
0
LINE
8
Layer 1
10
153.774750
20
163.807973
11
154.086780
21
163.890083
0
LINE
8
Layer 1
10
154.086780
20
163.890083
11
154.086780
21
163.890083
0
LINE
8
Layer 1
10
157.261780
20
163.890083
11
157.568330
21
163.807973
0
LINE
8
Layer 1
10
157.568330
20
163.807973
11
157.803720
21
163.578059
0
LINE
8
Layer 1
10
157.803720
20
163.578059
11
157.891320
21
163.260559
0
LINE
8
Layer 1
10
157.891320
20
163.260559
11
157.803720
21
162.948533
0
LINE
8
Layer 1
10
157.803720
20
162.948533
11
157.573800
21
162.713146
0
LINE
8
Layer 1
10
157.573800
20
162.713146
11
157.261780
21
162.631036
0
LINE
8
Layer 1
10
157.261780
20
162.631036
11
156.949750
21
162.713146
0
LINE
8
Layer 1
10
156.949750
20
162.713146
11
156.714360
21
162.948533
0
LINE
8
Layer 1
10
156.714360
20
162.948533
11
156.632260
21
163.260559
0
LINE
8
Layer 1
10
156.632260
20
163.260559
11
156.714360
21
163.578059
0
LINE
8
Layer 1
10
156.714360
20
163.578059
11
156.949750
21
163.807973
0
LINE
8
Layer 1
10
156.949750
20
163.807973
11
157.261780
21
163.890083
0
LINE
8
Layer 1
10
157.261780
20
163.890083
11
157.261780
21
163.890083
0
LINE
8
Layer 1
10
154.086780
20
163.890083
11
154.393330
21
163.807973
0
LINE
8
Layer 1
10
154.393330
20
163.807973
11
154.628720
21
163.578059
0
LINE
8
Layer 1
10
154.628720
20
163.578059
11
154.716320
21
163.260559
0
LINE
8
Layer 1
10
154.716320
20
163.260559
11
154.628720
21
162.948533
0
LINE
8
Layer 1
10
154.628720
20
162.948533
11
154.398800
21
162.713146
0
LINE
8
Layer 1
10
154.398800
20
162.713146
11
154.086780
21
162.631036
0
LINE
8
Layer 1
10
154.086780
20
162.631036
11
153.774750
21
162.713146
0
LINE
8
Layer 1
10
153.774750
20
162.713146
11
153.539360
21
162.948533
0
LINE
8
Layer 1
10
153.539360
20
162.948533
11
153.457260
21
163.260559
0
LINE
8
Layer 1
10
153.457260
20
163.260559
11
153.539360
21
163.578059
0
LINE
8
Layer 1
10
153.539360
20
163.578059
11
153.774750
21
163.807973
0
LINE
8
Layer 1
10
153.774750
20
163.807973
11
154.086780
21
163.890083
0
LINE
8
Layer 1
10
154.086780
20
163.890083
11
154.086780
21
163.890083
0
LINE
8
Layer 1
10
157.261780
20
163.890083
11
157.568330
21
163.807973
0
LINE
8
Layer 1
10
157.568330
20
163.807973
11
157.803720
21
163.578059
0
LINE
8
Layer 1
10
157.803720
20
163.578059
11
157.891320
21
163.260559
0
LINE
8
Layer 1
10
157.891320
20
163.260559
11
157.803720
21
162.948533
0
LINE
8
Layer 1
10
157.803720
20
162.948533
11
157.573800
21
162.713146
0
LINE
8
Layer 1
10
157.573800
20
162.713146
11
157.261780
21
162.631036
0
LINE
8
Layer 1
10
157.261780
20
162.631036
11
156.949750
21
162.713146
0
LINE
8
Layer 1
10
156.949750
20
162.713146
11
156.714360
21
162.948533
0
LINE
8
Layer 1
10
156.714360
20
162.948533
11
156.632260
21
163.260559
0
LINE
8
Layer 1
10
156.632260
20
163.260559
11
156.714360
21
163.578059
0
LINE
8
Layer 1
10
156.714360
20
163.578059
11
156.949750
21
163.807973
0
LINE
8
Layer 1
10
156.949750
20
163.807973
11
157.261780
21
163.890083
0
LINE
8
Layer 1
10
157.261780
20
163.890083
11
157.261780
21
163.890083
0
LINE
8
Layer 1
10
154.086780
20
167.065083
11
154.393330
21
166.982973
0
LINE
8
Layer 1
10
154.393330
20
166.982973
11
154.628720
21
166.753059
0
LINE
8
Layer 1
10
154.628720
20
166.753059
11
154.716320
21
166.435559
0
LINE
8
Layer 1
10
154.716320
20
166.435559
11
154.628720
21
166.123533
0
LINE
8
Layer 1
10
154.628720
20
166.123533
11
154.398800
21
165.888145
0
LINE
8
Layer 1
10
154.398800
20
165.888145
11
154.086780
21
165.806035
0
LINE
8
Layer 1
10
154.086780
20
165.806035
11
153.774750
21
165.888145
0
LINE
8
Layer 1
10
153.774750
20
165.888145
11
153.539360
21
166.123533
0
LINE
8
Layer 1
10
153.539360
20
166.123533
11
153.457260
21
166.435559
0
LINE
8
Layer 1
10
153.457260
20
166.435559
11
153.539360
21
166.753059
0
LINE
8
Layer 1
10
153.539360
20
166.753059
11
153.774750
21
166.982973
0
LINE
8
Layer 1
10
153.774750
20
166.982973
11
154.086780
21
167.065083
0
LINE
8
Layer 1
10
154.086780
20
167.065083
11
154.086780
21
167.065083
0
LINE
8
Layer 1
10
154.086780
20
167.065083
11
154.393330
21
166.982973
0
LINE
8
Layer 1
10
154.393330
20
166.982973
11
154.628720
21
166.753059
0
LINE
8
Layer 1
10
154.628720
20
166.753059
11
154.716320
21
166.435559
0
LINE
8
Layer 1
10
154.716320
20
166.435559
11
154.628720
21
166.123533
0
LINE
8
Layer 1
10
154.628720
20
166.123533
11
154.398800
21
165.888145
0
LINE
8
Layer 1
10
154.398800
20
165.888145
11
154.086780
21
165.806035
0
LINE
8
Layer 1
10
154.086780
20
165.806035
11
153.774750
21
165.888145
0
LINE
8
Layer 1
10
153.774750
20
165.888145
11
153.539360
21
166.123533
0
LINE
8
Layer 1
10
153.539360
20
166.123533
11
153.457260
21
166.435559
0
LINE
8
Layer 1
10
153.457260
20
166.435559
11
153.539360
21
166.753059
0
LINE
8
Layer 1
10
153.539360
20
166.753059
11
153.774750
21
166.982973
0
LINE
8
Layer 1
10
153.774750
20
166.982973
11
154.086780
21
167.065083
0
LINE
8
Layer 1
10
154.086780
20
167.065083
11
154.086780
21
167.065083
0
LINE
8
Layer 1
10
161.969530
20
160.715083
11
162.276080
21
160.632973
0
LINE
8
Layer 1
10
162.276080
20
160.632973
11
162.511470
21
160.403059
0
LINE
8
Layer 1
10
162.511470
20
160.403059
11
162.599070
21
160.085559
0
LINE
8
Layer 1
10
162.599070
20
160.085559
11
162.511470
21
159.773534
0
LINE
8
Layer 1
10
162.511470
20
159.773534
11
162.281560
21
159.538146
0
LINE
8
Layer 1
10
162.281560
20
159.538146
11
161.969530
21
159.456036
0
LINE
8
Layer 1
10
161.969530
20
159.456036
11
161.657500
21
159.538146
0
LINE
8
Layer 1
10
161.657500
20
159.538146
11
161.422120
21
159.773534
0
LINE
8
Layer 1
10
161.422120
20
159.773534
11
161.340020
21
160.085559
0
LINE
8
Layer 1
10
161.340020
20
160.085559
11
161.422120
21
160.403059
0
LINE
8
Layer 1
10
161.422120
20
160.403059
11
161.657500
21
160.632973
0
LINE
8
Layer 1
10
161.657500
20
160.632973
11
161.969530
21
160.715083
0
LINE
8
Layer 1
10
161.969530
20
160.715083
11
161.969530
21
160.715083
0
LINE
8
Layer 1
10
161.969530
20
160.715083
11
162.276080
21
160.632973
0
LINE
8
Layer 1
10
162.276080
20
160.632973
11
162.511470
21
160.403059
0
LINE
8
Layer 1
10
162.511470
20
160.403059
11
162.599070
21
160.085559
0
LINE
8
Layer 1
10
162.599070
20
160.085559
11
162.511470
21
159.773534
0
LINE
8
Layer 1
10
162.511470
20
159.773534
11
162.281560
21
159.538146
0
LINE
8
Layer 1
10
162.281560
20
159.538146
11
161.969530
21
159.456036
0
LINE
8
Layer 1
10
161.969530
20
159.456036
11
161.657500
21
159.538146
0
LINE
8
Layer 1
10
161.657500
20
159.538146
11
161.422120
21
159.773534
0
LINE
8
Layer 1
10
161.422120
20
159.773534
11
161.340020
21
160.085559
0
LINE
8
Layer 1
10
161.340020
20
160.085559
11
161.422120
21
160.403059
0
LINE
8
Layer 1
10
161.422120
20
160.403059
11
161.657500
21
160.632973
0
LINE
8
Layer 1
10
161.657500
20
160.632973
11
161.969530
21
160.715083
0
LINE
8
Layer 1
10
161.969530
20
160.715083
11
161.969530
21
160.715083
0
LINE
8
Layer 1
10
161.969530
20
163.890083
11
162.276080
21
163.807973
0
LINE
8
Layer 1
10
162.276080
20
163.807973
11
162.511470
21
163.578059
0
LINE
8
Layer 1
10
162.511470
20
163.578059
11
162.599070
21
163.260559
0
LINE
8
Layer 1
10
162.599070
20
163.260559
11
162.511470
21
162.948533
0
LINE
8
Layer 1
10
162.511470
20
162.948533
11
162.281560
21
162.713146
0
LINE
8
Layer 1
10
162.281560
20
162.713146
11
161.969530
21
162.631036
0
LINE
8
Layer 1
10
161.969530
20
162.631036
11
161.657500
21
162.713146
0
LINE
8
Layer 1
10
161.657500
20
162.713146
11
161.422120
21
162.948533
0
LINE
8
Layer 1
10
161.422120
20
162.948533
11
161.340020
21
163.260559
0
LINE
8
Layer 1
10
161.340020
20
163.260559
11
161.422120
21
163.578059
0
LINE
8
Layer 1
10
161.422120
20
163.578059
11
161.657500
21
163.807973
0
LINE
8
Layer 1
10
161.657500
20
163.807973
11
161.969530
21
163.890083
0
LINE
8
Layer 1
10
161.969530
20
163.890083
11
161.969530
21
163.890083
0
LINE
8
Layer 1
10
165.144530
20
163.890083
11
165.451080
21
163.807973
0
LINE
8
Layer 1
10
165.451080
20
163.807973
11
165.686470
21
163.578059
0
LINE
8
Layer 1
10
165.686470
20
163.578059
11
165.774070
21
163.260559
0
LINE
8
Layer 1
10
165.774070
20
163.260559
11
165.686470
21
162.948533
0
LINE
8
Layer 1
10
165.686470
20
162.948533
11
165.456560
21
162.713146
0
LINE
8
Layer 1
10
165.456560
20
162.713146
11
165.144530
21
162.631036
0
LINE
8
Layer 1
10
165.144530
20
162.631036
11
164.832500
21
162.713146
0
LINE
8
Layer 1
10
164.832500
20
162.713146
11
164.597120
21
162.948533
0
LINE
8
Layer 1
10
164.597120
20
162.948533
11
164.515020
21
163.260559
0
LINE
8
Layer 1
10
164.515020
20
163.260559
11
164.597120
21
163.578059
0
LINE
8
Layer 1
10
164.597120
20
163.578059
11
164.832500
21
163.807973
0
LINE
8
Layer 1
10
164.832500
20
163.807973
11
165.144530
21
163.890083
0
LINE
8
Layer 1
10
165.144530
20
163.890083
11
165.144530
21
163.890083
0
LINE
8
Layer 1
10
161.969530
20
163.890083
11
162.276080
21
163.807973
0
LINE
8
Layer 1
10
162.276080
20
163.807973
11
162.511470
21
163.578059
0
LINE
8
Layer 1
10
162.511470
20
163.578059
11
162.599070
21
163.260559
0
LINE
8
Layer 1
10
162.599070
20
163.260559
11
162.511470
21
162.948533
0
LINE
8
Layer 1
10
162.511470
20
162.948533
11
162.281560
21
162.713146
0
LINE
8
Layer 1
10
162.281560
20
162.713146
11
161.969530
21
162.631036
0
LINE
8
Layer 1
10
161.969530
20
162.631036
11
161.657500
21
162.713146
0
LINE
8
Layer 1
10
161.657500
20
162.713146
11
161.422120
21
162.948533
0
LINE
8
Layer 1
10
161.422120
20
162.948533
11
161.340020
21
163.260559
0
LINE
8
Layer 1
10
161.340020
20
163.260559
11
161.422120
21
163.578059
0
LINE
8
Layer 1
10
161.422120
20
163.578059
11
161.657500
21
163.807973
0
LINE
8
Layer 1
10
161.657500
20
163.807973
11
161.969530
21
163.890083
0
LINE
8
Layer 1
10
161.969530
20
163.890083
11
161.969530
21
163.890083
0
LINE
8
Layer 1
10
165.144530
20
163.890083
11
165.451080
21
163.807973
0
LINE
8
Layer 1
10
165.451080
20
163.807973
11
165.686470
21
163.578059
0
LINE
8
Layer 1
10
165.686470
20
163.578059
11
165.774070
21
163.260559
0
LINE
8
Layer 1
10
165.774070
20
163.260559
11
165.686470
21
162.948533
0
LINE
8
Layer 1
10
165.686470
20
162.948533
11
165.456560
21
162.713146
0
LINE
8
Layer 1
10
165.456560
20
162.713146
11
165.144530
21
162.631036
0
LINE
8
Layer 1
10
165.144530
20
162.631036
11
164.832500
21
162.713146
0
LINE
8
Layer 1
10
164.832500
20
162.713146
11
164.597120
21
162.948533
0
LINE
8
Layer 1
10
164.597120
20
162.948533
11
164.515020
21
163.260559
0
LINE
8
Layer 1
10
164.515020
20
163.260559
11
164.597120
21
163.578059
0
LINE
8
Layer 1
10
164.597120
20
163.578059
11
164.832500
21
163.807973
0
LINE
8
Layer 1
10
164.832500
20
163.807973
11
165.144530
21
163.890083
0
LINE
8
Layer 1
10
165.144530
20
163.890083
11
165.144530
21
163.890083
0
LINE
8
Layer 1
10
165.144530
20
167.065083
11
165.451080
21
166.982973
0
LINE
8
Layer 1
10
165.451080
20
166.982973
11
165.686470
21
166.753059
0
LINE
8
Layer 1
10
165.686470
20
166.753059
11
165.774070
21
166.435559
0
LINE
8
Layer 1
10
165.774070
20
166.435559
11
165.686470
21
166.123533
0
LINE
8
Layer 1
10
165.686470
20
166.123533
11
165.456560
21
165.888145
0
LINE
8
Layer 1
10
165.456560
20
165.888145
11
165.144530
21
165.806035
0
LINE
8
Layer 1
10
165.144530
20
165.806035
11
164.832500
21
165.888145
0
LINE
8
Layer 1
10
164.832500
20
165.888145
11
164.597120
21
166.123533
0
LINE
8
Layer 1
10
164.597120
20
166.123533
11
164.515020
21
166.435559
0
LINE
8
Layer 1
10
164.515020
20
166.435559
11
164.597120
21
166.753059
0
LINE
8
Layer 1
10
164.597120
20
166.753059
11
164.832500
21
166.982973
0
LINE
8
Layer 1
10
164.832500
20
166.982973
11
165.144530
21
167.065083
0
LINE
8
Layer 1
10
165.144530
20
167.065083
11
165.144530
21
167.065083
0
LINE
8
Layer 1
10
165.144530
20
167.065083
11
165.451080
21
166.982973
0
LINE
8
Layer 1
10
165.451080
20
166.982973
11
165.686470
21
166.753059
0
LINE
8
Layer 1
10
165.686470
20
166.753059
11
165.774070
21
166.435559
0
LINE
8
Layer 1
10
165.774070
20
166.435559
11
165.686470
21
166.123533
0
LINE
8
Layer 1
10
165.686470
20
166.123533
11
165.456560
21
165.888145
0
LINE
8
Layer 1
10
165.456560
20
165.888145
11
165.144530
21
165.806035
0
LINE
8
Layer 1
10
165.144530
20
165.806035
11
164.832500
21
165.888145
0
LINE
8
Layer 1
10
164.832500
20
165.888145
11
164.597120
21
166.123533
0
LINE
8
Layer 1
10
164.597120
20
166.123533
11
164.515020
21
166.435559
0
LINE
8
Layer 1
10
164.515020
20
166.435559
11
164.597120
21
166.753059
0
LINE
8
Layer 1
10
164.597120
20
166.753059
11
164.832500
21
166.982973
0
LINE
8
Layer 1
10
164.832500
20
166.982973
11
165.144530
21
167.065083
0
LINE
8
Layer 1
10
165.144530
20
167.065083
11
165.144530
21
167.065083
0
LINE
8
Layer 1
10
180.910050
20
160.715083
11
181.216600
21
160.632973
0
LINE
8
Layer 1
10
181.216600
20
160.632973
11
181.451990
21
160.403059
0
LINE
8
Layer 1
10
181.451990
20
160.403059
11
181.539590
21
160.085559
0
LINE
8
Layer 1
10
181.539590
20
160.085559
11
181.451990
21
159.773534
0
LINE
8
Layer 1
10
181.451990
20
159.773534
11
181.222070
21
159.538146
0
LINE
8
Layer 1
10
181.222070
20
159.538146
11
180.910050
21
159.456036
0
LINE
8
Layer 1
10
180.910050
20
159.456036
11
180.598020
21
159.538146
0
LINE
8
Layer 1
10
180.598020
20
159.538146
11
180.362630
21
159.773534
0
LINE
8
Layer 1
10
180.362630
20
159.773534
11
180.280530
21
160.085559
0
LINE
8
Layer 1
10
180.280530
20
160.085559
11
180.362630
21
160.403059
0
LINE
8
Layer 1
10
180.362630
20
160.403059
11
180.598020
21
160.632973
0
LINE
8
Layer 1
10
180.598020
20
160.632973
11
180.910050
21
160.715083
0
LINE
8
Layer 1
10
180.910050
20
160.715083
11
180.910050
21
160.715083
0
LINE
8
Layer 1
10
180.910050
20
160.715083
11
181.216600
21
160.632973
0
LINE
8
Layer 1
10
181.216600
20
160.632973
11
181.451990
21
160.403059
0
LINE
8
Layer 1
10
181.451990
20
160.403059
11
181.539590
21
160.085559
0
LINE
8
Layer 1
10
181.539590
20
160.085559
11
181.451990
21
159.773534
0
LINE
8
Layer 1
10
181.451990
20
159.773534
11
181.222070
21
159.538146
0
LINE
8
Layer 1
10
181.222070
20
159.538146
11
180.910050
21
159.456036
0
LINE
8
Layer 1
10
180.910050
20
159.456036
11
180.598020
21
159.538146
0
LINE
8
Layer 1
10
180.598020
20
159.538146
11
180.362630
21
159.773534
0
LINE
8
Layer 1
10
180.362630
20
159.773534
11
180.280530
21
160.085559
0
LINE
8
Layer 1
10
180.280530
20
160.085559
11
180.362630
21
160.403059
0
LINE
8
Layer 1
10
180.362630
20
160.403059
11
180.598020
21
160.632973
0
LINE
8
Layer 1
10
180.598020
20
160.632973
11
180.910050
21
160.715083
0
LINE
8
Layer 1
10
180.910050
20
160.715083
11
180.910050
21
160.715083
0
LINE
8
Layer 1
10
177.735050
20
163.890083
11
178.041600
21
163.807973
0
LINE
8
Layer 1
10
178.041600
20
163.807973
11
178.276990
21
163.578059
0
LINE
8
Layer 1
10
178.276990
20
163.578059
11
178.364590
21
163.260559
0
LINE
8
Layer 1
10
178.364590
20
163.260559
11
178.276990
21
162.948533
0
LINE
8
Layer 1
10
178.276990
20
162.948533
11
178.047070
21
162.713146
0
LINE
8
Layer 1
10
178.047070
20
162.713146
11
177.735050
21
162.631036
0
LINE
8
Layer 1
10
177.735050
20
162.631036
11
177.423020
21
162.713146
0
LINE
8
Layer 1
10
177.423020
20
162.713146
11
177.187630
21
162.948533
0
LINE
8
Layer 1
10
177.187630
20
162.948533
11
177.105530
21
163.260559
0
LINE
8
Layer 1
10
177.105530
20
163.260559
11
177.187630
21
163.578059
0
LINE
8
Layer 1
10
177.187630
20
163.578059
11
177.423020
21
163.807973
0
LINE
8
Layer 1
10
177.423020
20
163.807973
11
177.735050
21
163.890083
0
LINE
8
Layer 1
10
177.735050
20
163.890083
11
177.735050
21
163.890083
0
LINE
8
Layer 1
10
180.910050
20
163.890083
11
181.216600
21
163.807973
0
LINE
8
Layer 1
10
181.216600
20
163.807973
11
181.451990
21
163.578059
0
LINE
8
Layer 1
10
181.451990
20
163.578059
11
181.539590
21
163.260559
0
LINE
8
Layer 1
10
181.539590
20
163.260559
11
181.451990
21
162.948533
0
LINE
8
Layer 1
10
181.451990
20
162.948533
11
181.222070
21
162.713146
0
LINE
8
Layer 1
10
181.222070
20
162.713146
11
180.910050
21
162.631036
0
LINE
8
Layer 1
10
180.910050
20
162.631036
11
180.598020
21
162.713146
0
LINE
8
Layer 1
10
180.598020
20
162.713146
11
180.362630
21
162.948533
0
LINE
8
Layer 1
10
180.362630
20
162.948533
11
180.280530
21
163.260559
0
LINE
8
Layer 1
10
180.280530
20
163.260559
11
180.362630
21
163.578059
0
LINE
8
Layer 1
10
180.362630
20
163.578059
11
180.598020
21
163.807973
0
LINE
8
Layer 1
10
180.598020
20
163.807973
11
180.910050
21
163.890083
0
LINE
8
Layer 1
10
180.910050
20
163.890083
11
180.910050
21
163.890083
0
LINE
8
Layer 1
10
177.735050
20
163.890083
11
178.041600
21
163.807973
0
LINE
8
Layer 1
10
178.041600
20
163.807973
11
178.276990
21
163.578059
0
LINE
8
Layer 1
10
178.276990
20
163.578059
11
178.364590
21
163.260559
0
LINE
8
Layer 1
10
178.364590
20
163.260559
11
178.276990
21
162.948533
0
LINE
8
Layer 1
10
178.276990
20
162.948533
11
178.047070
21
162.713146
0
LINE
8
Layer 1
10
178.047070
20
162.713146
11
177.735050
21
162.631036
0
LINE
8
Layer 1
10
177.735050
20
162.631036
11
177.423020
21
162.713146
0
LINE
8
Layer 1
10
177.423020
20
162.713146
11
177.187630
21
162.948533
0
LINE
8
Layer 1
10
177.187630
20
162.948533
11
177.105530
21
163.260559
0
LINE
8
Layer 1
10
177.105530
20
163.260559
11
177.187630
21
163.578059
0
LINE
8
Layer 1
10
177.187630
20
163.578059
11
177.423020
21
163.807973
0
LINE
8
Layer 1
10
177.423020
20
163.807973
11
177.735050
21
163.890083
0
LINE
8
Layer 1
10
177.735050
20
163.890083
11
177.735050
21
163.890083
0
LINE
8
Layer 1
10
180.910050
20
163.890083
11
181.216600
21
163.807973
0
LINE
8
Layer 1
10
181.216600
20
163.807973
11
181.451990
21
163.578059
0
LINE
8
Layer 1
10
181.451990
20
163.578059
11
181.539590
21
163.260559
0
LINE
8
Layer 1
10
181.539590
20
163.260559
11
181.451990
21
162.948533
0
LINE
8
Layer 1
10
181.451990
20
162.948533
11
181.222070
21
162.713146
0
LINE
8
Layer 1
10
181.222070
20
162.713146
11
180.910050
21
162.631036
0
LINE
8
Layer 1
10
180.910050
20
162.631036
11
180.598020
21
162.713146
0
LINE
8
Layer 1
10
180.598020
20
162.713146
11
180.362630
21
162.948533
0
LINE
8
Layer 1
10
180.362630
20
162.948533
11
180.280530
21
163.260559
0
LINE
8
Layer 1
10
180.280530
20
163.260559
11
180.362630
21
163.578059
0
LINE
8
Layer 1
10
180.362630
20
163.578059
11
180.598020
21
163.807973
0
LINE
8
Layer 1
10
180.598020
20
163.807973
11
180.910050
21
163.890083
0
LINE
8
Layer 1
10
180.910050
20
163.890083
11
180.910050
21
163.890083
0
LINE
8
Layer 1
10
188.792800
20
160.715083
11
189.099350
21
160.632973
0
LINE
8
Layer 1
10
189.099350
20
160.632973
11
189.334740
21
160.403059
0
LINE
8
Layer 1
10
189.334740
20
160.403059
11
189.422340
21
160.085559
0
LINE
8
Layer 1
10
189.422340
20
160.085559
11
189.334740
21
159.773534
0
LINE
8
Layer 1
10
189.334740
20
159.773534
11
189.104830
21
159.538146
0
LINE
8
Layer 1
10
189.104830
20
159.538146
11
188.792800
21
159.456036
0
LINE
8
Layer 1
10
188.792800
20
159.456036
11
188.480770
21
159.538146
0
LINE
8
Layer 1
10
188.480770
20
159.538146
11
188.245390
21
159.773534
0
LINE
8
Layer 1
10
188.245390
20
159.773534
11
188.163290
21
160.085559
0
LINE
8
Layer 1
10
188.163290
20
160.085559
11
188.245390
21
160.403059
0
LINE
8
Layer 1
10
188.245390
20
160.403059
11
188.480770
21
160.632973
0
LINE
8
Layer 1
10
188.480770
20
160.632973
11
188.792800
21
160.715083
0
LINE
8
Layer 1
10
188.792800
20
160.715083
11
188.792800
21
160.715083
0
LINE
8
Layer 1
10
188.792800
20
160.715083
11
189.099350
21
160.632973
0
LINE
8
Layer 1
10
189.099350
20
160.632973
11
189.334740
21
160.403059
0
LINE
8
Layer 1
10
189.334740
20
160.403059
11
189.422340
21
160.085559
0
LINE
8
Layer 1
10
189.422340
20
160.085559
11
189.334740
21
159.773534
0
LINE
8
Layer 1
10
189.334740
20
159.773534
11
189.104830
21
159.538146
0
LINE
8
Layer 1
10
189.104830
20
159.538146
11
188.792800
21
159.456036
0
LINE
8
Layer 1
10
188.792800
20
159.456036
11
188.480770
21
159.538146
0
LINE
8
Layer 1
10
188.480770
20
159.538146
11
188.245390
21
159.773534
0
LINE
8
Layer 1
10
188.245390
20
159.773534
11
188.163290
21
160.085559
0
LINE
8
Layer 1
10
188.163290
20
160.085559
11
188.245390
21
160.403059
0
LINE
8
Layer 1
10
188.245390
20
160.403059
11
188.480770
21
160.632973
0
LINE
8
Layer 1
10
188.480770
20
160.632973
11
188.792800
21
160.715083
0
LINE
8
Layer 1
10
188.792800
20
160.715083
11
188.792800
21
160.715083
0
LINE
8
Layer 1
10
185.617800
20
163.890083
11
185.924350
21
163.807973
0
LINE
8
Layer 1
10
185.924350
20
163.807973
11
186.159740
21
163.578059
0
LINE
8
Layer 1
10
186.159740
20
163.578059
11
186.247340
21
163.260559
0
LINE
8
Layer 1
10
186.247340
20
163.260559
11
186.159740
21
162.948533
0
LINE
8
Layer 1
10
186.159740
20
162.948533
11
185.929830
21
162.713146
0
LINE
8
Layer 1
10
185.929830
20
162.713146
11
185.617800
21
162.631036
0
LINE
8
Layer 1
10
185.617800
20
162.631036
11
185.305770
21
162.713146
0
LINE
8
Layer 1
10
185.305770
20
162.713146
11
185.070390
21
162.948533
0
LINE
8
Layer 1
10
185.070390
20
162.948533
11
184.988290
21
163.260559
0
LINE
8
Layer 1
10
184.988290
20
163.260559
11
185.070390
21
163.578059
0
LINE
8
Layer 1
10
185.070390
20
163.578059
11
185.305770
21
163.807973
0
LINE
8
Layer 1
10
185.305770
20
163.807973
11
185.617800
21
163.890083
0
LINE
8
Layer 1
10
185.617800
20
163.890083
11
185.617800
21
163.890083
0
LINE
8
Layer 1
10
188.792800
20
163.890083
11
189.099350
21
163.807973
0
LINE
8
Layer 1
10
189.099350
20
163.807973
11
189.334740
21
163.578059
0
LINE
8
Layer 1
10
189.334740
20
163.578059
11
189.422340
21
163.260559
0
LINE
8
Layer 1
10
189.422340
20
163.260559
11
189.334740
21
162.948533
0
LINE
8
Layer 1
10
189.334740
20
162.948533
11
189.104830
21
162.713146
0
LINE
8
Layer 1
10
189.104830
20
162.713146
11
188.792800
21
162.631036
0
LINE
8
Layer 1
10
188.792800
20
162.631036
11
188.480770
21
162.713146
0
LINE
8
Layer 1
10
188.480770
20
162.713146
11
188.245390
21
162.948533
0
LINE
8
Layer 1
10
188.245390
20
162.948533
11
188.163290
21
163.260559
0
LINE
8
Layer 1
10
188.163290
20
163.260559
11
188.245390
21
163.578059
0
LINE
8
Layer 1
10
188.245390
20
163.578059
11
188.480770
21
163.807973
0
LINE
8
Layer 1
10
188.480770
20
163.807973
11
188.792800
21
163.890083
0
LINE
8
Layer 1
10
188.792800
20
163.890083
11
188.792800
21
163.890083
0
LINE
8
Layer 1
10
185.617800
20
163.890083
11
185.924350
21
163.807973
0
LINE
8
Layer 1
10
185.924350
20
163.807973
11
186.159740
21
163.578059
0
LINE
8
Layer 1
10
186.159740
20
163.578059
11
186.247340
21
163.260559
0
LINE
8
Layer 1
10
186.247340
20
163.260559
11
186.159740
21
162.948533
0
LINE
8
Layer 1
10
186.159740
20
162.948533
11
185.929830
21
162.713146
0
LINE
8
Layer 1
10
185.929830
20
162.713146
11
185.617800
21
162.631036
0
LINE
8
Layer 1
10
185.617800
20
162.631036
11
185.305770
21
162.713146
0
LINE
8
Layer 1
10
185.305770
20
162.713146
11
185.070390
21
162.948533
0
LINE
8
Layer 1
10
185.070390
20
162.948533
11
184.988290
21
163.260559
0
LINE
8
Layer 1
10
184.988290
20
163.260559
11
185.070390
21
163.578059
0
LINE
8
Layer 1
10
185.070390
20
163.578059
11
185.305770
21
163.807973
0
LINE
8
Layer 1
10
185.305770
20
163.807973
11
185.617800
21
163.890083
0
LINE
8
Layer 1
10
185.617800
20
163.890083
11
185.617800
21
163.890083
0
LINE
8
Layer 1
10
188.792800
20
163.890083
11
189.099350
21
163.807973
0
LINE
8
Layer 1
10
189.099350
20
163.807973
11
189.334740
21
163.578059
0
LINE
8
Layer 1
10
189.334740
20
163.578059
11
189.422340
21
163.260559
0
LINE
8
Layer 1
10
189.422340
20
163.260559
11
189.334740
21
162.948533
0
LINE
8
Layer 1
10
189.334740
20
162.948533
11
189.104830
21
162.713146
0
LINE
8
Layer 1
10
189.104830
20
162.713146
11
188.792800
21
162.631036
0
LINE
8
Layer 1
10
188.792800
20
162.631036
11
188.480770
21
162.713146
0
LINE
8
Layer 1
10
188.480770
20
162.713146
11
188.245390
21
162.948533
0
LINE
8
Layer 1
10
188.245390
20
162.948533
11
188.163290
21
163.260559
0
LINE
8
Layer 1
10
188.163290
20
163.260559
11
188.245390
21
163.578059
0
LINE
8
Layer 1
10
188.245390
20
163.578059
11
188.480770
21
163.807973
0
LINE
8
Layer 1
10
188.480770
20
163.807973
11
188.792800
21
163.890083
0
LINE
8
Layer 1
10
188.792800
20
163.890083
11
188.792800
21
163.890083
0
LINE
8
Layer 1
10
196.675570
20
160.715083
11
196.982120
21
160.632973
0
LINE
8
Layer 1
10
196.982120
20
160.632973
11
197.217510
21
160.403059
0
LINE
8
Layer 1
10
197.217510
20
160.403059
11
197.305110
21
160.085559
0
LINE
8
Layer 1
10
197.305110
20
160.085559
11
197.217510
21
159.773534
0
LINE
8
Layer 1
10
197.217510
20
159.773534
11
196.987590
21
159.538146
0
LINE
8
Layer 1
10
196.987590
20
159.538146
11
196.675570
21
159.456036
0
LINE
8
Layer 1
10
196.675570
20
159.456036
11
196.363540
21
159.538146
0
LINE
8
Layer 1
10
196.363540
20
159.538146
11
196.128150
21
159.773534
0
LINE
8
Layer 1
10
196.128150
20
159.773534
11
196.046050
21
160.085559
0
LINE
8
Layer 1
10
196.046050
20
160.085559
11
196.128150
21
160.403059
0
LINE
8
Layer 1
10
196.128150
20
160.403059
11
196.363540
21
160.632973
0
LINE
8
Layer 1
10
196.363540
20
160.632973
11
196.675570
21
160.715083
0
LINE
8
Layer 1
10
196.675570
20
160.715083
11
196.675570
21
160.715083
0
LINE
8
Layer 1
10
196.675570
20
160.715083
11
196.982120
21
160.632973
0
LINE
8
Layer 1
10
196.982120
20
160.632973
11
197.217510
21
160.403059
0
LINE
8
Layer 1
10
197.217510
20
160.403059
11
197.305110
21
160.085559
0
LINE
8
Layer 1
10
197.305110
20
160.085559
11
197.217510
21
159.773534
0
LINE
8
Layer 1
10
197.217510
20
159.773534
11
196.987590
21
159.538146
0
LINE
8
Layer 1
10
196.987590
20
159.538146
11
196.675570
21
159.456036
0
LINE
8
Layer 1
10
196.675570
20
159.456036
11
196.363540
21
159.538146
0
LINE
8
Layer 1
10
196.363540
20
159.538146
11
196.128150
21
159.773534
0
LINE
8
Layer 1
10
196.128150
20
159.773534
11
196.046050
21
160.085559
0
LINE
8
Layer 1
10
196.046050
20
160.085559
11
196.128150
21
160.403059
0
LINE
8
Layer 1
10
196.128150
20
160.403059
11
196.363540
21
160.632973
0
LINE
8
Layer 1
10
196.363540
20
160.632973
11
196.675570
21
160.715083
0
LINE
8
Layer 1
10
196.675570
20
160.715083
11
196.675570
21
160.715083
0
LINE
8
Layer 1
10
193.500570
20
163.890083
11
193.807120
21
163.807973
0
LINE
8
Layer 1
10
193.807120
20
163.807973
11
194.042510
21
163.578059
0
LINE
8
Layer 1
10
194.042510
20
163.578059
11
194.130110
21
163.260559
0
LINE
8
Layer 1
10
194.130110
20
163.260559
11
194.042510
21
162.948533
0
LINE
8
Layer 1
10
194.042510
20
162.948533
11
193.812590
21
162.713146
0
LINE
8
Layer 1
10
193.812590
20
162.713146
11
193.500570
21
162.631036
0
LINE
8
Layer 1
10
193.500570
20
162.631036
11
193.188540
21
162.713146
0
LINE
8
Layer 1
10
193.188540
20
162.713146
11
192.953150
21
162.948533
0
LINE
8
Layer 1
10
192.953150
20
162.948533
11
192.871050
21
163.260559
0
LINE
8
Layer 1
10
192.871050
20
163.260559
11
192.953150
21
163.578059
0
LINE
8
Layer 1
10
192.953150
20
163.578059
11
193.188540
21
163.807973
0
LINE
8
Layer 1
10
193.188540
20
163.807973
11
193.500570
21
163.890083
0
LINE
8
Layer 1
10
193.500570
20
163.890083
11
193.500570
21
163.890083
0
LINE
8
Layer 1
10
196.675570
20
163.890083
11
196.982120
21
163.807973
0
LINE
8
Layer 1
10
196.982120
20
163.807973
11
197.217510
21
163.578059
0
LINE
8
Layer 1
10
197.217510
20
163.578059
11
197.305110
21
163.260559
0
LINE
8
Layer 1
10
197.305110
20
163.260559
11
197.217510
21
162.948533
0
LINE
8
Layer 1
10
197.217510
20
162.948533
11
196.987590
21
162.713146
0
LINE
8
Layer 1
10
196.987590
20
162.713146
11
196.675570
21
162.631036
0
LINE
8
Layer 1
10
196.675570
20
162.631036
11
196.363540
21
162.713146
0
LINE
8
Layer 1
10
196.363540
20
162.713146
11
196.128150
21
162.948533
0
LINE
8
Layer 1
10
196.128150
20
162.948533
11
196.046050
21
163.260559
0
LINE
8
Layer 1
10
196.046050
20
163.260559
11
196.128150
21
163.578059
0
LINE
8
Layer 1
10
196.128150
20
163.578059
11
196.363540
21
163.807973
0
LINE
8
Layer 1
10
196.363540
20
163.807973
11
196.675570
21
163.890083
0
LINE
8
Layer 1
10
196.675570
20
163.890083
11
196.675570
21
163.890083
0
LINE
8
Layer 1
10
193.500570
20
163.890083
11
193.807120
21
163.807973
0
LINE
8
Layer 1
10
193.807120
20
163.807973
11
194.042510
21
163.578059
0
LINE
8
Layer 1
10
194.042510
20
163.578059
11
194.130110
21
163.260559
0
LINE
8
Layer 1
10
194.130110
20
163.260559
11
194.042510
21
162.948533
0
LINE
8
Layer 1
10
194.042510
20
162.948533
11
193.812590
21
162.713146
0
LINE
8
Layer 1
10
193.812590
20
162.713146
11
193.500570
21
162.631036
0
LINE
8
Layer 1
10
193.500570
20
162.631036
11
193.188540
21
162.713146
0
LINE
8
Layer 1
10
193.188540
20
162.713146
11
192.953150
21
162.948533
0
LINE
8
Layer 1
10
192.953150
20
162.948533
11
192.871050
21
163.260559
0
LINE
8
Layer 1
10
192.871050
20
163.260559
11
192.953150
21
163.578059
0
LINE
8
Layer 1
10
192.953150
20
163.578059
11
193.188540
21
163.807973
0
LINE
8
Layer 1
10
193.188540
20
163.807973
11
193.500570
21
163.890083
0
LINE
8
Layer 1
10
193.500570
20
163.890083
11
193.500570
21
163.890083
0
LINE
8
Layer 1
10
196.675570
20
163.890083
11
196.982120
21
163.807973
0
LINE
8
Layer 1
10
196.982120
20
163.807973
11
197.217510
21
163.578059
0
LINE
8
Layer 1
10
197.217510
20
163.578059
11
197.305110
21
163.260559
0
LINE
8
Layer 1
10
197.305110
20
163.260559
11
197.217510
21
162.948533
0
LINE
8
Layer 1
10
197.217510
20
162.948533
11
196.987590
21
162.713146
0
LINE
8
Layer 1
10
196.987590
20
162.713146
11
196.675570
21
162.631036
0
LINE
8
Layer 1
10
196.675570
20
162.631036
11
196.363540
21
162.713146
0
LINE
8
Layer 1
10
196.363540
20
162.713146
11
196.128150
21
162.948533
0
LINE
8
Layer 1
10
196.128150
20
162.948533
11
196.046050
21
163.260559
0
LINE
8
Layer 1
10
196.046050
20
163.260559
11
196.128150
21
163.578059
0
LINE
8
Layer 1
10
196.128150
20
163.578059
11
196.363540
21
163.807973
0
LINE
8
Layer 1
10
196.363540
20
163.807973
11
196.675570
21
163.890083
0
LINE
8
Layer 1
10
196.675570
20
163.890083
11
196.675570
21
163.890083
0
LINE
8
Layer 1
10
62.160492
20
134.545200
11
193.949962
21
134.545200
0
LINE
8
Layer 1
10
193.949962
20
134.545200
11
193.949962
21
43.155559
0
LINE
8
Layer 1
10
193.949962
20
43.155559
11
62.160492
21
43.155559
0
LINE
8
Layer 1
10
62.160492
20
43.155559
11
62.160492
21
134.545200
0
LINE
8
Layer 1
10
19.832645
20
188.136032
11
34.768341
21
188.136032
0
LINE
8
Layer 1
10
34.768341
20
188.136032
11
34.768341
21
173.445184
0
LINE
8
Layer 1
10
34.768341
20
173.445184
11
19.832645
21
173.445184
0
LINE
8
Layer 1
10
19.832645
20
173.445184
11
19.832645
21
188.136032
0
LINE
8
Layer 1
10
50.433011
20
177.854404
11
50.739563
21
177.772294
0
LINE
8
Layer 1
10
50.739563
20
177.772294
11
50.974950
21
177.542380
0
LINE
8
Layer 1
10
50.974950
20
177.542380
11
51.062540
21
177.224880
0
LINE
8
Layer 1
10
51.062540
20
177.224880
11
50.974950
21
176.912854
0
LINE
8
Layer 1
10
50.974950
20
176.912854
11
50.745037
21
176.677466
0
LINE
8
Layer 1
10
50.745037
20
176.677466
11
50.433011
21
176.595356
0
LINE
8
Layer 1
10
50.433011
20
176.595356
11
50.120985
21
176.677466
0
LINE
8
Layer 1
10
50.120985
20
176.677466
11
49.885597
21
176.912854
0
LINE
8
Layer 1
10
49.885597
20
176.912854
11
49.803487
21
177.224880
0
LINE
8
Layer 1
10
49.803487
20
177.224880
11
49.885597
21
177.542380
0
LINE
8
Layer 1
10
49.885597
20
177.542380
11
50.120985
21
177.772294
0
LINE
8
Layer 1
10
50.120985
20
177.772294
11
50.433011
21
177.854404
0
LINE
8
Layer 1
10
50.433011
20
177.854404
11
50.433011
21
177.854404
0
LINE
8
Layer 1
10
50.433011
20
177.854404
11
50.739563
21
177.772294
0
LINE
8
Layer 1
10
50.739563
20
177.772294
11
50.974950
21
177.542380
0
LINE
8
Layer 1
10
50.974950
20
177.542380
11
51.062540
21
177.224880
0
LINE
8
Layer 1
10
51.062540
20
177.224880
11
50.974950
21
176.912854
0
LINE
8
Layer 1
10
50.974950
20
176.912854
11
50.745037
21
176.677466
0
LINE
8
Layer 1
10
50.745037
20
176.677466
11
50.433011
21
176.595356
0
LINE
8
Layer 1
10
50.433011
20
176.595356
11
50.120985
21
176.677466
0
LINE
8
Layer 1
10
50.120985
20
176.677466
11
49.885597
21
176.912854
0
LINE
8
Layer 1
10
49.885597
20
176.912854
11
49.803487
21
177.224880
0
LINE
8
Layer 1
10
49.803487
20
177.224880
11
49.885597
21
177.542380
0
LINE
8
Layer 1
10
49.885597
20
177.542380
11
50.120985
21
177.772294
0
LINE
8
Layer 1
10
50.120985
20
177.772294
11
50.433011
21
177.854404
0
LINE
8
Layer 1
10
50.433011
20
177.854404
11
50.433011
21
177.854404
0
LINE
8
Layer 1
10
58.315766
20
181.029404
11
58.622318
21
180.947294
0
LINE
8
Layer 1
10
58.622318
20
180.947294
11
58.857706
21
180.717381
0
LINE
8
Layer 1
10
58.857706
20
180.717381
11
58.945296
21
180.399881
0
LINE
8
Layer 1
10
58.945296
20
180.399881
11
58.857706
21
180.087855
0
LINE
8
Layer 1
10
58.857706
20
180.087855
11
58.627792
21
179.852467
0
LINE
8
Layer 1
10
58.627792
20
179.852467
11
58.315766
21
179.770357
0
LINE
8
Layer 1
10
58.315766
20
179.770357
11
58.003740
21
179.852467
0
LINE
8
Layer 1
10
58.003740
20
179.852467
11
57.768352
21
180.087855
0
LINE
8
Layer 1
10
57.768352
20
180.087855
11
57.686242
21
180.399881
0
LINE
8
Layer 1
10
57.686242
20
180.399881
11
57.768352
21
180.717381
0
LINE
8
Layer 1
10
57.768352
20
180.717381
11
58.003740
21
180.947294
0
LINE
8
Layer 1
10
58.003740
20
180.947294
11
58.315766
21
181.029404
0
LINE
8
Layer 1
10
58.315766
20
181.029404
11
58.315766
21
181.029404
0
LINE
8
Layer 1
10
58.315766
20
181.029404
11
58.622318
21
180.947294
0
LINE
8
Layer 1
10
58.622318
20
180.947294
11
58.857706
21
180.717381
0
LINE
8
Layer 1
10
58.857706
20
180.717381
11
58.945296
21
180.399881
0
LINE
8
Layer 1
10
58.945296
20
180.399881
11
58.857706
21
180.087855
0
LINE
8
Layer 1
10
58.857706
20
180.087855
11
58.627792
21
179.852467
0
LINE
8
Layer 1
10
58.627792
20
179.852467
11
58.315766
21
179.770357
0
LINE
8
Layer 1
10
58.315766
20
179.770357
11
58.003740
21
179.852467
0
LINE
8
Layer 1
10
58.003740
20
179.852467
11
57.768352
21
180.087855
0
LINE
8
Layer 1
10
57.768352
20
180.087855
11
57.686242
21
180.399881
0
LINE
8
Layer 1
10
57.686242
20
180.399881
11
57.768352
21
180.717381
0
LINE
8
Layer 1
10
57.768352
20
180.717381
11
58.003740
21
180.947294
0
LINE
8
Layer 1
10
58.003740
20
180.947294
11
58.315766
21
181.029404
0
LINE
8
Layer 1
10
58.315766
20
181.029404
11
58.315766
21
181.029404
0
LINE
8
Layer 1
10
63.023521
20
177.854404
11
63.330073
21
177.772294
0
LINE
8
Layer 1
10
63.330073
20
177.772294
11
63.565461
21
177.542380
0
LINE
8
Layer 1
10
63.565461
20
177.542380
11
63.653051
21
177.224880
0
LINE
8
Layer 1
10
63.653051
20
177.224880
11
63.565461
21
176.912854
0
LINE
8
Layer 1
10
63.565461
20
176.912854
11
63.335547
21
176.677466
0
LINE
8
Layer 1
10
63.335547
20
176.677466
11
63.023521
21
176.595356
0
LINE
8
Layer 1
10
63.023521
20
176.595356
11
62.711496
21
176.677466
0
LINE
8
Layer 1
10
62.711496
20
176.677466
11
62.476108
21
176.912854
0
LINE
8
Layer 1
10
62.476108
20
176.912854
11
62.393998
21
177.224880
0
LINE
8
Layer 1
10
62.393998
20
177.224880
11
62.476108
21
177.542380
0
LINE
8
Layer 1
10
62.476108
20
177.542380
11
62.711496
21
177.772294
0
LINE
8
Layer 1
10
62.711496
20
177.772294
11
63.023521
21
177.854404
0
LINE
8
Layer 1
10
63.023521
20
177.854404
11
63.023521
21
177.854404
0
LINE
8
Layer 1
10
63.023521
20
177.854404
11
63.330073
21
177.772294
0
LINE
8
Layer 1
10
63.330073
20
177.772294
11
63.565461
21
177.542380
0
LINE
8
Layer 1
10
63.565461
20
177.542380
11
63.653051
21
177.224880
0
LINE
8
Layer 1
10
63.653051
20
177.224880
11
63.565461
21
176.912854
0
LINE
8
Layer 1
10
63.565461
20
176.912854
11
63.335547
21
176.677466
0
LINE
8
Layer 1
10
63.335547
20
176.677466
11
63.023521
21
176.595356
0
LINE
8
Layer 1
10
63.023521
20
176.595356
11
62.711496
21
176.677466
0
LINE
8
Layer 1
10
62.711496
20
176.677466
11
62.476108
21
176.912854
0
LINE
8
Layer 1
10
62.476108
20
176.912854
11
62.393998
21
177.224880
0
LINE
8
Layer 1
10
62.393998
20
177.224880
11
62.476108
21
177.542380
0
LINE
8
Layer 1
10
62.476108
20
177.542380
11
62.711496
21
177.772294
0
LINE
8
Layer 1
10
62.711496
20
177.772294
11
63.023521
21
177.854404
0
LINE
8
Layer 1
10
63.023521
20
177.854404
11
63.023521
21
177.854404
0
LINE
8
Layer 1
10
66.198521
20
181.029404
11
66.505073
21
180.947294
0
LINE
8
Layer 1
10
66.505073
20
180.947294
11
66.740461
21
180.717381
0
LINE
8
Layer 1
10
66.740461
20
180.717381
11
66.828051
21
180.399881
0
LINE
8
Layer 1
10
66.828051
20
180.399881
11
66.740461
21
180.087855
0
LINE
8
Layer 1
10
66.740461
20
180.087855
11
66.510547
21
179.852467
0
LINE
8
Layer 1
10
66.510547
20
179.852467
11
66.198521
21
179.770357
0
LINE
8
Layer 1
10
66.198521
20
179.770357
11
65.886495
21
179.852467
0
LINE
8
Layer 1
10
65.886495
20
179.852467
11
65.651108
21
180.087855
0
LINE
8
Layer 1
10
65.651108
20
180.087855
11
65.568998
21
180.399881
0
LINE
8
Layer 1
10
65.568998
20
180.399881
11
65.651108
21
180.717381
0
LINE
8
Layer 1
10
65.651108
20
180.717381
11
65.886495
21
180.947294
0
LINE
8
Layer 1
10
65.886495
20
180.947294
11
66.198521
21
181.029404
0
LINE
8
Layer 1
10
66.198521
20
181.029404
11
66.198521
21
181.029404
0
LINE
8
Layer 1
10
66.198521
20
181.029404
11
66.505073
21
180.947294
0
LINE
8
Layer 1
10
66.505073
20
180.947294
11
66.740461
21
180.717381
0
LINE
8
Layer 1
10
66.740461
20
180.717381
11
66.828051
21
180.399881
0
LINE
8
Layer 1
10
66.828051
20
180.399881
11
66.740461
21
180.087855
0
LINE
8
Layer 1
10
66.740461
20
180.087855
11
66.510547
21
179.852467
0
LINE
8
Layer 1
10
66.510547
20
179.852467
11
66.198521
21
179.770357
0
LINE
8
Layer 1
10
66.198521
20
179.770357
11
65.886495
21
179.852467
0
LINE
8
Layer 1
10
65.886495
20
179.852467
11
65.651108
21
180.087855
0
LINE
8
Layer 1
10
65.651108
20
180.087855
11
65.568998
21
180.399881
0
LINE
8
Layer 1
10
65.568998
20
180.399881
11
65.651108
21
180.717381
0
LINE
8
Layer 1
10
65.651108
20
180.717381
11
65.886495
21
180.947294
0
LINE
8
Layer 1
10
65.886495
20
180.947294
11
66.198521
21
181.029404
0
LINE
8
Layer 1
10
66.198521
20
181.029404
11
66.198521
21
181.029404
0
LINE
8
Layer 1
10
63.023521
20
184.204403
11
63.330073
21
184.122293
0
LINE
8
Layer 1
10
63.330073
20
184.122293
11
63.565461
21
183.892380
0
LINE
8
Layer 1
10
63.565461
20
183.892380
11
63.653051
21
183.574880
0
LINE
8
Layer 1
10
63.653051
20
183.574880
11
63.565461
21
183.262854
0
LINE
8
Layer 1
10
63.565461
20
183.262854
11
63.335547
21
183.027466
0
LINE
8
Layer 1
10
63.335547
20
183.027466
11
63.023521
21
182.945356
0
LINE
8
Layer 1
10
63.023521
20
182.945356
11
62.711496
21
183.027466
0
LINE
8
Layer 1
10
62.711496
20
183.027466
11
62.476108
21
183.262854
0
LINE
8
Layer 1
10
62.476108
20
183.262854
11
62.393998
21
183.574880
0
LINE
8
Layer 1
10
62.393998
20
183.574880
11
62.476108
21
183.892380
0
LINE
8
Layer 1
10
62.476108
20
183.892380
11
62.711496
21
184.122293
0
LINE
8
Layer 1
10
62.711496
20
184.122293
11
63.023521
21
184.204403
0
LINE
8
Layer 1
10
63.023521
20
184.204403
11
63.023521
21
184.204403
0
LINE
8
Layer 1
10
66.198521
20
184.204403
11
66.505073
21
184.122293
0
LINE
8
Layer 1
10
66.505073
20
184.122293
11
66.740461
21
183.892380
0
LINE
8
Layer 1
10
66.740461
20
183.892380
11
66.828051
21
183.574880
0
LINE
8
Layer 1
10
66.828051
20
183.574880
11
66.740461
21
183.262854
0
LINE
8
Layer 1
10
66.740461
20
183.262854
11
66.510547
21
183.027466
0
LINE
8
Layer 1
10
66.510547
20
183.027466
11
66.198521
21
182.945356
0
LINE
8
Layer 1
10
66.198521
20
182.945356
11
65.886495
21
183.027466
0
LINE
8
Layer 1
10
65.886495
20
183.027466
11
65.651108
21
183.262854
0
LINE
8
Layer 1
10
65.651108
20
183.262854
11
65.568998
21
183.574880
0
LINE
8
Layer 1
10
65.568998
20
183.574880
11
65.651108
21
183.892380
0
LINE
8
Layer 1
10
65.651108
20
183.892380
11
65.886495
21
184.122293
0
LINE
8
Layer 1
10
65.886495
20
184.122293
11
66.198521
21
184.204403
0
LINE
8
Layer 1
10
66.198521
20
184.204403
11
66.198521
21
184.204403
0
LINE
8
Layer 1
10
63.023521
20
184.204403
11
63.330073
21
184.122293
0
LINE
8
Layer 1
10
63.330073
20
184.122293
11
63.565461
21
183.892380
0
LINE
8
Layer 1
10
63.565461
20
183.892380
11
63.653051
21
183.574880
0
LINE
8
Layer 1
10
63.653051
20
183.574880
11
63.565461
21
183.262854
0
LINE
8
Layer 1
10
63.565461
20
183.262854
11
63.335547
21
183.027466
0
LINE
8
Layer 1
10
63.335547
20
183.027466
11
63.023521
21
182.945356
0
LINE
8
Layer 1
10
63.023521
20
182.945356
11
62.711496
21
183.027466
0
LINE
8
Layer 1
10
62.711496
20
183.027466
11
62.476108
21
183.262854
0
LINE
8
Layer 1
10
62.476108
20
183.262854
11
62.393998
21
183.574880
0
LINE
8
Layer 1
10
62.393998
20
183.574880
11
62.476108
21
183.892380
0
LINE
8
Layer 1
10
62.476108
20
183.892380
11
62.711496
21
184.122293
0
LINE
8
Layer 1
10
62.711496
20
184.122293
11
63.023521
21
184.204403
0
LINE
8
Layer 1
10
63.023521
20
184.204403
11
63.023521
21
184.204403
0
LINE
8
Layer 1
10
66.198521
20
184.204403
11
66.505073
21
184.122293
0
LINE
8
Layer 1
10
66.505073
20
184.122293
11
66.740461
21
183.892380
0
LINE
8
Layer 1
10
66.740461
20
183.892380
11
66.828051
21
183.574880
0
LINE
8
Layer 1
10
66.828051
20
183.574880
11
66.740461
21
183.262854
0
LINE
8
Layer 1
10
66.740461
20
183.262854
11
66.510547
21
183.027466
0
LINE
8
Layer 1
10
66.510547
20
183.027466
11
66.198521
21
182.945356
0
LINE
8
Layer 1
10
66.198521
20
182.945356
11
65.886495
21
183.027466
0
LINE
8
Layer 1
10
65.886495
20
183.027466
11
65.651108
21
183.262854
0
LINE
8
Layer 1
10
65.651108
20
183.262854
11
65.568998
21
183.574880
0
LINE
8
Layer 1
10
65.568998
20
183.574880
11
65.651108
21
183.892380
0
LINE
8
Layer 1
10
65.651108
20
183.892380
11
65.886495
21
184.122293
0
LINE
8
Layer 1
10
65.886495
20
184.122293
11
66.198521
21
184.204403
0
LINE
8
Layer 1
10
66.198521
20
184.204403
11
66.198521
21
184.204403
0
LINE
8
Layer 1
10
70.760918
20
118.844190
11
187.063468
21
118.844190
0
LINE
8
Layer 1
10
187.063468
20
118.844190
11
187.063468
21
80.892831
0
LINE
8
Layer 1
10
187.063468
20
80.892831
11
70.760918
21
80.892831
0
LINE
8
Layer 1
10
70.760918
20
80.892831
11
70.760918
21
118.844190
0
LINE
8
Layer 1
10
70.557312
20
74.395520
11
187.199542
21
74.395520
0
LINE
8
Layer 1
10
187.199542
20
74.395520
11
187.199542
21
57.895909
0
LINE
8
Layer 1
10
187.199542
20
57.895909
11
70.557312
21
57.895909
0
LINE
8
Layer 1
10
70.557312
20
57.895909
11
70.557312
21
74.395520
0
LINE
8
Layer 1
10
20.623755
20
129.372630
11
50.495146
21
129.372630
0
LINE
8
Layer 1
10
50.495146
20
129.372630
11
50.495146
21
106.846661
0
LINE
8
Layer 1
10
50.495146
20
106.846661
11
20.623755
21
106.846661
0
LINE
8
Layer 1
10
20.623755
20
106.846661
11
20.623755
21
129.372630
0
LINE
8
Layer 1
10
20.623755
20
102.216920
11
50.495146
21
102.216920
0
LINE
8
Layer 1
10
50.495146
20
102.216920
11
50.495146
21
79.690951
0
LINE
8
Layer 1
10
50.495146
20
79.690951
11
20.623755
21
79.690951
0
LINE
8
Layer 1
10
20.623755
20
79.690951
11
20.623755
21
102.216920
0
LINE
8
Layer 1
10
20.623755
20
74.348100
11
50.495146
21
74.348100
0
LINE
8
Layer 1
10
50.495146
20
74.348100
11
50.495146
21
51.822131
0
LINE
8
Layer 1
10
50.495146
20
51.822131
11
20.623755
21
51.822131
0
LINE
8
Layer 1
10
20.623755
20
51.822131
11
20.623755
21
74.348100
0
LINE
8
Layer 1
10
24.811278
20
17.657560
11
25.117830
21
17.575460
0
LINE
8
Layer 1
10
25.117830
20
17.575460
11
25.353218
21
17.345540
0
LINE
8
Layer 1
10
25.353218
20
17.345540
11
25.440808
21
17.028040
0
LINE
8
Layer 1
10
25.440808
20
17.028040
11
25.353218
21
16.716020
0
LINE
8
Layer 1
10
25.353218
20
16.716020
11
25.123304
21
16.480630
0
LINE
8
Layer 1
10
25.123304
20
16.480630
11
24.811278
21
16.398530
0
LINE
8
Layer 1
10
24.811278
20
16.398530
11
24.499252
21
16.480630
0
LINE
8
Layer 1
10
24.499252
20
16.480630
11
24.263864
21
16.716020
0
LINE
8
Layer 1
10
24.263864
20
16.716020
11
24.181754
21
17.028040
0
LINE
8
Layer 1
10
24.181754
20
17.028040
11
24.263864
21
17.345540
0
LINE
8
Layer 1
10
24.263864
20
17.345540
11
24.499252
21
17.575460
0
LINE
8
Layer 1
10
24.499252
20
17.575460
11
24.811278
21
17.657560
0
LINE
8
Layer 1
10
24.811278
20
17.657560
11
24.811278
21
17.657560
0
LINE
8
Layer 1
10
24.811278
20
17.657560
11
25.117830
21
17.575460
0
LINE
8
Layer 1
10
25.117830
20
17.575460
11
25.353218
21
17.345540
0
LINE
8
Layer 1
10
25.353218
20
17.345540
11
25.440808
21
17.028040
0
LINE
8
Layer 1
10
25.440808
20
17.028040
11
25.353218
21
16.716020
0
LINE
8
Layer 1
10
25.353218
20
16.716020
11
25.123304
21
16.480630
0
LINE
8
Layer 1
10
25.123304
20
16.480630
11
24.811278
21
16.398530
0
LINE
8
Layer 1
10
24.811278
20
16.398530
11
24.499252
21
16.480630
0
LINE
8
Layer 1
10
24.499252
20
16.480630
11
24.263864
21
16.716020
0
LINE
8
Layer 1
10
24.263864
20
16.716020
11
24.181754
21
17.028040
0
LINE
8
Layer 1
10
24.181754
20
17.028040
11
24.263864
21
17.345540
0
LINE
8
Layer 1
10
24.263864
20
17.345540
11
24.499252
21
17.575460
0
LINE
8
Layer 1
10
24.499252
20
17.575460
11
24.811278
21
17.657560
0
LINE
8
Layer 1
10
24.811278
20
17.657560
11
24.811278
21
17.657560
0
LINE
8
Layer 1
10
29.519033
20
24.007560
11
29.825585
21
23.925460
0
LINE
8
Layer 1
10
29.825585
20
23.925460
11
30.060973
21
23.695540
0
LINE
8
Layer 1
10
30.060973
20
23.695540
11
30.148563
21
23.378040
0
LINE
8
Layer 1
10
30.148563
20
23.378040
11
30.060973
21
23.066020
0
LINE
8
Layer 1
10
30.060973
20
23.066020
11
29.831059
21
22.830630
0
LINE
8
Layer 1
10
29.831059
20
22.830630
11
29.519033
21
22.748530
0
LINE
8
Layer 1
10
29.519033
20
22.748530
11
29.207008
21
22.830630
0
LINE
8
Layer 1
10
29.207008
20
22.830630
11
28.971620
21
23.066020
0
LINE
8
Layer 1
10
28.971620
20
23.066020
11
28.889510
21
23.378040
0
LINE
8
Layer 1
10
28.889510
20
23.378040
11
28.971620
21
23.695540
0
LINE
8
Layer 1
10
28.971620
20
23.695540
11
29.207008
21
23.925460
0
LINE
8
Layer 1
10
29.207008
20
23.925460
11
29.519033
21
24.007560
0
LINE
8
Layer 1
10
29.519033
20
24.007560
11
29.519033
21
24.007560
0
LINE
8
Layer 1
10
32.694033
20
24.007560
11
33.000585
21
23.925460
0
LINE
8
Layer 1
10
33.000585
20
23.925460
11
33.235973
21
23.695540
0
LINE
8
Layer 1
10
33.235973
20
23.695540
11
33.323563
21
23.378040
0
LINE
8
Layer 1
10
33.323563
20
23.378040
11
33.235973
21
23.066020
0
LINE
8
Layer 1
10
33.235973
20
23.066020
11
33.006059
21
22.830630
0
LINE
8
Layer 1
10
33.006059
20
22.830630
11
32.694033
21
22.748530
0
LINE
8
Layer 1
10
32.694033
20
22.748530
11
32.382008
21
22.830630
0
LINE
8
Layer 1
10
32.382008
20
22.830630
11
32.146620
21
23.066020
0
LINE
8
Layer 1
10
32.146620
20
23.066020
11
32.064510
21
23.378040
0
LINE
8
Layer 1
10
32.064510
20
23.378040
11
32.146620
21
23.695540
0
LINE
8
Layer 1
10
32.146620
20
23.695540
11
32.382008
21
23.925460
0
LINE
8
Layer 1
10
32.382008
20
23.925460
11
32.694033
21
24.007560
0
LINE
8
Layer 1
10
32.694033
20
24.007560
11
32.694033
21
24.007560
0
LINE
8
Layer 1
10
29.519033
20
24.007560
11
29.825585
21
23.925460
0
LINE
8
Layer 1
10
29.825585
20
23.925460
11
30.060973
21
23.695540
0
LINE
8
Layer 1
10
30.060973
20
23.695540
11
30.148563
21
23.378040
0
LINE
8
Layer 1
10
30.148563
20
23.378040
11
30.060973
21
23.066020
0
LINE
8
Layer 1
10
30.060973
20
23.066020
11
29.831059
21
22.830630
0
LINE
8
Layer 1
10
29.831059
20
22.830630
11
29.519033
21
22.748530
0
LINE
8
Layer 1
10
29.519033
20
22.748530
11
29.207008
21
22.830630
0
LINE
8
Layer 1
10
29.207008
20
22.830630
11
28.971620
21
23.066020
0
LINE
8
Layer 1
10
28.971620
20
23.066020
11
28.889510
21
23.378040
0
LINE
8
Layer 1
10
28.889510
20
23.378040
11
28.971620
21
23.695540
0
LINE
8
Layer 1
10
28.971620
20
23.695540
11
29.207008
21
23.925460
0
LINE
8
Layer 1
10
29.207008
20
23.925460
11
29.519033
21
24.007560
0
LINE
8
Layer 1
10
29.519033
20
24.007560
11
29.519033
21
24.007560
0
LINE
8
Layer 1
10
32.694033
20
24.007560
11
33.000585
21
23.925460
0
LINE
8
Layer 1
10
33.000585
20
23.925460
11
33.235973
21
23.695540
0
LINE
8
Layer 1
10
33.235973
20
23.695540
11
33.323563
21
23.378040
0
LINE
8
Layer 1
10
33.323563
20
23.378040
11
33.235973
21
23.066020
0
LINE
8
Layer 1
10
33.235973
20
23.066020
11
33.006059
21
22.830630
0
LINE
8
Layer 1
10
33.006059
20
22.830630
11
32.694033
21
22.748530
0
LINE
8
Layer 1
10
32.694033
20
22.748530
11
32.382008
21
22.830630
0
LINE
8
Layer 1
10
32.382008
20
22.830630
11
32.146620
21
23.066020
0
LINE
8
Layer 1
10
32.146620
20
23.066020
11
32.064510
21
23.378040
0
LINE
8
Layer 1
10
32.064510
20
23.378040
11
32.146620
21
23.695540
0
LINE
8
Layer 1
10
32.146620
20
23.695540
11
32.382008
21
23.925460
0
LINE
8
Layer 1
10
32.382008
20
23.925460
11
32.694033
21
24.007560
0
LINE
8
Layer 1
10
32.694033
20
24.007560
11
32.694033
21
24.007560
0
LINE
8
Layer 1
10
37.401789
20
17.657560
11
37.708340
21
17.575460
0
LINE
8
Layer 1
10
37.708340
20
17.575460
11
37.943728
21
17.345540
0
LINE
8
Layer 1
10
37.943728
20
17.345540
11
38.031318
21
17.028040
0
LINE
8
Layer 1
10
38.031318
20
17.028040
11
37.943728
21
16.716020
0
LINE
8
Layer 1
10
37.943728
20
16.716020
11
37.713815
21
16.480630
0
LINE
8
Layer 1
10
37.713815
20
16.480630
11
37.401789
21
16.398530
0
LINE
8
Layer 1
10
37.401789
20
16.398530
11
37.089763
21
16.480630
0
LINE
8
Layer 1
10
37.089763
20
16.480630
11
36.854375
21
16.716020
0
LINE
8
Layer 1
10
36.854375
20
16.716020
11
36.772265
21
17.028040
0
LINE
8
Layer 1
10
36.772265
20
17.028040
11
36.854375
21
17.345540
0
LINE
8
Layer 1
10
36.854375
20
17.345540
11
37.089763
21
17.575460
0
LINE
8
Layer 1
10
37.089763
20
17.575460
11
37.401789
21
17.657560
0
LINE
8
Layer 1
10
37.401789
20
17.657560
11
37.401789
21
17.657560
0
LINE
8
Layer 1
10
37.401789
20
17.657560
11
37.708340
21
17.575460
0
LINE
8
Layer 1
10
37.708340
20
17.575460
11
37.943728
21
17.345540
0
LINE
8
Layer 1
10
37.943728
20
17.345540
11
38.031318
21
17.028040
0
LINE
8
Layer 1
10
38.031318
20
17.028040
11
37.943728
21
16.716020
0
LINE
8
Layer 1
10
37.943728
20
16.716020
11
37.713815
21
16.480630
0
LINE
8
Layer 1
10
37.713815
20
16.480630
11
37.401789
21
16.398530
0
LINE
8
Layer 1
10
37.401789
20
16.398530
11
37.089763
21
16.480630
0
LINE
8
Layer 1
10
37.089763
20
16.480630
11
36.854375
21
16.716020
0
LINE
8
Layer 1
10
36.854375
20
16.716020
11
36.772265
21
17.028040
0
LINE
8
Layer 1
10
36.772265
20
17.028040
11
36.854375
21
17.345540
0
LINE
8
Layer 1
10
36.854375
20
17.345540
11
37.089763
21
17.575460
0
LINE
8
Layer 1
10
37.089763
20
17.575460
11
37.401789
21
17.657560
0
LINE
8
Layer 1
10
37.401789
20
17.657560
11
37.401789
21
17.657560
0
LINE
8
Layer 1
10
37.401789
20
20.832560
11
37.708340
21
20.750460
0
LINE
8
Layer 1
10
37.708340
20
20.750460
11
37.943728
21
20.520540
0
LINE
8
Layer 1
10
37.943728
20
20.520540
11
38.031318
21
20.203040
0
LINE
8
Layer 1
10
38.031318
20
20.203040
11
37.943728
21
19.891020
0
LINE
8
Layer 1
10
37.943728
20
19.891020
11
37.713815
21
19.655630
0
LINE
8
Layer 1
10
37.713815
20
19.655630
11
37.401789
21
19.573530
0
LINE
8
Layer 1
10
37.401789
20
19.573530
11
37.089763
21
19.655630
0
LINE
8
Layer 1
10
37.089763
20
19.655630
11
36.854375
21
19.891020
0
LINE
8
Layer 1
10
36.854375
20
19.891020
11
36.772265
21
20.203040
0
LINE
8
Layer 1
10
36.772265
20
20.203040
11
36.854375
21
20.520540
0
LINE
8
Layer 1
10
36.854375
20
20.520540
11
37.089763
21
20.750460
0
LINE
8
Layer 1
10
37.089763
20
20.750460
11
37.401789
21
20.832560
0
LINE
8
Layer 1
10
37.401789
20
20.832560
11
37.401789
21
20.832560
0
LINE
8
Layer 1
10
37.401789
20
20.832560
11
37.708340
21
20.750460
0
LINE
8
Layer 1
10
37.708340
20
20.750460
11
37.943728
21
20.520540
0
LINE
8
Layer 1
10
37.943728
20
20.520540
11
38.031318
21
20.203040
0
LINE
8
Layer 1
10
38.031318
20
20.203040
11
37.943728
21
19.891020
0
LINE
8
Layer 1
10
37.943728
20
19.891020
11
37.713815
21
19.655630
0
LINE
8
Layer 1
10
37.713815
20
19.655630
11
37.401789
21
19.573530
0
LINE
8
Layer 1
10
37.401789
20
19.573530
11
37.089763
21
19.655630
0
LINE
8
Layer 1
10
37.089763
20
19.655630
11
36.854375
21
19.891020
0
LINE
8
Layer 1
10
36.854375
20
19.891020
11
36.772265
21
20.203040
0
LINE
8
Layer 1
10
36.772265
20
20.203040
11
36.854375
21
20.520540
0
LINE
8
Layer 1
10
36.854375
20
20.520540
11
37.089763
21
20.750460
0
LINE
8
Layer 1
10
37.089763
20
20.750460
11
37.401789
21
20.832560
0
LINE
8
Layer 1
10
37.401789
20
20.832560
11
37.401789
21
20.832560
0
LINE
8
Layer 1
10
37.401789
20
24.007560
11
37.708340
21
23.925460
0
LINE
8
Layer 1
10
37.708340
20
23.925460
11
37.943728
21
23.695540
0
LINE
8
Layer 1
10
37.943728
20
23.695540
11
38.031318
21
23.378040
0
LINE
8
Layer 1
10
38.031318
20
23.378040
11
37.943728
21
23.066020
0
LINE
8
Layer 1
10
37.943728
20
23.066020
11
37.713815
21
22.830630
0
LINE
8
Layer 1
10
37.713815
20
22.830630
11
37.401789
21
22.748530
0
LINE
8
Layer 1
10
37.401789
20
22.748530
11
37.089763
21
22.830630
0
LINE
8
Layer 1
10
37.089763
20
22.830630
11
36.854375
21
23.066020
0
LINE
8
Layer 1
10
36.854375
20
23.066020
11
36.772265
21
23.378040
0
LINE
8
Layer 1
10
36.772265
20
23.378040
11
36.854375
21
23.695540
0
LINE
8
Layer 1
10
36.854375
20
23.695540
11
37.089763
21
23.925460
0
LINE
8
Layer 1
10
37.089763
20
23.925460
11
37.401789
21
24.007560
0
LINE
8
Layer 1
10
37.401789
20
24.007560
11
37.401789
21
24.007560
0
LINE
8
Layer 1
10
37.401789
20
24.007560
11
37.708340
21
23.925460
0
LINE
8
Layer 1
10
37.708340
20
23.925460
11
37.943728
21
23.695540
0
LINE
8
Layer 1
10
37.943728
20
23.695540
11
38.031318
21
23.378040
0
LINE
8
Layer 1
10
38.031318
20
23.378040
11
37.943728
21
23.066020
0
LINE
8
Layer 1
10
37.943728
20
23.066020
11
37.713815
21
22.830630
0
LINE
8
Layer 1
10
37.713815
20
22.830630
11
37.401789
21
22.748530
0
LINE
8
Layer 1
10
37.401789
20
22.748530
11
37.089763
21
22.830630
0
LINE
8
Layer 1
10
37.089763
20
22.830630
11
36.854375
21
23.066020
0
LINE
8
Layer 1
10
36.854375
20
23.066020
11
36.772265
21
23.378040
0
LINE
8
Layer 1
10
36.772265
20
23.378040
11
36.854375
21
23.695540
0
LINE
8
Layer 1
10
36.854375
20
23.695540
11
37.089763
21
23.925460
0
LINE
8
Layer 1
10
37.089763
20
23.925460
11
37.401789
21
24.007560
0
LINE
8
Layer 1
10
37.401789
20
24.007560
11
37.401789
21
24.007560
0
LINE
8
Layer 1
10
45.284544
20
20.832560
11
45.591096
21
20.750460
0
LINE
8
Layer 1
10
45.591096
20
20.750460
11
45.826484
21
20.520540
0
LINE
8
Layer 1
10
45.826484
20
20.520540
11
45.914074
21
20.203040
0
LINE
8
Layer 1
10
45.914074
20
20.203040
11
45.826484
21
19.891020
0
LINE
8
Layer 1
10
45.826484
20
19.891020
11
45.596570
21
19.655630
0
LINE
8
Layer 1
10
45.596570
20
19.655630
11
45.284544
21
19.573530
0
LINE
8
Layer 1
10
45.284544
20
19.573530
11
44.972518
21
19.655630
0
LINE
8
Layer 1
10
44.972518
20
19.655630
11
44.737130
21
19.891020
0
LINE
8
Layer 1
10
44.737130
20
19.891020
11
44.655020
21
20.203040
0
LINE
8
Layer 1
10
44.655020
20
20.203040
11
44.737130
21
20.520540
0
LINE
8
Layer 1
10
44.737130
20
20.520540
11
44.972518
21
20.750460
0
LINE
8
Layer 1
10
44.972518
20
20.750460
11
45.284544
21
20.832560
0
LINE
8
Layer 1
10
45.284544
20
20.832560
11
45.284544
21
20.832560
0
LINE
8
Layer 1
10
45.284544
20
20.832560
11
45.591096
21
20.750460
0
LINE
8
Layer 1
10
45.591096
20
20.750460
11
45.826484
21
20.520540
0
LINE
8
Layer 1
10
45.826484
20
20.520540
11
45.914074
21
20.203040
0
LINE
8
Layer 1
10
45.914074
20
20.203040
11
45.826484
21
19.891020
0
LINE
8
Layer 1
10
45.826484
20
19.891020
11
45.596570
21
19.655630
0
LINE
8
Layer 1
10
45.596570
20
19.655630
11
45.284544
21
19.573530
0
LINE
8
Layer 1
10
45.284544
20
19.573530
11
44.972518
21
19.655630
0
LINE
8
Layer 1
10
44.972518
20
19.655630
11
44.737130
21
19.891020
0
LINE
8
Layer 1
10
44.737130
20
19.891020
11
44.655020
21
20.203040
0
LINE
8
Layer 1
10
44.655020
20
20.203040
11
44.737130
21
20.520540
0
LINE
8
Layer 1
10
44.737130
20
20.520540
11
44.972518
21
20.750460
0
LINE
8
Layer 1
10
44.972518
20
20.750460
11
45.284544
21
20.832560
0
LINE
8
Layer 1
10
45.284544
20
20.832560
11
45.284544
21
20.832560
0
LINE
8
Layer 1
10
48.459544
20
24.007560
11
48.766096
21
23.925460
0
LINE
8
Layer 1
10
48.766096
20
23.925460
11
49.001484
21
23.695540
0
LINE
8
Layer 1
10
49.001484
20
23.695540
11
49.089074
21
23.378040
0
LINE
8
Layer 1
10
49.089074
20
23.378040
11
49.001484
21
23.066020
0
LINE
8
Layer 1
10
49.001484
20
23.066020
11
48.771570
21
22.830630
0
LINE
8
Layer 1
10
48.771570
20
22.830630
11
48.459544
21
22.748530
0
LINE
8
Layer 1
10
48.459544
20
22.748530
11
48.147518
21
22.830630
0
LINE
8
Layer 1
10
48.147518
20
22.830630
11
47.912130
21
23.066020
0
LINE
8
Layer 1
10
47.912130
20
23.066020
11
47.830020
21
23.378040
0
LINE
8
Layer 1
10
47.830020
20
23.378040
11
47.912130
21
23.695540
0
LINE
8
Layer 1
10
47.912130
20
23.695540
11
48.147518
21
23.925460
0
LINE
8
Layer 1
10
48.147518
20
23.925460
11
48.459544
21
24.007560
0
LINE
8
Layer 1
10
48.459544
20
24.007560
11
48.459544
21
24.007560
0
LINE
8
Layer 1
10
48.459544
20
24.007560
11
48.766096
21
23.925460
0
LINE
8
Layer 1
10
48.766096
20
23.925460
11
49.001484
21
23.695540
0
LINE
8
Layer 1
10
49.001484
20
23.695540
11
49.089074
21
23.378040
0
LINE
8
Layer 1
10
49.089074
20
23.378040
11
49.001484
21
23.066020
0
LINE
8
Layer 1
10
49.001484
20
23.066020
11
48.771570
21
22.830630
0
LINE
8
Layer 1
10
48.771570
20
22.830630
11
48.459544
21
22.748530
0
LINE
8
Layer 1
10
48.459544
20
22.748530
11
48.147518
21
22.830630
0
LINE
8
Layer 1
10
48.147518
20
22.830630
11
47.912130
21
23.066020
0
LINE
8
Layer 1
10
47.912130
20
23.066020
11
47.830020
21
23.378040
0
LINE
8
Layer 1
10
47.830020
20
23.378040
11
47.912130
21
23.695540
0
LINE
8
Layer 1
10
47.912130
20
23.695540
11
48.147518
21
23.925460
0
LINE
8
Layer 1
10
48.147518
20
23.925460
11
48.459544
21
24.007560
0
LINE
8
Layer 1
10
48.459544
20
24.007560
11
48.459544
21
24.007560
0
LINE
8
Layer 1
10
53.167299
20
24.007560
11
53.473851
21
23.925460
0
LINE
8
Layer 1
10
53.473851
20
23.925460
11
53.709239
21
23.695540
0
LINE
8
Layer 1
10
53.709239
20
23.695540
11
53.796829
21
23.378040
0
LINE
8
Layer 1
10
53.796829
20
23.378040
11
53.709239
21
23.066020
0
LINE
8
Layer 1
10
53.709239
20
23.066020
11
53.479325
21
22.830630
0
LINE
8
Layer 1
10
53.479325
20
22.830630
11
53.167299
21
22.748530
0
LINE
8
Layer 1
10
53.167299
20
22.748530
11
52.855273
21
22.830630
0
LINE
8
Layer 1
10
52.855273
20
22.830630
11
52.619885
21
23.066020
0
LINE
8
Layer 1
10
52.619885
20
23.066020
11
52.537775
21
23.378040
0
LINE
8
Layer 1
10
52.537775
20
23.378040
11
52.619885
21
23.695540
0
LINE
8
Layer 1
10
52.619885
20
23.695540
11
52.855273
21
23.925460
0
LINE
8
Layer 1
10
52.855273
20
23.925460
11
53.167299
21
24.007560
0
LINE
8
Layer 1
10
53.167299
20
24.007560
11
53.167299
21
24.007560
0
LINE
8
Layer 1
10
56.342299
20
24.007560
11
56.648851
21
23.925460
0
LINE
8
Layer 1
10
56.648851
20
23.925460
11
56.884239
21
23.695540
0
LINE
8
Layer 1
10
56.884239
20
23.695540
11
56.971829
21
23.378040
0
LINE
8
Layer 1
10
56.971829
20
23.378040
11
56.884239
21
23.066020
0
LINE
8
Layer 1
10
56.884239
20
23.066020
11
56.654325
21
22.830630
0
LINE
8
Layer 1
10
56.654325
20
22.830630
11
56.342299
21
22.748530
0
LINE
8
Layer 1
10
56.342299
20
22.748530
11
56.030273
21
22.830630
0
LINE
8
Layer 1
10
56.030273
20
22.830630
11
55.794885
21
23.066020
0
LINE
8
Layer 1
10
55.794885
20
23.066020
11
55.712775
21
23.378040
0
LINE
8
Layer 1
10
55.712775
20
23.378040
11
55.794885
21
23.695540
0
LINE
8
Layer 1
10
55.794885
20
23.695540
11
56.030273
21
23.925460
0
LINE
8
Layer 1
10
56.030273
20
23.925460
11
56.342299
21
24.007560
0
LINE
8
Layer 1
10
56.342299
20
24.007560
11
56.342299
21
24.007560
0
LINE
8
Layer 1
10
53.167299
20
24.007560
11
53.473851
21
23.925460
0
LINE
8
Layer 1
10
53.473851
20
23.925460
11
53.709239
21
23.695540
0
LINE
8
Layer 1
10
53.709239
20
23.695540
11
53.796829
21
23.378040
0
LINE
8
Layer 1
10
53.796829
20
23.378040
11
53.709239
21
23.066020
0
LINE
8
Layer 1
10
53.709239
20
23.066020
11
53.479325
21
22.830630
0
LINE
8
Layer 1
10
53.479325
20
22.830630
11
53.167299
21
22.748530
0
LINE
8
Layer 1
10
53.167299
20
22.748530
11
52.855273
21
22.830630
0
LINE
8
Layer 1
10
52.855273
20
22.830630
11
52.619885
21
23.066020
0
LINE
8
Layer 1
10
52.619885
20
23.066020
11
52.537775
21
23.378040
0
LINE
8
Layer 1
10
52.537775
20
23.378040
11
52.619885
21
23.695540
0
LINE
8
Layer 1
10
52.619885
20
23.695540
11
52.855273
21
23.925460
0
LINE
8
Layer 1
10
52.855273
20
23.925460
11
53.167299
21
24.007560
0
LINE
8
Layer 1
10
53.167299
20
24.007560
11
53.167299
21
24.007560
0
LINE
8
Layer 1
10
56.342299
20
24.007560
11
56.648851
21
23.925460
0
LINE
8
Layer 1
10
56.648851
20
23.925460
11
56.884239
21
23.695540
0
LINE
8
Layer 1
10
56.884239
20
23.695540
11
56.971829
21
23.378040
0
LINE
8
Layer 1
10
56.971829
20
23.378040
11
56.884239
21
23.066020
0
LINE
8
Layer 1
10
56.884239
20
23.066020
11
56.654325
21
22.830630
0
LINE
8
Layer 1
10
56.654325
20
22.830630
11
56.342299
21
22.748530
0
LINE
8
Layer 1
10
56.342299
20
22.748530
11
56.030273
21
22.830630
0
LINE
8
Layer 1
10
56.030273
20
22.830630
11
55.794885
21
23.066020
0
LINE
8
Layer 1
10
55.794885
20
23.066020
11
55.712775
21
23.378040
0
LINE
8
Layer 1
10
55.712775
20
23.378040
11
55.794885
21
23.695540
0
LINE
8
Layer 1
10
55.794885
20
23.695540
11
56.030273
21
23.925460
0
LINE
8
Layer 1
10
56.030273
20
23.925460
11
56.342299
21
24.007560
0
LINE
8
Layer 1
10
56.342299
20
24.007560
11
56.342299
21
24.007560
0
LINE
8
Layer 1
10
61.050055
20
17.657560
11
61.356606
21
17.575460
0
LINE
8
Layer 1
10
61.356606
20
17.575460
11
61.591994
21
17.345540
0
LINE
8
Layer 1
10
61.591994
20
17.345540
11
61.679584
21
17.028040
0
LINE
8
Layer 1
10
61.679584
20
17.028040
11
61.591994
21
16.716020
0
LINE
8
Layer 1
10
61.591994
20
16.716020
11
61.362080
21
16.480630
0
LINE
8
Layer 1
10
61.362080
20
16.480630
11
61.050055
21
16.398530
0
LINE
8
Layer 1
10
61.050055
20
16.398530
11
60.738029
21
16.480630
0
LINE
8
Layer 1
10
60.738029
20
16.480630
11
60.502641
21
16.716020
0
LINE
8
Layer 1
10
60.502641
20
16.716020
11
60.420531
21
17.028040
0
LINE
8
Layer 1
10
60.420531
20
17.028040
11
60.502641
21
17.345540
0
LINE
8
Layer 1
10
60.502641
20
17.345540
11
60.738029
21
17.575460
0
LINE
8
Layer 1
10
60.738029
20
17.575460
11
61.050055
21
17.657560
0
LINE
8
Layer 1
10
61.050055
20
17.657560
11
61.050055
21
17.657560
0
LINE
8
Layer 1
10
61.050055
20
17.657560
11
61.356606
21
17.575460
0
LINE
8
Layer 1
10
61.356606
20
17.575460
11
61.591994
21
17.345540
0
LINE
8
Layer 1
10
61.591994
20
17.345540
11
61.679584
21
17.028040
0
LINE
8
Layer 1
10
61.679584
20
17.028040
11
61.591994
21
16.716020
0
LINE
8
Layer 1
10
61.591994
20
16.716020
11
61.362080
21
16.480630
0
LINE
8
Layer 1
10
61.362080
20
16.480630
11
61.050055
21
16.398530
0
LINE
8
Layer 1
10
61.050055
20
16.398530
11
60.738029
21
16.480630
0
LINE
8
Layer 1
10
60.738029
20
16.480630
11
60.502641
21
16.716020
0
LINE
8
Layer 1
10
60.502641
20
16.716020
11
60.420531
21
17.028040
0
LINE
8
Layer 1
10
60.420531
20
17.028040
11
60.502641
21
17.345540
0
LINE
8
Layer 1
10
60.502641
20
17.345540
11
60.738029
21
17.575460
0
LINE
8
Layer 1
10
60.738029
20
17.575460
11
61.050055
21
17.657560
0
LINE
8
Layer 1
10
61.050055
20
17.657560
11
61.050055
21
17.657560
0
LINE
8
Layer 1
10
61.050055
20
24.007560
11
61.356606
21
23.925460
0
LINE
8
Layer 1
10
61.356606
20
23.925460
11
61.591994
21
23.695540
0
LINE
8
Layer 1
10
61.591994
20
23.695540
11
61.679584
21
23.378040
0
LINE
8
Layer 1
10
61.679584
20
23.378040
11
61.591994
21
23.066020
0
LINE
8
Layer 1
10
61.591994
20
23.066020
11
61.362080
21
22.830630
0
LINE
8
Layer 1
10
61.362080
20
22.830630
11
61.050055
21
22.748530
0
LINE
8
Layer 1
10
61.050055
20
22.748530
11
60.738029
21
22.830630
0
LINE
8
Layer 1
10
60.738029
20
22.830630
11
60.502641
21
23.066020
0
LINE
8
Layer 1
10
60.502641
20
23.066020
11
60.420531
21
23.378040
0
LINE
8
Layer 1
10
60.420531
20
23.378040
11
60.502641
21
23.695540
0
LINE
8
Layer 1
10
60.502641
20
23.695540
11
60.738029
21
23.925460
0
LINE
8
Layer 1
10
60.738029
20
23.925460
11
61.050055
21
24.007560
0
LINE
8
Layer 1
10
61.050055
20
24.007560
11
61.050055
21
24.007560
0
LINE
8
Layer 1
10
61.050055
20
24.007560
11
61.356606
21
23.925460
0
LINE
8
Layer 1
10
61.356606
20
23.925460
11
61.591994
21
23.695540
0
LINE
8
Layer 1
10
61.591994
20
23.695540
11
61.679584
21
23.378040
0
LINE
8
Layer 1
10
61.679584
20
23.378040
11
61.591994
21
23.066020
0
LINE
8
Layer 1
10
61.591994
20
23.066020
11
61.362080
21
22.830630
0
LINE
8
Layer 1
10
61.362080
20
22.830630
11
61.050055
21
22.748530
0
LINE
8
Layer 1
10
61.050055
20
22.748530
11
60.738029
21
22.830630
0
LINE
8
Layer 1
10
60.738029
20
22.830630
11
60.502641
21
23.066020
0
LINE
8
Layer 1
10
60.502641
20
23.066020
11
60.420531
21
23.378040
0
LINE
8
Layer 1
10
60.420531
20
23.378040
11
60.502641
21
23.695540
0
LINE
8
Layer 1
10
60.502641
20
23.695540
11
60.738029
21
23.925460
0
LINE
8
Layer 1
10
60.738029
20
23.925460
11
61.050055
21
24.007560
0
LINE
8
Layer 1
10
61.050055
20
24.007560
11
61.050055
21
24.007560
0
LINE
8
Layer 1
10
79.990565
20
20.832560
11
80.297117
21
20.750460
0
LINE
8
Layer 1
10
80.297117
20
20.750460
11
80.532505
21
20.520540
0
LINE
8
Layer 1
10
80.532505
20
20.520540
11
80.620095
21
20.203040
0
LINE
8
Layer 1
10
80.620095
20
20.203040
11
80.532505
21
19.891020
0
LINE
8
Layer 1
10
80.532505
20
19.891020
11
80.302591
21
19.655630
0
LINE
8
Layer 1
10
80.302591
20
19.655630
11
79.990565
21
19.573530
0
LINE
8
Layer 1
10
79.990565
20
19.573530
11
79.678539
21
19.655630
0
LINE
8
Layer 1
10
79.678539
20
19.655630
11
79.443151
21
19.891020
0
LINE
8
Layer 1
10
79.443151
20
19.891020
11
79.361041
21
20.203040
0
LINE
8
Layer 1
10
79.361041
20
20.203040
11
79.443151
21
20.520540
0
LINE
8
Layer 1
10
79.443151
20
20.520540
11
79.678539
21
20.750460
0
LINE
8
Layer 1
10
79.678539
20
20.750460
11
79.990565
21
20.832560
0
LINE
8
Layer 1
10
79.990565
20
20.832560
11
79.990565
21
20.832560
0
LINE
8
Layer 1
10
79.990565
20
20.832560
11
80.297117
21
20.750460
0
LINE
8
Layer 1
10
80.297117
20
20.750460
11
80.532505
21
20.520540
0
LINE
8
Layer 1
10
80.532505
20
20.520540
11
80.620095
21
20.203040
0
LINE
8
Layer 1
10
80.620095
20
20.203040
11
80.532505
21
19.891020
0
LINE
8
Layer 1
10
80.532505
20
19.891020
11
80.302591
21
19.655630
0
LINE
8
Layer 1
10
80.302591
20
19.655630
11
79.990565
21
19.573530
0
LINE
8
Layer 1
10
79.990565
20
19.573530
11
79.678539
21
19.655630
0
LINE
8
Layer 1
10
79.678539
20
19.655630
11
79.443151
21
19.891020
0
LINE
8
Layer 1
10
79.443151
20
19.891020
11
79.361041
21
20.203040
0
LINE
8
Layer 1
10
79.361041
20
20.203040
11
79.443151
21
20.520540
0
LINE
8
Layer 1
10
79.443151
20
20.520540
11
79.678539
21
20.750460
0
LINE
8
Layer 1
10
79.678539
20
20.750460
11
79.990565
21
20.832560
0
LINE
8
Layer 1
10
79.990565
20
20.832560
11
79.990565
21
20.832560
0
LINE
8
Layer 1
10
84.698320
20
20.832560
11
85.004872
21
20.750460
0
LINE
8
Layer 1
10
85.004872
20
20.750460
11
85.240260
21
20.520540
0
LINE
8
Layer 1
10
85.240260
20
20.520540
11
85.327850
21
20.203040
0
LINE
8
Layer 1
10
85.327850
20
20.203040
11
85.240260
21
19.891020
0
LINE
8
Layer 1
10
85.240260
20
19.891020
11
85.010346
21
19.655630
0
LINE
8
Layer 1
10
85.010346
20
19.655630
11
84.698320
21
19.573530
0
LINE
8
Layer 1
10
84.698320
20
19.573530
11
84.386295
21
19.655630
0
LINE
8
Layer 1
10
84.386295
20
19.655630
11
84.150907
21
19.891020
0
LINE
8
Layer 1
10
84.150907
20
19.891020
11
84.068797
21
20.203040
0
LINE
8
Layer 1
10
84.068797
20
20.203040
11
84.150907
21
20.520540
0
LINE
8
Layer 1
10
84.150907
20
20.520540
11
84.386295
21
20.750460
0
LINE
8
Layer 1
10
84.386295
20
20.750460
11
84.698320
21
20.832560
0
LINE
8
Layer 1
10
84.698320
20
20.832560
11
84.698320
21
20.832560
0
LINE
8
Layer 1
10
87.873320
20
20.832560
11
88.179872
21
20.750460
0
LINE
8
Layer 1
10
88.179872
20
20.750460
11
88.415260
21
20.520540
0
LINE
8
Layer 1
10
88.415260
20
20.520540
11
88.502850
21
20.203040
0
LINE
8
Layer 1
10
88.502850
20
20.203040
11
88.415260
21
19.891020
0
LINE
8
Layer 1
10
88.415260
20
19.891020
11
88.185346
21
19.655630
0
LINE
8
Layer 1
10
88.185346
20
19.655630
11
87.873320
21
19.573530
0
LINE
8
Layer 1
10
87.873320
20
19.573530
11
87.561294
21
19.655630
0
LINE
8
Layer 1
10
87.561294
20
19.655630
11
87.325907
21
19.891020
0
LINE
8
Layer 1
10
87.325907
20
19.891020
11
87.243797
21
20.203040
0
LINE
8
Layer 1
10
87.243797
20
20.203040
11
87.325907
21
20.520540
0
LINE
8
Layer 1
10
87.325907
20
20.520540
11
87.561294
21
20.750460
0
LINE
8
Layer 1
10
87.561294
20
20.750460
11
87.873320
21
20.832560
0
LINE
8
Layer 1
10
87.873320
20
20.832560
11
87.873320
21
20.832560
0
LINE
8
Layer 1
10
84.698320
20
20.832560
11
85.004872
21
20.750460
0
LINE
8
Layer 1
10
85.004872
20
20.750460
11
85.240260
21
20.520540
0
LINE
8
Layer 1
10
85.240260
20
20.520540
11
85.327850
21
20.203040
0
LINE
8
Layer 1
10
85.327850
20
20.203040
11
85.240260
21
19.891020
0
LINE
8
Layer 1
10
85.240260
20
19.891020
11
85.010346
21
19.655630
0
LINE
8
Layer 1
10
85.010346
20
19.655630
11
84.698320
21
19.573530
0
LINE
8
Layer 1
10
84.698320
20
19.573530
11
84.386295
21
19.655630
0
LINE
8
Layer 1
10
84.386295
20
19.655630
11
84.150907
21
19.891020
0
LINE
8
Layer 1
10
84.150907
20
19.891020
11
84.068797
21
20.203040
0
LINE
8
Layer 1
10
84.068797
20
20.203040
11
84.150907
21
20.520540
0
LINE
8
Layer 1
10
84.150907
20
20.520540
11
84.386295
21
20.750460
0
LINE
8
Layer 1
10
84.386295
20
20.750460
11
84.698320
21
20.832560
0
LINE
8
Layer 1
10
84.698320
20
20.832560
11
84.698320
21
20.832560
0
LINE
8
Layer 1
10
87.873320
20
20.832560
11
88.179872
21
20.750460
0
LINE
8
Layer 1
10
88.179872
20
20.750460
11
88.415260
21
20.520540
0
LINE
8
Layer 1
10
88.415260
20
20.520540
11
88.502850
21
20.203040
0
LINE
8
Layer 1
10
88.502850
20
20.203040
11
88.415260
21
19.891020
0
LINE
8
Layer 1
10
88.415260
20
19.891020
11
88.185346
21
19.655630
0
LINE
8
Layer 1
10
88.185346
20
19.655630
11
87.873320
21
19.573530
0
LINE
8
Layer 1
10
87.873320
20
19.573530
11
87.561294
21
19.655630
0
LINE
8
Layer 1
10
87.561294
20
19.655630
11
87.325907
21
19.891020
0
LINE
8
Layer 1
10
87.325907
20
19.891020
11
87.243797
21
20.203040
0
LINE
8
Layer 1
10
87.243797
20
20.203040
11
87.325907
21
20.520540
0
LINE
8
Layer 1
10
87.325907
20
20.520540
11
87.561294
21
20.750460
0
LINE
8
Layer 1
10
87.561294
20
20.750460
11
87.873320
21
20.832560
0
LINE
8
Layer 1
10
87.873320
20
20.832560
11
87.873320
21
20.832560
0
LINE
8
Layer 1
10
84.698320
20
24.007560
11
85.004872
21
23.925460
0
LINE
8
Layer 1
10
85.004872
20
23.925460
11
85.240260
21
23.695540
0
LINE
8
Layer 1
10
85.240260
20
23.695540
11
85.327850
21
23.378040
0
LINE
8
Layer 1
10
85.327850
20
23.378040
11
85.240260
21
23.066020
0
LINE
8
Layer 1
10
85.240260
20
23.066020
11
85.010346
21
22.830630
0
LINE
8
Layer 1
10
85.010346
20
22.830630
11
84.698320
21
22.748530
0
LINE
8
Layer 1
10
84.698320
20
22.748530
11
84.386295
21
22.830630
0
LINE
8
Layer 1
10
84.386295
20
22.830630
11
84.150907
21
23.066020
0
LINE
8
Layer 1
10
84.150907
20
23.066020
11
84.068797
21
23.378040
0
LINE
8
Layer 1
10
84.068797
20
23.378040
11
84.150907
21
23.695540
0
LINE
8
Layer 1
10
84.150907
20
23.695540
11
84.386295
21
23.925460
0
LINE
8
Layer 1
10
84.386295
20
23.925460
11
84.698320
21
24.007560
0
LINE
8
Layer 1
10
84.698320
20
24.007560
11
84.698320
21
24.007560
0
LINE
8
Layer 1
10
84.698320
20
24.007560
11
85.004872
21
23.925460
0
LINE
8
Layer 1
10
85.004872
20
23.925460
11
85.240260
21
23.695540
0
LINE
8
Layer 1
10
85.240260
20
23.695540
11
85.327850
21
23.378040
0
LINE
8
Layer 1
10
85.327850
20
23.378040
11
85.240260
21
23.066020
0
LINE
8
Layer 1
10
85.240260
20
23.066020
11
85.010346
21
22.830630
0
LINE
8
Layer 1
10
85.010346
20
22.830630
11
84.698320
21
22.748530
0
LINE
8
Layer 1
10
84.698320
20
22.748530
11
84.386295
21
22.830630
0
LINE
8
Layer 1
10
84.386295
20
22.830630
11
84.150907
21
23.066020
0
LINE
8
Layer 1
10
84.150907
20
23.066020
11
84.068797
21
23.378040
0
LINE
8
Layer 1
10
84.068797
20
23.378040
11
84.150907
21
23.695540
0
LINE
8
Layer 1
10
84.150907
20
23.695540
11
84.386295
21
23.925460
0
LINE
8
Layer 1
10
84.386295
20
23.925460
11
84.698320
21
24.007560
0
LINE
8
Layer 1
10
84.698320
20
24.007560
11
84.698320
21
24.007560
0
LINE
8
Layer 1
10
100.463830
20
17.657560
11
100.770380
21
17.575460
0
LINE
8
Layer 1
10
100.770380
20
17.575460
11
101.005770
21
17.345540
0
LINE
8
Layer 1
10
101.005770
20
17.345540
11
101.093370
21
17.028040
0
LINE
8
Layer 1
10
101.093370
20
17.028040
11
101.005770
21
16.716020
0
LINE
8
Layer 1
10
101.005770
20
16.716020
11
100.775860
21
16.480630
0
LINE
8
Layer 1
10
100.775860
20
16.480630
11
100.463830
21
16.398530
0
LINE
8
Layer 1
10
100.463830
20
16.398530
11
100.151810
21
16.480630
0
LINE
8
Layer 1
10
100.151810
20
16.480630
11
99.916417
21
16.716020
0
LINE
8
Layer 1
10
99.916417
20
16.716020
11
99.834307
21
17.028040
0
LINE
8
Layer 1
10
99.834307
20
17.028040
11
99.916417
21
17.345540
0
LINE
8
Layer 1
10
99.916417
20
17.345540
11
100.151810
21
17.575460
0
LINE
8
Layer 1
10
100.151810
20
17.575460
11
100.463830
21
17.657560
0
LINE
8
Layer 1
10
100.463830
20
17.657560
11
100.463830
21
17.657560
0
LINE
8
Layer 1
10
103.638830
20
17.657560
11
103.945380
21
17.575460
0
LINE
8
Layer 1
10
103.945380
20
17.575460
11
104.180770
21
17.345540
0
LINE
8
Layer 1
10
104.180770
20
17.345540
11
104.268370
21
17.028040
0
LINE
8
Layer 1
10
104.268370
20
17.028040
11
104.180770
21
16.716020
0
LINE
8
Layer 1
10
104.180770
20
16.716020
11
103.950860
21
16.480630
0
LINE
8
Layer 1
10
103.950860
20
16.480630
11
103.638830
21
16.398530
0
LINE
8
Layer 1
10
103.638830
20
16.398530
11
103.326810
21
16.480630
0
LINE
8
Layer 1
10
103.326810
20
16.480630
11
103.091420
21
16.716020
0
LINE
8
Layer 1
10
103.091420
20
16.716020
11
103.009320
21
17.028040
0
LINE
8
Layer 1
10
103.009320
20
17.028040
11
103.091420
21
17.345540
0
LINE
8
Layer 1
10
103.091420
20
17.345540
11
103.326810
21
17.575460
0
LINE
8
Layer 1
10
103.326810
20
17.575460
11
103.638830
21
17.657560
0
LINE
8
Layer 1
10
103.638830
20
17.657560
11
103.638830
21
17.657560
0
LINE
8
Layer 1
10
100.463830
20
17.657560
11
100.770380
21
17.575460
0
LINE
8
Layer 1
10
100.770380
20
17.575460
11
101.005770
21
17.345540
0
LINE
8
Layer 1
10
101.005770
20
17.345540
11
101.093370
21
17.028040
0
LINE
8
Layer 1
10
101.093370
20
17.028040
11
101.005770
21
16.716020
0
LINE
8
Layer 1
10
101.005770
20
16.716020
11
100.775860
21
16.480630
0
LINE
8
Layer 1
10
100.775860
20
16.480630
11
100.463830
21
16.398530
0
LINE
8
Layer 1
10
100.463830
20
16.398530
11
100.151810
21
16.480630
0
LINE
8
Layer 1
10
100.151810
20
16.480630
11
99.916417
21
16.716020
0
LINE
8
Layer 1
10
99.916417
20
16.716020
11
99.834307
21
17.028040
0
LINE
8
Layer 1
10
99.834307
20
17.028040
11
99.916417
21
17.345540
0
LINE
8
Layer 1
10
99.916417
20
17.345540
11
100.151810
21
17.575460
0
LINE
8
Layer 1
10
100.151810
20
17.575460
11
100.463830
21
17.657560
0
LINE
8
Layer 1
10
100.463830
20
17.657560
11
100.463830
21
17.657560
0
LINE
8
Layer 1
10
103.638830
20
17.657560
11
103.945380
21
17.575460
0
LINE
8
Layer 1
10
103.945380
20
17.575460
11
104.180770
21
17.345540
0
LINE
8
Layer 1
10
104.180770
20
17.345540
11
104.268370
21
17.028040
0
LINE
8
Layer 1
10
104.268370
20
17.028040
11
104.180770
21
16.716020
0
LINE
8
Layer 1
10
104.180770
20
16.716020
11
103.950860
21
16.480630
0
LINE
8
Layer 1
10
103.950860
20
16.480630
11
103.638830
21
16.398530
0
LINE
8
Layer 1
10
103.638830
20
16.398530
11
103.326810
21
16.480630
0
LINE
8
Layer 1
10
103.326810
20
16.480630
11
103.091420
21
16.716020
0
LINE
8
Layer 1
10
103.091420
20
16.716020
11
103.009320
21
17.028040
0
LINE
8
Layer 1
10
103.009320
20
17.028040
11
103.091420
21
17.345540
0
LINE
8
Layer 1
10
103.091420
20
17.345540
11
103.326810
21
17.575460
0
LINE
8
Layer 1
10
103.326810
20
17.575460
11
103.638830
21
17.657560
0
LINE
8
Layer 1
10
103.638830
20
17.657560
11
103.638830
21
17.657560
0
LINE
8
Layer 1
10
100.463830
20
20.832560
11
100.770380
21
20.750460
0
LINE
8
Layer 1
10
100.770380
20
20.750460
11
101.005770
21
20.520540
0
LINE
8
Layer 1
10
101.005770
20
20.520540
11
101.093370
21
20.203040
0
LINE
8
Layer 1
10
101.093370
20
20.203040
11
101.005770
21
19.891020
0
LINE
8
Layer 1
10
101.005770
20
19.891020
11
100.775860
21
19.655630
0
LINE
8
Layer 1
10
100.775860
20
19.655630
11
100.463830
21
19.573530
0
LINE
8
Layer 1
10
100.463830
20
19.573530
11
100.151810
21
19.655630
0
LINE
8
Layer 1
10
100.151810
20
19.655630
11
99.916417
21
19.891020
0
LINE
8
Layer 1
10
99.916417
20
19.891020
11
99.834307
21
20.203040
0
LINE
8
Layer 1
10
99.834307
20
20.203040
11
99.916417
21
20.520540
0
LINE
8
Layer 1
10
99.916417
20
20.520540
11
100.151810
21
20.750460
0
LINE
8
Layer 1
10
100.151810
20
20.750460
11
100.463830
21
20.832560
0
LINE
8
Layer 1
10
100.463830
20
20.832560
11
100.463830
21
20.832560
0
LINE
8
Layer 1
10
103.638830
20
20.832560
11
103.945380
21
20.750460
0
LINE
8
Layer 1
10
103.945380
20
20.750460
11
104.180770
21
20.520540
0
LINE
8
Layer 1
10
104.180770
20
20.520540
11
104.268370
21
20.203040
0
LINE
8
Layer 1
10
104.268370
20
20.203040
11
104.180770
21
19.891020
0
LINE
8
Layer 1
10
104.180770
20
19.891020
11
103.950860
21
19.655630
0
LINE
8
Layer 1
10
103.950860
20
19.655630
11
103.638830
21
19.573530
0
LINE
8
Layer 1
10
103.638830
20
19.573530
11
103.326810
21
19.655630
0
LINE
8
Layer 1
10
103.326810
20
19.655630
11
103.091420
21
19.891020
0
LINE
8
Layer 1
10
103.091420
20
19.891020
11
103.009320
21
20.203040
0
LINE
8
Layer 1
10
103.009320
20
20.203040
11
103.091420
21
20.520540
0
LINE
8
Layer 1
10
103.091420
20
20.520540
11
103.326810
21
20.750460
0
LINE
8
Layer 1
10
103.326810
20
20.750460
11
103.638830
21
20.832560
0
LINE
8
Layer 1
10
103.638830
20
20.832560
11
103.638830
21
20.832560
0
LINE
8
Layer 1
10
100.463830
20
20.832560
11
100.770380
21
20.750460
0
LINE
8
Layer 1
10
100.770380
20
20.750460
11
101.005770
21
20.520540
0
LINE
8
Layer 1
10
101.005770
20
20.520540
11
101.093370
21
20.203040
0
LINE
8
Layer 1
10
101.093370
20
20.203040
11
101.005770
21
19.891020
0
LINE
8
Layer 1
10
101.005770
20
19.891020
11
100.775860
21
19.655630
0
LINE
8
Layer 1
10
100.775860
20
19.655630
11
100.463830
21
19.573530
0
LINE
8
Layer 1
10
100.463830
20
19.573530
11
100.151810
21
19.655630
0
LINE
8
Layer 1
10
100.151810
20
19.655630
11
99.916417
21
19.891020
0
LINE
8
Layer 1
10
99.916417
20
19.891020
11
99.834307
21
20.203040
0
LINE
8
Layer 1
10
99.834307
20
20.203040
11
99.916417
21
20.520540
0
LINE
8
Layer 1
10
99.916417
20
20.520540
11
100.151810
21
20.750460
0
LINE
8
Layer 1
10
100.151810
20
20.750460
11
100.463830
21
20.832560
0
LINE
8
Layer 1
10
100.463830
20
20.832560
11
100.463830
21
20.832560
0
LINE
8
Layer 1
10
103.638830
20
20.832560
11
103.945380
21
20.750460
0
LINE
8
Layer 1
10
103.945380
20
20.750460
11
104.180770
21
20.520540
0
LINE
8
Layer 1
10
104.180770
20
20.520540
11
104.268370
21
20.203040
0
LINE
8
Layer 1
10
104.268370
20
20.203040
11
104.180770
21
19.891020
0
LINE
8
Layer 1
10
104.180770
20
19.891020
11
103.950860
21
19.655630
0
LINE
8
Layer 1
10
103.950860
20
19.655630
11
103.638830
21
19.573530
0
LINE
8
Layer 1
10
103.638830
20
19.573530
11
103.326810
21
19.655630
0
LINE
8
Layer 1
10
103.326810
20
19.655630
11
103.091420
21
19.891020
0
LINE
8
Layer 1
10
103.091420
20
19.891020
11
103.009320
21
20.203040
0
LINE
8
Layer 1
10
103.009320
20
20.203040
11
103.091420
21
20.520540
0
LINE
8
Layer 1
10
103.091420
20
20.520540
11
103.326810
21
20.750460
0
LINE
8
Layer 1
10
103.326810
20
20.750460
11
103.638830
21
20.832560
0
LINE
8
Layer 1
10
103.638830
20
20.832560
11
103.638830
21
20.832560
0
LINE
8
Layer 1
10
100.463830
20
24.007560
11
100.770380
21
23.925460
0
LINE
8
Layer 1
10
100.770380
20
23.925460
11
101.005770
21
23.695540
0
LINE
8
Layer 1
10
101.005770
20
23.695540
11
101.093370
21
23.378040
0
LINE
8
Layer 1
10
101.093370
20
23.378040
11
101.005770
21
23.066020
0
LINE
8
Layer 1
10
101.005770
20
23.066020
11
100.775860
21
22.830630
0
LINE
8
Layer 1
10
100.775860
20
22.830630
11
100.463830
21
22.748530
0
LINE
8
Layer 1
10
100.463830
20
22.748530
11
100.151810
21
22.830630
0
LINE
8
Layer 1
10
100.151810
20
22.830630
11
99.916417
21
23.066020
0
LINE
8
Layer 1
10
99.916417
20
23.066020
11
99.834307
21
23.378040
0
LINE
8
Layer 1
10
99.834307
20
23.378040
11
99.916417
21
23.695540
0
LINE
8
Layer 1
10
99.916417
20
23.695540
11
100.151810
21
23.925460
0
LINE
8
Layer 1
10
100.151810
20
23.925460
11
100.463830
21
24.007560
0
LINE
8
Layer 1
10
100.463830
20
24.007560
11
100.463830
21
24.007560
0
LINE
8
Layer 1
10
103.638830
20
24.007560
11
103.945380
21
23.925460
0
LINE
8
Layer 1
10
103.945380
20
23.925460
11
104.180770
21
23.695540
0
LINE
8
Layer 1
10
104.180770
20
23.695540
11
104.268370
21
23.378040
0
LINE
8
Layer 1
10
104.268370
20
23.378040
11
104.180770
21
23.066020
0
LINE
8
Layer 1
10
104.180770
20
23.066020
11
103.950860
21
22.830630
0
LINE
8
Layer 1
10
103.950860
20
22.830630
11
103.638830
21
22.748530
0
LINE
8
Layer 1
10
103.638830
20
22.748530
11
103.326810
21
22.830630
0
LINE
8
Layer 1
10
103.326810
20
22.830630
11
103.091420
21
23.066020
0
LINE
8
Layer 1
10
103.091420
20
23.066020
11
103.009320
21
23.378040
0
LINE
8
Layer 1
10
103.009320
20
23.378040
11
103.091420
21
23.695540
0
LINE
8
Layer 1
10
103.091420
20
23.695540
11
103.326810
21
23.925460
0
LINE
8
Layer 1
10
103.326810
20
23.925460
11
103.638830
21
24.007560
0
LINE
8
Layer 1
10
103.638830
20
24.007560
11
103.638830
21
24.007560
0
LINE
8
Layer 1
10
100.463830
20
24.007560
11
100.770380
21
23.925460
0
LINE
8
Layer 1
10
100.770380
20
23.925460
11
101.005770
21
23.695540
0
LINE
8
Layer 1
10
101.005770
20
23.695540
11
101.093370
21
23.378040
0
LINE
8
Layer 1
10
101.093370
20
23.378040
11
101.005770
21
23.066020
0
LINE
8
Layer 1
10
101.005770
20
23.066020
11
100.775860
21
22.830630
0
LINE
8
Layer 1
10
100.775860
20
22.830630
11
100.463830
21
22.748530
0
LINE
8
Layer 1
10
100.463830
20
22.748530
11
100.151810
21
22.830630
0
LINE
8
Layer 1
10
100.151810
20
22.830630
11
99.916417
21
23.066020
0
LINE
8
Layer 1
10
99.916417
20
23.066020
11
99.834307
21
23.378040
0
LINE
8
Layer 1
10
99.834307
20
23.378040
11
99.916417
21
23.695540
0
LINE
8
Layer 1
10
99.916417
20
23.695540
11
100.151810
21
23.925460
0
LINE
8
Layer 1
10
100.151810
20
23.925460
11
100.463830
21
24.007560
0
LINE
8
Layer 1
10
100.463830
20
24.007560
11
100.463830
21
24.007560
0
LINE
8
Layer 1
10
103.638830
20
24.007560
11
103.945380
21
23.925460
0
LINE
8
Layer 1
10
103.945380
20
23.925460
11
104.180770
21
23.695540
0
LINE
8
Layer 1
10
104.180770
20
23.695540
11
104.268370
21
23.378040
0
LINE
8
Layer 1
10
104.268370
20
23.378040
11
104.180770
21
23.066020
0
LINE
8
Layer 1
10
104.180770
20
23.066020
11
103.950860
21
22.830630
0
LINE
8
Layer 1
10
103.950860
20
22.830630
11
103.638830
21
22.748530
0
LINE
8
Layer 1
10
103.638830
20
22.748530
11
103.326810
21
22.830630
0
LINE
8
Layer 1
10
103.326810
20
22.830630
11
103.091420
21
23.066020
0
LINE
8
Layer 1
10
103.091420
20
23.066020
11
103.009320
21
23.378040
0
LINE
8
Layer 1
10
103.009320
20
23.378040
11
103.091420
21
23.695540
0
LINE
8
Layer 1
10
103.091420
20
23.695540
11
103.326810
21
23.925460
0
LINE
8
Layer 1
10
103.326810
20
23.925460
11
103.638830
21
24.007560
0
LINE
8
Layer 1
10
103.638830
20
24.007560
11
103.638830
21
24.007560
0
LINE
8
Layer 1
10
119.404340
20
17.657560
11
119.710890
21
17.575460
0
LINE
8
Layer 1
10
119.710890
20
17.575460
11
119.946280
21
17.345540
0
LINE
8
Layer 1
10
119.946280
20
17.345540
11
120.033880
21
17.028040
0
LINE
8
Layer 1
10
120.033880
20
17.028040
11
119.946280
21
16.716020
0
LINE
8
Layer 1
10
119.946280
20
16.716020
11
119.716370
21
16.480630
0
LINE
8
Layer 1
10
119.716370
20
16.480630
11
119.404340
21
16.398530
0
LINE
8
Layer 1
10
119.404340
20
16.398530
11
119.092320
21
16.480630
0
LINE
8
Layer 1
10
119.092320
20
16.480630
11
118.856930
21
16.716020
0
LINE
8
Layer 1
10
118.856930
20
16.716020
11
118.774830
21
17.028040
0
LINE
8
Layer 1
10
118.774830
20
17.028040
11
118.856930
21
17.345540
0
LINE
8
Layer 1
10
118.856930
20
17.345540
11
119.092320
21
17.575460
0
LINE
8
Layer 1
10
119.092320
20
17.575460
11
119.404340
21
17.657560
0
LINE
8
Layer 1
10
119.404340
20
17.657560
11
119.404340
21
17.657560
0
LINE
8
Layer 1
10
119.404340
20
17.657560
11
119.710890
21
17.575460
0
LINE
8
Layer 1
10
119.710890
20
17.575460
11
119.946280
21
17.345540
0
LINE
8
Layer 1
10
119.946280
20
17.345540
11
120.033880
21
17.028040
0
LINE
8
Layer 1
10
120.033880
20
17.028040
11
119.946280
21
16.716020
0
LINE
8
Layer 1
10
119.946280
20
16.716020
11
119.716370
21
16.480630
0
LINE
8
Layer 1
10
119.716370
20
16.480630
11
119.404340
21
16.398530
0
LINE
8
Layer 1
10
119.404340
20
16.398530
11
119.092320
21
16.480630
0
LINE
8
Layer 1
10
119.092320
20
16.480630
11
118.856930
21
16.716020
0
LINE
8
Layer 1
10
118.856930
20
16.716020
11
118.774830
21
17.028040
0
LINE
8
Layer 1
10
118.774830
20
17.028040
11
118.856930
21
17.345540
0
LINE
8
Layer 1
10
118.856930
20
17.345540
11
119.092320
21
17.575460
0
LINE
8
Layer 1
10
119.092320
20
17.575460
11
119.404340
21
17.657560
0
LINE
8
Layer 1
10
119.404340
20
17.657560
11
119.404340
21
17.657560
0
LINE
8
Layer 1
10
124.112090
20
17.657560
11
124.418640
21
17.575460
0
LINE
8
Layer 1
10
124.418640
20
17.575460
11
124.654030
21
17.345540
0
LINE
8
Layer 1
10
124.654030
20
17.345540
11
124.741630
21
17.028040
0
LINE
8
Layer 1
10
124.741630
20
17.028040
11
124.654030
21
16.716020
0
LINE
8
Layer 1
10
124.654030
20
16.716020
11
124.424120
21
16.480630
0
LINE
8
Layer 1
10
124.424120
20
16.480630
11
124.112090
21
16.398530
0
LINE
8
Layer 1
10
124.112090
20
16.398530
11
123.800070
21
16.480630
0
LINE
8
Layer 1
10
123.800070
20
16.480630
11
123.564680
21
16.716020
0
LINE
8
Layer 1
10
123.564680
20
16.716020
11
123.482580
21
17.028040
0
LINE
8
Layer 1
10
123.482580
20
17.028040
11
123.564680
21
17.345540
0
LINE
8
Layer 1
10
123.564680
20
17.345540
11
123.800070
21
17.575460
0
LINE
8
Layer 1
10
123.800070
20
17.575460
11
124.112090
21
17.657560
0
LINE
8
Layer 1
10
124.112090
20
17.657560
11
124.112090
21
17.657560
0
LINE
8
Layer 1
10
124.112090
20
17.657560
11
124.418640
21
17.575460
0
LINE
8
Layer 1
10
124.418640
20
17.575460
11
124.654030
21
17.345540
0
LINE
8
Layer 1
10
124.654030
20
17.345540
11
124.741630
21
17.028040
0
LINE
8
Layer 1
10
124.741630
20
17.028040
11
124.654030
21
16.716020
0
LINE
8
Layer 1
10
124.654030
20
16.716020
11
124.424120
21
16.480630
0
LINE
8
Layer 1
10
124.424120
20
16.480630
11
124.112090
21
16.398530
0
LINE
8
Layer 1
10
124.112090
20
16.398530
11
123.800070
21
16.480630
0
LINE
8
Layer 1
10
123.800070
20
16.480630
11
123.564680
21
16.716020
0
LINE
8
Layer 1
10
123.564680
20
16.716020
11
123.482580
21
17.028040
0
LINE
8
Layer 1
10
123.482580
20
17.028040
11
123.564680
21
17.345540
0
LINE
8
Layer 1
10
123.564680
20
17.345540
11
123.800070
21
17.575460
0
LINE
8
Layer 1
10
123.800070
20
17.575460
11
124.112090
21
17.657560
0
LINE
8
Layer 1
10
124.112090
20
17.657560
11
124.112090
21
17.657560
0
LINE
8
Layer 1
10
127.287090
20
20.832560
11
127.593640
21
20.750460
0
LINE
8
Layer 1
10
127.593640
20
20.750460
11
127.829030
21
20.520540
0
LINE
8
Layer 1
10
127.829030
20
20.520540
11
127.916630
21
20.203040
0
LINE
8
Layer 1
10
127.916630
20
20.203040
11
127.829030
21
19.891020
0
LINE
8
Layer 1
10
127.829030
20
19.891020
11
127.599120
21
19.655630
0
LINE
8
Layer 1
10
127.599120
20
19.655630
11
127.287090
21
19.573530
0
LINE
8
Layer 1
10
127.287090
20
19.573530
11
126.975070
21
19.655630
0
LINE
8
Layer 1
10
126.975070
20
19.655630
11
126.739680
21
19.891020
0
LINE
8
Layer 1
10
126.739680
20
19.891020
11
126.657580
21
20.203040
0
LINE
8
Layer 1
10
126.657580
20
20.203040
11
126.739680
21
20.520540
0
LINE
8
Layer 1
10
126.739680
20
20.520540
11
126.975070
21
20.750460
0
LINE
8
Layer 1
10
126.975070
20
20.750460
11
127.287090
21
20.832560
0
LINE
8
Layer 1
10
127.287090
20
20.832560
11
127.287090
21
20.832560
0
LINE
8
Layer 1
10
127.287090
20
20.832560
11
127.593640
21
20.750460
0
LINE
8
Layer 1
10
127.593640
20
20.750460
11
127.829030
21
20.520540
0
LINE
8
Layer 1
10
127.829030
20
20.520540
11
127.916630
21
20.203040
0
LINE
8
Layer 1
10
127.916630
20
20.203040
11
127.829030
21
19.891020
0
LINE
8
Layer 1
10
127.829030
20
19.891020
11
127.599120
21
19.655630
0
LINE
8
Layer 1
10
127.599120
20
19.655630
11
127.287090
21
19.573530
0
LINE
8
Layer 1
10
127.287090
20
19.573530
11
126.975070
21
19.655630
0
LINE
8
Layer 1
10
126.975070
20
19.655630
11
126.739680
21
19.891020
0
LINE
8
Layer 1
10
126.739680
20
19.891020
11
126.657580
21
20.203040
0
LINE
8
Layer 1
10
126.657580
20
20.203040
11
126.739680
21
20.520540
0
LINE
8
Layer 1
10
126.739680
20
20.520540
11
126.975070
21
20.750460
0
LINE
8
Layer 1
10
126.975070
20
20.750460
11
127.287090
21
20.832560
0
LINE
8
Layer 1
10
127.287090
20
20.832560
11
127.287090
21
20.832560
0
LINE
8
Layer 1
10
124.112090
20
24.007560
11
124.418640
21
23.925460
0
LINE
8
Layer 1
10
124.418640
20
23.925460
11
124.654030
21
23.695540
0
LINE
8
Layer 1
10
124.654030
20
23.695540
11
124.741630
21
23.378040
0
LINE
8
Layer 1
10
124.741630
20
23.378040
11
124.654030
21
23.066020
0
LINE
8
Layer 1
10
124.654030
20
23.066020
11
124.424120
21
22.830630
0
LINE
8
Layer 1
10
124.424120
20
22.830630
11
124.112090
21
22.748530
0
LINE
8
Layer 1
10
124.112090
20
22.748530
11
123.800070
21
22.830630
0
LINE
8
Layer 1
10
123.800070
20
22.830630
11
123.564680
21
23.066020
0
LINE
8
Layer 1
10
123.564680
20
23.066020
11
123.482580
21
23.378040
0
LINE
8
Layer 1
10
123.482580
20
23.378040
11
123.564680
21
23.695540
0
LINE
8
Layer 1
10
123.564680
20
23.695540
11
123.800070
21
23.925460
0
LINE
8
Layer 1
10
123.800070
20
23.925460
11
124.112090
21
24.007560
0
LINE
8
Layer 1
10
124.112090
20
24.007560
11
124.112090
21
24.007560
0
LINE
8
Layer 1
10
127.287090
20
24.007560
11
127.593640
21
23.925460
0
LINE
8
Layer 1
10
127.593640
20
23.925460
11
127.829030
21
23.695540
0
LINE
8
Layer 1
10
127.829030
20
23.695540
11
127.916630
21
23.378040
0
LINE
8
Layer 1
10
127.916630
20
23.378040
11
127.829030
21
23.066020
0
LINE
8
Layer 1
10
127.829030
20
23.066020
11
127.599120
21
22.830630
0
LINE
8
Layer 1
10
127.599120
20
22.830630
11
127.287090
21
22.748530
0
LINE
8
Layer 1
10
127.287090
20
22.748530
11
126.975070
21
22.830630
0
LINE
8
Layer 1
10
126.975070
20
22.830630
11
126.739680
21
23.066020
0
LINE
8
Layer 1
10
126.739680
20
23.066020
11
126.657580
21
23.378040
0
LINE
8
Layer 1
10
126.657580
20
23.378040
11
126.739680
21
23.695540
0
LINE
8
Layer 1
10
126.739680
20
23.695540
11
126.975070
21
23.925460
0
LINE
8
Layer 1
10
126.975070
20
23.925460
11
127.287090
21
24.007560
0
LINE
8
Layer 1
10
127.287090
20
24.007560
11
127.287090
21
24.007560
0
LINE
8
Layer 1
10
124.112090
20
24.007560
11
124.418640
21
23.925460
0
LINE
8
Layer 1
10
124.418640
20
23.925460
11
124.654030
21
23.695540
0
LINE
8
Layer 1
10
124.654030
20
23.695540
11
124.741630
21
23.378040
0
LINE
8
Layer 1
10
124.741630
20
23.378040
11
124.654030
21
23.066020
0
LINE
8
Layer 1
10
124.654030
20
23.066020
11
124.424120
21
22.830630
0
LINE
8
Layer 1
10
124.424120
20
22.830630
11
124.112090
21
22.748530
0
LINE
8
Layer 1
10
124.112090
20
22.748530
11
123.800070
21
22.830630
0
LINE
8
Layer 1
10
123.800070
20
22.830630
11
123.564680
21
23.066020
0
LINE
8
Layer 1
10
123.564680
20
23.066020
11
123.482580
21
23.378040
0
LINE
8
Layer 1
10
123.482580
20
23.378040
11
123.564680
21
23.695540
0
LINE
8
Layer 1
10
123.564680
20
23.695540
11
123.800070
21
23.925460
0
LINE
8
Layer 1
10
123.800070
20
23.925460
11
124.112090
21
24.007560
0
LINE
8
Layer 1
10
124.112090
20
24.007560
11
124.112090
21
24.007560
0
LINE
8
Layer 1
10
127.287090
20
24.007560
11
127.593640
21
23.925460
0
LINE
8
Layer 1
10
127.593640
20
23.925460
11
127.829030
21
23.695540
0
LINE
8
Layer 1
10
127.829030
20
23.695540
11
127.916630
21
23.378040
0
LINE
8
Layer 1
10
127.916630
20
23.378040
11
127.829030
21
23.066020
0
LINE
8
Layer 1
10
127.829030
20
23.066020
11
127.599120
21
22.830630
0
LINE
8
Layer 1
10
127.599120
20
22.830630
11
127.287090
21
22.748530
0
LINE
8
Layer 1
10
127.287090
20
22.748530
11
126.975070
21
22.830630
0
LINE
8
Layer 1
10
126.975070
20
22.830630
11
126.739680
21
23.066020
0
LINE
8
Layer 1
10
126.739680
20
23.066020
11
126.657580
21
23.378040
0
LINE
8
Layer 1
10
126.657580
20
23.378040
11
126.739680
21
23.695540
0
LINE
8
Layer 1
10
126.739680
20
23.695540
11
126.975070
21
23.925460
0
LINE
8
Layer 1
10
126.975070
20
23.925460
11
127.287090
21
24.007560
0
LINE
8
Layer 1
10
127.287090
20
24.007560
11
127.287090
21
24.007560
0
LINE
8
Layer 1
10
131.994850
20
17.657560
11
132.301400
21
17.575460
0
LINE
8
Layer 1
10
132.301400
20
17.575460
11
132.536790
21
17.345540
0
LINE
8
Layer 1
10
132.536790
20
17.345540
11
132.624390
21
17.028040
0
LINE
8
Layer 1
10
132.624390
20
17.028040
11
132.536790
21
16.716020
0
LINE
8
Layer 1
10
132.536790
20
16.716020
11
132.306880
21
16.480630
0
LINE
8
Layer 1
10
132.306880
20
16.480630
11
131.994850
21
16.398530
0
LINE
8
Layer 1
10
131.994850
20
16.398530
11
131.682830
21
16.480630
0
LINE
8
Layer 1
10
131.682830
20
16.480630
11
131.447440
21
16.716020
0
LINE
8
Layer 1
10
131.447440
20
16.716020
11
131.365340
21
17.028040
0
LINE
8
Layer 1
10
131.365340
20
17.028040
11
131.447440
21
17.345540
0
LINE
8
Layer 1
10
131.447440
20
17.345540
11
131.682830
21
17.575460
0
LINE
8
Layer 1
10
131.682830
20
17.575460
11
131.994850
21
17.657560
0
LINE
8
Layer 1
10
131.994850
20
17.657560
11
131.994850
21
17.657560
0
LINE
8
Layer 1
10
131.994850
20
17.657560
11
132.301400
21
17.575460
0
LINE
8
Layer 1
10
132.301400
20
17.575460
11
132.536790
21
17.345540
0
LINE
8
Layer 1
10
132.536790
20
17.345540
11
132.624390
21
17.028040
0
LINE
8
Layer 1
10
132.624390
20
17.028040
11
132.536790
21
16.716020
0
LINE
8
Layer 1
10
132.536790
20
16.716020
11
132.306880
21
16.480630
0
LINE
8
Layer 1
10
132.306880
20
16.480630
11
131.994850
21
16.398530
0
LINE
8
Layer 1
10
131.994850
20
16.398530
11
131.682830
21
16.480630
0
LINE
8
Layer 1
10
131.682830
20
16.480630
11
131.447440
21
16.716020
0
LINE
8
Layer 1
10
131.447440
20
16.716020
11
131.365340
21
17.028040
0
LINE
8
Layer 1
10
131.365340
20
17.028040
11
131.447440
21
17.345540
0
LINE
8
Layer 1
10
131.447440
20
17.345540
11
131.682830
21
17.575460
0
LINE
8
Layer 1
10
131.682830
20
17.575460
11
131.994850
21
17.657560
0
LINE
8
Layer 1
10
131.994850
20
17.657560
11
131.994850
21
17.657560
0
LINE
8
Layer 1
10
135.169850
20
20.832560
11
135.476400
21
20.750460
0
LINE
8
Layer 1
10
135.476400
20
20.750460
11
135.711790
21
20.520540
0
LINE
8
Layer 1
10
135.711790
20
20.520540
11
135.799390
21
20.203040
0
LINE
8
Layer 1
10
135.799390
20
20.203040
11
135.711790
21
19.891020
0
LINE
8
Layer 1
10
135.711790
20
19.891020
11
135.481880
21
19.655630
0
LINE
8
Layer 1
10
135.481880
20
19.655630
11
135.169850
21
19.573530
0
LINE
8
Layer 1
10
135.169850
20
19.573530
11
134.857830
21
19.655630
0
LINE
8
Layer 1
10
134.857830
20
19.655630
11
134.622440
21
19.891020
0
LINE
8
Layer 1
10
134.622440
20
19.891020
11
134.540340
21
20.203040
0
LINE
8
Layer 1
10
134.540340
20
20.203040
11
134.622440
21
20.520540
0
LINE
8
Layer 1
10
134.622440
20
20.520540
11
134.857830
21
20.750460
0
LINE
8
Layer 1
10
134.857830
20
20.750460
11
135.169850
21
20.832560
0
LINE
8
Layer 1
10
135.169850
20
20.832560
11
135.169850
21
20.832560
0
LINE
8
Layer 1
10
135.169850
20
20.832560
11
135.476400
21
20.750460
0
LINE
8
Layer 1
10
135.476400
20
20.750460
11
135.711790
21
20.520540
0
LINE
8
Layer 1
10
135.711790
20
20.520540
11
135.799390
21
20.203040
0
LINE
8
Layer 1
10
135.799390
20
20.203040
11
135.711790
21
19.891020
0
LINE
8
Layer 1
10
135.711790
20
19.891020
11
135.481880
21
19.655630
0
LINE
8
Layer 1
10
135.481880
20
19.655630
11
135.169850
21
19.573530
0
LINE
8
Layer 1
10
135.169850
20
19.573530
11
134.857830
21
19.655630
0
LINE
8
Layer 1
10
134.857830
20
19.655630
11
134.622440
21
19.891020
0
LINE
8
Layer 1
10
134.622440
20
19.891020
11
134.540340
21
20.203040
0
LINE
8
Layer 1
10
134.540340
20
20.203040
11
134.622440
21
20.520540
0
LINE
8
Layer 1
10
134.622440
20
20.520540
11
134.857830
21
20.750460
0
LINE
8
Layer 1
10
134.857830
20
20.750460
11
135.169850
21
20.832560
0
LINE
8
Layer 1
10
135.169850
20
20.832560
11
135.169850
21
20.832560
0
LINE
8
Layer 1
10
131.994850
20
24.007560
11
132.301400
21
23.925460
0
LINE
8
Layer 1
10
132.301400
20
23.925460
11
132.536790
21
23.695540
0
LINE
8
Layer 1
10
132.536790
20
23.695540
11
132.624390
21
23.378040
0
LINE
8
Layer 1
10
132.624390
20
23.378040
11
132.536790
21
23.066020
0
LINE
8
Layer 1
10
132.536790
20
23.066020
11
132.306880
21
22.830630
0
LINE
8
Layer 1
10
132.306880
20
22.830630
11
131.994850
21
22.748530
0
LINE
8
Layer 1
10
131.994850
20
22.748530
11
131.682830
21
22.830630
0
LINE
8
Layer 1
10
131.682830
20
22.830630
11
131.447440
21
23.066020
0
LINE
8
Layer 1
10
131.447440
20
23.066020
11
131.365340
21
23.378040
0
LINE
8
Layer 1
10
131.365340
20
23.378040
11
131.447440
21
23.695540
0
LINE
8
Layer 1
10
131.447440
20
23.695540
11
131.682830
21
23.925460
0
LINE
8
Layer 1
10
131.682830
20
23.925460
11
131.994850
21
24.007560
0
LINE
8
Layer 1
10
131.994850
20
24.007560
11
131.994850
21
24.007560
0
LINE
8
Layer 1
10
131.994850
20
24.007560
11
132.301400
21
23.925460
0
LINE
8
Layer 1
10
132.301400
20
23.925460
11
132.536790
21
23.695540
0
LINE
8
Layer 1
10
132.536790
20
23.695540
11
132.624390
21
23.378040
0
LINE
8
Layer 1
10
132.624390
20
23.378040
11
132.536790
21
23.066020
0
LINE
8
Layer 1
10
132.536790
20
23.066020
11
132.306880
21
22.830630
0
LINE
8
Layer 1
10
132.306880
20
22.830630
11
131.994850
21
22.748530
0
LINE
8
Layer 1
10
131.994850
20
22.748530
11
131.682830
21
22.830630
0
LINE
8
Layer 1
10
131.682830
20
22.830630
11
131.447440
21
23.066020
0
LINE
8
Layer 1
10
131.447440
20
23.066020
11
131.365340
21
23.378040
0
LINE
8
Layer 1
10
131.365340
20
23.378040
11
131.447440
21
23.695540
0
LINE
8
Layer 1
10
131.447440
20
23.695540
11
131.682830
21
23.925460
0
LINE
8
Layer 1
10
131.682830
20
23.925460
11
131.994850
21
24.007560
0
LINE
8
Layer 1
10
131.994850
20
24.007560
11
131.994850
21
24.007560
0
LINE
8
Layer 1
10
139.877610
20
17.657560
11
140.184160
21
17.575460
0
LINE
8
Layer 1
10
140.184160
20
17.575460
11
140.419550
21
17.345540
0
LINE
8
Layer 1
10
140.419550
20
17.345540
11
140.507150
21
17.028040
0
LINE
8
Layer 1
10
140.507150
20
17.028040
11
140.419550
21
16.716020
0
LINE
8
Layer 1
10
140.419550
20
16.716020
11
140.189640
21
16.480630
0
LINE
8
Layer 1
10
140.189640
20
16.480630
11
139.877610
21
16.398530
0
LINE
8
Layer 1
10
139.877610
20
16.398530
11
139.565590
21
16.480630
0
LINE
8
Layer 1
10
139.565590
20
16.480630
11
139.330200
21
16.716020
0
LINE
8
Layer 1
10
139.330200
20
16.716020
11
139.248100
21
17.028040
0
LINE
8
Layer 1
10
139.248100
20
17.028040
11
139.330200
21
17.345540
0
LINE
8
Layer 1
10
139.330200
20
17.345540
11
139.565590
21
17.575460
0
LINE
8
Layer 1
10
139.565590
20
17.575460
11
139.877610
21
17.657560
0
LINE
8
Layer 1
10
139.877610
20
17.657560
11
139.877610
21
17.657560
0
LINE
8
Layer 1
10
139.877610
20
17.657560
11
140.184160
21
17.575460
0
LINE
8
Layer 1
10
140.184160
20
17.575460
11
140.419550
21
17.345540
0
LINE
8
Layer 1
10
140.419550
20
17.345540
11
140.507150
21
17.028040
0
LINE
8
Layer 1
10
140.507150
20
17.028040
11
140.419550
21
16.716020
0
LINE
8
Layer 1
10
140.419550
20
16.716020
11
140.189640
21
16.480630
0
LINE
8
Layer 1
10
140.189640
20
16.480630
11
139.877610
21
16.398530
0
LINE
8
Layer 1
10
139.877610
20
16.398530
11
139.565590
21
16.480630
0
LINE
8
Layer 1
10
139.565590
20
16.480630
11
139.330200
21
16.716020
0
LINE
8
Layer 1
10
139.330200
20
16.716020
11
139.248100
21
17.028040
0
LINE
8
Layer 1
10
139.248100
20
17.028040
11
139.330200
21
17.345540
0
LINE
8
Layer 1
10
139.330200
20
17.345540
11
139.565590
21
17.575460
0
LINE
8
Layer 1
10
139.565590
20
17.575460
11
139.877610
21
17.657560
0
LINE
8
Layer 1
10
139.877610
20
17.657560
11
139.877610
21
17.657560
0
LINE
8
Layer 1
10
139.877610
20
20.832560
11
140.184160
21
20.750460
0
LINE
8
Layer 1
10
140.184160
20
20.750460
11
140.419550
21
20.520540
0
LINE
8
Layer 1
10
140.419550
20
20.520540
11
140.507150
21
20.203040
0
LINE
8
Layer 1
10
140.507150
20
20.203040
11
140.419550
21
19.891020
0
LINE
8
Layer 1
10
140.419550
20
19.891020
11
140.189640
21
19.655630
0
LINE
8
Layer 1
10
140.189640
20
19.655630
11
139.877610
21
19.573530
0
LINE
8
Layer 1
10
139.877610
20
19.573530
11
139.565590
21
19.655630
0
LINE
8
Layer 1
10
139.565590
20
19.655630
11
139.330200
21
19.891020
0
LINE
8
Layer 1
10
139.330200
20
19.891020
11
139.248100
21
20.203040
0
LINE
8
Layer 1
10
139.248100
20
20.203040
11
139.330200
21
20.520540
0
LINE
8
Layer 1
10
139.330200
20
20.520540
11
139.565590
21
20.750460
0
LINE
8
Layer 1
10
139.565590
20
20.750460
11
139.877610
21
20.832560
0
LINE
8
Layer 1
10
139.877610
20
20.832560
11
139.877610
21
20.832560
0
LINE
8
Layer 1
10
143.052610
20
20.832560
11
143.359160
21
20.750460
0
LINE
8
Layer 1
10
143.359160
20
20.750460
11
143.594550
21
20.520540
0
LINE
8
Layer 1
10
143.594550
20
20.520540
11
143.682150
21
20.203040
0
LINE
8
Layer 1
10
143.682150
20
20.203040
11
143.594550
21
19.891020
0
LINE
8
Layer 1
10
143.594550
20
19.891020
11
143.364640
21
19.655630
0
LINE
8
Layer 1
10
143.364640
20
19.655630
11
143.052610
21
19.573530
0
LINE
8
Layer 1
10
143.052610
20
19.573530
11
142.740590
21
19.655630
0
LINE
8
Layer 1
10
142.740590
20
19.655630
11
142.505200
21
19.891020
0
LINE
8
Layer 1
10
142.505200
20
19.891020
11
142.423100
21
20.203040
0
LINE
8
Layer 1
10
142.423100
20
20.203040
11
142.505200
21
20.520540
0
LINE
8
Layer 1
10
142.505200
20
20.520540
11
142.740590
21
20.750460
0
LINE
8
Layer 1
10
142.740590
20
20.750460
11
143.052610
21
20.832560
0
LINE
8
Layer 1
10
143.052610
20
20.832560
11
143.052610
21
20.832560
0
LINE
8
Layer 1
10
139.877610
20
20.832560
11
140.184160
21
20.750460
0
LINE
8
Layer 1
10
140.184160
20
20.750460
11
140.419550
21
20.520540
0
LINE
8
Layer 1
10
140.419550
20
20.520540
11
140.507150
21
20.203040
0
LINE
8
Layer 1
10
140.507150
20
20.203040
11
140.419550
21
19.891020
0
LINE
8
Layer 1
10
140.419550
20
19.891020
11
140.189640
21
19.655630
0
LINE
8
Layer 1
10
140.189640
20
19.655630
11
139.877610
21
19.573530
0
LINE
8
Layer 1
10
139.877610
20
19.573530
11
139.565590
21
19.655630
0
LINE
8
Layer 1
10
139.565590
20
19.655630
11
139.330200
21
19.891020
0
LINE
8
Layer 1
10
139.330200
20
19.891020
11
139.248100
21
20.203040
0
LINE
8
Layer 1
10
139.248100
20
20.203040
11
139.330200
21
20.520540
0
LINE
8
Layer 1
10
139.330200
20
20.520540
11
139.565590
21
20.750460
0
LINE
8
Layer 1
10
139.565590
20
20.750460
11
139.877610
21
20.832560
0
LINE
8
Layer 1
10
139.877610
20
20.832560
11
139.877610
21
20.832560
0
LINE
8
Layer 1
10
143.052610
20
20.832560
11
143.359160
21
20.750460
0
LINE
8
Layer 1
10
143.359160
20
20.750460
11
143.594550
21
20.520540
0
LINE
8
Layer 1
10
143.594550
20
20.520540
11
143.682150
21
20.203040
0
LINE
8
Layer 1
10
143.682150
20
20.203040
11
143.594550
21
19.891020
0
LINE
8
Layer 1
10
143.594550
20
19.891020
11
143.364640
21
19.655630
0
LINE
8
Layer 1
10
143.364640
20
19.655630
11
143.052610
21
19.573530
0
LINE
8
Layer 1
10
143.052610
20
19.573530
11
142.740590
21
19.655630
0
LINE
8
Layer 1
10
142.740590
20
19.655630
11
142.505200
21
19.891020
0
LINE
8
Layer 1
10
142.505200
20
19.891020
11
142.423100
21
20.203040
0
LINE
8
Layer 1
10
142.423100
20
20.203040
11
142.505200
21
20.520540
0
LINE
8
Layer 1
10
142.505200
20
20.520540
11
142.740590
21
20.750460
0
LINE
8
Layer 1
10
142.740590
20
20.750460
11
143.052610
21
20.832560
0
LINE
8
Layer 1
10
143.052610
20
20.832560
11
143.052610
21
20.832560
0
LINE
8
Layer 1
10
143.052610
20
24.007560
11
143.359160
21
23.925460
0
LINE
8
Layer 1
10
143.359160
20
23.925460
11
143.594550
21
23.695540
0
LINE
8
Layer 1
10
143.594550
20
23.695540
11
143.682150
21
23.378040
0
LINE
8
Layer 1
10
143.682150
20
23.378040
11
143.594550
21
23.066020
0
LINE
8
Layer 1
10
143.594550
20
23.066020
11
143.364640
21
22.830630
0
LINE
8
Layer 1
10
143.364640
20
22.830630
11
143.052610
21
22.748530
0
LINE
8
Layer 1
10
143.052610
20
22.748530
11
142.740590
21
22.830630
0
LINE
8
Layer 1
10
142.740590
20
22.830630
11
142.505200
21
23.066020
0
LINE
8
Layer 1
10
142.505200
20
23.066020
11
142.423100
21
23.378040
0
LINE
8
Layer 1
10
142.423100
20
23.378040
11
142.505200
21
23.695540
0
LINE
8
Layer 1
10
142.505200
20
23.695540
11
142.740590
21
23.925460
0
LINE
8
Layer 1
10
142.740590
20
23.925460
11
143.052610
21
24.007560
0
LINE
8
Layer 1
10
143.052610
20
24.007560
11
143.052610
21
24.007560
0
LINE
8
Layer 1
10
143.052610
20
24.007560
11
143.359160
21
23.925460
0
LINE
8
Layer 1
10
143.359160
20
23.925460
11
143.594550
21
23.695540
0
LINE
8
Layer 1
10
143.594550
20
23.695540
11
143.682150
21
23.378040
0
LINE
8
Layer 1
10
143.682150
20
23.378040
11
143.594550
21
23.066020
0
LINE
8
Layer 1
10
143.594550
20
23.066020
11
143.364640
21
22.830630
0
LINE
8
Layer 1
10
143.364640
20
22.830630
11
143.052610
21
22.748530
0
LINE
8
Layer 1
10
143.052610
20
22.748530
11
142.740590
21
22.830630
0
LINE
8
Layer 1
10
142.740590
20
22.830630
11
142.505200
21
23.066020
0
LINE
8
Layer 1
10
142.505200
20
23.066020
11
142.423100
21
23.378040
0
LINE
8
Layer 1
10
142.423100
20
23.378040
11
142.505200
21
23.695540
0
LINE
8
Layer 1
10
142.505200
20
23.695540
11
142.740590
21
23.925460
0
LINE
8
Layer 1
10
142.740590
20
23.925460
11
143.052610
21
24.007560
0
LINE
8
Layer 1
10
143.052610
20
24.007560
11
143.052610
21
24.007560
0
LINE
8
Layer 1
10
150.935360
20
20.832560
11
151.241910
21
20.750460
0
LINE
8
Layer 1
10
151.241910
20
20.750460
11
151.477300
21
20.520540
0
LINE
8
Layer 1
10
151.477300
20
20.520540
11
151.564900
21
20.203040
0
LINE
8
Layer 1
10
151.564900
20
20.203040
11
151.477300
21
19.891020
0
LINE
8
Layer 1
10
151.477300
20
19.891020
11
151.247390
21
19.655630
0
LINE
8
Layer 1
10
151.247390
20
19.655630
11
150.935360
21
19.573530
0
LINE
8
Layer 1
10
150.935360
20
19.573530
11
150.623340
21
19.655630
0
LINE
8
Layer 1
10
150.623340
20
19.655630
11
150.387950
21
19.891020
0
LINE
8
Layer 1
10
150.387950
20
19.891020
11
150.305850
21
20.203040
0
LINE
8
Layer 1
10
150.305850
20
20.203040
11
150.387950
21
20.520540
0
LINE
8
Layer 1
10
150.387950
20
20.520540
11
150.623340
21
20.750460
0
LINE
8
Layer 1
10
150.623340
20
20.750460
11
150.935360
21
20.832560
0
LINE
8
Layer 1
10
150.935360
20
20.832560
11
150.935360
21
20.832560
0
LINE
8
Layer 1
10
150.935360
20
20.832560
11
151.241910
21
20.750460
0
LINE
8
Layer 1
10
151.241910
20
20.750460
11
151.477300
21
20.520540
0
LINE
8
Layer 1
10
151.477300
20
20.520540
11
151.564900
21
20.203040
0
LINE
8
Layer 1
10
151.564900
20
20.203040
11
151.477300
21
19.891020
0
LINE
8
Layer 1
10
151.477300
20
19.891020
11
151.247390
21
19.655630
0
LINE
8
Layer 1
10
151.247390
20
19.655630
11
150.935360
21
19.573530
0
LINE
8
Layer 1
10
150.935360
20
19.573530
11
150.623340
21
19.655630
0
LINE
8
Layer 1
10
150.623340
20
19.655630
11
150.387950
21
19.891020
0
LINE
8
Layer 1
10
150.387950
20
19.891020
11
150.305850
21
20.203040
0
LINE
8
Layer 1
10
150.305850
20
20.203040
11
150.387950
21
20.520540
0
LINE
8
Layer 1
10
150.387950
20
20.520540
11
150.623340
21
20.750460
0
LINE
8
Layer 1
10
150.623340
20
20.750460
11
150.935360
21
20.832560
0
LINE
8
Layer 1
10
150.935360
20
20.832560
11
150.935360
21
20.832560
0
LINE
8
Layer 1
10
147.760360
20
24.007560
11
148.066910
21
23.925460
0
LINE
8
Layer 1
10
148.066910
20
23.925460
11
148.302300
21
23.695540
0
LINE
8
Layer 1
10
148.302300
20
23.695540
11
148.389900
21
23.378040
0
LINE
8
Layer 1
10
148.389900
20
23.378040
11
148.302300
21
23.066020
0
LINE
8
Layer 1
10
148.302300
20
23.066020
11
148.072390
21
22.830630
0
LINE
8
Layer 1
10
148.072390
20
22.830630
11
147.760360
21
22.748530
0
LINE
8
Layer 1
10
147.760360
20
22.748530
11
147.448340
21
22.830630
0
LINE
8
Layer 1
10
147.448340
20
22.830630
11
147.212950
21
23.066020
0
LINE
8
Layer 1
10
147.212950
20
23.066020
11
147.130850
21
23.378040
0
LINE
8
Layer 1
10
147.130850
20
23.378040
11
147.212950
21
23.695540
0
LINE
8
Layer 1
10
147.212950
20
23.695540
11
147.448340
21
23.925460
0
LINE
8
Layer 1
10
147.448340
20
23.925460
11
147.760360
21
24.007560
0
LINE
8
Layer 1
10
147.760360
20
24.007560
11
147.760360
21
24.007560
0
LINE
8
Layer 1
10
147.760360
20
24.007560
11
148.066910
21
23.925460
0
LINE
8
Layer 1
10
148.066910
20
23.925460
11
148.302300
21
23.695540
0
LINE
8
Layer 1
10
148.302300
20
23.695540
11
148.389900
21
23.378040
0
LINE
8
Layer 1
10
148.389900
20
23.378040
11
148.302300
21
23.066020
0
LINE
8
Layer 1
10
148.302300
20
23.066020
11
148.072390
21
22.830630
0
LINE
8
Layer 1
10
148.072390
20
22.830630
11
147.760360
21
22.748530
0
LINE
8
Layer 1
10
147.760360
20
22.748530
11
147.448340
21
22.830630
0
LINE
8
Layer 1
10
147.448340
20
22.830630
11
147.212950
21
23.066020
0
LINE
8
Layer 1
10
147.212950
20
23.066020
11
147.130850
21
23.378040
0
LINE
8
Layer 1
10
147.130850
20
23.378040
11
147.212950
21
23.695540
0
LINE
8
Layer 1
10
147.212950
20
23.695540
11
147.448340
21
23.925460
0
LINE
8
Layer 1
10
147.448340
20
23.925460
11
147.760360
21
24.007560
0
LINE
8
Layer 1
10
147.760360
20
24.007560
11
147.760360
21
24.007560
0
LINE
8
Layer 1
10
155.643110
20
17.657560
11
155.949670
21
17.575460
0
LINE
8
Layer 1
10
155.949670
20
17.575460
11
156.185050
21
17.345540
0
LINE
8
Layer 1
10
156.185050
20
17.345540
11
156.272650
21
17.028040
0
LINE
8
Layer 1
10
156.272650
20
17.028040
11
156.185050
21
16.716020
0
LINE
8
Layer 1
10
156.185050
20
16.716020
11
155.955140
21
16.480630
0
LINE
8
Layer 1
10
155.955140
20
16.480630
11
155.643110
21
16.398530
0
LINE
8
Layer 1
10
155.643110
20
16.398530
11
155.331090
21
16.480630
0
LINE
8
Layer 1
10
155.331090
20
16.480630
11
155.095700
21
16.716020
0
LINE
8
Layer 1
10
155.095700
20
16.716020
11
155.013600
21
17.028040
0
LINE
8
Layer 1
10
155.013600
20
17.028040
11
155.095700
21
17.345540
0
LINE
8
Layer 1
10
155.095700
20
17.345540
11
155.331090
21
17.575460
0
LINE
8
Layer 1
10
155.331090
20
17.575460
11
155.643110
21
17.657560
0
LINE
8
Layer 1
10
155.643110
20
17.657560
11
155.643110
21
17.657560
0
LINE
8
Layer 1
10
155.643110
20
17.657560
11
155.949670
21
17.575460
0
LINE
8
Layer 1
10
155.949670
20
17.575460
11
156.185050
21
17.345540
0
LINE
8
Layer 1
10
156.185050
20
17.345540
11
156.272650
21
17.028040
0
LINE
8
Layer 1
10
156.272650
20
17.028040
11
156.185050
21
16.716020
0
LINE
8
Layer 1
10
156.185050
20
16.716020
11
155.955140
21
16.480630
0
LINE
8
Layer 1
10
155.955140
20
16.480630
11
155.643110
21
16.398530
0
LINE
8
Layer 1
10
155.643110
20
16.398530
11
155.331090
21
16.480630
0
LINE
8
Layer 1
10
155.331090
20
16.480630
11
155.095700
21
16.716020
0
LINE
8
Layer 1
10
155.095700
20
16.716020
11
155.013600
21
17.028040
0
LINE
8
Layer 1
10
155.013600
20
17.028040
11
155.095700
21
17.345540
0
LINE
8
Layer 1
10
155.095700
20
17.345540
11
155.331090
21
17.575460
0
LINE
8
Layer 1
10
155.331090
20
17.575460
11
155.643110
21
17.657560
0
LINE
8
Layer 1
10
155.643110
20
17.657560
11
155.643110
21
17.657560
0
LINE
8
Layer 1
10
155.643110
20
20.832560
11
155.949670
21
20.750460
0
LINE
8
Layer 1
10
155.949670
20
20.750460
11
156.185050
21
20.520540
0
LINE
8
Layer 1
10
156.185050
20
20.520540
11
156.272650
21
20.203040
0
LINE
8
Layer 1
10
156.272650
20
20.203040
11
156.185050
21
19.891020
0
LINE
8
Layer 1
10
156.185050
20
19.891020
11
155.955140
21
19.655630
0
LINE
8
Layer 1
10
155.955140
20
19.655630
11
155.643110
21
19.573530
0
LINE
8
Layer 1
10
155.643110
20
19.573530
11
155.331090
21
19.655630
0
LINE
8
Layer 1
10
155.331090
20
19.655630
11
155.095700
21
19.891020
0
LINE
8
Layer 1
10
155.095700
20
19.891020
11
155.013600
21
20.203040
0
LINE
8
Layer 1
10
155.013600
20
20.203040
11
155.095700
21
20.520540
0
LINE
8
Layer 1
10
155.095700
20
20.520540
11
155.331090
21
20.750460
0
LINE
8
Layer 1
10
155.331090
20
20.750460
11
155.643110
21
20.832560
0
LINE
8
Layer 1
10
155.643110
20
20.832560
11
155.643110
21
20.832560
0
LINE
8
Layer 1
10
155.643110
20
20.832560
11
155.949670
21
20.750460
0
LINE
8
Layer 1
10
155.949670
20
20.750460
11
156.185050
21
20.520540
0
LINE
8
Layer 1
10
156.185050
20
20.520540
11
156.272650
21
20.203040
0
LINE
8
Layer 1
10
156.272650
20
20.203040
11
156.185050
21
19.891020
0
LINE
8
Layer 1
10
156.185050
20
19.891020
11
155.955140
21
19.655630
0
LINE
8
Layer 1
10
155.955140
20
19.655630
11
155.643110
21
19.573530
0
LINE
8
Layer 1
10
155.643110
20
19.573530
11
155.331090
21
19.655630
0
LINE
8
Layer 1
10
155.331090
20
19.655630
11
155.095700
21
19.891020
0
LINE
8
Layer 1
10
155.095700
20
19.891020
11
155.013600
21
20.203040
0
LINE
8
Layer 1
10
155.013600
20
20.203040
11
155.095700
21
20.520540
0
LINE
8
Layer 1
10
155.095700
20
20.520540
11
155.331090
21
20.750460
0
LINE
8
Layer 1
10
155.331090
20
20.750460
11
155.643110
21
20.832560
0
LINE
8
Layer 1
10
155.643110
20
20.832560
11
155.643110
21
20.832560
0
LINE
8
Layer 1
10
158.818110
20
24.007560
11
159.124670
21
23.925460
0
LINE
8
Layer 1
10
159.124670
20
23.925460
11
159.360050
21
23.695540
0
LINE
8
Layer 1
10
159.360050
20
23.695540
11
159.447650
21
23.378040
0
LINE
8
Layer 1
10
159.447650
20
23.378040
11
159.360050
21
23.066020
0
LINE
8
Layer 1
10
159.360050
20
23.066020
11
159.130140
21
22.830630
0
LINE
8
Layer 1
10
159.130140
20
22.830630
11
158.818110
21
22.748530
0
LINE
8
Layer 1
10
158.818110
20
22.748530
11
158.506090
21
22.830630
0
LINE
8
Layer 1
10
158.506090
20
22.830630
11
158.270700
21
23.066020
0
LINE
8
Layer 1
10
158.270700
20
23.066020
11
158.188600
21
23.378040
0
LINE
8
Layer 1
10
158.188600
20
23.378040
11
158.270700
21
23.695540
0
LINE
8
Layer 1
10
158.270700
20
23.695540
11
158.506090
21
23.925460
0
LINE
8
Layer 1
10
158.506090
20
23.925460
11
158.818110
21
24.007560
0
LINE
8
Layer 1
10
158.818110
20
24.007560
11
158.818110
21
24.007560
0
LINE
8
Layer 1
10
158.818110
20
24.007560
11
159.124670
21
23.925460
0
LINE
8
Layer 1
10
159.124670
20
23.925460
11
159.360050
21
23.695540
0
LINE
8
Layer 1
10
159.360050
20
23.695540
11
159.447650
21
23.378040
0
LINE
8
Layer 1
10
159.447650
20
23.378040
11
159.360050
21
23.066020
0
LINE
8
Layer 1
10
159.360050
20
23.066020
11
159.130140
21
22.830630
0
LINE
8
Layer 1
10
159.130140
20
22.830630
11
158.818110
21
22.748530
0
LINE
8
Layer 1
10
158.818110
20
22.748530
11
158.506090
21
22.830630
0
LINE
8
Layer 1
10
158.506090
20
22.830630
11
158.270700
21
23.066020
0
LINE
8
Layer 1
10
158.270700
20
23.066020
11
158.188600
21
23.378040
0
LINE
8
Layer 1
10
158.188600
20
23.378040
11
158.270700
21
23.695540
0
LINE
8
Layer 1
10
158.270700
20
23.695540
11
158.506090
21
23.925460
0
LINE
8
Layer 1
10
158.506090
20
23.925460
11
158.818110
21
24.007560
0
LINE
8
Layer 1
10
158.818110
20
24.007560
11
158.818110
21
24.007560
 0 
ENDSEC
 0 
EOF